<svg width="62" height="63" viewBox="0 0 62 63" fill="none" xmlns="http://www.w3.org/2000/svg">
<g clip-path="url(#clip0_1740_2322)">
<path d="M39.4766 50.797H37.4669C36.9624 49.7208 36.7113 48.1317 36.622 46.4932C34.8588 46.9543 32.9771 47.188 30.9841 47.188C29.0161 47.188 27.1561 46.9599 25.4103 46.5107C25.3281 48.1421 25.0809 49.7248 24.5727 50.797H22.5234C20.1864 50.797 18.2852 52.6982 18.2852 55.0352V55.6632H43.7148V55.0352C43.7148 52.6982 41.8136 50.797 39.4766 50.797Z" fill="white"/>
<path d="M46.1367 59.2959H15.8633C14.8601 59.2959 14.0469 60.1092 14.0469 61.1123C14.0469 62.1154 14.8601 62.9287 15.8633 62.9287H46.1367C47.1399 62.9287 47.9531 62.1154 47.9531 61.1123C47.9531 60.1092 47.1399 59.2959 46.1367 59.2959Z" fill="white"/>
<path d="M7.99219 4.56152H54.0078C55.011 4.56152 55.8242 3.74826 55.8242 2.74512C55.8242 1.74198 55.011 0.928711 54.0078 0.928711H7.99219C6.98905 0.928711 6.17578 1.74198 6.17578 2.74512C6.17578 3.74826 6.98905 4.56152 7.99219 4.56152Z" fill="white"/>
<path d="M50.9497 11.4324C51.0293 10.389 51.116 9.25415 51.2162 8.19434H10.6348C10.7203 9.14589 10.7957 10.1495 10.8654 11.0773C11.2997 16.8557 11.8943 24.7692 14.4654 31.2945C17.6708 39.4299 23.2285 43.5548 30.9842 43.5548C38.6726 43.5548 44.1812 39.4956 47.3573 31.4901C49.9092 25.0574 50.5106 17.1825 50.9497 11.4324ZM39.6332 22.204L37.1485 25.4433L37.2605 29.5297C37.277 30.1288 36.9968 30.6975 36.5117 31.0496C36.1972 31.2778 35.8227 31.3959 35.4447 31.3959C35.2394 31.3959 35.0332 31.3611 34.8346 31.2903L31 29.9226L27.1653 31.2903C26.601 31.4916 25.9733 31.4015 25.4881 31.0496C25.003 30.6975 24.7229 30.1288 24.7393 29.5297L24.8513 25.4433L22.3667 22.204C22.0026 21.7293 21.8955 21.1057 22.0807 20.5367C22.2657 19.9677 22.7192 19.5263 23.2929 19.3566L27.1981 18.202L29.5002 14.8323C29.8388 14.3369 30.4001 14.0406 31.0001 14.0406C31.6001 14.0406 32.1614 14.3369 32.4999 14.8323L34.8021 18.202L38.7072 19.3566C39.2808 19.5263 39.7343 19.9677 39.9195 20.5367C40.1044 21.1057 39.9973 21.7293 39.6332 22.204Z" fill="white"/>
<path d="M32.1671 20.7854L31 19.0771L29.8329 20.7854C29.5971 21.1308 29.2493 21.384 28.8482 21.5027L26.8583 22.0909L28.1261 23.7437C28.3798 24.0743 28.5121 24.4824 28.5005 24.899L28.4435 26.9775L30.3897 26.2834C30.587 26.2131 30.7935 26.1778 30.9999 26.1778C31.2064 26.1778 31.4129 26.2131 31.6101 26.2834L33.5563 26.9775L33.4993 24.899C33.4878 24.4824 33.62 24.0743 33.8737 23.7437L35.1416 22.0909L33.1519 21.5027C32.7508 21.3841 32.403 21.1308 32.1671 20.7854Z" fill="white"/>
<path d="M9.05551 25.7793C5.92451 21.8326 4.02213 16.9805 3.68634 11.8809H7.28282C7.26938 11.7025 7.25606 11.5256 7.24298 11.3508C7.18013 10.5158 7.09161 9.3391 6.99086 8.24805H1.81641C0.813266 8.24805 0 9.06131 0 10.0645V10.2515C0 19.1466 4.18125 27.5799 11.2179 32.9561C11.1734 32.8467 11.129 32.7373 11.0854 32.6266C10.2184 30.4262 9.56205 28.1089 9.05551 25.7793Z" fill="white"/>
<path d="M60.1836 8.24805H54.8621C54.7427 9.47473 54.6388 10.834 54.5721 11.7075C54.5678 11.7646 54.5633 11.8233 54.5589 11.8809H58.3127C57.9681 17.0696 56.0015 21.9995 52.7699 25.9805C52.2626 28.3156 51.605 30.6353 50.7341 32.8303C50.706 32.901 50.6773 32.9707 50.6488 33.0409C57.7658 27.6694 62 19.1889 62 10.2364V10.0645C62 9.06131 61.1867 8.24805 60.1836 8.24805Z" fill="white"/>
</g>
<defs>
<clipPath id="clip0_1740_2322">
<rect width="62" height="62" fill="white" transform="translate(0 0.928711)"/>
</clipPath>
</defs>
</svg>
