<svg width="20" height="21" viewBox="0 0 20 21" fill="none" xmlns="http://www.w3.org/2000/svg">
<path d="M15 1.56841C16.5083 2.43926 17.7629 3.68893 18.6398 5.19371C19.5167 6.69848 19.9854 8.40618 19.9994 10.1477C20.0135 11.8893 19.5725 13.6044 18.72 15.1231C17.8676 16.6418 16.6332 17.9116 15.1392 18.8067C13.6452 19.7018 11.9434 20.1912 10.2021 20.2265C8.46083 20.2617 6.74055 19.8416 5.21155 19.0077C3.68256 18.1737 2.39787 16.9549 1.48467 15.4719C0.571462 13.9889 0.0614093 12.2931 0.00500011 10.5524L0 10.2284L0.00500011 9.90441C0.0610032 8.1774 0.563548 6.49437 1.46364 5.0194C2.36373 3.54443 3.63065 2.32786 5.14089 1.48829C6.65113 0.648721 8.35315 0.214805 10.081 0.228846C11.8089 0.242887 13.5036 0.704406 15 1.56841ZM13.707 7.52141C13.5348 7.34923 13.3057 7.2458 13.0627 7.23052C12.8197 7.21524 12.5794 7.28916 12.387 7.43841L12.293 7.52141L9 10.8134L7.707 9.52141L7.613 9.43841C7.42058 9.28926 7.18037 9.21543 6.9374 9.23076C6.69444 9.24609 6.46541 9.34953 6.29326 9.52167C6.12112 9.69382 6.01768 9.92285 6.00235 10.1658C5.98702 10.4088 6.06086 10.649 6.21 10.8414L6.293 10.9354L8.293 12.9354L8.387 13.0184C8.56237 13.1545 8.77803 13.2283 9 13.2283C9.22197 13.2283 9.43763 13.1545 9.613 13.0184L9.707 12.9354L13.707 8.93541L13.79 8.84141C13.9393 8.649 14.0132 8.40875 13.9979 8.16573C13.9826 7.9227 13.8792 7.6936 13.707 7.52141Z" fill="#FF0000"/>
</svg>
