<svg width="56" height="57" viewBox="0 0 56 57" fill="none" xmlns="http://www.w3.org/2000/svg">
<g clip-path="url(#clip0_1740_2191)">
<path d="M56 42.4956V15.3618C56 7.39064 49.5381 0.928711 41.5669 0.928711H14.4331C6.46193 0.928711 0 7.39064 0 15.3618V42.4956C0 50.4668 6.46193 56.9287 14.4331 56.9287H41.5669C49.5381 56.9287 56 50.4668 56 42.4956Z" fill="#FF0000"/>
<path opacity="0.25" d="M56 27.5506V42.4912C56 46.3203 54.4789 49.9925 51.7714 52.7001C49.0638 55.4076 45.3916 56.9287 41.5625 56.9287H37.1711L13.183 32.9406L20.8677 27.0464L42.6114 14.1631L56 27.5506Z" fill="black"/>
<path d="M38.5471 33.6162C37.7264 33.6151 36.9147 33.787 36.1648 34.1205C35.415 34.4541 34.7438 34.9419 34.195 35.5521L23.2028 30.056C23.3487 29.3113 23.3487 28.5454 23.2028 27.8007L34.195 22.3046C35.1438 23.3568 36.4418 24.0295 37.8485 24.1979C39.2552 24.3664 40.6753 24.0192 41.8457 23.2207C43.0161 22.4223 43.8573 21.2267 44.2137 19.8554C44.57 18.4842 44.4172 17.0303 43.7836 15.7631C43.15 14.4959 42.0785 13.5013 40.7677 12.9636C39.4569 12.4259 37.9957 12.3815 36.6547 12.8388C35.3137 13.296 34.1839 14.2238 33.4747 15.4502C32.7654 16.6767 32.5247 18.1187 32.7972 19.509L21.805 25.0051C21.0118 24.1252 19.9704 23.5064 18.8184 23.2304C17.6663 22.9544 16.4576 23.0341 15.3518 23.459C14.2459 23.8839 13.2948 24.634 12.624 25.6104C11.9531 26.5868 11.594 27.7437 11.594 28.9284C11.594 30.113 11.9531 31.2699 12.624 32.2463C13.2948 33.2227 14.2459 33.9729 15.3518 34.3978C16.4576 34.8227 17.6663 34.9023 18.8184 34.6263C19.9704 34.3503 21.0118 33.7315 21.805 32.8516L32.7972 38.3477C32.5649 39.5324 32.7041 40.7599 33.1959 41.8623C33.6877 42.9648 34.508 43.8885 35.5447 44.507C36.5814 45.1256 37.7839 45.4088 38.9877 45.318C40.1914 45.2272 41.3378 44.7668 42.27 43.9997C43.2021 43.2326 43.8746 42.1963 44.1954 41.0325C44.5162 39.8687 44.4698 38.6343 44.0623 37.4979C43.6549 36.3615 42.9064 35.3787 41.9192 34.6839C40.932 33.9891 39.7543 33.6162 38.5471 33.6162Z" fill="white"/>
</g>
<defs>
<clipPath id="clip0_1740_2191">
<rect width="56" height="56" fill="white" transform="translate(0 0.928711)"/>
</clipPath>
</defs>
</svg>
