<svg width="1235" height="1050" viewBox="0 0 1235 1050" fill="none" xmlns="http://www.w3.org/2000/svg">
<g clip-path="url(#clip0_10_36)">
<mask id="mask0_10_36" style="mask-type:luminance" maskUnits="userSpaceOnUse" x="1057" y="0" width="178" height="135">
<path d="M1234.08 20.6672L1072.36 0.141602L1057.93 113.829L1219.65 134.354L1234.08 20.6672Z" fill="white"/>
</mask>
<g mask="url(#mask0_10_36)">
<g opacity="0.8">
<path d="M1228.25 37.944C1227.75 34.399 1226.34 31.0448 1224.15 28.2155C1221.96 25.3861 1219.06 23.1804 1215.75 21.8178C1203.64 16.8033 1153.14 10.394 1153.14 10.394C1153.14 10.394 1102.63 4.0879 1089.65 5.91737C1086.1 6.40999 1082.75 7.82273 1079.92 10.0149C1077.09 12.2071 1074.88 15.1022 1073.52 18.4119C1066.89 40.2243 1061.11 74.0085 1063.77 96.0925C1064.26 99.6375 1065.67 102.992 1067.86 105.821C1070.05 108.65 1072.95 110.856 1076.26 112.219C1088.37 117.233 1138.87 123.643 1138.87 123.643C1138.87 123.643 1189.37 130.052 1202.35 128.223C1205.9 127.73 1209.25 126.318 1212.08 124.125C1214.91 121.933 1217.12 119.038 1218.48 115.729C1225.32 93.9112 1230.86 60.1175 1228.25 37.944Z" fill="#FF0000"/>
<path d="M1126.8 89.2363L1171.77 70.2887L1132.96 40.707L1126.8 89.2363Z" fill="white"/>
</g>
</g>
<path d="M-5.46191 1049.1C270.22 1049.1 493.705 825.611 493.705 549.929C493.705 274.247 270.22 50.762 -5.46191 50.762C-281.144 50.762 -504.629 274.247 -504.629 549.929C-504.629 825.611 -281.144 1049.1 -5.46191 1049.1Z" stroke="#F6F6F6" stroke-width="1.66667"/>
<path d="M-5.46201 1007.5C247.246 1007.5 452.107 802.637 452.107 549.929C452.107 297.221 247.246 92.36 -5.46201 92.36C-258.17 92.36 -463.031 297.221 -463.031 549.929C-463.031 802.637 -258.17 1007.5 -5.46201 1007.5Z" stroke="#F6F6F6" stroke-width="1.52778"/>
<path d="M-5.46176 965.831C224.235 965.831 410.441 779.625 410.441 549.928C410.441 320.231 224.235 134.025 -5.46176 134.025C-235.159 134.025 -421.365 320.231 -421.365 549.928C-421.365 779.625 -235.159 965.831 -5.46176 965.831Z" stroke="#F6F6F6" stroke-width="1.52778"/>
<path d="M-5.46188 924.165C201.223 924.165 368.774 756.614 368.774 549.929C368.774 343.244 201.223 175.693 -5.46188 175.693C-212.147 175.693 -379.698 343.244 -379.698 549.929C-379.698 756.614 -212.147 924.165 -5.46188 924.165Z" stroke="#F6F6F6" stroke-width="1.52778"/>
<path d="M-5.46201 882.498C178.211 882.498 327.107 733.602 327.107 549.929C327.107 366.256 178.211 217.36 -5.46201 217.36C-189.135 217.36 -338.031 366.256 -338.031 549.929C-338.031 733.602 -189.135 882.498 -5.46201 882.498Z" stroke="#F6F6F6" stroke-width="1.52778"/>
<path d="M-5.46188 840.831C155.199 840.831 285.441 710.589 285.441 549.928C285.441 389.267 155.199 259.025 -5.46188 259.025C-166.123 259.025 -296.365 389.267 -296.365 549.928C-296.365 710.589 -166.123 840.831 -5.46188 840.831Z" stroke="#F6F6F6" stroke-width="1.52778"/>
<path d="M-5.46188 799.165C132.187 799.165 243.774 687.578 243.774 549.929C243.774 412.28 132.187 300.693 -5.46188 300.693C-143.111 300.693 -254.698 412.28 -254.698 549.929C-254.698 687.578 -143.111 799.165 -5.46188 799.165Z" stroke="#F6F6F6" stroke-width="1.52778"/>
<path d="M-5.46201 757.498C109.175 757.498 202.107 664.566 202.107 549.929C202.107 435.292 109.175 342.36 -5.46201 342.36C-120.099 342.36 -213.031 435.292 -213.031 549.929C-213.031 664.566 -120.099 757.498 -5.46201 757.498Z" stroke="#F6F6F6" stroke-width="1.52778"/>
</g>
<defs>
<clipPath id="clip0_10_36">
<rect width="1235" height="1050" fill="white"/>
</clipPath>
</defs>
</svg>
