<svg width="1362" height="1048" viewBox="0 0 1362 1048" fill="none" xmlns="http://www.w3.org/2000/svg">
<g clip-path="url(#clip0_15_79)">
<circle cx="-14.0532" cy="546.819" r="499.167" transform="rotate(179.329 -14.0532 546.819)" stroke="#F6F6F6" stroke-width="1.66667"/>
<circle cx="-14.053" cy="546.818" r="457.569" transform="rotate(179.329 -14.053 546.818)" stroke="#F6F6F6" stroke-width="1.52778"/>
<circle cx="-14.0533" cy="546.819" r="415.903" transform="rotate(179.329 -14.0533 546.819)" stroke="#F6F6F6" stroke-width="1.52778"/>
<circle cx="-14.0531" cy="546.819" r="374.236" transform="rotate(179.329 -14.0531 546.819)" stroke="#F6F6F6" stroke-width="1.52778"/>
<circle cx="-14.0529" cy="546.818" r="332.569" transform="rotate(179.329 -14.0529 546.818)" stroke="#F6F6F6" stroke-width="1.52778"/>
<circle cx="-14.0532" cy="546.819" r="290.903" transform="rotate(179.329 -14.0532 546.819)" stroke="#F6F6F6" stroke-width="1.52778"/>
<circle cx="-14.053" cy="546.819" r="249.236" transform="rotate(179.329 -14.053 546.819)" stroke="#F6F6F6" stroke-width="1.52778"/>
<circle cx="-14.0533" cy="546.818" r="207.569" transform="rotate(179.329 -14.0533 546.818)" stroke="#F6F6F6" stroke-width="1.52778"/>
</g>
<path d="M118 616.286C118 616.286 243.906 696.352 331.213 687.357C417.924 678.424 437.912 585.931 524.476 575.674C596.945 567.087 634.815 627.807 706.875 616.286C814.265 599.117 804.163 438.252 912.474 428.455C985.528 421.847 1090.15 489.373 1090.15 489.373" stroke="url(#paint0_linear_15_79)" stroke-width="5" stroke-linecap="round"/>
<circle cx="589" cy="587" r="8.5" fill="#FF0000" stroke="white" stroke-width="5"/>
<circle cx="948" cy="434" r="8.5" fill="#FF0000" stroke="white" stroke-width="5"/>
<path d="M1355.32 37.8024C1354.83 34.2574 1353.42 30.9032 1351.23 28.0739C1349.03 25.2445 1346.14 23.0388 1342.83 21.6762C1330.72 16.6617 1280.22 10.2524 1280.22 10.2524C1280.22 10.2524 1229.7 3.9463 1216.72 5.77578C1213.18 6.2684 1209.82 7.68114 1206.99 9.8733C1204.16 12.0655 1201.96 14.9606 1200.6 18.2703C1193.97 40.0827 1188.19 73.8669 1190.84 95.9509C1191.33 99.4959 1192.75 102.85 1194.94 105.679C1197.13 108.509 1200.03 110.715 1203.34 112.077C1215.45 117.092 1265.95 123.501 1265.95 123.501C1265.95 123.501 1316.45 129.911 1329.43 128.081C1332.97 127.589 1336.33 126.176 1339.16 123.984C1341.99 121.792 1344.19 118.897 1345.55 115.587C1352.39 93.7696 1357.93 59.9759 1355.32 37.8024Z" fill="#FF0000"/>
<path d="M1253.88 89.0945L1298.85 70.1469L1260.04 40.5652L1253.88 89.0945Z" fill="white"/>
<path d="M246.5 684C251.194 684 255 680.194 255 675.5C255 670.806 251.194 667 246.5 667C241.806 667 238 670.806 238 675.5C238 680.194 241.806 684 246.5 684Z" fill="#FF0000" stroke="white" stroke-width="5"/>
<defs>
<linearGradient id="paint0_linear_15_79" x1="117.538" y1="625" x2="1090.54" y2="496" gradientUnits="userSpaceOnUse">
<stop stop-color="#D01037"/>
<stop offset="1" stop-color="#4D137A" stop-opacity="0.8"/>
</linearGradient>
<clipPath id="clip0_15_79">
<rect width="603.367" height="1000" fill="white" transform="translate(615.799 1040.93) rotate(179.329)"/>
</clipPath>
</defs>
</svg>
