<svg width="16" height="17" viewBox="0 0 16 17" fill="none" xmlns="http://www.w3.org/2000/svg">
<path d="M13.6313 14.164H11.262V10.4513C11.262 9.56596 11.244 8.42663 10.0273 8.42663C8.792 8.42663 8.60333 9.38996 8.60333 10.386V14.164H6.234V6.5293H8.51V7.56996H8.54067C8.85867 6.96996 9.632 6.33663 10.7873 6.33663C13.188 6.33663 13.632 7.91663 13.632 9.9733L13.6313 14.164ZM3.558 5.48463C3.3772 5.48489 3.19813 5.44946 3.03106 5.38035C2.86399 5.31124 2.71221 5.20983 2.58443 5.08192C2.45665 4.95402 2.35538 4.80214 2.28644 4.635C2.21749 4.46787 2.18223 4.28876 2.18267 4.10796C2.1828 3.83582 2.26363 3.56982 2.41494 3.34361C2.56624 3.1174 2.78123 2.94114 3.03271 2.83712C3.28419 2.73309 3.56087 2.70598 3.82776 2.7592C4.09466 2.81242 4.33977 2.94359 4.53212 3.13612C4.72446 3.32865 4.85539 3.5739 4.90836 3.84084C4.96132 4.10778 4.93394 4.38444 4.82967 4.63582C4.7254 4.8872 4.54893 5.10202 4.32258 5.2531C4.09622 5.40419 3.83015 5.48476 3.558 5.48463ZM4.746 14.164H2.37V6.5293H4.746V14.164ZM14.8167 0.529297H1.18067C0.528 0.529297 0 1.0453 0 1.68196V15.3766C0 16.014 0.528 16.5293 1.18067 16.5293H14.8147C15.4667 16.5293 16 16.014 16 15.3766V1.68196C16 1.0453 15.4667 0.529297 14.8147 0.529297H14.8167Z" fill="#FF0000"/>
</svg>
