<svg width="1280" height="740" viewBox="0 0 1280 740" fill="none" xmlns="http://www.w3.org/2000/svg">
<g clip-path="url(#clip0_3_44)">
<rect width="1280" height="740" fill="white"/>
<path d="M361.297 193.78C288.43 139.868 314.557 0 314.557 0H1256.99C1256.99 103.911 1184.29 133.823 1174.95 216.247C1162.55 325.774 1297.95 355.731 1298.96 453.088C1299.66 521.426 1292.28 571.977 1219.79 620.656C1147.29 669.335 1081.47 532.66 993.717 491.47C910.412 452.369 823.083 544.101 739.986 504.576C597.858 436.973 733.018 294.734 632.198 234.969C550.448 186.509 437.559 250.203 361.297 193.78Z" fill="url(#paint0_linear_3_44)"/>
<g style="mix-blend-mode:soft-light" opacity="0.4">
<circle cx="1149" cy="272" r="159" fill="#C0103F"/>
</g>
<g style="mix-blend-mode:saturation" opacity="0.5">
<circle cx="687" cy="314" r="184" fill="#C0103F"/>
</g>
<g style="mix-blend-mode:saturation" opacity="0.5">
<circle cx="860.5" cy="410.5" r="96.5" fill="#C0103F"/>
</g>
<g style="mix-blend-mode:saturation" opacity="0.5">
<circle cx="399" cy="-26" r="184" fill="url(#paint1_linear_3_44)"/>
</g>
<path opacity="0.6" fill-rule="evenodd" clip-rule="evenodd" d="M1157.69 304.579C1183.08 312.475 1198.75 329.524 1216.49 349.332C1233.94 368.823 1258.54 393.413 1260.6 419.497C1262.66 445.687 1238.94 468.832 1216.49 482.468C1198.23 493.556 1197.64 546.647 1180.05 558.765C1155.06 575.977 1136.04 557.774 1105.72 558.765C1078.81 559.645 1059.2 530.458 1026.21 510.008C999.714 494.671 990.755 483.981 988.095 464.13C982.595 423.096 1041.18 421.908 1055.02 399.527C1067.93 378.663 1063.94 342.351 1081.91 325.647C1101.59 307.346 1132.03 296.598 1157.69 304.579Z" fill="url(#paint2_linear_3_44)"/>
<path fill-rule="evenodd" clip-rule="evenodd" d="M1314.83 -34.2713C1314.07 32.7666 1240.57 71.5151 1205.51 128.66C1171.02 184.894 1172.97 273.48 1111.43 297.264C1049.64 321.144 976.611 280.538 927.463 236.125C887.499 200.011 900.316 162.421 858.345 128.66C798.731 80.7081 687.48 96.1129 663.203 23.5605C641.666 -40.8064 778.381 -48.137 813.683 -106.109C848.506 -163.297 797.302 -269.392 858.345 -296.905C918.84 -324.171 964.157 -220.099 1028.22 -202.804C1087.94 -186.682 1155.92 -233.527 1209.25 -202.173C1267.67 -167.821 1315.59 -102.039 1314.83 -34.2713Z" fill="url(#paint3_linear_3_44)"/>
<g opacity="0.4">
<path d="M-3 533.612C-3 533.612 53.9976 492.955 96.2315 494.021C135.968 495.023 148.907 529.842 188.447 533.612C239.546 538.484 261.374 493.021 312.737 494.021C361.152 494.963 380.696 530.564 429.008 533.612C488.445 537.361 515.776 493.387 575.349 494.021C632.673 494.63 658.602 538.558 715.677 533.612C759.534 529.811 775.874 494.68 819.92 494.021C865.78 493.334 883.321 532.619 929.175 533.612C977.954 534.667 997.656 493.769 1046.45 494.021C1094.51 494.269 1113.66 532.889 1161.72 533.612C1211.98 534.367 1283 494.021 1283 494.021" stroke="#E3E3E3" stroke-width="2" stroke-linecap="round"/>
<path d="M-3 589.612C-3 589.612 53.9976 548.955 96.2315 550.021C135.968 551.023 148.907 585.842 188.447 589.612C239.546 594.484 261.374 549.021 312.737 550.021C361.152 550.963 380.696 586.564 429.008 589.612C488.445 593.361 515.776 549.387 575.349 550.021C632.673 550.63 658.602 594.558 715.677 589.612C759.534 585.811 775.874 550.68 819.92 550.021C865.78 549.334 883.321 588.619 929.175 589.612C977.954 590.667 997.656 549.769 1046.45 550.021C1094.51 550.269 1113.66 588.889 1161.72 589.612C1211.98 590.367 1283 550.021 1283 550.021" stroke="#E3E3E3" stroke-width="2" stroke-linecap="round"/>
<path d="M-3 645.612C-3 645.612 53.9976 604.955 96.2315 606.021C135.968 607.023 148.907 641.842 188.447 645.612C239.546 650.484 261.374 605.021 312.737 606.021C361.152 606.963 380.696 642.564 429.008 645.612C488.445 649.361 515.776 605.387 575.349 606.021C632.673 606.63 658.602 650.558 715.677 645.612C759.534 641.811 775.874 606.68 819.92 606.021C865.78 605.334 883.321 644.619 929.175 645.612C977.954 646.667 997.656 605.769 1046.45 606.021C1094.51 606.269 1113.66 644.889 1161.72 645.612C1211.98 646.367 1283 606.021 1283 606.021" stroke="#E3E3E3" stroke-width="2" stroke-linecap="round"/>
<path opacity="0.8" d="M-3 701.612C-3 701.612 53.9976 660.955 96.2315 662.021C135.968 663.023 148.907 697.842 188.447 701.612C239.546 706.484 261.374 661.021 312.737 662.021C361.152 662.963 380.696 698.564 429.008 701.612C488.445 705.361 515.776 661.387 575.349 662.021C632.673 662.63 658.602 706.558 715.677 701.612C759.534 697.811 775.874 662.68 819.92 662.021C865.78 661.334 883.321 700.619 929.175 701.612C977.954 702.667 997.656 661.769 1046.45 662.021C1094.51 662.269 1113.66 700.889 1161.72 701.612C1211.98 702.367 1283 662.021 1283 662.021" stroke="#E3E3E3" stroke-width="2" stroke-linecap="round"/>
<path opacity="0.6" d="M-3 757.612C-3 757.612 53.9976 716.955 96.2315 718.021C135.968 719.023 148.907 753.842 188.447 757.612C239.546 762.484 261.374 717.021 312.737 718.021C361.152 718.963 380.696 754.564 429.008 757.612C488.445 761.361 515.776 717.387 575.349 718.021C632.673 718.63 658.602 762.558 715.677 757.612C759.534 753.811 775.874 718.68 819.92 718.021C865.78 717.334 883.321 756.619 929.175 757.612C977.954 758.667 997.656 717.769 1046.45 718.021C1094.51 718.269 1113.66 756.889 1161.72 757.612C1211.98 758.367 1283 718.021 1283 718.021" stroke="#E3E3E3" stroke-width="2" stroke-linecap="round"/>
</g>
<path d="M75.4737 670.956C81.3999 658.356 74.7197 643.869 60.553 638.598C46.3864 633.327 30.0979 639.268 24.1717 651.869C18.2455 664.469 24.9257 678.956 39.0924 684.227C53.2591 689.498 69.5475 683.556 75.4737 670.956Z" fill="white"/>
<path d="M68.602 657.744C68.587 657.348 68.564 656.953 68.53 656.558C68.386 654.882 68.176 652.963 66.931 651.622C65.866 650.475 64.215 650.216 62.649 650.058C60.665 649.859 58.672 649.738 56.677 649.67C52.637 649.533 48.593 649.612 44.553 649.692C42.477 649.733 40.4 649.774 38.33 649.921C35.788 650.101 33.174 650.432 31.99 652.691C30.927 654.719 31.059 657.293 31.046 659.475C31.034 661.431 31.027 663.389 31.115 665.343C31.229 667.879 31.399 671.183 34.477 672.296C36.121 672.89 38.105 673.023 39.86 673.124C41.721 673.232 43.586 673.219 45.449 673.243C49.357 673.295 53.264 673.176 57.171 673.106C59.884 673.058 62.67 673.032 65.266 672.244C67.507 671.563 68.092 669.403 68.395 667.529C68.696 665.666 68.619 663.777 68.616 661.902C68.615 660.517 68.656 659.129 68.602 657.744ZM46.025 666.475C46.025 663.079 46.025 659.72 46.025 656.302C49.266 657.996 52.476 659.673 55.758 661.387C52.489 663.097 49.277 664.775 46.025 666.475Z" fill="#FF4D43"/>
<path d="M29.133 716.461C28.895 716.461 28.673 716.379 28.505 716.23C28.337 716.081 28.245 715.881 28.245 715.671V711.109H23.115C22.878 711.109 22.655 711.026 22.487 710.877C22.319 710.728 22.227 710.53 22.227 710.319C22.227 709.883 22.625 709.529 23.115 709.529L28.246 709.53V704.966C28.246 704.531 28.644 704.177 29.134 704.177C29.623 704.177 30.021 704.531 30.021 704.966V709.53H35.153C35.642 709.53 36.04 709.884 36.041 710.319C36.041 710.755 35.643 711.109 35.154 711.109H30.022V715.671C30.021 716.107 29.623 716.461 29.133 716.461Z" fill="white"/>
<path d="M394.114 613.308C393.877 613.308 393.653 613.226 393.486 613.077C393.318 612.927 393.226 612.728 393.226 612.518V607.955H388.096C387.859 607.955 387.636 607.873 387.468 607.724C387.3 607.575 387.208 607.376 387.208 607.165C387.208 606.73 387.606 606.376 388.096 606.376L393.226 606.377V601.813C393.226 601.376 393.624 601.023 394.114 601.023C394.603 601.023 395.001 601.377 395.001 601.812V606.377H400.133C400.622 606.377 401.02 606.731 401.021 607.165C401.021 607.601 400.623 607.955 400.134 607.955H395.003V612.518C395.003 612.954 394.604 613.308 394.114 613.308Z" fill="#888888"/>
<path d="M63.863 514.007C63.626 514.007 63.402 513.925 63.235 513.776C63.068 513.627 62.976 513.427 62.976 513.217V508.655H57.845C57.608 508.655 57.385 508.572 57.217 508.423C57.049 508.275 56.957 508.076 56.957 507.865C56.957 507.429 57.355 507.075 57.845 507.075L62.976 507.076V502.512C62.976 502.077 63.374 501.723 63.864 501.723C64.353 501.723 64.751 502.077 64.751 502.511V507.076H69.883C70.371 507.076 70.769 507.43 70.771 507.865C70.771 508.301 70.373 508.655 69.884 508.655H64.752V513.217C64.751 513.653 64.353 514.007 63.863 514.007Z" fill="white"/>
<path d="M6 629.822C6 627.852 7.795 626.253 10.012 626.253C12.227 626.253 14.023 627.852 14.023 629.822C14.023 631.793 12.228 633.39 10.012 633.39C7.796 633.39 6 631.792 6 629.822Z" fill="white"/>
<path d="M53.306 619.511C53.306 618.008 54.676 616.79 56.366 616.79C58.055 616.79 59.424 618.008 59.424 619.511C59.424 621.013 58.055 622.231 56.366 622.231C54.676 622.232 53.306 621.014 53.306 619.511Z" stroke="#454258" stroke-width="1.9162" stroke-miterlimit="10"/>
<path d="M355.623 633.197C355.623 631.696 356.992 630.476 358.682 630.476C360.371 630.476 361.74 631.696 361.74 633.197C361.74 634.699 360.371 635.919 358.682 635.919C356.992 635.919 355.623 634.699 355.623 633.197Z" stroke="#454258" stroke-width="1.9162" stroke-miterlimit="10"/>
<path d="M179.704 728.31C179.704 726.808 181.074 725.589 182.764 725.589C184.453 725.589 185.822 726.808 185.822 728.31C185.822 729.812 184.452 731.032 182.764 731.032C181.074 731.032 179.704 729.812 179.704 728.31Z" stroke="#454258" stroke-width="1.9162" stroke-miterlimit="10"/>
<path d="M289.091 501.722C289.091 500.219 290.461 499 292.151 499C293.84 499 295.209 500.219 295.209 501.722C295.209 503.224 293.839 504.443 292.151 504.443C290.461 504.443 289.091 503.224 289.091 501.722Z" stroke="#454258" stroke-width="1.9162" stroke-miterlimit="10"/>
<path d="M191 639.261C191 637.291 192.795 635.693 195.012 635.693C197.227 635.693 199.023 637.291 199.023 639.261C199.023 641.231 197.228 642.829 195.012 642.829C192.795 642.829 191 641.232 191 639.261Z" fill="#888888"/>
<path d="M337.322 700.991C337.322 699.021 339.117 697.422 341.334 697.422C343.549 697.422 345.345 699.021 345.345 700.991C345.345 702.962 343.55 704.56 341.334 704.56C339.117 704.56 337.322 702.962 337.322 700.991Z" fill="white"/>
<path d="M637.659 537.68C636.768 536.887 635.317 536.887 634.425 537.68C633.533 538.473 633.533 539.764 634.425 540.556C635.142 541.194 636.219 541.318 637.077 540.931L638.83 542.491L639.834 541.599L638.081 540.039C638.515 539.276 638.375 538.318 637.659 537.68ZM636.99 539.961C636.467 540.427 635.616 540.427 635.094 539.961C634.571 539.497 634.571 538.74 635.094 538.275C635.616 537.811 636.467 537.811 636.99 538.275C637.512 538.74 637.512 539.497 636.99 539.961Z" fill="#DBE2E8"/>
<g clip-path="url(#clip1_3_44)">
<path d="M383.151 123.183C382.239 121.405 380.877 119.896 379.201 118.807C377.525 117.719 375.592 117.088 373.597 116.978C366.287 116.563 338.48 122.473 338.48 122.473C338.48 122.473 310.684 128.441 304.175 131.794C302.397 132.706 300.888 134.068 299.799 135.744C298.711 137.421 298.08 139.353 297.971 141.349C298.49 154.069 301.656 172.948 307.119 184.104C308.031 185.883 309.392 187.391 311.069 188.48C312.745 189.569 314.677 190.199 316.673 190.309C323.983 190.725 351.79 184.814 351.79 184.814C351.79 184.814 379.598 178.903 386.106 175.551C387.885 174.639 389.393 173.277 390.482 171.6C391.571 169.924 392.201 167.992 392.311 165.996C391.902 153.234 388.607 134.395 383.151 123.183Z" fill="#FF0000"/>
<path d="M339.096 168.892L359.324 150.627L333.416 142.169L339.096 168.892Z" fill="white"/>
</g>
<g opacity="0.8" clip-path="url(#clip2_3_44)">
<path d="M1292.22 639.438C1292.11 637.834 1291.58 636.287 1290.68 634.952C1289.79 633.617 1288.56 632.539 1287.12 631.827C1281.84 629.209 1259.4 624.79 1259.4 624.79C1259.4 624.79 1236.95 620.418 1231.08 620.841C1229.47 620.953 1227.92 621.484 1226.59 622.38C1225.25 623.276 1224.18 624.506 1223.47 625.948C1219.83 635.522 1216.2 650.489 1216.72 660.47C1216.83 662.074 1217.36 663.62 1218.25 664.956C1219.15 666.291 1220.38 667.368 1221.82 668.08C1227.1 670.699 1249.54 675.117 1249.54 675.117C1249.54 675.117 1271.98 679.536 1277.85 679.113C1279.46 679.001 1281 678.47 1282.34 677.574C1283.68 676.678 1284.75 675.448 1285.46 674.006C1289.2 664.436 1292.72 649.457 1292.22 639.438Z" fill="#FF0000"/>
<path d="M1245.18 659.325L1265.92 652.208L1249.43 637.76L1245.18 659.325Z" fill="white"/>
</g>
</g>
<defs>
<linearGradient id="paint0_linear_3_44" x1="345.5" y1="7.39406e-06" x2="1176.5" y2="647.5" gradientUnits="userSpaceOnUse">
<stop stop-color="#D01037"/>
<stop offset="1" stop-color="#4D137A"/>
</linearGradient>
<linearGradient id="paint1_linear_3_44" x1="408" y1="-7.5" x2="489.5" y2="109.5" gradientUnits="userSpaceOnUse">
<stop stop-color="#C0103F" stop-opacity="0"/>
<stop offset="1" stop-color="#5A081E" stop-opacity="0.6"/>
</linearGradient>
<linearGradient id="paint2_linear_3_44" x1="1049.44" y1="371.042" x2="1222.39" y2="503.828" gradientUnits="userSpaceOnUse">
<stop stop-color="#D01037" stop-opacity="0.8"/>
<stop offset="1" stop-color="#4D137A" stop-opacity="0"/>
</linearGradient>
<linearGradient id="paint3_linear_3_44" x1="1037.29" y1="-49.9614" x2="895.142" y2="258.59" gradientUnits="userSpaceOnUse">
<stop stop-color="#D01037" stop-opacity="0"/>
<stop offset="1" stop-color="#4D137A"/>
</linearGradient>
<clipPath id="clip0_3_44">
<rect width="1280" height="740" fill="white"/>
</clipPath>
<clipPath id="clip1_3_44">
<rect width="91.04" height="64" fill="white" transform="translate(294 131.928) rotate(-12)"/>
</clipPath>
<clipPath id="clip2_3_44">
<rect width="73.2426" height="51.4886" fill="white" transform="translate(1223.51 617.723) rotate(11.1391)"/>
</clipPath>
</defs>
</svg>
