<svg width="56" height="57" viewBox="0 0 56 57" fill="none" xmlns="http://www.w3.org/2000/svg">
<path d="M23.3333 7.92871H9.33333C8.71449 7.92871 8.121 8.17454 7.68342 8.61213C7.24583 9.04971 7 9.64321 7 10.262V24.262C7 24.8809 7.24583 25.4744 7.68342 25.912C8.121 26.3495 8.71449 26.5954 9.33333 26.5954H23.3333C23.9522 26.5954 24.5457 26.3495 24.9832 25.912C25.4208 25.4744 25.6667 24.8809 25.6667 24.262V10.262C25.6667 9.64321 25.4208 9.04971 24.9832 8.61213C24.5457 8.17454 23.9522 7.92871 23.3333 7.92871ZM46.6667 7.92871H32.6667C32.0478 7.92871 31.4543 8.17454 31.0168 8.61213C30.5792 9.04971 30.3333 9.64321 30.3333 10.262V24.262C30.3333 24.8809 30.5792 25.4744 31.0168 25.912C31.4543 26.3495 32.0478 26.5954 32.6667 26.5954H46.6667C47.2855 26.5954 47.879 26.3495 48.3166 25.912C48.7542 25.4744 49 24.8809 49 24.262V10.262C49 9.64321 48.7542 9.04971 48.3166 8.61213C47.879 8.17454 47.2855 7.92871 46.6667 7.92871ZM23.3333 31.262H9.33333C8.71449 31.262 8.121 31.5079 7.68342 31.9455C7.24583 32.383 7 32.9765 7 33.5954V47.5954C7 48.2142 7.24583 48.8077 7.68342 49.2453C8.121 49.6829 8.71449 49.9287 9.33333 49.9287H23.3333C23.9522 49.9287 24.5457 49.6829 24.9832 49.2453C25.4208 48.8077 25.6667 48.2142 25.6667 47.5954V33.5954C25.6667 32.9765 25.4208 32.383 24.9832 31.9455C24.5457 31.5079 23.9522 31.262 23.3333 31.262ZM39.6667 31.262C41.4927 31.262 43.2787 31.7977 44.8034 32.8027C46.328 33.8077 47.5243 35.2379 48.2442 36.9161C48.964 38.5943 49.1758 40.4468 48.8532 42.2442C48.5306 44.0416 47.6878 45.7048 46.4293 47.0279C45.1708 48.3511 43.5517 49.2759 41.7727 49.688C39.9938 50.1 38.133 49.9812 36.4209 49.3461C34.7088 48.7111 33.2206 47.5878 32.1406 46.1153C31.0606 44.6428 30.4363 42.8858 30.345 41.062L30.3333 40.5954L30.345 40.1287C30.4647 37.7371 31.4991 35.4831 33.2341 33.8327C34.9691 32.1824 37.2721 31.262 39.6667 31.262Z" fill="#FF0000"/>
<circle cx="39.618" cy="40.547" r="9.38193" fill="#D10000"/>
</svg>
