<svg width="23" height="22" viewBox="0 0 23 22" fill="none" xmlns="http://www.w3.org/2000/svg">
<path d="M16.7 1.54725C18.359 2.49068 19.7392 3.84449 20.7037 5.47466C21.6683 7.10483 22.1838 8.95484 22.1993 10.8415C22.2148 12.7282 21.7297 14.5862 20.792 16.2315C19.8543 17.8768 18.4965 19.2524 16.8531 20.2221C15.2097 21.1918 13.3377 21.722 11.4223 21.7602C9.50687 21.7983 7.61456 21.3432 5.93266 20.4398C4.25077 19.5364 2.83761 18.216 1.83308 16.6094C0.82856 15.0028 0.267501 13.1657 0.205451 11.2799L0.199951 10.9289L0.205451 10.5779C0.267055 8.70699 0.819854 6.88371 1.80995 5.28583C2.80006 3.68795 4.19367 2.36999 5.85493 1.46046C7.51619 0.550926 9.38841 0.0808498 11.2891 0.0960609C13.1897 0.111272 15.0539 0.611251 16.7 1.54725ZM15.2777 7.99634C15.0882 7.80981 14.8362 7.69776 14.5689 7.68121C14.3016 7.66465 14.0373 7.74473 13.8257 7.90642L13.7223 7.99634L10.1 11.5627L8.67765 10.163L8.57425 10.0731C8.36259 9.91151 8.09836 9.83153 7.8311 9.84814C7.56383 9.86474 7.3119 9.9768 7.12254 10.1633C6.93318 10.3498 6.8194 10.5979 6.80254 10.8611C6.78568 11.1243 6.86689 11.3846 7.03095 11.593L7.12225 11.6948L9.32225 13.8615L9.42565 13.9514C9.61856 14.0988 9.85579 14.1788 10.1 14.1788C10.3441 14.1788 10.5813 14.0988 10.7743 13.9514L10.8777 13.8615L15.2777 9.52817L15.369 9.42634C15.5331 9.2179 15.6144 8.95763 15.5976 8.69435C15.5808 8.43107 15.467 8.18288 15.2777 7.99634Z" fill="white"/>
</svg>
