<svg width="1280" height="832" viewBox="0 0 1280 832" fill="none" xmlns="http://www.w3.org/2000/svg">
<g clip-path="url(#clip0_1_620)">
<rect width="1280" height="832" fill="white"/>
<path d="M486.761 220.358C315.945 132.27 0 148.194 0 148.194V0H1280V635.301C1280 635.301 1054.65 658.496 843.461 533.498C683.966 439.095 663.5 311.5 486.761 220.358Z" fill="url(#paint0_linear_1_620)"/>
<g filter="url(#filter0_d_1_620)">
<path d="M0 0.00969315C0 0.00969315 26.2167 -2.26211 68.7694 0.00969315H1280V676.191C1280 676.191 1054.65 700.879 843.461 567.838C683.966 467.36 615.451 272.35 498 167.645C348.149 34.0547 165.901 5.19534 68.7694 0.00969315H0Z" fill="url(#paint1_linear_1_620)"/>
</g>
<path opacity="0.2" d="M75.6992 451C73.9689 444.875 73 438.438 73 431.724C73 399.781 94.0059 372.753 122.937 363.652C119.476 354.654 117.573 344.894 117.573 334.685C117.573 290.008 153.805 253.771 198.482 253.771C204.884 253.771 211.078 254.535 217.065 255.934C225.959 192.118 280.741 143 346.987 143C400.533 143 446.56 175.088 466.967 221.063C479.629 212.851 494.714 208.065 510.93 208.065C551.908 208.065 585.752 238.533 591.089 278.054C603.111 268.835 618.106 263.294 634.433 263.294C673.856 263.294 705.815 295.268 705.815 334.685C705.815 339.323 705.337 343.822 704.5 348.182C715.242 351.92 724.81 358.115 732.531 366.109C745.363 347.144 767.068 334.685 791.687 334.685C800.141 334.685 808.218 336.243 815.745 338.908C818.454 301.982 849.213 272.825 886.854 272.825C908.835 272.825 928.478 282.775 941.569 298.383C951.999 292.43 964.043 288.969 976.92 288.969C1013.61 288.969 1043.79 316.655 1047.81 352.266C1078.41 360.329 1101 388.119 1101 421.238C1101 431.862 1098.61 441.933 1094.43 451H75.6992Z" fill="url(#paint2_linear_1_620)"/>
<path opacity="0.1" d="M1055.99 297.12C1056 297.2 1056.02 297.266 1056.02 297.333H1323.81C1325.41 294.586 1326.33 291.413 1326.33 288C1326.33 277.693 1317.97 269.333 1307.67 269.333C1306.7 269.333 1305.75 269.44 1304.83 269.573C1301.07 258.546 1290.64 250.586 1278.33 250.586C1276.07 250.586 1273.88 250.88 1271.77 251.386C1269.85 233.426 1254.96 219.36 1236.65 218.706C1229.92 200.773 1212.62 188 1192.33 188C1172.4 188 1155.35 200.333 1148.38 217.773C1140.8 210.88 1130.72 206.666 1119.67 206.666C1100.47 206.666 1084.25 219.346 1078.88 236.773C1075.86 235.84 1072.66 235.333 1069.33 235.333C1051.48 235.333 1037 249.813 1037 267.666C1037 280.773 1044.79 292.04 1055.99 297.12Z" fill="url(#paint3_linear_1_620)"/>
<path opacity="0.04" d="M444.554 194C445.489 190.011 446 185.811 446 181.454C446 161.423 435.37 144.343 420.42 137.631C416.099 117.266 400.523 102.189 381.967 102.189C363.984 102.189 348.807 116.352 343.952 135.751C341.121 134.995 338.18 134.574 335.156 134.574C330.081 134.574 325.234 135.716 320.774 137.771C314.556 121.5 300.716 110.149 284.63 110.149C268.684 110.149 254.947 121.289 248.651 137.349C242.718 133.15 235.786 130.743 228.376 130.743C219.97 130.743 212.181 133.853 205.766 139.124C199.521 122.924 185.717 111.66 169.677 111.66C163.948 111.66 158.507 113.102 153.589 115.684C141.22 89.0457 117.28 71 89.7681 71C49.579 71 17 109.516 17 157.047C17 170.279 19.5307 182.807 24.0424 194H444.554Z" fill="url(#paint4_linear_1_620)"/>
<path opacity="0.02" d="M1562.75 411.753C1557.62 345.584 1508.02 289.04 1439.6 278.014C1417.36 274.43 1395.55 276.142 1375.27 282.061C1376.32 277.478 1377.29 272.804 1378.05 268.095C1397.12 149.75 1316.66 38.4135 1198.37 19.3513C1095.21 2.72616 997.346 61.8029 961.355 155.641C948.339 148.633 934.042 143.477 918.61 140.991C845.187 129.159 776.069 179.086 764.238 252.501C763.38 257.828 762.955 263.067 762.724 268.336C744.188 255.132 722.521 245.779 698.535 241.913C615.178 228.48 536.698 285.136 523.263 368.511C509.827 451.885 566.523 530.404 649.881 543.837C674.229 547.761 698.107 545.51 720.114 538.601C745.886 601.761 802.795 650.454 875.051 662.098C927.97 670.626 979.279 657.589 1020.4 629.762C1047.21 657.765 1082.86 677.686 1124.06 684.326C1150.86 688.644 1177.18 686.788 1201.77 680.058C1222.93 694.08 1247.23 704.095 1273.89 708.471C1318.72 715.774 1362.36 706.174 1398.46 684.508C1423.82 715.841 1460.24 738.5 1503.2 745.423C1595.67 760.324 1682.7 697.443 1697.6 604.959C1712.19 514.405 1652.09 429.24 1562.75 411.753Z" fill="white"/>
</g>
<defs>
<filter id="filter0_d_1_620" x="-31" y="-11" width="1311" height="699" filterUnits="userSpaceOnUse" color-interpolation-filters="sRGB">
<feFlood flood-opacity="0" result="BackgroundImageFix"/>
<feColorMatrix in="SourceAlpha" type="matrix" values="0 0 0 0 0 0 0 0 0 0 0 0 0 0 0 0 0 0 127 0" result="hardAlpha"/>
<feOffset dx="-21"/>
<feGaussianBlur stdDeviation="5"/>
<feComposite in2="hardAlpha" operator="out"/>
<feColorMatrix type="matrix" values="0 0 0 0 0 0 0 0 0 0 0 0 0 0 0 0 0 0 0.15 0"/>
<feBlend mode="normal" in2="BackgroundImageFix" result="effect1_dropShadow_1_620"/>
<feBlend mode="normal" in="SourceGraphic" in2="effect1_dropShadow_1_620" result="shape"/>
</filter>
<linearGradient id="paint0_linear_1_620" x1="183.23" y1="-87.9628" x2="479" y2="547" gradientUnits="userSpaceOnUse">
<stop stop-color="#9F025E"/>
<stop offset="1" stop-color="#F9C929"/>
</linearGradient>
<linearGradient id="paint1_linear_1_620" x1="530.5" y1="-96.846" x2="954.455" y2="840.246" gradientUnits="userSpaceOnUse">
<stop stop-color="#9F025E"/>
<stop offset="1" stop-color="#F9C929"/>
</linearGradient>
<linearGradient id="paint2_linear_1_620" x1="587" y1="451" x2="672" y2="251" gradientUnits="userSpaceOnUse">
<stop stop-color="white" stop-opacity="0"/>
<stop offset="1" stop-color="white"/>
</linearGradient>
<linearGradient id="paint3_linear_1_620" x1="1182" y1="243" x2="1181.67" y2="297.333" gradientUnits="userSpaceOnUse">
<stop stop-color="white"/>
<stop offset="1" stop-color="white" stop-opacity="0"/>
</linearGradient>
<linearGradient id="paint4_linear_1_620" x1="231.5" y1="194" x2="230.801" y2="153.201" gradientUnits="userSpaceOnUse">
<stop stop-color="white" stop-opacity="0"/>
<stop offset="1" stop-color="white"/>
</linearGradient>
<clipPath id="clip0_1_620">
<rect width="1280" height="832" fill="white"/>
</clipPath>
</defs>
</svg>
