<svg width="47" height="47" viewBox="0 0 47 47" fill="none" xmlns="http://www.w3.org/2000/svg">
<path d="M22.4997 42.167L33.8397 19.4637H25.9997V4.83366L14.333 27.537H22.4997V42.167ZM23.6663 0.166992C30.083 0.166992 35.5663 2.50033 40.1163 7.05033C44.6663 11.6003 46.9997 17.0837 46.9997 23.5003C46.9997 29.917 44.6663 35.4003 40.1163 39.9503C35.5663 44.5003 30.083 46.8337 23.6663 46.8337C17.2497 46.8337 11.7663 44.5003 7.21634 39.9503C2.66634 35.4003 0.333008 29.917 0.333008 23.5003C0.333008 17.0837 2.66634 11.6003 7.21634 7.05033C11.7663 2.50033 17.2497 0.166992 23.6663 0.166992Z" fill="#9F025E"/>
</svg>
