<svg width="61" height="65" viewBox="0 0 61 65" fill="none" xmlns="http://www.w3.org/2000/svg">
<path d="M4.49976 22.0005L30.4998 41.3338L56.4998 22.0005L30.4998 3.00049L4.49976 22.0005ZM60.0832 24.6671V58.0005C60.0832 59.7686 59.4598 61.4643 58.3502 62.7145C57.2406 63.9647 55.7357 64.6671 54.1665 64.6671H6.83317C5.26397 64.6671 3.75905 63.9647 2.64946 62.7145C1.53986 61.4643 0.916504 59.7686 0.916504 58.0005V24.6671C0.916504 22.2338 2.07025 20.1338 3.78609 18.9671L30.4998 0.133789L57.2136 18.9671C58.9294 20.1338 60.0832 22.2338 60.0832 24.6671Z" fill="url(#paint0_linear_1740_988)"/>
<defs>
<linearGradient id="paint0_linear_1740_988" x1="30.4998" y1="0.133789" x2="30.9998" y2="65.0005" gradientUnits="userSpaceOnUse">
<stop stop-color="#9F025E"/>
<stop offset="1" stop-color="#F9C929"/>
</linearGradient>
</defs>
</svg>
