<svg width="42" height="43" viewBox="0 0 42 43" fill="none" xmlns="http://www.w3.org/2000/svg">
<path d="M16.3333 0.5H2.33333C1.71449 0.5 1.121 0.745833 0.683417 1.18342C0.245833 1.621 0 2.21449 0 2.83333V16.8333C0 17.4522 0.245833 18.0457 0.683417 18.4832C1.121 18.9208 1.71449 19.1667 2.33333 19.1667H16.3333C16.9522 19.1667 17.5457 18.9208 17.9832 18.4832C18.4208 18.0457 18.6667 17.4522 18.6667 16.8333V2.83333C18.6667 2.21449 18.4208 1.621 17.9832 1.18342C17.5457 0.745833 16.9522 0.5 16.3333 0.5ZM39.6667 0.5H25.6667C25.0478 0.5 24.4543 0.745833 24.0168 1.18342C23.5792 1.621 23.3333 2.21449 23.3333 2.83333V16.8333C23.3333 17.4522 23.5792 18.0457 24.0168 18.4832C24.4543 18.9208 25.0478 19.1667 25.6667 19.1667H39.6667C40.2855 19.1667 40.879 18.9208 41.3166 18.4832C41.7542 18.0457 42 17.4522 42 16.8333V2.83333C42 2.21449 41.7542 1.621 41.3166 1.18342C40.879 0.745833 40.2855 0.5 39.6667 0.5ZM16.3333 23.8333H2.33333C1.71449 23.8333 1.121 24.0792 0.683417 24.5168C0.245833 24.9543 0 25.5478 0 26.1667V40.1667C0 40.7855 0.245833 41.379 0.683417 41.8166C1.121 42.2542 1.71449 42.5 2.33333 42.5H16.3333C16.9522 42.5 17.5457 42.2542 17.9832 41.8166C18.4208 41.379 18.6667 40.7855 18.6667 40.1667V26.1667C18.6667 25.5478 18.4208 24.9543 17.9832 24.5168C17.5457 24.0792 16.9522 23.8333 16.3333 23.8333ZM32.6667 23.8333C34.4927 23.8333 36.2787 24.369 37.8034 25.374C39.328 26.379 40.5243 27.8092 41.2442 29.4874C41.9641 31.1656 42.1758 33.0181 41.8532 34.8155C41.5306 36.6129 40.6878 38.2761 39.4293 39.5992C38.1708 40.9223 36.5517 41.8472 34.7727 42.2593C32.9938 42.6713 31.133 42.5525 29.4209 41.9174C27.7088 41.2824 26.2206 40.1591 25.1406 38.6866C24.0606 37.2141 23.4363 35.4571 23.345 33.6333L23.3333 33.1667L23.345 32.7C23.4647 30.3084 24.4991 28.0544 26.2341 26.404C27.9691 24.7537 30.2721 23.8333 32.6667 23.8333Z" fill="#9F025E"/>
</svg>
