<svg width="42" height="48" viewBox="0 0 42 48" fill="none" xmlns="http://www.w3.org/2000/svg">
<path d="M35 33.5203C33.2267 33.5203 31.64 34.2203 30.4267 35.317L13.79 25.6337C13.9067 25.097 14 24.5603 14 24.0003C14 23.4403 13.9067 22.9037 13.79 22.367L30.24 12.777C31.5 13.9437 33.1567 14.667 35 14.667C38.8733 14.667 42 11.5403 42 7.66699C42 3.79366 38.8733 0.666992 35 0.666992C31.1267 0.666992 28 3.79366 28 7.66699C28 8.22699 28.0933 8.76366 28.21 9.30032L11.76 18.8903C10.5 17.7237 8.84333 17.0003 7 17.0003C3.12667 17.0003 0 20.127 0 24.0003C0 27.8737 3.12667 31.0003 7 31.0003C8.84333 31.0003 10.5 30.277 11.76 29.1103L28.3733 38.817C28.2567 39.307 28.1867 39.8203 28.1867 40.3337C28.1867 44.0903 31.2433 47.147 35 47.147C38.7567 47.147 41.8133 44.0903 41.8133 40.3337C41.8133 36.577 38.7567 33.5203 35 33.5203Z" fill="#9F025E"/>
</svg>
