<svg width="42" height="42" viewBox="0 0 42 42" fill="none" xmlns="http://www.w3.org/2000/svg">
<path d="M37.3333 0H4.66667C2.1 0 0 2.1 0 4.66667V37.3333C0 39.9 2.1 42 4.66667 42H37.3333C39.9 42 42 39.9 42 37.3333V4.66667C42 2.1 39.9 0 37.3333 0ZM9.33333 9.33333H14V14H9.33333V9.33333ZM9.33333 18.6667H14V23.3333H9.33333V18.6667ZM9.33333 28H14V32.6667H9.33333V28ZM32.6667 32.6667H18.6667V28H32.6667V32.6667ZM32.6667 23.3333H18.6667V18.6667H32.6667V23.3333ZM32.6667 14H18.6667V9.33333H32.6667V14Z" fill="#9F025E"/>
</svg>
