<svg width="42" height="42" viewBox="0 0 42 42" fill="none" xmlns="http://www.w3.org/2000/svg">
<path d="M4.66667 0H37.3333C38.571 0 39.758 0.491665 40.6332 1.36683C41.5083 2.242 42 3.42899 42 4.66667V37.3333C42 39.9233 39.9233 42 37.3333 42H4.66667C3.42899 42 2.242 41.5083 1.36683 40.6332C0.491665 39.758 0 38.571 0 37.3333V4.66667C0 2.1 2.1 0 4.66667 0ZM30.3333 32.6667V28H11.6667V32.6667H30.3333ZM30.3333 18.6667L21 9.33333L11.6667 18.6667H17.5V25.6667H24.5V18.6667H30.3333Z" fill="#9F025E"/>
</svg>
