<svg width="60" height="60" viewBox="0 0 60 60" fill="none" xmlns="http://www.w3.org/2000/svg">
<path d="M15 7.5C15 3.36328 18.3633 0 22.5 0H41.25V15C41.25 17.0742 42.9258 18.75 45 18.75H60V52.5C60 56.6367 56.6367 60 52.5 60H22.5C18.3633 60 15 56.6367 15 52.5V39.375H35.4023L30.832 43.9453C29.7305 45.0469 29.7305 46.8281 30.832 47.918C31.9336 49.0078 33.7148 49.0195 34.8047 47.918L44.1797 38.543C45.2812 37.4414 45.2812 35.6602 44.1797 34.5703L34.8047 25.1953C33.7031 24.0938 31.9219 24.0938 30.832 25.1953C29.7422 26.2969 29.7305 28.0781 30.832 29.168L35.4023 33.7383L15 33.75V7.5ZM15 33.75V39.375H2.8125C1.25391 39.375 0 38.1211 0 36.5625C0 35.0039 1.25391 33.75 2.8125 33.75H15ZM60 15H45V0L60 15Z" fill="url(#paint0_linear_1740_977)"/>
<defs>
<linearGradient id="paint0_linear_1740_977" x1="14.5" y1="60" x2="53" y2="8" gradientUnits="userSpaceOnUse">
<stop stop-color="#9F025E"/>
<stop offset="1" stop-color="#F9C929"/>
</linearGradient>
</defs>
</svg>
