<svg width="39" height="26" viewBox="0 0 39 26" fill="none" xmlns="http://www.w3.org/2000/svg">
<path d="M12.918 0.275391V2.27734C10.0534 3.77474 8.0026 5.33724 6.76562 6.96484C5.52865 8.59245 4.91016 10.3665 4.91016 12.2871C4.91016 13.4264 5.07292 14.2077 5.39844 14.6309C5.69141 15.0866 6.04948 15.3145 6.47266 15.3145C6.89583 15.3145 7.46549 15.2005 8.18164 14.9727C8.89779 14.7122 9.54883 14.582 10.1348 14.582C11.4694 14.582 12.625 15.0866 13.6016 16.0957C14.6107 17.0723 15.1152 18.2767 15.1152 19.709C15.1152 21.2715 14.513 22.6224 13.3086 23.7617C12.1042 24.8685 10.6068 25.4219 8.81641 25.4219C6.63542 25.4219 4.66602 24.4779 2.9082 22.5898C1.15039 20.7018 0.271484 18.3743 0.271484 15.6074C0.271484 12.3522 1.3457 9.32487 3.49414 6.52539C5.67513 3.69336 8.81641 1.61003 12.918 0.275391ZM36.209 0.421875V2.27734C32.9212 4.16536 30.7565 5.85807 29.7148 7.35547C28.6732 8.85286 28.1523 10.6107 28.1523 12.6289C28.1523 13.5404 28.3314 14.224 28.6895 14.6797C29.0475 15.1354 29.4219 15.3633 29.8125 15.3633C30.1706 15.3633 30.7077 15.2331 31.4238 14.9727C32.14 14.7122 32.8561 14.582 33.5723 14.582C34.9069 14.582 36.0625 15.0703 37.0391 16.0469C38.0482 16.9909 38.5527 18.1628 38.5527 19.5625C38.5527 21.1576 37.918 22.541 36.6484 23.7129C35.4115 24.8848 33.8815 25.4707 32.0586 25.4707C29.9102 25.4707 27.9733 24.543 26.248 22.6875C24.5228 20.832 23.6602 18.5208 23.6602 15.7539C23.6602 12.3359 24.7507 9.22721 26.9316 6.42773C29.1126 3.5957 32.2051 1.59375 36.209 0.421875Z" fill="#111F33"/>
</svg>
