<svg width="89" height="89" viewBox="0 0 89 89" fill="none" xmlns="http://www.w3.org/2000/svg">
<g filter="url(#filter0_di_1_321)">
<circle cx="42.166" cy="42.3901" r="38" fill="#FBFBFF"/>
</g>
<path d="M40.3959 31.4425V36.9392C40.3948 37.6238 40.1912 38.2927 39.8108 38.8619C39.4304 39.4311 38.8902 39.8751 38.2582 40.138C37.8401 40.3108 37.3917 40.3985 36.9392 40.3958H31.4426C30.5283 40.3921 29.6527 40.0262 29.0075 39.3784C28.3623 38.7306 28.0001 37.8535 28.0001 36.9392V31.4567C28.0001 30.5424 28.3623 29.6653 29.0075 29.0174C29.6527 28.3696 30.5283 28.0037 31.4426 28H36.9392C37.8536 28 38.7306 28.3622 39.3785 29.0074C40.0263 29.6526 40.3922 30.5282 40.3959 31.4425ZM55.6251 31.4567V36.9392C55.6281 37.3918 55.5406 37.8405 55.3679 38.2589C55.1952 38.6774 54.9407 39.0571 54.6192 39.3758C54.3027 39.7011 53.9237 39.9591 53.505 40.1344C53.0863 40.3097 52.6365 40.3986 52.1826 40.3958H46.6859C46.0029 40.395 45.3354 40.1926 44.7669 39.8141C44.1984 39.4356 43.7542 38.8978 43.4899 38.268C43.3148 37.847 43.2261 37.3951 43.2292 36.9392V31.4567C43.2281 31.003 43.3178 30.5537 43.4929 30.1352C43.6681 29.7167 43.9253 29.3376 44.2492 29.02C44.5678 28.6973 44.9471 28.441 45.3654 28.2659C45.7836 28.0908 46.2325 28.0004 46.6859 28H52.1826C53.0969 28.0037 53.9725 28.3696 54.6177 29.0174C55.2628 29.6653 55.6251 30.5424 55.6251 31.4567ZM40.3959 46.7V52.1825C40.3922 53.0968 40.0263 53.9724 39.3785 54.6176C38.7306 55.2628 37.8536 55.625 36.9392 55.625H31.4426C30.5297 55.6232 29.6542 55.2618 29.0059 54.6192C28.6845 54.3004 28.43 53.9207 28.2572 53.5023C28.0845 53.0839 27.9971 52.6352 28.0001 52.1825V46.7C27.9971 46.2473 28.0845 45.7986 28.2572 45.3802C28.43 44.9618 28.6845 44.5821 29.0059 44.2633C29.6514 43.6128 30.5263 43.2415 31.4426 43.2292H36.9392C37.8562 43.2366 38.7332 43.6051 39.3802 44.2548C40.0273 44.9045 40.3922 45.7831 40.3959 46.7ZM55.6251 49.4342C55.6223 50.6574 55.2572 51.8524 54.5758 52.8683C53.8945 53.8842 52.9275 54.6755 51.7968 55.1423C50.6662 55.6091 49.4226 55.7305 48.223 55.4912C47.0234 55.2518 45.9216 54.6625 45.0567 53.7976C44.1917 52.9326 43.6024 51.8308 43.3631 50.6312C43.1237 49.4316 43.2452 48.1881 43.712 47.0574C44.1788 45.9268 44.9701 44.9597 45.986 44.2784C47.0019 43.5971 48.1969 43.232 49.4201 43.2292C50.6476 43.2326 51.8467 43.5983 52.8671 44.2806C53.8876 44.9628 54.6839 45.9311 55.1562 47.0641C55.4678 47.8149 55.6265 48.621 55.6251 49.4342Z" fill="url(#paint0_linear_1_321)"/>
<defs>
<filter id="filter0_di_1_321" x="0.166016" y="0.390137" width="88" height="88" filterUnits="userSpaceOnUse" color-interpolation-filters="sRGB">
<feFlood flood-opacity="0" result="BackgroundImageFix"/>
<feColorMatrix in="SourceAlpha" type="matrix" values="0 0 0 0 0 0 0 0 0 0 0 0 0 0 0 0 0 0 127 0" result="hardAlpha"/>
<feOffset dx="2" dy="2"/>
<feGaussianBlur stdDeviation="3"/>
<feComposite in2="hardAlpha" operator="out"/>
<feColorMatrix type="matrix" values="0 0 0 0 0 0 0 0 0 0 0 0 0 0 0 0 0 0 0.15 0"/>
<feBlend mode="normal" in2="BackgroundImageFix" result="effect1_dropShadow_1_321"/>
<feBlend mode="normal" in="SourceGraphic" in2="effect1_dropShadow_1_321" result="shape"/>
<feColorMatrix in="SourceAlpha" type="matrix" values="0 0 0 0 0 0 0 0 0 0 0 0 0 0 0 0 0 0 127 0" result="hardAlpha"/>
<feOffset dx="3" dy="2"/>
<feGaussianBlur stdDeviation="0.5"/>
<feComposite in2="hardAlpha" operator="arithmetic" k2="-1" k3="1"/>
<feColorMatrix type="matrix" values="0 0 0 0 1 0 0 0 0 1 0 0 0 0 1 0 0 0 1 0"/>
<feBlend mode="normal" in2="shape" result="effect2_innerShadow_1_321"/>
</filter>
<linearGradient id="paint0_linear_1_321" x1="59" y1="28" x2="28" y2="54" gradientUnits="userSpaceOnUse">
<stop stop-color="#FDFC8A"/>
<stop offset="0.5" stop-color="#FF5631"/>
<stop offset="1" stop-color="#634AFF"/>
</linearGradient>
</defs>
</svg>
