<svg width="86" height="21" viewBox="0 0 86 21" fill="none" xmlns="http://www.w3.org/2000/svg">
<path d="M0.792 11.552C0.792 9.888 1.152 8.408 1.872 7.112C2.592 5.8 3.592 4.784 4.872 4.064C6.168 3.328 7.632 2.96 9.264 2.96C11.264 2.96 12.976 3.488 14.4 4.544C15.824 5.6 16.776 7.04 17.256 8.864H12.744C12.408 8.16 11.928 7.624 11.304 7.256C10.696 6.888 10 6.704 9.216 6.704C7.952 6.704 6.928 7.144 6.144 8.024C5.36 8.904 4.968 10.08 4.968 11.552C4.968 13.024 5.36 14.2 6.144 15.08C6.928 15.96 7.952 16.4 9.216 16.4C10 16.4 10.696 16.216 11.304 15.848C11.928 15.48 12.408 14.944 12.744 14.24H17.256C16.776 16.064 15.824 17.504 14.4 18.56C12.976 19.6 11.264 20.12 9.264 20.12C7.632 20.12 6.168 19.76 4.872 19.04C3.592 18.304 2.592 17.288 1.872 15.992C1.152 14.696 0.792 13.216 0.792 11.552ZM22.4332 8.84C22.9132 8.104 23.5132 7.528 24.2333 7.112C24.9532 6.68 25.7532 6.464 26.6332 6.464V10.808H25.5053C24.4813 10.808 23.7132 11.032 23.2012 11.48C22.6892 11.912 22.4332 12.68 22.4332 13.784V20H18.3292V6.608H22.4332V8.84ZM26.3389 13.28C26.3389 11.904 26.5949 10.696 27.1069 9.656C27.6349 8.616 28.3469 7.816 29.2429 7.256C30.1389 6.696 31.1389 6.416 32.2429 6.416C33.1869 6.416 34.0109 6.608 34.7149 6.992C35.4349 7.376 35.9869 7.88 36.3709 8.504V6.608H40.4749V20H36.3709V18.104C35.9709 18.728 35.4109 19.232 34.6909 19.616C33.9869 20 33.1629 20.192 32.2189 20.192C31.1309 20.192 30.1389 19.912 29.2429 19.352C28.3469 18.776 27.6349 17.968 27.1069 16.928C26.5949 15.872 26.3389 14.656 26.3389 13.28ZM36.3709 13.304C36.3709 12.28 36.0829 11.472 35.5069 10.88C34.9469 10.288 34.2589 9.992 33.4429 9.992C32.6269 9.992 31.9309 10.288 31.3549 10.88C30.7949 11.456 30.5149 12.256 30.5149 13.28C30.5149 14.304 30.7949 15.12 31.3549 15.728C31.9309 16.32 32.6269 16.616 33.4429 16.616C34.2589 16.616 34.9469 16.32 35.5069 15.728C36.0829 15.136 36.3709 14.328 36.3709 13.304ZM61.2279 6.608L57.6039 20H53.0679L50.9559 11.312L48.7719 20H44.2599L40.6119 6.608H44.7159L46.6119 16.184L48.8679 6.608H53.2119L55.4919 16.136L57.3639 6.608H61.2279ZM65.457 2.24V20H61.353V2.24H65.457ZM69.0551 5.216C68.3351 5.216 67.7431 5.008 67.2791 4.592C66.8311 4.16 66.6071 3.632 66.6071 3.008C66.6071 2.368 66.8311 1.84 67.2791 1.424C67.7431 0.991999 68.3351 0.775999 69.0551 0.775999C69.7591 0.775999 70.3351 0.991999 70.7831 1.424C71.2471 1.84 71.4791 2.368 71.4791 3.008C71.4791 3.632 71.2471 4.16 70.7831 4.592C70.3351 5.008 69.7591 5.216 69.0551 5.216ZM71.0951 6.608V20H66.9911V6.608H71.0951ZM78.7253 20.192C77.4133 20.192 76.2293 19.912 75.1733 19.352C74.1333 18.792 73.3093 17.992 72.7013 16.952C72.1093 15.912 71.8133 14.696 71.8133 13.304C71.8133 11.928 72.1173 10.72 72.7253 9.68C73.3333 8.624 74.1653 7.816 75.2213 7.256C76.2773 6.696 77.4613 6.416 78.7733 6.416C80.0853 6.416 81.2693 6.696 82.3253 7.256C83.3813 7.816 84.2133 8.624 84.8213 9.68C85.4293 10.72 85.7333 11.928 85.7333 13.304C85.7333 14.68 85.4213 15.896 84.7973 16.952C84.1893 17.992 83.3493 18.792 82.2773 19.352C81.2213 19.912 80.0373 20.192 78.7253 20.192ZM78.7253 16.64C79.5093 16.64 80.1733 16.352 80.7173 15.776C81.2773 15.2 81.5573 14.376 81.5573 13.304C81.5573 12.232 81.2853 11.408 80.7413 10.832C80.2133 10.256 79.5573 9.968 78.7733 9.968C77.9733 9.968 77.3093 10.256 76.7813 10.832C76.2533 11.392 75.9893 12.216 75.9893 13.304C75.9893 14.376 76.2453 15.2 76.7573 15.776C77.2853 16.352 77.9413 16.64 78.7253 16.64Z" fill="white"/>
</svg>
