<svg width="142" height="142" viewBox="0 0 142 142" fill="none" xmlns="http://www.w3.org/2000/svg">
<path d="M98.9691 30.4631C105.412 34.9421 110.684 40.9026 114.343 47.8435C118.003 54.7844 119.942 62.5025 119.997 70.3487C120.053 78.1949 118.223 85.9397 114.663 92.9317C111.102 99.9236 105.914 105.958 99.5357 110.528C93.1573 115.098 85.7747 118.069 78.009 119.191C70.2434 120.314 62.3216 119.555 54.9102 116.979C47.4988 114.403 40.8144 110.084 35.4194 104.387C30.0243 98.6898 26.0763 91.7802 23.9075 84.2395" stroke="#222222" stroke-width="2" stroke-linecap="round"/>
<path d="M22.3804 76.7997C20.8177 64.353 24.0881 51.781 31.5179 41.6736C38.9477 31.5662 49.971 24.6933 62.317 22.4707" stroke="#222222" stroke-width="2" stroke-linecap="round"/>
<path d="M69.9016 21.0072C78.3339 20.8208 86.675 22.7834 94.1395 26.7103" stroke="#222222" stroke-width="0.6" stroke-linecap="round" stroke-dasharray="4 4"/>
<path fill-rule="evenodd" clip-rule="evenodd" d="M67.6676 54.8333C67.6676 54.3471 67.4745 53.8808 67.1307 53.537C66.7869 53.1932 66.3205 53 65.8343 53C65.3481 53 64.8818 53.1932 64.5379 53.537C64.1941 53.8808 64.001 54.3471 64.001 54.8333V58.5C64.001 58.9862 64.1941 59.4525 64.5379 59.7964C64.8818 60.1402 65.3481 60.3333 65.8343 60.3333C66.3205 60.3333 66.7869 60.1402 67.1307 59.7964C67.4745 59.4525 67.6676 58.9862 67.6676 58.5V54.8333ZM59.3516 56.7583C59.1825 56.5832 58.9802 56.4436 58.7566 56.3475C58.5329 56.2514 58.2923 56.2008 58.0489 56.1987C57.8055 56.1966 57.564 56.243 57.3387 56.3352C57.1134 56.4273 56.9087 56.5635 56.7366 56.7356C56.5644 56.9077 56.4283 57.1124 56.3361 57.3378C56.244 57.5631 56.1976 57.8045 56.1997 58.0479C56.2018 58.2913 56.2524 58.5319 56.3485 58.7556C56.4445 58.9792 56.5842 59.1815 56.7593 59.3507L59.3516 61.9467C59.5221 62.1171 59.7245 62.2523 59.9472 62.3446C60.1699 62.4368 60.4086 62.4843 60.6496 62.4843C60.8907 62.4843 61.1294 62.4368 61.3521 62.3446C61.5748 62.2523 61.7772 62.1171 61.9476 61.9467C62.1181 61.7762 62.2533 61.5739 62.3456 61.3511C62.4378 61.1284 62.4853 60.8897 62.4853 60.6487C62.4853 60.4076 62.4378 60.1689 62.3456 59.9462C62.2533 59.7235 62.1181 59.5211 61.9476 59.3507L59.3516 56.7583ZM67.2845 64.385C65.4915 63.7873 63.7883 65.4905 64.3841 67.2817L70.8613 86.7113C71.5158 88.6767 74.2346 88.8343 75.1128 86.957L78.8803 78.8793L86.958 75.1118C88.8353 74.2355 88.6777 71.5148 86.7123 70.8603L67.2845 64.385ZM74.9093 56.7583C75.253 57.1021 75.4461 57.5684 75.4461 58.0545C75.4461 58.5406 75.253 59.0069 74.9093 59.3507L72.317 61.9467C72.1466 62.117 71.9444 62.2521 71.7219 62.3443C71.4993 62.4365 71.2608 62.4839 71.0199 62.4839C70.779 62.4839 70.5405 62.4365 70.3179 62.3443C70.0954 62.2521 69.8931 62.117 69.7228 61.9467C69.5525 61.7763 69.4174 61.5741 69.3252 61.3516C69.233 61.129 69.1855 60.8905 69.1855 60.6496C69.1855 60.4087 69.233 60.1702 69.3252 59.9476C69.4174 59.7251 69.5525 59.5228 69.7228 59.3525L72.317 56.7602C72.6608 56.4165 73.127 56.2234 73.6131 56.2234C74.0993 56.2234 74.5655 56.4146 74.9093 56.7583ZM53.001 65.8333C53.001 65.3471 53.1941 64.8808 53.5379 64.537C53.8818 64.1932 54.3481 64 54.8343 64H58.501C58.9872 64 59.4535 64.1932 59.7973 64.537C60.1412 64.8808 60.3343 65.3471 60.3343 65.8333C60.3343 66.3196 60.1412 66.7859 59.7973 67.1297C59.4535 67.4735 58.9872 67.6667 58.501 67.6667H54.8343C54.3481 67.6667 53.8818 67.4735 53.5379 67.1297C53.1941 66.7859 53.001 66.3196 53.001 65.8333ZM61.9458 72.316C62.1161 72.1457 62.2513 71.9434 62.3434 71.7209C62.4356 71.4983 62.4831 71.2598 62.4831 71.0189C62.4831 70.778 62.4356 70.5395 62.3434 70.3169C62.2513 70.0944 62.1161 69.8922 61.9458 69.7218C61.7755 69.5515 61.5733 69.4164 61.3507 69.3242C61.1281 69.232 60.8896 69.1846 60.6487 69.1846C60.4078 69.1846 60.1693 69.232 59.9468 69.3242C59.7242 69.4164 59.522 69.5515 59.3516 69.7218L56.7593 72.316C56.5842 72.4851 56.4445 72.6874 56.3485 72.9111C56.2524 73.1348 56.2018 73.3753 56.1997 73.6188C56.1976 73.8622 56.244 74.1036 56.3361 74.3289C56.4283 74.5542 56.5644 74.7589 56.7366 74.9311C56.9087 75.1032 57.1134 75.2393 57.3387 75.3315C57.564 75.4237 57.8055 75.4701 58.0489 75.468C58.2923 75.4658 58.5329 75.4153 58.7566 75.3192C58.9802 75.2231 59.1825 75.0834 59.3516 74.9083L61.9458 72.316Z" fill="#222222"/>
</svg>
