<svg width="142" height="142" viewBox="0 0 142 142" fill="none" xmlns="http://www.w3.org/2000/svg">
<path d="M33.0002 101.629C28.0467 95.5433 24.6271 88.3575 23.0289 80.6756C21.4307 72.9937 21.7006 65.0403 23.816 57.4845C25.9314 49.9286 29.8304 42.9912 35.1851 37.2559C40.5397 31.5205 47.1933 27.155 54.5863 24.5264C61.9793 21.8978 69.8955 21.083 77.6689 22.1507C85.4423 23.2183 92.8457 26.1371 99.2563 30.6615C105.667 35.1859 110.897 41.1837 114.507 48.1503C118.117 55.1169 120.002 62.8485 120.002 70.6949" stroke="#222222" stroke-width="2" stroke-linecap="round"/>
<path d="M119.413 78.267C117.474 90.6607 110.856 101.839 100.922 109.499C90.988 117.159 78.4944 120.717 66.0151 119.441" stroke="#222222" stroke-width="2" stroke-linecap="round"/>
<path d="M58.3215 118.751C50.1661 116.599 42.6925 112.407 36.6043 106.57" stroke="#222222" stroke-width="0.6" stroke-linecap="round" stroke-dasharray="4 4"/>
<g clip-path="url(#clip0_1_266)">
<path d="M68.2503 52.6666C71.1762 52.6664 74.0431 53.49 76.5229 55.0431C79.0026 56.5961 80.995 58.8159 82.2721 61.4485C83.5491 64.081 84.0592 67.0199 83.744 69.9288C83.4288 72.8377 82.301 75.5991 80.4896 77.897L87.185 84.5923C87.5189 84.9381 87.7037 85.4012 87.6995 85.8819C87.6954 86.3626 87.5026 86.8224 87.1626 87.1623C86.8227 87.5022 86.3629 87.695 85.8822 87.6992C85.4015 87.7034 84.9384 87.5186 84.5926 87.1846L77.8973 80.4893C75.9456 82.0274 73.6544 83.0765 71.2148 83.549C68.7753 84.0215 66.2581 83.9037 63.8733 83.2056C61.4884 82.5074 59.3052 81.249 57.5056 79.5355C55.706 77.8219 54.3423 75.7028 53.5282 73.355C52.7142 71.0072 52.4734 68.4988 52.8259 66.039C53.1785 63.5793 54.1142 61.2395 55.5549 59.2148C56.9956 57.1902 58.8997 55.5395 61.1081 54.4004C63.3166 53.2613 65.7654 52.6668 68.2503 52.6666ZM68.2503 56.3333C65.0898 56.3333 62.0588 57.5888 59.824 59.8236C57.5891 62.0584 56.3336 65.0895 56.3336 68.25C56.3336 71.4105 57.5891 74.4415 59.824 76.6763C62.0588 78.9111 65.0898 80.1666 68.2503 80.1666C71.4108 80.1666 74.4419 78.9111 76.6767 76.6763C78.9115 74.4415 80.167 71.4105 80.167 68.25C80.167 65.0895 78.9115 62.0584 76.6767 59.8236C74.4419 57.5888 71.4108 56.3333 68.2503 56.3333ZM68.2503 58.1666C70.9246 58.1666 73.4893 59.229 75.3803 61.12C77.2713 63.011 78.3336 65.5757 78.3336 68.25C78.3336 70.9242 77.2713 73.489 75.3803 75.38C73.4893 77.2709 70.9246 78.3333 68.2503 78.3333C65.576 78.3333 63.0113 77.2709 61.1203 75.38C59.2293 73.489 58.167 70.9242 58.167 68.25C58.167 65.5757 59.2293 63.011 61.1203 61.12C63.0113 59.229 65.576 58.1666 68.2503 58.1666Z" fill="#222222"/>
</g>
<defs>
<clipPath id="clip0_1_266">
<rect width="44" height="44" fill="white" transform="translate(49.0003 49)"/>
</clipPath>
</defs>
</svg>
