<svg width="142" height="142" viewBox="0 0 142 142" fill="none" xmlns="http://www.w3.org/2000/svg">
<path d="M108.15 102.644C103.034 108.593 96.5637 113.226 89.2841 116.154C82.0044 119.082 74.1281 120.219 66.3175 119.469C58.507 118.719 50.9908 116.105 44.4011 111.846C37.8113 107.587 32.3408 101.807 28.4496 94.9934C24.5584 88.1799 22.3604 80.5315 22.0405 72.6916C21.7205 64.8517 23.2879 57.0496 26.6109 49.9416C29.9339 42.8336 34.9153 36.6276 41.1361 31.8455C47.3568 27.0634 54.635 23.8452 62.3584 22.4614" stroke="#222222" stroke-width="2" stroke-linecap="round"/>
<path d="M69.9157 21.7057C82.457 21.4282 94.6271 25.9711 103.919 34.3987C113.211 42.8263 118.916 54.4966 119.861 67.0054" stroke="#222222" stroke-width="2" stroke-linecap="round"/>
<path d="M120.538 74.7001C119.859 83.1071 117.051 91.2028 112.379 98.225" stroke="#222222" stroke-width="0.6" stroke-linecap="round" stroke-dasharray="4 4"/>
<path d="M71.0003 63.6666V52.6666H60.0003C59.0279 52.6666 58.0952 53.0529 57.4076 53.7406C56.72 54.4282 56.3337 55.3608 56.3337 56.3333V73.75H68.2503C69.2228 73.75 70.1554 74.1363 70.8431 74.8239C71.5307 75.5115 71.917 76.4442 71.917 77.4166C71.917 78.3891 71.5307 79.3217 70.8431 80.0093C70.1554 80.697 69.2228 81.0833 68.2503 81.0833H56.3337V85.6666C56.3337 86.6391 56.72 87.5717 57.4076 88.2593C58.0952 88.947 59.0279 89.3333 60.0003 89.3333H82.0003C82.9728 89.3333 83.9054 88.947 84.5931 88.2593C85.2807 87.5717 85.667 86.6391 85.667 85.6666V67.3333H74.667C73.6945 67.3333 72.7619 66.947 72.0743 66.2593C71.3866 65.5717 71.0003 64.6391 71.0003 63.6666ZM62.7503 70.5416C62.7503 70.177 62.8952 69.8272 63.1531 69.5694C63.4109 69.3115 63.7607 69.1666 64.1253 69.1666H77.8753C78.24 69.1666 78.5897 69.3115 78.8476 69.5694C79.1055 69.8272 79.2503 70.177 79.2503 70.5416C79.2503 70.9063 79.1055 71.256 78.8476 71.5139C78.5897 71.7718 78.24 71.9166 77.8753 71.9166H64.1253C63.7607 71.9166 63.4109 71.7718 63.1531 71.5139C62.8952 71.256 62.7503 70.9063 62.7503 70.5416ZM62.7503 84.2916C62.7503 83.9269 62.8952 83.5772 63.1531 83.3193C63.4109 83.0615 63.7607 82.9166 64.1253 82.9166H77.8753C78.24 82.9166 78.5897 83.0615 78.8476 83.3193C79.1055 83.5772 79.2503 83.9269 79.2503 84.2916C79.2503 84.6563 79.1055 85.006 78.8476 85.2639C78.5897 85.5218 78.24 85.6666 77.8753 85.6666H64.1253C63.7607 85.6666 63.4109 85.5218 63.1531 85.2639C62.8952 85.006 62.7503 84.6563 62.7503 84.2916ZM73.7503 63.6666V53.5833L84.7503 64.5833H74.667C74.4239 64.5833 74.1907 64.4867 74.0188 64.3148C73.8469 64.1429 73.7503 63.9097 73.7503 63.6666ZM54.042 76.0416C53.6773 76.0416 53.3276 76.1865 53.0697 76.4444C52.8119 76.7022 52.667 77.0519 52.667 77.4166C52.667 77.7813 52.8119 78.131 53.0697 78.3889C53.3276 78.6468 53.6773 78.7916 54.042 78.7916H67.792C68.1567 78.7916 68.5064 78.6468 68.7643 78.3889C69.0221 78.131 69.167 77.7813 69.167 77.4166C69.167 77.0519 69.0221 76.7022 68.7643 76.4444C68.5064 76.1865 68.1567 76.0416 67.792 76.0416H54.042Z" fill="#222222"/>
</svg>
