<svg width="1060" height="1358" viewBox="0 0 1060 1358" fill="none" xmlns="http://www.w3.org/2000/svg">
<path d="M184.393 902.427C246.951 1333.64 467.879 902.658 597.067 1009.24C730.849 1119.63 869.752 1162.25 919.78 895.941C969.807 629.633 1071.68 618.091 1153.31 568.203C1276.09 493.161 1210.63 300.911 1009.37 358.172C778.975 423.724 646.888 771.17 559.758 613.217C477.789 464.628 364.326 388.785 268.455 522.593C198.166 620.718 166.186 776.875 184.393 902.427Z" fill="#A6BDD4" fill-opacity="0.08"/>
<path d="M659.051 392.401C488.115 455.42 594.463 609.887 681.727 534.907C740.499 484.404 767.217 352.524 659.051 392.401Z" fill="#A6BDD4" fill-opacity="0.08"/>
</svg>
