<svg width="24" height="25" viewBox="0 0 24 25" fill="none" xmlns="http://www.w3.org/2000/svg">
<path d="M16.6 6.21014C15.9165 5.42976 15.5397 4.42757 15.54 3.39014H12.45V15.7901C12.4262 16.4612 12.1429 17.0968 11.6598 17.5631C11.1767 18.0294 10.5315 18.29 9.86003 18.2901C8.44003 18.2901 7.26003 17.1301 7.26003 15.6901C7.26003 13.9701 8.92003 12.6801 10.63 13.2101V10.0501C7.18003 9.59014 4.16003 12.2701 4.16003 15.6901C4.16003 19.0201 6.92003 21.3901 9.85003 21.3901C12.99 21.3901 15.54 18.8401 15.54 15.6901V9.40014C16.793 10.3 18.2974 10.7828 19.84 10.7801V7.69014C19.84 7.69014 17.96 7.78014 16.6 6.21014Z" fill="white"/>
</svg>
