<svg width="37" height="37" viewBox="0 0 37 37" fill="none" xmlns="http://www.w3.org/2000/svg">
<g clip-path="url(#clip0_1_372)">
<path d="M29.525 15.4501C29.0211 12.8967 27.6464 10.5974 25.6356 8.94501C23.6248 7.29259 21.1027 6.38955 18.5 6.39014C14.165 6.39014 10.4 8.85014 8.525 12.4501C6.32035 12.6884 4.28151 13.7329 2.80023 15.3831C1.31896 17.0333 0.499742 19.1726 0.5 21.3901C0.5 26.3551 4.535 30.3901 9.5 30.3901H29C33.14 30.3901 36.5 27.0301 36.5 22.8901C36.5 18.9301 33.425 15.7201 29.525 15.4501ZM26 19.8901L18.5 27.3901L11 19.8901H15.5V13.8901H21.5V19.8901H26Z" fill="#222222"/>
</g>
<defs>
<clipPath id="clip0_1_372">
<rect width="36" height="36" fill="white" transform="translate(0.5 0.390137)"/>
</clipPath>
</defs>
</svg>
