<svg width="24" height="25" viewBox="0 0 24 25" fill="none" xmlns="http://www.w3.org/2000/svg">
<path d="M20.1562 21.0011C20.0917 21.1187 19.9967 21.2169 19.8813 21.2853C19.7659 21.3537 19.6342 21.3899 19.5 21.3901H15C14.8738 21.3901 14.7496 21.3582 14.639 21.2974C14.5284 21.2366 14.4349 21.1489 14.3672 21.0423L10.5712 15.077L5.055 21.1445C4.92053 21.289 4.73454 21.3746 4.53735 21.3828C4.34017 21.3911 4.14769 21.3213 4.00163 21.1885C3.85558 21.0558 3.76773 20.8708 3.75713 20.6738C3.74653 20.4767 3.81403 20.2834 3.945 20.1358L9.73594 13.7608L3.86719 4.54326C3.79491 4.42986 3.75444 4.29912 3.75004 4.16472C3.74563 4.03032 3.77744 3.8972 3.84213 3.77931C3.90683 3.66142 4.00203 3.5631 4.11777 3.49463C4.23351 3.42616 4.36552 3.39007 4.5 3.39014H9C9.12622 3.39018 9.2504 3.42207 9.36102 3.48287C9.47164 3.54367 9.56512 3.63141 9.63281 3.73795L13.4287 9.70326L18.945 3.63576C19.0795 3.49131 19.2655 3.40568 19.4626 3.39745C19.6598 3.38921 19.8523 3.45902 19.9984 3.59175C20.1444 3.72448 20.2323 3.90943 20.2429 4.1065C20.2535 4.30357 20.186 4.49688 20.055 4.64451L14.2641 11.0148L20.1328 20.2379C20.2047 20.3514 20.2448 20.4821 20.2489 20.6163C20.253 20.7505 20.221 20.8834 20.1562 21.0011Z" fill="white"/>
</svg>
