<svg width="24" height="25" viewBox="0 0 24 25" fill="none" xmlns="http://www.w3.org/2000/svg">
<path d="M13.028 2.39014C14.153 2.39314 14.724 2.39914 15.217 2.41314L15.411 2.42014C15.635 2.42814 15.856 2.43814 16.123 2.45014C17.187 2.50014 17.913 2.66814 18.55 2.91514C19.21 3.16914 19.766 3.51314 20.322 4.06814C20.8307 4.56787 21.2242 5.17261 21.475 5.84014C21.722 6.47714 21.89 7.20314 21.94 8.26814C21.952 8.53414 21.962 8.75514 21.97 8.98014L21.976 9.17414C21.991 9.66614 21.997 10.2371 21.999 11.3621L22 12.1081V13.4181C22.0025 14.1475 21.9948 14.8769 21.977 15.6061L21.971 15.8001C21.963 16.0251 21.953 16.2461 21.941 16.5121C21.891 17.5771 21.721 18.3021 21.475 18.9401C21.2242 19.6077 20.8307 20.2124 20.322 20.7121C19.8223 21.2208 19.2175 21.6143 18.55 21.8651C17.913 22.1121 17.187 22.2801 16.123 22.3301L15.411 22.3601L15.217 22.3661C14.724 22.3801 14.153 22.3871 13.028 22.3891L12.282 22.3901H10.973C10.2433 22.3927 9.51354 22.385 8.78402 22.3671L8.59002 22.3611C8.35263 22.3521 8.11529 22.3418 7.87802 22.3301C6.81402 22.2801 6.08802 22.1121 5.45002 21.8651C4.78285 21.6142 4.17846 21.2207 3.67902 20.7121C3.16996 20.2125 2.77613 19.6078 2.52502 18.9401C2.27802 18.3031 2.11002 17.5771 2.06002 16.5121L2.03002 15.8001L2.02502 15.6061C2.00659 14.877 1.99825 14.1476 2.00002 13.4181V11.3621C1.99725 10.6327 2.00459 9.90333 2.02202 9.17414L2.02902 8.98014C2.03702 8.75514 2.04702 8.53414 2.05902 8.26814C2.10902 7.20314 2.27702 6.47814 2.52402 5.84014C2.77571 5.17234 3.17024 4.56757 3.68002 4.06814C4.17917 3.55969 4.78321 3.16621 5.45002 2.91514C6.08802 2.66814 6.81302 2.50014 7.87802 2.45014C8.14402 2.43814 8.36602 2.42814 8.59002 2.42014L8.78402 2.41414C9.51321 2.39637 10.2426 2.3887 10.972 2.39114L13.028 2.39014ZM12 7.39014C10.6739 7.39014 9.40217 7.91692 8.46449 8.8546C7.5268 9.79228 7.00002 11.0641 7.00002 12.3901C7.00002 13.7162 7.5268 14.988 8.46449 15.9257C9.40217 16.8634 10.6739 17.3901 12 17.3901C13.3261 17.3901 14.5979 16.8634 15.5356 15.9257C16.4732 14.988 17 13.7162 17 12.3901C17 11.0641 16.4732 9.79228 15.5356 8.8546C14.5979 7.91692 13.3261 7.39014 12 7.39014ZM12 9.39014C12.394 9.39007 12.7841 9.4676 13.1481 9.61831C13.5121 9.76901 13.8429 9.98993 14.1215 10.2685C14.4001 10.547 14.6211 10.8777 14.772 11.2416C14.9228 11.6056 15.0005 11.9957 15.0005 12.3896C15.0006 12.7836 14.9231 13.1737 14.7723 13.5377C14.6216 13.9017 14.4007 14.2325 14.1222 14.5111C13.8437 14.7897 13.513 15.0108 13.149 15.1616C12.7851 15.3124 12.395 15.3901 12.001 15.3901C11.2054 15.3901 10.4423 15.0741 9.8797 14.5115C9.31709 13.9488 9.00102 13.1858 9.00102 12.3901C9.00102 11.5945 9.31709 10.8314 9.8797 10.2688C10.4423 9.70621 11.2054 9.39014 12.001 9.39014M17.251 5.89014C16.9195 5.89014 16.6016 6.02183 16.3671 6.25625C16.1327 6.49067 16.001 6.80862 16.001 7.14014C16.001 7.47166 16.1327 7.7896 16.3671 8.02402C16.6016 8.25844 16.9195 8.39014 17.251 8.39014C17.5825 8.39014 17.9005 8.25844 18.1349 8.02402C18.3693 7.7896 18.501 7.47166 18.501 7.14014C18.501 6.80862 18.3693 6.49067 18.1349 6.25625C17.9005 6.02183 17.5825 5.89014 17.251 5.89014Z" fill="white"/>
</svg>
