<svg width="56" height="57" viewBox="0 0 56 57" fill="none" xmlns="http://www.w3.org/2000/svg">
<path d="M35.7058 38.1314C34.9475 37.541 34.9475 36.3954 35.7058 35.805L53.6212 21.8704C54.0668 21.525 54.6677 21.4632 55.174 21.7094C55.6792 21.9579 56 22.4712 56 23.0335V52.409C56 53.0227 55.2953 53.3669 54.8112 52.9912L35.7058 38.1314ZM3.073 56.9287H52.9258C53.627 56.9287 53.9315 56.0409 53.3785 55.6104L32.7145 39.5384C32.1825 39.1242 31.437 39.1242 30.905 39.5384L28.9042 41.0947C28.3722 41.5089 27.6267 41.5089 27.0947 41.0947L25.0938 39.5384C24.5618 39.1242 23.8163 39.1242 23.2843 39.5384L2.6215 55.6104C2.06733 56.0409 2.37183 56.9287 3.073 56.9287ZM20.2942 38.1325C21.0525 37.5422 21.0525 36.3965 20.2942 35.8062L2.37767 21.8704C1.93317 21.5262 1.33117 21.4644 0.826 21.7094C0.320833 21.9579 0 22.4712 0 23.0335V52.409C0 53.0227 0.704667 53.3669 1.18883 52.9912L20.2942 38.1325ZM53.053 5.34921V18.6119C53.053 19.0762 52.8337 19.5125 52.4627 19.7902L28.8843 37.4745C28.6218 37.6717 28.3103 37.7697 28 37.7697C27.6897 37.7697 27.377 37.6717 27.1157 37.4745L3.53617 19.7914C3.16517 19.5137 2.947 19.0774 2.947 18.613V5.34921C2.947 2.91204 4.93033 0.928711 7.36867 0.928711H48.6313C51.0697 0.928711 53.053 2.91204 53.053 5.34921ZM39.7892 17.1395C39.7892 13.9592 38.542 10.9784 36.2775 8.74538C34.0118 6.51238 31.0042 5.31538 27.832 5.35154C21.5122 5.43904 16.2983 10.6529 16.2108 16.9739C16.1665 20.1554 17.3717 23.1549 19.6047 25.4182C21.8388 27.6815 24.8197 28.9287 28 28.9287C28.8143 28.9287 29.4735 28.2684 29.4735 27.4552C29.4735 26.6409 28.8132 25.9817 28 25.9817C25.6153 25.9817 23.3788 25.046 21.7047 23.3485C20.0293 21.6499 19.1252 19.4005 19.159 17.0147C19.2243 12.355 23.2143 8.36388 27.874 8.29971C30.3088 8.28338 32.5115 9.17238 34.209 10.8454C35.9077 12.5207 36.8422 14.756 36.8422 17.1407V18.6142C36.8422 19.4262 36.1818 20.0877 35.3687 20.0877C34.5555 20.0877 33.8952 19.4262 33.8952 18.6142V17.1407V12.7202C33.8952 11.9059 33.236 11.2467 32.4217 11.2467C31.8232 11.2467 31.3087 11.6025 31.0777 12.1147C30.1805 11.5629 29.127 11.2444 28 11.2444C24.7497 11.2444 22.1048 13.8892 22.1048 17.1395C22.1048 20.3899 24.7497 23.0347 28 23.0347C28.8143 23.0347 29.4735 22.3744 29.4735 21.5612C29.4735 20.7469 28.8132 20.0877 28 20.0877C26.3748 20.0877 25.053 18.7659 25.053 17.1407C25.053 15.5155 26.3748 14.1937 28 14.1937C29.6252 14.1937 30.947 15.5155 30.947 17.1407V18.6142C30.947 21.0525 32.9303 23.0347 35.3675 23.0347C37.8058 23.0347 39.788 21.0514 39.788 18.6142L39.7892 17.1395Z" fill="#FF0000"/>
<path d="M53.053 5.34921V18.6119C53.053 19.0762 52.8337 19.5125 52.4627 19.7902L28.8844 37.4745C28.6219 37.6717 28.3104 37.7697 28 37.7697C27.6897 37.7697 27.377 37.6717 27.1157 37.4745L3.53619 19.7914C3.16519 19.5137 2.94702 19.0774 2.94702 18.613V5.34921C2.94702 2.91204 4.93035 0.928711 7.36869 0.928711H48.6314C51.0697 0.928711 53.053 2.91204 53.053 5.34921ZM39.7892 17.1395C39.7892 13.9592 38.542 10.9784 36.2775 8.74538C34.0119 6.51238 31.0042 5.31538 27.832 5.35154C21.5122 5.43904 16.2984 10.6529 16.2109 16.9739C16.1665 20.1554 17.3717 23.1549 19.6047 25.4182C21.8389 27.6815 24.8197 28.9287 28 28.9287C28.8144 28.9287 29.4735 28.2684 29.4735 27.4552C29.4735 26.6409 28.8132 25.9817 28 25.9817C25.6154 25.9817 23.3789 25.046 21.7047 23.3485C20.0294 21.6499 19.1252 19.4005 19.159 17.0147C19.2244 12.355 23.2144 8.36388 27.874 8.29971C30.3089 8.28338 32.5115 9.17238 34.209 10.8454C35.9077 12.5207 36.8422 14.756 36.8422 17.1407V18.6142C36.8422 19.4262 36.1819 20.0877 35.3687 20.0877C34.5555 20.0877 33.8952 19.4262 33.8952 18.6142V17.1407V12.7202C33.8952 11.9059 33.236 11.2467 32.4217 11.2467C31.8232 11.2467 31.3087 11.6025 31.0777 12.1147C30.1805 11.5629 29.127 11.2444 28 11.2444C24.7497 11.2444 22.1049 13.8892 22.1049 17.1395C22.1049 20.3899 24.7497 23.0347 28 23.0347C28.8144 23.0347 29.4735 22.3744 29.4735 21.5612C29.4735 20.7469 28.8132 20.0877 28 20.0877C26.3749 20.0877 25.053 18.7659 25.053 17.1407C25.053 15.5155 26.3749 14.1937 28 14.1937C29.6252 14.1937 30.947 15.5155 30.947 17.1407V18.6142C30.947 21.0525 32.9304 23.0347 35.3675 23.0347C37.8059 23.0347 39.788 21.0514 39.788 18.6142L39.7892 17.1395Z" fill="#BF0000"/>
</svg>
