<svg width="56" height="57" viewBox="0 0 56 57" fill="none" xmlns="http://www.w3.org/2000/svg">
<path d="M30.3334 12.5951V3.51839C31.5106 3.82729 32.5826 4.44798 33.4367 5.31505L39.97 11.9417C40.7942 12.7751 41.3959 13.802 41.72 14.9284H32.6667C32.0478 14.9284 31.4544 14.6826 31.0168 14.245C30.5792 13.8074 30.3334 13.2139 30.3334 12.5951ZM50.68 43.7917L46.0134 38.9617C45.6897 38.6259 45.2729 38.3948 44.8167 38.2982C44.3604 38.2016 43.8857 38.2439 43.4538 38.4197C43.0218 38.5955 42.6524 38.8967 42.3933 39.2845C42.1342 39.6722 41.9972 40.1287 42 40.5951V42.9284H35C34.3812 42.9284 33.7877 43.1742 33.3501 43.6118C32.9125 44.0494 32.6667 44.6429 32.6667 45.2617C32.6667 45.8806 32.9125 46.4741 33.3501 46.9116C33.7877 47.3492 34.3812 47.5951 35 47.5951H42V49.9284C42.0004 50.3864 42.1356 50.8342 42.3887 51.2159C42.6418 51.5976 43.0016 51.8964 43.4234 52.0751C43.7127 52.1926 44.0211 52.2559 44.3334 52.2617C44.9422 52.2654 45.5283 52.0309 45.9667 51.6084L50.6334 47.0817C51.073 46.6509 51.3246 46.0639 51.3334 45.4484C51.3432 44.8315 51.1083 44.2359 50.68 43.7917ZM39.6667 33.5951C40.2855 33.5951 40.879 33.3492 41.3166 32.9116C41.7542 32.4741 42 31.8806 42 31.2617V19.5951H32.6667C30.8102 19.5951 29.0297 18.8576 27.7169 17.5448C26.4042 16.232 25.6667 14.4516 25.6667 12.5951V3.26172H11.6667C9.81017 3.26172 8.02969 3.99922 6.71694 5.31197C5.40419 6.62473 4.66669 8.4052 4.66669 10.2617V47.5951C4.66669 49.4516 5.40419 51.232 6.71694 52.5448C8.02969 53.8576 9.81017 54.5951 11.6667 54.5951H27.5567H28.0234C28.1779 54.5734 28.3277 54.5261 28.4667 54.4551L28.7467 54.3151C29.0174 54.1518 29.2522 53.9353 29.4367 53.6786C29.6212 53.4219 29.7516 53.1304 29.82 52.8217C29.8428 52.6514 29.8428 52.4787 29.82 52.3084C29.8523 52.1075 29.8523 51.9027 29.82 51.7017C29.7771 51.4951 29.6981 51.2976 29.5867 51.1184C28.5378 49.3456 27.9894 47.3215 28 45.2617C28 42.1675 29.2292 39.2001 31.4171 37.0121C33.605 34.8242 36.5725 33.5951 39.6667 33.5951Z" fill="#FF0000"/>
<path d="M30.3334 12.5952V3.51855C31.5106 3.82746 32.5827 4.44815 33.4367 5.31522L39.97 11.9419C40.7942 12.7752 41.3959 13.8022 41.72 14.9286H32.6667C32.0479 14.9286 31.4544 14.6827 31.0168 14.2451C30.5792 13.8076 30.3334 13.2141 30.3334 12.5952ZM50.68 43.7919L46.0134 38.9619C45.6897 38.6261 45.2729 38.395 44.8167 38.2984C44.3604 38.2018 43.8857 38.2441 43.4538 38.4199C43.0218 38.5957 42.6525 38.8969 42.3933 39.2846C42.1342 39.6724 41.9972 40.1289 42 40.5952V42.9286H35C34.3812 42.9286 33.7877 43.1744 33.3501 43.612C32.9125 44.0496 32.6667 44.6431 32.6667 45.2619C32.6667 45.8807 32.9125 46.4742 33.3501 46.9118C33.7877 47.3494 34.3812 47.5952 35 47.5952H42V49.9286C42.0004 50.3866 42.1356 50.8343 42.3887 51.2161C42.6418 51.5978 43.0016 51.8966 43.4234 52.0752C43.7127 52.1928 44.0212 52.2561 44.3334 52.2619C44.9422 52.2655 45.5284 52.0311 45.9667 51.6086L50.6334 47.0819C51.073 46.6511 51.3246 46.064 51.3334 45.4486C51.3432 44.8317 51.1083 44.236 50.68 43.7919Z" fill="#BF0000"/>
</svg>
