<svg width="56" height="57" viewBox="0 0 56 57" fill="none" xmlns="http://www.w3.org/2000/svg">
<path d="M49 13.1788H32.76L30.45 6.28379C30.113 5.23225 29.4493 4.31565 28.5554 3.6673C27.6616 3.01895 26.5842 2.67265 25.48 2.67879H7C6.31029 2.67782 5.62717 2.81296 4.98977 3.07645C4.35238 3.33995 3.77324 3.72662 3.28554 4.21432C2.79784 4.70202 2.41116 5.28116 2.14767 5.91856C1.88417 6.55595 1.74904 7.23908 1.75001 7.92879V49.9288C1.74908 50.6185 1.88425 51.3016 2.14776 51.939C2.41127 52.5763 2.79795 53.1555 3.28564 53.6432C3.77333 54.1308 4.35245 54.5175 4.98983 54.781C5.6272 55.0445 6.31031 55.1797 7 55.1788H49C49.6897 55.1797 50.3728 55.0445 51.0102 54.781C51.6476 54.5175 52.2267 54.1308 52.7144 53.6432C53.2021 53.1555 53.5887 52.5763 53.8522 51.939C54.1158 51.3016 54.2509 50.6185 54.25 49.9288V18.4288C54.251 17.7391 54.1158 17.056 53.8523 16.4186C53.5888 15.7812 53.2022 15.202 52.7145 14.7143C52.2268 14.2266 51.6476 13.8399 51.0102 13.5765C50.3728 13.313 49.6897 13.1778 49 13.1788ZM36.2373 33.666C35.9091 33.9941 35.464 34.1784 35 34.1784C34.536 34.1784 34.0909 33.9941 33.7628 33.666L29.75 29.6533V42.9288C29.75 43.3929 29.5656 43.838 29.2374 44.1662C28.9093 44.4944 28.4641 44.6788 28 44.6788C27.5359 44.6788 27.0908 44.4944 26.7626 44.1662C26.4344 43.838 26.25 43.3929 26.25 42.9288V29.6533L22.2373 33.666C21.9072 33.9848 21.4651 34.1612 21.0063 34.1572C20.5475 34.1532 20.1085 33.9692 19.7841 33.6447C19.4596 33.3203 19.2756 32.8813 19.2716 32.4225C19.2676 31.9636 19.444 31.5216 19.7628 31.1915L26.7607 24.1936C27.0897 23.8657 27.5354 23.6815 28 23.6815C28.4646 23.6815 28.9103 23.8657 29.2394 24.1936L36.2373 31.1915C36.5653 31.5197 36.7496 31.9648 36.7496 32.4288C36.7496 32.8928 36.5653 33.3379 36.2373 33.666Z" fill="#FF0000"/>
<path d="M49 13.1785H32.76L30.45 6.28347C30.0356 5.03864 29.1584 4.00081 28 3.38477V23.6802C28.4646 23.6811 28.9101 23.8655 29.2394 24.1933L36.2373 31.1912C36.4044 31.3526 36.5377 31.5457 36.6294 31.7593C36.7211 31.9728 36.7694 32.2024 36.7714 32.4348C36.7735 32.6671 36.7292 32.8976 36.6412 33.1126C36.5532 33.3277 36.4233 33.5231 36.2589 33.6874C36.0946 33.8517 35.8992 33.9817 35.6842 34.0697C35.4691 34.1576 35.2387 34.2019 35.0063 34.1999C34.7739 34.1979 34.5443 34.1496 34.3308 34.0579C34.1173 33.9662 33.9242 33.8329 33.7627 33.6657L29.75 29.653V42.9285C29.75 43.3926 29.5656 43.8377 29.2374 44.1659C28.9092 44.4941 28.4641 44.6785 28 44.6785V55.1785H49C49.6897 55.1794 50.3728 55.0442 51.0102 54.7807C51.6476 54.5172 52.2267 54.1305 52.7144 53.6428C53.2021 53.1551 53.5887 52.576 53.8522 51.9386C54.1158 51.3013 54.2509 50.6182 54.25 49.9285V18.4285C54.251 17.7388 54.1158 17.0556 53.8523 16.4182C53.5888 15.7808 53.2022 15.2017 52.7145 14.714C52.2268 14.2263 51.6476 13.8396 51.0102 13.5761C50.3728 13.3126 49.6897 13.1775 49 13.1785Z" fill="#D10000"/>
</svg>
