<svg width="404" height="589" viewBox="0 0 404 589" fill="none" xmlns="http://www.w3.org/2000/svg">
<g clip-path="url(#clip0_0_407)">
<mask id="path-1-outside-1_0_407" maskUnits="userSpaceOnUse" x="0" y="0.894531" width="404" height="588" fill="black">
<rect fill="white" y="0.894531" width="404" height="588"/>
<path d="M2 16.8945C2 10.2671 7.37258 4.89453 14 4.89453H390C396.627 4.89453 402 10.2671 402 16.8945V572.895C402 579.522 396.627 584.895 390 584.895H14C7.37257 584.895 2 579.522 2 572.895V16.8945Z"/>
</mask>
<path d="M2 16.8945C2 10.2671 7.37258 4.89453 14 4.89453H390C396.627 4.89453 402 10.2671 402 16.8945V572.895C402 579.522 396.627 584.895 390 584.895H14C7.37257 584.895 2 579.522 2 572.895V16.8945Z" fill="url(#paint0_linear_0_407)"/>
<circle opacity="0.05" cx="442" cy="406" r="113" fill="white"/>
<circle opacity="0.03" cx="150" cy="555" r="113" fill="#9F025E"/>
<circle opacity="0.05" cx="336" cy="81" r="113" fill="#FFC444"/>
<circle opacity="0.04" cx="96.5" cy="189.5" r="204.5" fill="white"/>
</g>
<path d="M0 14.8945C0 7.16254 6.26801 0.894531 14 0.894531H390C397.732 0.894531 404 7.16254 404 14.8945L400 16.8945C400 12.4763 395.523 8.89453 390 8.89453H14C8.47715 8.89453 4 12.4763 4 16.8945L0 14.8945ZM404 574.895C404 582.627 397.732 588.895 390 588.895H14C6.26801 588.895 0 582.627 0 574.895L4 572.895C4 577.313 8.47715 580.895 14 580.895H390C395.523 580.895 400 577.313 400 572.895L404 574.895ZM14 588.895C6.26801 588.895 0 582.627 0 574.895V14.8945C0 7.16254 6.26801 0.894531 14 0.894531V8.89453C8.47715 8.89453 4 12.4763 4 16.8945V572.895C4 577.313 8.47715 580.895 14 580.895V588.895ZM390 0.894531C397.732 0.894531 404 7.16254 404 14.8945V574.895C404 582.627 397.732 588.895 390 588.895V580.895C395.523 580.895 400 577.313 400 572.895V16.8945C400 12.4763 395.523 8.89453 390 8.89453V0.894531Z" fill="#222222" mask="url(#path-1-outside-1_0_407)"/>
<defs>
<linearGradient id="paint0_linear_0_407" x1="202" y1="4.89453" x2="202" y2="584.895" gradientUnits="userSpaceOnUse">
<stop stop-color="#3D154B"/>
<stop offset="0.5" stop-color="#DF3542"/>
<stop offset="1" stop-color="#FFD29C"/>
</linearGradient>
<clipPath id="clip0_0_407">
<path d="M2 16.8945C2 10.2671 7.37258 4.89453 14 4.89453H390C396.627 4.89453 402 10.2671 402 16.8945V572.895C402 579.522 396.627 584.895 390 584.895H14C7.37257 584.895 2 579.522 2 572.895V16.8945Z" fill="white"/>
</clipPath>
</defs>
</svg>
