<svg width="1280" height="1473" viewBox="0 0 1280 1473" fill="none" xmlns="http://www.w3.org/2000/svg">
<path d="M574.518 79.7045V83.6105H562.128V92.2205H571.788V96.1265H562.128V108.895H557.34V79.7045H574.518ZM598.485 96.7565C598.485 97.6245 598.429 98.4085 598.317 99.1085H580.635C580.775 100.957 581.461 102.441 582.693 103.561C583.925 104.681 585.437 105.241 587.229 105.241C589.805 105.241 591.625 104.163 592.689 102.007H597.855C597.155 104.135 595.881 105.885 594.033 107.257C592.213 108.601 589.945 109.273 587.229 109.273C585.017 109.273 583.029 108.783 581.265 107.803C579.529 106.795 578.157 105.395 577.149 103.603C576.169 101.783 575.679 99.6825 575.679 97.3025C575.679 94.9225 576.155 92.8365 577.107 91.0445C578.087 89.2245 579.445 87.8245 581.181 86.8445C582.945 85.8645 584.961 85.3745 587.229 85.3745C589.413 85.3745 591.359 85.8505 593.067 86.8025C594.775 87.7545 596.105 89.0985 597.057 90.8345C598.009 92.5425 598.485 94.5165 598.485 96.7565ZM593.487 95.2445C593.459 93.4805 592.829 92.0665 591.597 91.0025C590.365 89.9385 588.839 89.4065 587.019 89.4065C585.367 89.4065 583.953 89.9385 582.777 91.0025C581.601 92.0385 580.901 93.4525 580.677 95.2445H593.487ZM599.921 97.2185C599.921 94.8945 600.397 92.8365 601.349 91.0445C602.329 89.2525 603.645 87.8665 605.297 86.8865C606.977 85.8785 608.825 85.3745 610.841 85.3745C612.661 85.3745 614.243 85.7385 615.587 86.4665C616.959 87.1665 618.051 88.0485 618.863 89.1125V85.7525H623.693V108.895H618.863V105.451C618.051 106.543 616.945 107.453 615.545 108.181C614.145 108.909 612.549 109.273 610.757 109.273C608.769 109.273 606.949 108.769 605.297 107.761C603.645 106.725 602.329 105.297 601.349 103.477C600.397 101.629 599.921 99.5425 599.921 97.2185ZM618.863 97.3025C618.863 95.7065 618.527 94.3205 617.855 93.1445C617.211 91.9685 616.357 91.0725 615.293 90.4565C614.229 89.8405 613.081 89.5325 611.849 89.5325C610.617 89.5325 609.469 89.8405 608.405 90.4565C607.341 91.0445 606.473 91.9265 605.801 93.1025C605.157 94.2505 604.835 95.6225 604.835 97.2185C604.835 98.8145 605.157 100.215 605.801 101.419C606.473 102.623 607.341 103.547 608.405 104.191C609.497 104.807 610.645 105.115 611.849 105.115C613.081 105.115 614.229 104.807 615.293 104.191C616.357 103.575 617.211 102.679 617.855 101.503C618.527 100.299 618.863 98.8985 618.863 97.3025ZM633.888 89.6585V102.469C633.888 103.337 634.084 103.967 634.476 104.359C634.896 104.723 635.596 104.905 636.576 104.905H639.516V108.895H635.736C633.58 108.895 631.928 108.391 630.78 107.383C629.632 106.375 629.058 104.737 629.058 102.469V89.6585H626.328V85.7525H629.058V79.9985H633.888V85.7525H639.516V89.6585H633.888ZM663.207 85.7525V108.895H658.419V106.165C657.663 107.117 656.669 107.873 655.437 108.433C654.233 108.965 652.945 109.231 651.573 109.231C649.753 109.231 648.115 108.853 646.659 108.097C645.231 107.341 644.097 106.221 643.257 104.737C642.445 103.253 642.039 101.461 642.039 99.3605V85.7525H646.785V98.6465C646.785 100.719 647.303 102.315 648.339 103.435C649.375 104.527 650.789 105.073 652.581 105.073C654.373 105.073 655.787 104.527 656.823 103.435C657.887 102.315 658.419 100.719 658.419 98.6465V85.7525H663.207ZM672.632 89.1125C673.332 87.9365 674.256 87.0265 675.404 86.3825C676.58 85.7105 677.966 85.3745 679.562 85.3745V90.3305H678.344C676.468 90.3305 675.04 90.8065 674.06 91.7585C673.108 92.7105 672.632 94.3625 672.632 96.7145V108.895H667.844V85.7525H672.632V89.1125ZM703.493 96.7565C703.493 97.6245 703.437 98.4085 703.325 99.1085H685.643C685.783 100.957 686.469 102.441 687.701 103.561C688.933 104.681 690.445 105.241 692.237 105.241C694.813 105.241 696.633 104.163 697.697 102.007H702.863C702.163 104.135 700.889 105.885 699.041 107.257C697.221 108.601 694.953 109.273 692.237 109.273C690.025 109.273 688.037 108.783 686.273 107.803C684.537 106.795 683.165 105.395 682.157 103.603C681.177 101.783 680.687 99.6825 680.687 97.3025C680.687 94.9225 681.163 92.8365 682.115 91.0445C683.095 89.2245 684.453 87.8245 686.189 86.8445C687.953 85.8645 689.969 85.3745 692.237 85.3745C694.421 85.3745 696.367 85.8505 698.075 86.8025C699.783 87.7545 701.113 89.0985 702.065 90.8345C703.017 92.5425 703.493 94.5165 703.493 96.7565ZM698.495 95.2445C698.467 93.4805 697.837 92.0665 696.605 91.0025C695.373 89.9385 693.847 89.4065 692.027 89.4065C690.375 89.4065 688.961 89.9385 687.785 91.0025C686.609 92.0385 685.909 93.4525 685.685 95.2445H698.495ZM714.925 109.273C713.105 109.273 711.467 108.951 710.011 108.307C708.583 107.635 707.449 106.739 706.609 105.619C705.769 104.471 705.321 103.197 705.265 101.797H710.221C710.305 102.777 710.767 103.603 711.607 104.275C712.475 104.919 713.553 105.241 714.841 105.241C716.185 105.241 717.221 104.989 717.949 104.485C718.705 103.953 719.083 103.281 719.083 102.469C719.083 101.601 718.663 100.957 717.823 100.537C717.011 100.117 715.709 99.6545 713.917 99.1505C712.181 98.6745 710.767 98.2125 709.675 97.7645C708.583 97.3165 707.631 96.6305 706.819 95.7065C706.035 94.7825 705.643 93.5645 705.643 92.0525C705.643 90.8205 706.007 89.7005 706.735 88.6925C707.463 87.6565 708.499 86.8445 709.843 86.2565C711.215 85.6685 712.783 85.3745 714.547 85.3745C717.179 85.3745 719.293 86.0465 720.889 87.3905C722.513 88.7065 723.381 90.5125 723.493 92.8085H718.705C718.621 91.7725 718.201 90.9465 717.445 90.3305C716.689 89.7145 715.667 89.4065 714.379 89.4065C713.119 89.4065 712.153 89.6445 711.481 90.1205C710.809 90.5965 710.473 91.2265 710.473 92.0105C710.473 92.6265 710.697 93.1445 711.145 93.5645C711.593 93.9845 712.139 94.3205 712.783 94.5725C713.427 94.7965 714.379 95.0905 715.639 95.4545C717.319 95.9025 718.691 96.3645 719.755 96.8405C720.847 97.2885 721.785 97.9605 722.569 98.8565C723.353 99.7525 723.759 100.943 723.787 102.427C723.787 103.743 723.423 104.919 722.695 105.955C721.967 106.991 720.931 107.803 719.587 108.391C718.271 108.979 716.717 109.273 714.925 109.273Z" fill="white"/>
</svg>
