<svg width="588" height="242" viewBox="0 0 588 242" fill="none" xmlns="http://www.w3.org/2000/svg">
<g filter="url(#filter0_d_1740_2733)">
<rect x="20" y="20.8945" width="548" height="201" rx="8" fill="white" shape-rendering="crispEdges"/>
<rect x="15" y="15.8945" width="558" height="211" rx="13" stroke="white" stroke-opacity="0.16" stroke-width="10" shape-rendering="crispEdges"/>
<path d="M312.667 88.8947C315.142 88.8947 317.516 87.9114 319.266 86.1611C321.017 84.4107 322 82.0367 322 79.5614C322 77.086 321.017 74.7121 319.266 72.9617C317.516 71.2114 315.142 70.2281 312.667 70.2281H310C310.389 68.4946 310.395 66.7092 310.017 64.9736C309.64 63.2381 308.886 61.5866 307.799 60.1132C306.713 58.6398 305.314 57.3736 303.683 56.3867C302.053 55.3998 300.222 54.7116 298.296 54.3614C296.37 54.0112 294.386 54.0059 292.458 54.3457C290.53 54.6855 288.695 55.3639 287.058 56.342C283.751 58.3173 281.452 61.3939 280.667 64.8947C277.824 64.7809 275.028 65.6158 272.758 67.2566C270.488 68.8974 268.885 71.242 268.223 73.8889C267.561 76.5359 267.882 79.3205 269.131 81.7661C270.379 84.2117 272.478 86.1661 275.067 87.2947M294 75.5614V99.5614M294 99.5614L286 91.5614M294 99.5614L302 91.5614" stroke="url(#paint0_linear_1740_2733)" stroke-width="6" stroke-linecap="round" stroke-linejoin="round"/>
<path d="M177.431 130.365V133.515H181.661V135.513H177.431V138.843H182.201V140.895H174.911V128.313H182.201V130.365H177.431ZM183.843 135.873C183.843 134.865 184.041 133.971 184.437 133.191C184.845 132.411 185.391 131.811 186.075 131.391C186.771 130.971 187.545 130.761 188.397 130.761C189.141 130.761 189.789 130.911 190.341 131.211C190.905 131.511 191.355 131.889 191.691 132.345V130.923H194.229V140.895H191.691V139.437C191.367 139.905 190.917 140.295 190.341 140.607C189.777 140.907 189.123 141.057 188.379 141.057C187.539 141.057 186.771 140.841 186.075 140.409C185.391 139.977 184.845 139.371 184.437 138.591C184.041 137.799 183.843 136.893 183.843 135.873ZM191.691 135.909C191.691 135.297 191.571 134.775 191.331 134.343C191.091 133.899 190.767 133.563 190.359 133.335C189.951 133.095 189.513 132.975 189.045 132.975C188.577 132.975 188.145 133.089 187.749 133.317C187.353 133.545 187.029 133.881 186.777 134.325C186.537 134.757 186.417 135.273 186.417 135.873C186.417 136.473 186.537 137.001 186.777 137.457C187.029 137.901 187.353 138.243 187.749 138.483C188.157 138.723 188.589 138.843 189.045 138.843C189.513 138.843 189.951 138.729 190.359 138.501C190.767 138.261 191.091 137.925 191.331 137.493C191.571 137.049 191.691 136.521 191.691 135.909ZM200.506 141.057C199.69 141.057 198.958 140.913 198.31 140.625C197.662 140.325 197.146 139.923 196.762 139.419C196.39 138.915 196.186 138.357 196.15 137.745H198.688C198.736 138.129 198.922 138.447 199.246 138.699C199.582 138.951 199.996 139.077 200.488 139.077C200.968 139.077 201.34 138.981 201.604 138.789C201.88 138.597 202.018 138.351 202.018 138.051C202.018 137.727 201.85 137.487 201.514 137.331C201.19 137.163 200.668 136.983 199.948 136.791C199.204 136.611 198.592 136.425 198.112 136.233C197.644 136.041 197.236 135.747 196.888 135.351C196.552 134.955 196.384 134.421 196.384 133.749C196.384 133.197 196.54 132.693 196.852 132.237C197.176 131.781 197.632 131.421 198.22 131.157C198.82 130.893 199.522 130.761 200.326 130.761C201.514 130.761 202.462 131.061 203.17 131.661C203.878 132.249 204.268 133.047 204.34 134.055H201.928C201.892 133.659 201.724 133.347 201.424 133.119C201.136 132.879 200.746 132.759 200.254 132.759C199.798 132.759 199.444 132.843 199.192 133.011C198.952 133.179 198.832 133.413 198.832 133.713C198.832 134.049 199 134.307 199.336 134.487C199.672 134.655 200.194 134.829 200.902 135.009C201.622 135.189 202.216 135.375 202.684 135.567C203.152 135.759 203.554 136.059 203.89 136.467C204.238 136.863 204.418 137.391 204.43 138.051C204.43 138.627 204.268 139.143 203.944 139.599C203.632 140.055 203.176 140.415 202.576 140.679C201.988 140.931 201.298 141.057 200.506 141.057ZM216.039 130.923L209.865 145.611H207.183L209.343 140.643L205.347 130.923H208.173L210.747 137.889L213.357 130.923H216.039ZM224.206 128.331V140.895H221.686V128.331H224.206ZM239.08 130.779C240.304 130.779 241.288 131.157 242.032 131.913C242.788 132.657 243.166 133.701 243.166 135.045V140.895H240.646V135.387C240.646 134.607 240.448 134.013 240.052 133.605C239.656 133.185 239.116 132.975 238.432 132.975C237.748 132.975 237.202 133.185 236.794 133.605C236.398 134.013 236.2 134.607 236.2 135.387V140.895H233.68V135.387C233.68 134.607 233.482 134.013 233.086 133.605C232.69 133.185 232.15 132.975 231.466 132.975C230.77 132.975 230.218 133.185 229.81 133.605C229.414 134.013 229.216 134.607 229.216 135.387V140.895H226.696V130.923H229.216V132.129C229.54 131.709 229.954 131.379 230.458 131.139C230.974 130.899 231.538 130.779 232.15 130.779C232.93 130.779 233.626 130.947 234.238 131.283C234.85 131.607 235.324 132.075 235.66 132.687C235.984 132.111 236.452 131.649 237.064 131.301C237.688 130.953 238.36 130.779 239.08 130.779ZM248.077 132.363C248.401 131.907 248.845 131.529 249.409 131.229C249.985 130.917 250.639 130.761 251.371 130.761C252.223 130.761 252.991 130.971 253.675 131.391C254.371 131.811 254.917 132.411 255.313 133.191C255.721 133.959 255.925 134.853 255.925 135.873C255.925 136.893 255.721 137.799 255.313 138.591C254.917 139.371 254.371 139.977 253.675 140.409C252.991 140.841 252.223 141.057 251.371 141.057C250.639 141.057 249.991 140.907 249.427 140.607C248.875 140.307 248.425 139.929 248.077 139.473V145.647H245.557V130.923H248.077V132.363ZM253.351 135.873C253.351 135.273 253.225 134.757 252.973 134.325C252.733 133.881 252.409 133.545 252.001 133.317C251.605 133.089 251.173 132.975 250.705 132.975C250.249 132.975 249.817 133.095 249.409 133.335C249.013 133.563 248.689 133.899 248.437 134.343C248.197 134.787 248.077 135.309 248.077 135.909C248.077 136.509 248.197 137.031 248.437 137.475C248.689 137.919 249.013 138.261 249.409 138.501C249.817 138.729 250.249 138.843 250.705 138.843C251.173 138.843 251.605 138.723 252.001 138.483C252.409 138.243 252.733 137.901 252.973 137.457C253.225 137.013 253.351 136.485 253.351 135.873ZM262.185 141.057C261.225 141.057 260.361 140.847 259.593 140.427C258.825 139.995 258.219 139.389 257.775 138.609C257.343 137.829 257.127 136.929 257.127 135.909C257.127 134.889 257.349 133.989 257.793 133.209C258.249 132.429 258.867 131.829 259.647 131.409C260.427 130.977 261.297 130.761 262.257 130.761C263.217 130.761 264.087 130.977 264.867 131.409C265.647 131.829 266.259 132.429 266.703 133.209C267.159 133.989 267.387 134.889 267.387 135.909C267.387 136.929 267.153 137.829 266.685 138.609C266.229 139.389 265.605 139.995 264.813 140.427C264.033 140.847 263.157 141.057 262.185 141.057ZM262.185 138.861C262.641 138.861 263.067 138.753 263.463 138.537C263.871 138.309 264.195 137.973 264.435 137.529C264.675 137.085 264.795 136.545 264.795 135.909C264.795 134.961 264.543 134.235 264.039 133.731C263.547 133.215 262.941 132.957 262.221 132.957C261.501 132.957 260.895 133.215 260.403 133.731C259.923 134.235 259.683 134.961 259.683 135.909C259.683 136.857 259.917 137.589 260.385 138.105C260.865 138.609 261.465 138.861 262.185 138.861ZM271.755 132.471C272.079 131.943 272.499 131.529 273.015 131.229C273.543 130.929 274.143 130.779 274.815 130.779V133.425H274.149C273.357 133.425 272.757 133.611 272.349 133.983C271.953 134.355 271.755 135.003 271.755 135.927V140.895H269.235V130.923H271.755V132.471ZM279.447 132.993V137.817C279.447 138.153 279.525 138.399 279.681 138.555C279.849 138.699 280.125 138.771 280.509 138.771H281.679V140.895H280.095C277.971 140.895 276.909 139.863 276.909 137.799V132.993H275.721V130.923H276.909V128.457H279.447V130.923H281.679V132.993H279.447ZM290.3 128.331V140.895H287.78V128.331H290.3ZM298.316 130.779C299.504 130.779 300.464 131.157 301.196 131.913C301.928 132.657 302.294 133.701 302.294 135.045V140.895H299.774V135.387C299.774 134.595 299.576 133.989 299.18 133.569C298.784 133.137 298.244 132.921 297.56 132.921C296.864 132.921 296.312 133.137 295.904 133.569C295.508 133.989 295.31 134.595 295.31 135.387V140.895H292.79V130.923H295.31V132.165C295.646 131.733 296.072 131.397 296.588 131.157C297.116 130.905 297.692 130.779 298.316 130.779ZM307.624 132.993V137.817C307.624 138.153 307.702 138.399 307.858 138.555C308.026 138.699 308.302 138.771 308.686 138.771H309.856V140.895H308.272C306.148 140.895 305.086 139.863 305.086 137.799V132.993H303.898V130.923H305.086V128.457H307.624V130.923H309.856V132.993H307.624ZM316.097 141.057C315.137 141.057 314.273 140.847 313.505 140.427C312.737 139.995 312.131 139.389 311.687 138.609C311.255 137.829 311.039 136.929 311.039 135.909C311.039 134.889 311.261 133.989 311.705 133.209C312.161 132.429 312.779 131.829 313.559 131.409C314.339 130.977 315.209 130.761 316.169 130.761C317.129 130.761 317.999 130.977 318.779 131.409C319.559 131.829 320.171 132.429 320.615 133.209C321.071 133.989 321.299 134.889 321.299 135.909C321.299 136.929 321.065 137.829 320.597 138.609C320.141 139.389 319.517 139.995 318.725 140.427C317.945 140.847 317.069 141.057 316.097 141.057ZM316.097 138.861C316.553 138.861 316.979 138.753 317.375 138.537C317.783 138.309 318.107 137.973 318.347 137.529C318.587 137.085 318.707 136.545 318.707 135.909C318.707 134.961 318.455 134.235 317.951 133.731C317.459 133.215 316.853 132.957 316.133 132.957C315.413 132.957 314.807 133.215 314.315 133.731C313.835 134.235 313.595 134.961 313.595 135.909C313.595 136.857 313.829 137.589 314.297 138.105C314.777 138.609 315.377 138.861 316.097 138.861ZM335.14 138.501H330.136L329.308 140.895H326.662L331.18 128.313H334.114L338.632 140.895H335.968L335.14 138.501ZM334.456 136.485L332.638 131.229L330.82 136.485H334.456ZM345.847 130.779C347.035 130.779 347.995 131.157 348.727 131.913C349.459 132.657 349.825 133.701 349.825 135.045V140.895H347.305V135.387C347.305 134.595 347.107 133.989 346.711 133.569C346.315 133.137 345.775 132.921 345.091 132.921C344.395 132.921 343.843 133.137 343.435 133.569C343.039 133.989 342.841 134.595 342.841 135.387V140.895H340.321V130.923H342.841V132.165C343.177 131.733 343.603 131.397 344.119 131.157C344.647 130.905 345.223 130.779 345.847 130.779ZM361.761 130.923L355.587 145.611H352.905L355.065 140.643L351.069 130.923H353.895L356.469 137.889L359.079 130.923H361.761ZM375.959 128.331V130.365H372.611V140.895H370.091V130.365H366.743V128.331H375.959ZM382.226 141.057C381.266 141.057 380.402 140.847 379.634 140.427C378.866 139.995 378.26 139.389 377.816 138.609C377.384 137.829 377.168 136.929 377.168 135.909C377.168 134.889 377.39 133.989 377.834 133.209C378.29 132.429 378.908 131.829 379.688 131.409C380.468 130.977 381.338 130.761 382.298 130.761C383.258 130.761 384.128 130.977 384.908 131.409C385.688 131.829 386.3 132.429 386.744 133.209C387.2 133.989 387.428 134.889 387.428 135.909C387.428 136.929 387.194 137.829 386.726 138.609C386.27 139.389 385.646 139.995 384.854 140.427C384.074 140.847 383.198 141.057 382.226 141.057ZM382.226 138.861C382.682 138.861 383.108 138.753 383.504 138.537C383.912 138.309 384.236 137.973 384.476 137.529C384.716 137.085 384.836 136.545 384.836 135.909C384.836 134.961 384.584 134.235 384.08 133.731C383.588 133.215 382.982 132.957 382.262 132.957C381.542 132.957 380.936 133.215 380.444 133.731C379.964 134.235 379.724 134.961 379.724 135.909C379.724 136.857 379.958 137.589 380.426 138.105C380.906 138.609 381.506 138.861 382.226 138.861ZM393.704 141.057C392.744 141.057 391.88 140.847 391.112 140.427C390.344 139.995 389.738 139.389 389.294 138.609C388.862 137.829 388.646 136.929 388.646 135.909C388.646 134.889 388.868 133.989 389.312 133.209C389.768 132.429 390.386 131.829 391.166 131.409C391.946 130.977 392.816 130.761 393.776 130.761C394.736 130.761 395.606 130.977 396.386 131.409C397.166 131.829 397.778 132.429 398.222 133.209C398.678 133.989 398.906 134.889 398.906 135.909C398.906 136.929 398.672 137.829 398.204 138.609C397.748 139.389 397.124 139.995 396.332 140.427C395.552 140.847 394.676 141.057 393.704 141.057ZM393.704 138.861C394.16 138.861 394.586 138.753 394.982 138.537C395.39 138.309 395.714 137.973 395.954 137.529C396.194 137.085 396.314 136.545 396.314 135.909C396.314 134.961 396.062 134.235 395.558 133.731C395.066 133.215 394.46 132.957 393.74 132.957C393.02 132.957 392.414 133.215 391.922 133.731C391.442 134.235 391.202 134.961 391.202 135.909C391.202 136.857 391.436 137.589 391.904 138.105C392.384 138.609 392.984 138.861 393.704 138.861ZM403.275 127.575V140.895H400.755V127.575H403.275ZM409.58 141.057C408.764 141.057 408.032 140.913 407.384 140.625C406.736 140.325 406.22 139.923 405.836 139.419C405.464 138.915 405.26 138.357 405.224 137.745H407.762C407.81 138.129 407.996 138.447 408.32 138.699C408.656 138.951 409.07 139.077 409.562 139.077C410.042 139.077 410.414 138.981 410.678 138.789C410.954 138.597 411.092 138.351 411.092 138.051C411.092 137.727 410.924 137.487 410.588 137.331C410.264 137.163 409.742 136.983 409.022 136.791C408.278 136.611 407.666 136.425 407.186 136.233C406.718 136.041 406.31 135.747 405.962 135.351C405.626 134.955 405.458 134.421 405.458 133.749C405.458 133.197 405.614 132.693 405.926 132.237C406.25 131.781 406.706 131.421 407.294 131.157C407.894 130.893 408.596 130.761 409.4 130.761C410.588 130.761 411.536 131.061 412.244 131.661C412.952 132.249 413.342 133.047 413.414 134.055H411.002C410.966 133.659 410.798 133.347 410.498 133.119C410.21 132.879 409.82 132.759 409.328 132.759C408.872 132.759 408.518 132.843 408.266 133.011C408.026 133.179 407.906 133.413 407.906 133.713C407.906 134.049 408.074 134.307 408.41 134.487C408.746 134.655 409.268 134.829 409.976 135.009C410.696 135.189 411.29 135.375 411.758 135.567C412.226 135.759 412.628 136.059 412.964 136.467C413.312 136.863 413.492 137.391 413.504 138.051C413.504 138.627 413.342 139.143 413.018 139.599C412.706 140.055 412.25 140.415 411.65 140.679C411.062 140.931 410.372 141.057 409.58 141.057Z" fill="#323232"/>
<path d="M47.0084 174.993C46.1031 174.993 45.2771 174.783 44.5304 174.363C43.7838 173.933 43.1911 173.341 42.7524 172.585C42.3231 171.819 42.1084 170.961 42.1084 170.009C42.1084 169.057 42.3231 168.203 42.7524 167.447C43.1911 166.681 43.7838 166.089 44.5304 165.669C45.2771 165.239 46.1031 165.025 47.0084 165.025C47.9231 165.025 48.7538 165.239 49.5004 165.669C50.2471 166.089 50.8351 166.677 51.2644 167.433C51.6938 168.189 51.9084 169.047 51.9084 170.009C51.9084 170.97 51.6938 171.829 51.2644 172.585C50.8351 173.341 50.2471 173.933 49.5004 174.363C48.7538 174.783 47.9231 174.993 47.0084 174.993ZM47.0084 173.887C47.6898 173.887 48.3011 173.728 48.8424 173.411C49.3931 173.093 49.8224 172.641 50.1304 172.053C50.4478 171.465 50.6064 170.783 50.6064 170.009C50.6064 169.225 50.4478 168.543 50.1304 167.965C49.8224 167.377 49.3978 166.924 48.8564 166.607C48.3151 166.289 47.6991 166.131 47.0084 166.131C46.3178 166.131 45.7018 166.289 45.1604 166.607C44.6191 166.924 44.1898 167.377 43.8724 167.965C43.5644 168.543 43.4104 169.225 43.4104 170.009C43.4104 170.783 43.5644 171.465 43.8724 172.053C44.1898 172.641 44.6191 173.093 45.1604 173.411C45.7111 173.728 46.3271 173.887 47.0084 173.887ZM59.8343 167.223V174.895H58.5603V173.761C58.3176 174.153 57.977 174.461 57.5383 174.685C57.109 174.899 56.633 175.007 56.1103 175.007C55.513 175.007 54.9763 174.885 54.5003 174.643C54.0243 174.391 53.6463 174.017 53.3663 173.523C53.0956 173.028 52.9603 172.426 52.9603 171.717V167.223H54.2203V171.549C54.2203 172.305 54.4116 172.888 54.7943 173.299C55.177 173.7 55.6996 173.901 56.3623 173.901C57.0436 173.901 57.5803 173.691 57.9723 173.271C58.3643 172.851 58.5603 172.239 58.5603 171.437V167.223H59.8343ZM62.6994 168.469C62.9234 168.03 63.2407 167.689 63.6514 167.447C64.0714 167.204 64.58 167.083 65.1774 167.083V168.399H64.8414C63.4134 168.399 62.6994 169.173 62.6994 170.723V174.895H61.4254V167.223H62.6994V168.469ZM68.7845 170.009C68.7845 169.057 68.9991 168.203 69.4285 167.447C69.8578 166.681 70.4411 166.084 71.1785 165.655C71.9251 165.225 72.7511 165.011 73.6565 165.011C74.7205 165.011 75.6491 165.267 76.4425 165.781C77.2358 166.294 77.8145 167.022 78.1785 167.965H76.6525C76.3818 167.377 75.9898 166.924 75.4765 166.607C74.9725 166.289 74.3658 166.131 73.6565 166.131C72.9751 166.131 72.3638 166.289 71.8225 166.607C71.2811 166.924 70.8565 167.377 70.5485 167.965C70.2405 168.543 70.0865 169.225 70.0865 170.009C70.0865 170.783 70.2405 171.465 70.5485 172.053C70.8565 172.631 71.2811 173.079 71.8225 173.397C72.3638 173.714 72.9751 173.873 73.6565 173.873C74.3658 173.873 74.9725 173.719 75.4765 173.411C75.9898 173.093 76.3818 172.641 76.6525 172.053H78.1785C77.8145 172.986 77.2358 173.709 76.4425 174.223C75.6491 174.727 74.7205 174.979 73.6565 174.979C72.7511 174.979 71.9251 174.769 71.1785 174.349C70.4411 173.919 69.8578 173.327 69.4285 172.571C68.9991 171.815 68.7845 170.961 68.7845 170.009ZM82.6089 174.993C81.9649 174.993 81.3862 174.881 80.8729 174.657C80.3689 174.423 79.9722 174.106 79.6829 173.705C79.3936 173.294 79.2442 172.823 79.2349 172.291H80.5929C80.6396 172.748 80.8262 173.135 81.1529 173.453C81.4889 173.761 81.9742 173.915 82.6089 173.915C83.2156 173.915 83.6916 173.765 84.0369 173.467C84.3916 173.159 84.5689 172.767 84.5689 172.291C84.5689 171.917 84.4662 171.614 84.2609 171.381C84.0556 171.147 83.7989 170.97 83.4909 170.849C83.1829 170.727 82.7676 170.597 82.2449 170.457C81.6009 170.289 81.0829 170.121 80.6909 169.953C80.3082 169.785 79.9769 169.523 79.6969 169.169C79.4262 168.805 79.2909 168.319 79.2909 167.713C79.2909 167.181 79.4262 166.709 79.6969 166.299C79.9676 165.888 80.3456 165.571 80.8309 165.347C81.3256 165.123 81.8902 165.011 82.5249 165.011C83.4396 165.011 84.1862 165.239 84.7649 165.697C85.3529 166.154 85.6842 166.761 85.7589 167.517H84.3589C84.3122 167.143 84.1162 166.817 83.7709 166.537C83.4256 166.247 82.9682 166.103 82.3989 166.103C81.8669 166.103 81.4329 166.243 81.0969 166.523C80.7609 166.793 80.5929 167.176 80.5929 167.671C80.5929 168.025 80.6909 168.315 80.8869 168.539C81.0922 168.763 81.3396 168.935 81.6289 169.057C81.9276 169.169 82.3429 169.299 82.8749 169.449C83.5189 169.626 84.0369 169.803 84.4289 169.981C84.8209 170.149 85.1569 170.415 85.4369 170.779C85.7169 171.133 85.8569 171.619 85.8569 172.235C85.8569 172.711 85.7309 173.159 85.4789 173.579C85.2269 173.999 84.8536 174.339 84.3589 174.601C83.8642 174.862 83.2809 174.993 82.6089 174.993ZM95.2357 165.137L91.5537 174.895H90.0837L86.4017 165.137H87.7597L90.8257 173.551L93.8917 165.137H95.2357ZM106.245 170.765C106.245 171.007 106.231 171.264 106.203 171.535H100.071C100.118 172.291 100.374 172.883 100.841 173.313C101.317 173.733 101.891 173.943 102.563 173.943C103.114 173.943 103.571 173.817 103.935 173.565C104.308 173.303 104.57 172.958 104.719 172.529H106.091C105.886 173.266 105.475 173.868 104.859 174.335C104.243 174.792 103.478 175.021 102.563 175.021C101.835 175.021 101.182 174.857 100.603 174.531C100.034 174.204 99.5857 173.742 99.2591 173.145C98.9324 172.538 98.7691 171.838 98.7691 171.045C98.7691 170.251 98.9277 169.556 99.2451 168.959C99.5624 168.361 100.006 167.904 100.575 167.587C101.154 167.26 101.816 167.097 102.563 167.097C103.291 167.097 103.935 167.255 104.495 167.573C105.055 167.89 105.484 168.329 105.783 168.889C106.091 169.439 106.245 170.065 106.245 170.765ZM104.929 170.499C104.929 170.013 104.822 169.598 104.607 169.253C104.392 168.898 104.098 168.632 103.725 168.455C103.361 168.268 102.955 168.175 102.507 168.175C101.863 168.175 101.312 168.38 100.855 168.791C100.407 169.201 100.15 169.771 100.085 170.499H104.929ZM111.371 174.895L109.551 172.039L107.801 174.895H106.471L108.949 171.087L106.471 167.223H107.913L109.733 170.065L111.469 167.223H112.799L110.335 171.017L112.813 174.895H111.371ZM114.78 168.637C115.032 168.198 115.405 167.834 115.9 167.545C116.404 167.246 116.987 167.097 117.65 167.097C118.331 167.097 118.947 167.26 119.498 167.587C120.058 167.913 120.497 168.375 120.814 168.973C121.131 169.561 121.29 170.247 121.29 171.031C121.29 171.805 121.131 172.496 120.814 173.103C120.497 173.709 120.058 174.181 119.498 174.517C118.947 174.853 118.331 175.021 117.65 175.021C116.997 175.021 116.418 174.876 115.914 174.587C115.419 174.288 115.041 173.919 114.78 173.481V178.535H113.506V167.223H114.78V168.637ZM119.988 171.031C119.988 170.452 119.871 169.948 119.638 169.519C119.405 169.089 119.087 168.763 118.686 168.539C118.294 168.315 117.86 168.203 117.384 168.203C116.917 168.203 116.483 168.319 116.082 168.553C115.69 168.777 115.373 169.108 115.13 169.547C114.897 169.976 114.78 170.475 114.78 171.045C114.78 171.623 114.897 172.132 115.13 172.571C115.373 173 115.69 173.331 116.082 173.565C116.483 173.789 116.917 173.901 117.384 173.901C117.86 173.901 118.294 173.789 118.686 173.565C119.087 173.331 119.405 173 119.638 172.571C119.871 172.132 119.988 171.619 119.988 171.031ZM125.753 175.021C125.034 175.021 124.381 174.857 123.793 174.531C123.214 174.204 122.757 173.742 122.421 173.145C122.094 172.538 121.931 171.838 121.931 171.045C121.931 170.261 122.099 169.57 122.435 168.973C122.78 168.366 123.247 167.904 123.835 167.587C124.423 167.26 125.081 167.097 125.809 167.097C126.537 167.097 127.195 167.26 127.783 167.587C128.371 167.904 128.833 168.361 129.169 168.959C129.514 169.556 129.687 170.251 129.687 171.045C129.687 171.838 129.51 172.538 129.155 173.145C128.81 173.742 128.338 174.204 127.741 174.531C127.144 174.857 126.481 175.021 125.753 175.021ZM125.753 173.901C126.21 173.901 126.64 173.793 127.041 173.579C127.442 173.364 127.764 173.042 128.007 172.613C128.259 172.183 128.385 171.661 128.385 171.045C128.385 170.429 128.264 169.906 128.021 169.477C127.778 169.047 127.461 168.73 127.069 168.525C126.677 168.31 126.252 168.203 125.795 168.203C125.328 168.203 124.899 168.31 124.507 168.525C124.124 168.73 123.816 169.047 123.583 169.477C123.35 169.906 123.233 170.429 123.233 171.045C123.233 171.67 123.345 172.197 123.569 172.627C123.802 173.056 124.11 173.378 124.493 173.593C124.876 173.798 125.296 173.901 125.753 173.901ZM132.076 168.469C132.3 168.03 132.617 167.689 133.028 167.447C133.448 167.204 133.957 167.083 134.554 167.083V168.399H134.218C132.79 168.399 132.076 169.173 132.076 170.723V174.895H130.802V167.223H132.076V168.469ZM137.019 168.273V172.795C137.019 173.168 137.098 173.434 137.257 173.593C137.415 173.742 137.691 173.817 138.083 173.817H139.021V174.895H137.873C137.163 174.895 136.631 174.731 136.277 174.405C135.922 174.078 135.745 173.541 135.745 172.795V168.273H134.751V167.223H135.745V165.291H137.019V167.223H139.021V168.273H137.019ZM142.72 175.021C142.132 175.021 141.605 174.923 141.138 174.727C140.672 174.521 140.303 174.241 140.032 173.887C139.762 173.523 139.612 173.107 139.584 172.641H140.9C140.938 173.023 141.115 173.336 141.432 173.579C141.759 173.821 142.184 173.943 142.706 173.943C143.192 173.943 143.574 173.835 143.854 173.621C144.134 173.406 144.274 173.135 144.274 172.809C144.274 172.473 144.125 172.225 143.826 172.067C143.528 171.899 143.066 171.735 142.44 171.577C141.871 171.427 141.404 171.278 141.04 171.129C140.686 170.97 140.378 170.741 140.116 170.443C139.864 170.135 139.738 169.733 139.738 169.239C139.738 168.847 139.855 168.487 140.088 168.161C140.322 167.834 140.653 167.577 141.082 167.391C141.512 167.195 142.002 167.097 142.552 167.097C143.402 167.097 144.088 167.311 144.61 167.741C145.133 168.17 145.413 168.758 145.45 169.505H144.176C144.148 169.103 143.985 168.781 143.686 168.539C143.397 168.296 143.005 168.175 142.51 168.175C142.053 168.175 141.689 168.273 141.418 168.469C141.148 168.665 141.012 168.921 141.012 169.239C141.012 169.491 141.092 169.701 141.25 169.869C141.418 170.027 141.624 170.158 141.866 170.261C142.118 170.354 142.464 170.461 142.902 170.583C143.453 170.732 143.901 170.881 144.246 171.031C144.592 171.171 144.886 171.385 145.128 171.675C145.38 171.964 145.511 172.342 145.52 172.809C145.52 173.229 145.404 173.607 145.17 173.943C144.937 174.279 144.606 174.545 144.176 174.741C143.756 174.927 143.271 175.021 142.72 175.021ZM149.455 171.031C149.455 170.247 149.614 169.561 149.931 168.973C150.248 168.375 150.682 167.913 151.233 167.587C151.793 167.26 152.414 167.097 153.095 167.097C153.767 167.097 154.35 167.241 154.845 167.531C155.34 167.82 155.708 168.184 155.951 168.623V167.223H157.239V174.895H155.951V173.467C155.699 173.915 155.321 174.288 154.817 174.587C154.322 174.876 153.744 175.021 153.081 175.021C152.4 175.021 151.784 174.853 151.233 174.517C150.682 174.181 150.248 173.709 149.931 173.103C149.614 172.496 149.455 171.805 149.455 171.031ZM155.951 171.045C155.951 170.466 155.834 169.962 155.601 169.533C155.368 169.103 155.05 168.777 154.649 168.553C154.257 168.319 153.823 168.203 153.347 168.203C152.871 168.203 152.437 168.315 152.045 168.539C151.653 168.763 151.34 169.089 151.107 169.519C150.874 169.948 150.757 170.452 150.757 171.031C150.757 171.619 150.874 172.132 151.107 172.571C151.34 173 151.653 173.331 152.045 173.565C152.437 173.789 152.871 173.901 153.347 173.901C153.823 173.901 154.257 173.789 154.649 173.565C155.05 173.331 155.368 173 155.601 172.571C155.834 172.132 155.951 171.623 155.951 171.045ZM160.106 164.535V174.895H158.832V164.535H160.106ZM162.991 164.535V174.895H161.717V164.535H162.991ZM167.949 175.021C167.23 175.021 166.577 174.857 165.989 174.531C165.41 174.204 164.953 173.742 164.617 173.145C164.29 172.538 164.127 171.838 164.127 171.045C164.127 170.261 164.295 169.57 164.631 168.973C164.976 168.366 165.443 167.904 166.031 167.587C166.619 167.26 167.277 167.097 168.005 167.097C168.733 167.097 169.391 167.26 169.979 167.587C170.567 167.904 171.029 168.361 171.365 168.959C171.71 169.556 171.883 170.251 171.883 171.045C171.883 171.838 171.705 172.538 171.351 173.145C171.005 173.742 170.534 174.204 169.937 174.531C169.339 174.857 168.677 175.021 167.949 175.021ZM167.949 173.901C168.406 173.901 168.835 173.793 169.237 173.579C169.638 173.364 169.96 173.042 170.203 172.613C170.455 172.183 170.581 171.661 170.581 171.045C170.581 170.429 170.459 169.906 170.217 169.477C169.974 169.047 169.657 168.73 169.265 168.525C168.873 168.31 168.448 168.203 167.991 168.203C167.524 168.203 167.095 168.31 166.703 168.525C166.32 168.73 166.012 169.047 165.779 169.477C165.545 169.906 165.429 170.429 165.429 171.045C165.429 171.67 165.541 172.197 165.765 172.627C165.998 173.056 166.306 173.378 166.689 173.593C167.071 173.798 167.491 173.901 167.949 173.901ZM183.218 167.223L180.824 174.895H179.508L177.66 168.805L175.812 174.895H174.496L172.088 167.223H173.39L175.154 173.663L177.058 167.223H178.36L180.222 173.677L181.958 167.223H183.218ZM194.095 170.765C194.095 171.007 194.081 171.264 194.053 171.535H187.921C187.967 172.291 188.224 172.883 188.691 173.313C189.167 173.733 189.741 173.943 190.413 173.943C190.963 173.943 191.421 173.817 191.785 173.565C192.158 173.303 192.419 172.958 192.569 172.529H193.941C193.735 173.266 193.325 173.868 192.709 174.335C192.093 174.792 191.327 175.021 190.413 175.021C189.685 175.021 189.031 174.857 188.453 174.531C187.883 174.204 187.435 173.742 187.109 173.145C186.782 172.538 186.619 171.838 186.619 171.045C186.619 170.251 186.777 169.556 187.095 168.959C187.412 168.361 187.855 167.904 188.425 167.587C189.003 167.26 189.666 167.097 190.413 167.097C191.141 167.097 191.785 167.255 192.345 167.573C192.905 167.89 193.334 168.329 193.633 168.889C193.941 169.439 194.095 170.065 194.095 170.765ZM192.779 170.499C192.779 170.013 192.671 169.598 192.457 169.253C192.242 168.898 191.948 168.632 191.575 168.455C191.211 168.268 190.805 168.175 190.357 168.175C189.713 168.175 189.162 168.38 188.705 168.791C188.257 169.201 188 169.771 187.935 170.499H192.779ZM194.74 171.031C194.74 170.247 194.899 169.561 195.216 168.973C195.533 168.375 195.967 167.913 196.518 167.587C197.078 167.26 197.699 167.097 198.38 167.097C199.052 167.097 199.635 167.241 200.13 167.531C200.625 167.82 200.993 168.184 201.236 168.623V167.223H202.524V174.895H201.236V173.467C200.984 173.915 200.606 174.288 200.102 174.587C199.607 174.876 199.029 175.021 198.366 175.021C197.685 175.021 197.069 174.853 196.518 174.517C195.967 174.181 195.533 173.709 195.216 173.103C194.899 172.496 194.74 171.805 194.74 171.031ZM201.236 171.045C201.236 170.466 201.119 169.962 200.886 169.533C200.653 169.103 200.335 168.777 199.934 168.553C199.542 168.319 199.108 168.203 198.632 168.203C198.156 168.203 197.722 168.315 197.33 168.539C196.938 168.763 196.625 169.089 196.392 169.519C196.159 169.948 196.042 170.452 196.042 171.031C196.042 171.619 196.159 172.132 196.392 172.571C196.625 173 196.938 173.331 197.33 173.565C197.722 173.789 198.156 173.901 198.632 173.901C199.108 173.901 199.542 173.789 199.934 173.565C200.335 173.331 200.653 173 200.886 172.571C201.119 172.132 201.236 171.623 201.236 171.045ZM206.833 175.021C206.245 175.021 205.718 174.923 205.251 174.727C204.784 174.521 204.416 174.241 204.145 173.887C203.874 173.523 203.725 173.107 203.697 172.641H205.013C205.05 173.023 205.228 173.336 205.545 173.579C205.872 173.821 206.296 173.943 206.819 173.943C207.304 173.943 207.687 173.835 207.967 173.621C208.247 173.406 208.387 173.135 208.387 172.809C208.387 172.473 208.238 172.225 207.939 172.067C207.64 171.899 207.178 171.735 206.553 171.577C205.984 171.427 205.517 171.278 205.153 171.129C204.798 170.97 204.49 170.741 204.229 170.443C203.977 170.135 203.851 169.733 203.851 169.239C203.851 168.847 203.968 168.487 204.201 168.161C204.434 167.834 204.766 167.577 205.195 167.391C205.624 167.195 206.114 167.097 206.665 167.097C207.514 167.097 208.2 167.311 208.723 167.741C209.246 168.17 209.526 168.758 209.563 169.505H208.289C208.261 169.103 208.098 168.781 207.799 168.539C207.51 168.296 207.118 168.175 206.623 168.175C206.166 168.175 205.802 168.273 205.531 168.469C205.26 168.665 205.125 168.921 205.125 169.239C205.125 169.491 205.204 169.701 205.363 169.869C205.531 170.027 205.736 170.158 205.979 170.261C206.231 170.354 206.576 170.461 207.015 170.583C207.566 170.732 208.014 170.881 208.359 171.031C208.704 171.171 208.998 171.385 209.241 171.675C209.493 171.964 209.624 172.342 209.633 172.809C209.633 173.229 209.516 173.607 209.283 173.943C209.05 174.279 208.718 174.545 208.289 174.741C207.869 174.927 207.384 175.021 206.833 175.021ZM217.48 167.223L212.86 178.507H211.544L213.056 174.811L209.962 167.223H211.376L213.784 173.439L216.164 167.223H217.48ZM222.031 165.977C221.788 165.977 221.583 165.893 221.415 165.725C221.247 165.557 221.163 165.351 221.163 165.109C221.163 164.866 221.247 164.661 221.415 164.493C221.583 164.325 221.788 164.241 222.031 164.241C222.264 164.241 222.46 164.325 222.619 164.493C222.787 164.661 222.871 164.866 222.871 165.109C222.871 165.351 222.787 165.557 222.619 165.725C222.46 165.893 222.264 165.977 222.031 165.977ZM222.647 167.223V174.895H221.373V167.223H222.647ZM233.484 167.083C234.081 167.083 234.613 167.209 235.08 167.461C235.547 167.703 235.915 168.072 236.186 168.567C236.457 169.061 236.592 169.663 236.592 170.373V174.895H235.332V170.555C235.332 169.789 235.141 169.206 234.758 168.805C234.385 168.394 233.876 168.189 233.232 168.189C232.569 168.189 232.042 168.403 231.65 168.833C231.258 169.253 231.062 169.864 231.062 170.667V174.895H229.802V170.555C229.802 169.789 229.611 169.206 229.228 168.805C228.855 168.394 228.346 168.189 227.702 168.189C227.039 168.189 226.512 168.403 226.12 168.833C225.728 169.253 225.532 169.864 225.532 170.667V174.895H224.258V167.223H225.532V168.329C225.784 167.927 226.12 167.619 226.54 167.405C226.969 167.19 227.441 167.083 227.954 167.083C228.598 167.083 229.167 167.227 229.662 167.517C230.157 167.806 230.525 168.231 230.768 168.791C230.983 168.249 231.337 167.829 231.832 167.531C232.327 167.232 232.877 167.083 233.484 167.083ZM239.396 168.637C239.648 168.198 240.021 167.834 240.516 167.545C241.02 167.246 241.603 167.097 242.266 167.097C242.947 167.097 243.563 167.26 244.114 167.587C244.674 167.913 245.112 168.375 245.43 168.973C245.747 169.561 245.906 170.247 245.906 171.031C245.906 171.805 245.747 172.496 245.43 173.103C245.112 173.709 244.674 174.181 244.114 174.517C243.563 174.853 242.947 175.021 242.266 175.021C241.612 175.021 241.034 174.876 240.53 174.587C240.035 174.288 239.657 173.919 239.396 173.481V178.535H238.122V167.223H239.396V168.637ZM244.604 171.031C244.604 170.452 244.487 169.948 244.254 169.519C244.02 169.089 243.703 168.763 243.302 168.539C242.91 168.315 242.476 168.203 242 168.203C241.533 168.203 241.099 168.319 240.698 168.553C240.306 168.777 239.988 169.108 239.746 169.547C239.512 169.976 239.396 170.475 239.396 171.045C239.396 171.623 239.512 172.132 239.746 172.571C239.988 173 240.306 173.331 240.698 173.565C241.099 173.789 241.533 173.901 242 173.901C242.476 173.901 242.91 173.789 243.302 173.565C243.703 173.331 244.02 173 244.254 172.571C244.487 172.132 244.604 171.619 244.604 171.031ZM250.369 175.021C249.65 175.021 248.997 174.857 248.409 174.531C247.83 174.204 247.373 173.742 247.037 173.145C246.71 172.538 246.547 171.838 246.547 171.045C246.547 170.261 246.715 169.57 247.051 168.973C247.396 168.366 247.863 167.904 248.451 167.587C249.039 167.26 249.697 167.097 250.425 167.097C251.153 167.097 251.811 167.26 252.399 167.587C252.987 167.904 253.449 168.361 253.785 168.959C254.13 169.556 254.303 170.251 254.303 171.045C254.303 171.838 254.125 172.538 253.771 173.145C253.425 173.742 252.954 174.204 252.357 174.531C251.759 174.857 251.097 175.021 250.369 175.021ZM250.369 173.901C250.826 173.901 251.255 173.793 251.657 173.579C252.058 173.364 252.38 173.042 252.623 172.613C252.875 172.183 253.001 171.661 253.001 171.045C253.001 170.429 252.879 169.906 252.637 169.477C252.394 169.047 252.077 168.73 251.685 168.525C251.293 168.31 250.868 168.203 250.411 168.203C249.944 168.203 249.515 168.31 249.123 168.525C248.74 168.73 248.432 169.047 248.199 169.477C247.965 169.906 247.849 170.429 247.849 171.045C247.849 171.67 247.961 172.197 248.185 172.627C248.418 173.056 248.726 173.378 249.109 173.593C249.491 173.798 249.911 173.901 250.369 173.901ZM256.692 168.469C256.916 168.03 257.233 167.689 257.644 167.447C258.064 167.204 258.572 167.083 259.17 167.083V168.399H258.834C257.406 168.399 256.692 169.173 256.692 170.723V174.895H255.418V167.223H256.692V168.469ZM261.634 168.273V172.795C261.634 173.168 261.714 173.434 261.872 173.593C262.031 173.742 262.306 173.817 262.698 173.817H263.636V174.895H262.488C261.779 174.895 261.247 174.731 260.892 174.405C260.538 174.078 260.36 173.541 260.36 172.795V168.273H259.366V167.223H260.36V165.291H261.634V167.223H263.636V168.273H261.634ZM269.346 168.273V172.795C269.346 173.168 269.426 173.434 269.584 173.593C269.743 173.742 270.018 173.817 270.41 173.817H271.348V174.895H270.2C269.491 174.895 268.959 174.731 268.604 174.405C268.25 174.078 268.072 173.541 268.072 172.795V168.273H267.078V167.223H268.072V165.291H269.346V167.223H271.348V168.273H269.346ZM275.678 175.021C274.959 175.021 274.306 174.857 273.718 174.531C273.139 174.204 272.682 173.742 272.346 173.145C272.019 172.538 271.856 171.838 271.856 171.045C271.856 170.261 272.024 169.57 272.36 168.973C272.705 168.366 273.172 167.904 273.76 167.587C274.348 167.26 275.006 167.097 275.734 167.097C276.462 167.097 277.12 167.26 277.708 167.587C278.296 167.904 278.758 168.361 279.094 168.959C279.439 169.556 279.612 170.251 279.612 171.045C279.612 171.838 279.435 172.538 279.08 173.145C278.735 173.742 278.263 174.204 277.666 174.531C277.069 174.857 276.406 175.021 275.678 175.021ZM275.678 173.901C276.135 173.901 276.565 173.793 276.966 173.579C277.367 173.364 277.689 173.042 277.932 172.613C278.184 172.183 278.31 171.661 278.31 171.045C278.31 170.429 278.189 169.906 277.946 169.477C277.703 169.047 277.386 168.73 276.994 168.525C276.602 168.31 276.177 168.203 275.72 168.203C275.253 168.203 274.824 168.31 274.432 168.525C274.049 168.73 273.741 169.047 273.508 169.477C273.275 169.906 273.158 170.429 273.158 171.045C273.158 171.67 273.27 172.197 273.494 172.627C273.727 173.056 274.035 173.378 274.418 173.593C274.801 173.798 275.221 173.901 275.678 173.901ZM285.454 168.273V172.795C285.454 173.168 285.533 173.434 285.692 173.593C285.85 173.742 286.126 173.817 286.518 173.817H287.456V174.895H286.308C285.598 174.895 285.066 174.731 284.712 174.405C284.357 174.078 284.18 173.541 284.18 172.795V168.273H283.186V167.223H284.18V165.291H285.454V167.223H287.456V168.273H285.454ZM291.785 175.021C291.067 175.021 290.413 174.857 289.825 174.531C289.247 174.204 288.789 173.742 288.453 173.145C288.127 172.538 287.963 171.838 287.963 171.045C287.963 170.261 288.131 169.57 288.467 168.973C288.813 168.366 289.279 167.904 289.867 167.587C290.455 167.26 291.113 167.097 291.841 167.097C292.569 167.097 293.227 167.26 293.815 167.587C294.403 167.904 294.865 168.361 295.201 168.959C295.547 169.556 295.719 170.251 295.719 171.045C295.719 171.838 295.542 172.538 295.187 173.145C294.842 173.742 294.371 174.204 293.773 174.531C293.176 174.857 292.513 175.021 291.785 175.021ZM291.785 173.901C292.243 173.901 292.672 173.793 293.073 173.579C293.475 173.364 293.797 173.042 294.039 172.613C294.291 172.183 294.417 171.661 294.417 171.045C294.417 170.429 294.296 169.906 294.053 169.477C293.811 169.047 293.493 168.73 293.101 168.525C292.709 168.31 292.285 168.203 291.827 168.203C291.361 168.203 290.931 168.31 290.539 168.525C290.157 168.73 289.849 169.047 289.615 169.477C289.382 169.906 289.265 170.429 289.265 171.045C289.265 171.67 289.377 172.197 289.601 172.627C289.835 173.056 290.143 173.378 290.525 173.593C290.908 173.798 291.328 173.901 291.785 173.901ZM300.18 175.021C299.462 175.021 298.808 174.857 298.22 174.531C297.642 174.204 297.184 173.742 296.848 173.145C296.522 172.538 296.358 171.838 296.358 171.045C296.358 170.261 296.526 169.57 296.862 168.973C297.208 168.366 297.674 167.904 298.262 167.587C298.85 167.26 299.508 167.097 300.236 167.097C300.964 167.097 301.622 167.26 302.21 167.587C302.798 167.904 303.26 168.361 303.596 168.959C303.942 169.556 304.114 170.251 304.114 171.045C304.114 171.838 303.937 172.538 303.582 173.145C303.237 173.742 302.766 174.204 302.168 174.531C301.571 174.857 300.908 175.021 300.18 175.021ZM300.18 173.901C300.638 173.901 301.067 173.793 301.468 173.579C301.87 173.364 302.192 173.042 302.434 172.613C302.686 172.183 302.812 171.661 302.812 171.045C302.812 170.429 302.691 169.906 302.448 169.477C302.206 169.047 301.888 168.73 301.496 168.525C301.104 168.31 300.68 168.203 300.222 168.203C299.756 168.203 299.326 168.31 298.934 168.525C298.552 168.73 298.244 169.047 298.01 169.477C297.777 169.906 297.66 170.429 297.66 171.045C297.66 171.67 297.772 172.197 297.996 172.627C298.23 173.056 298.538 173.378 298.92 173.593C299.303 173.798 299.723 173.901 300.18 173.901ZM306.503 164.535V174.895H305.229V164.535H306.503ZM310.831 175.021C310.243 175.021 309.715 174.923 309.249 174.727C308.782 174.521 308.413 174.241 308.143 173.887C307.872 173.523 307.723 173.107 307.695 172.641H309.011C309.048 173.023 309.225 173.336 309.543 173.579C309.869 173.821 310.294 173.943 310.817 173.943C311.302 173.943 311.685 173.835 311.965 173.621C312.245 173.406 312.385 173.135 312.385 172.809C312.385 172.473 312.235 172.225 311.937 172.067C311.638 171.899 311.176 171.735 310.551 171.577C309.981 171.427 309.515 171.278 309.151 171.129C308.796 170.97 308.488 170.741 308.227 170.443C307.975 170.135 307.849 169.733 307.849 169.239C307.849 168.847 307.965 168.487 308.199 168.161C308.432 167.834 308.763 167.577 309.193 167.391C309.622 167.195 310.112 167.097 310.663 167.097C311.512 167.097 312.198 167.311 312.721 167.741C313.243 168.17 313.523 168.758 313.561 169.505H312.287C312.259 169.103 312.095 168.781 311.797 168.539C311.507 168.296 311.115 168.175 310.621 168.175C310.163 168.175 309.799 168.273 309.529 168.469C309.258 168.665 309.123 168.921 309.123 169.239C309.123 169.491 309.202 169.701 309.361 169.869C309.529 170.027 309.734 170.158 309.977 170.261C310.229 170.354 310.574 170.461 311.013 170.583C311.563 170.732 312.011 170.881 312.357 171.031C312.702 171.171 312.996 171.385 313.239 171.675C313.491 171.964 313.621 172.342 313.631 172.809C313.631 173.229 313.514 173.607 313.281 173.943C313.047 174.279 312.716 174.545 312.287 174.741C311.867 174.927 311.381 175.021 310.831 175.021ZM320.758 175.021C320.17 175.021 319.642 174.923 319.176 174.727C318.709 174.521 318.34 174.241 318.07 173.887C317.799 173.523 317.65 173.107 317.622 172.641H318.938C318.975 173.023 319.152 173.336 319.47 173.579C319.796 173.821 320.221 173.943 320.744 173.943C321.229 173.943 321.612 173.835 321.892 173.621C322.172 173.406 322.312 173.135 322.312 172.809C322.312 172.473 322.162 172.225 321.864 172.067C321.565 171.899 321.103 171.735 320.478 171.577C319.908 171.427 319.442 171.278 319.078 171.129C318.723 170.97 318.415 170.741 318.154 170.443C317.902 170.135 317.776 169.733 317.776 169.239C317.776 168.847 317.892 168.487 318.126 168.161C318.359 167.834 318.69 167.577 319.12 167.391C319.549 167.195 320.039 167.097 320.59 167.097C321.439 167.097 322.125 167.311 322.648 167.741C323.17 168.17 323.45 168.758 323.488 169.505H322.214C322.186 169.103 322.022 168.781 321.724 168.539C321.434 168.296 321.042 168.175 320.548 168.175C320.09 168.175 319.726 168.273 319.456 168.469C319.185 168.665 319.05 168.921 319.05 169.239C319.05 169.491 319.129 169.701 319.288 169.869C319.456 170.027 319.661 170.158 319.904 170.261C320.156 170.354 320.501 170.461 320.94 170.583C321.49 170.732 321.938 170.881 322.284 171.031C322.629 171.171 322.923 171.385 323.166 171.675C323.418 171.964 323.548 172.342 323.558 172.809C323.558 173.229 323.441 173.607 323.208 173.943C322.974 174.279 322.643 174.545 322.214 174.741C321.794 174.927 321.308 175.021 320.758 175.021ZM331.6 167.223V174.895H330.326V173.761C330.083 174.153 329.743 174.461 329.304 174.685C328.875 174.899 328.399 175.007 327.876 175.007C327.279 175.007 326.742 174.885 326.266 174.643C325.79 174.391 325.412 174.017 325.132 173.523C324.861 173.028 324.726 172.426 324.726 171.717V167.223H325.986V171.549C325.986 172.305 326.177 172.888 326.56 173.299C326.943 173.7 327.465 173.901 328.128 173.901C328.809 173.901 329.346 173.691 329.738 173.271C330.13 172.851 330.326 172.239 330.326 171.437V167.223H331.6ZM332.715 171.045C332.715 170.251 332.874 169.561 333.191 168.973C333.508 168.375 333.947 167.913 334.507 167.587C335.076 167.26 335.725 167.097 336.453 167.097C337.396 167.097 338.17 167.325 338.777 167.783C339.393 168.24 339.799 168.875 339.995 169.687H338.623C338.492 169.22 338.236 168.851 337.853 168.581C337.48 168.31 337.013 168.175 336.453 168.175C335.725 168.175 335.137 168.427 334.689 168.931C334.241 169.425 334.017 170.13 334.017 171.045C334.017 171.969 334.241 172.683 334.689 173.187C335.137 173.691 335.725 173.943 336.453 173.943C337.013 173.943 337.48 173.812 337.853 173.551C338.226 173.289 338.483 172.916 338.623 172.431H339.995C339.79 173.215 339.379 173.845 338.763 174.321C338.147 174.787 337.377 175.021 336.453 175.021C335.725 175.021 335.076 174.857 334.507 174.531C333.947 174.204 333.508 173.742 333.191 173.145C332.874 172.547 332.715 171.847 332.715 171.045ZM344.943 167.083C345.522 167.083 346.044 167.209 346.511 167.461C346.978 167.703 347.342 168.072 347.603 168.567C347.874 169.061 348.009 169.663 348.009 170.373V174.895H346.749V170.555C346.749 169.789 346.558 169.206 346.175 168.805C345.792 168.394 345.27 168.189 344.607 168.189C343.935 168.189 343.398 168.399 342.997 168.819C342.605 169.239 342.409 169.85 342.409 170.653V174.895H341.135V164.535H342.409V168.315C342.661 167.923 343.006 167.619 343.445 167.405C343.893 167.19 344.392 167.083 344.943 167.083ZM352.226 171.031C352.226 170.247 352.385 169.561 352.702 168.973C353.02 168.375 353.454 167.913 354.004 167.587C354.564 167.26 355.185 167.097 355.866 167.097C356.538 167.097 357.122 167.241 357.616 167.531C358.111 167.82 358.48 168.184 358.722 168.623V167.223H360.01V174.895H358.722V173.467C358.47 173.915 358.092 174.288 357.588 174.587C357.094 174.876 356.515 175.021 355.852 175.021C355.171 175.021 354.555 174.853 354.004 174.517C353.454 174.181 353.02 173.709 352.702 173.103C352.385 172.496 352.226 171.805 352.226 171.031ZM358.722 171.045C358.722 170.466 358.606 169.962 358.372 169.533C358.139 169.103 357.822 168.777 357.42 168.553C357.028 168.319 356.594 168.203 356.118 168.203C355.642 168.203 355.208 168.315 354.816 168.539C354.424 168.763 354.112 169.089 353.878 169.519C353.645 169.948 353.528 170.452 353.528 171.031C353.528 171.619 353.645 172.132 353.878 172.571C354.112 173 354.424 173.331 354.816 173.565C355.208 173.789 355.642 173.901 356.118 173.901C356.594 173.901 357.028 173.789 357.42 173.565C357.822 173.331 358.139 173 358.372 172.571C358.606 172.132 358.722 171.623 358.722 171.045ZM364.319 175.021C363.731 175.021 363.204 174.923 362.737 174.727C362.271 174.521 361.902 174.241 361.631 173.887C361.361 173.523 361.211 173.107 361.183 172.641H362.499C362.537 173.023 362.714 173.336 363.031 173.579C363.358 173.821 363.783 173.943 364.305 173.943C364.791 173.943 365.173 173.835 365.453 173.621C365.733 173.406 365.873 173.135 365.873 172.809C365.873 172.473 365.724 172.225 365.425 172.067C365.127 171.899 364.665 171.735 364.039 171.577C363.47 171.427 363.003 171.278 362.639 171.129C362.285 170.97 361.977 170.741 361.715 170.443C361.463 170.135 361.337 169.733 361.337 169.239C361.337 168.847 361.454 168.487 361.687 168.161C361.921 167.834 362.252 167.577 362.681 167.391C363.111 167.195 363.601 167.097 364.151 167.097C365.001 167.097 365.687 167.311 366.209 167.741C366.732 168.17 367.012 168.758 367.049 169.505H365.775C365.747 169.103 365.584 168.781 365.285 168.539C364.996 168.296 364.604 168.175 364.109 168.175C363.652 168.175 363.288 168.273 363.017 168.469C362.747 168.665 362.611 168.921 362.611 169.239C362.611 169.491 362.691 169.701 362.849 169.869C363.017 170.027 363.223 170.158 363.465 170.261C363.717 170.354 364.063 170.461 364.501 170.583C365.052 170.732 365.5 170.881 365.845 171.031C366.191 171.171 366.485 171.385 366.727 171.675C366.979 171.964 367.11 172.342 367.119 172.809C367.119 173.229 367.003 173.607 366.769 173.943C366.536 174.279 366.205 174.545 365.775 174.741C365.355 174.927 364.87 175.021 364.319 175.021ZM372.804 173.859H376.22V174.895H371.53V165.137H372.804V173.859ZM384.013 170.765C384.013 171.007 383.999 171.264 383.971 171.535H377.839C377.886 172.291 378.143 172.883 378.609 173.313C379.085 173.733 379.659 173.943 380.331 173.943C380.882 173.943 381.339 173.817 381.703 173.565C382.077 173.303 382.338 172.958 382.487 172.529H383.859C383.654 173.266 383.243 173.868 382.627 174.335C382.011 174.792 381.246 175.021 380.331 175.021C379.603 175.021 378.95 174.857 378.371 174.531C377.802 174.204 377.354 173.742 377.027 173.145C376.701 172.538 376.537 171.838 376.537 171.045C376.537 170.251 376.696 169.556 377.013 168.959C377.331 168.361 377.774 167.904 378.343 167.587C378.922 167.26 379.585 167.097 380.331 167.097C381.059 167.097 381.703 167.255 382.263 167.573C382.823 167.89 383.253 168.329 383.551 168.889C383.859 169.439 384.013 170.065 384.013 170.765ZM382.697 170.499C382.697 170.013 382.59 169.598 382.375 169.253C382.161 168.898 381.867 168.632 381.493 168.455C381.129 168.268 380.723 168.175 380.275 168.175C379.631 168.175 379.081 168.38 378.623 168.791C378.175 169.201 377.919 169.771 377.853 170.499H382.697ZM394.361 167.083C394.958 167.083 395.49 167.209 395.957 167.461C396.424 167.703 396.792 168.072 397.063 168.567C397.334 169.061 397.469 169.663 397.469 170.373V174.895H396.209V170.555C396.209 169.789 396.018 169.206 395.635 168.805C395.262 168.394 394.753 168.189 394.109 168.189C393.446 168.189 392.919 168.403 392.527 168.833C392.135 169.253 391.939 169.864 391.939 170.667V174.895H390.679V170.555C390.679 169.789 390.488 169.206 390.105 168.805C389.732 168.394 389.223 168.189 388.579 168.189C387.916 168.189 387.389 168.403 386.997 168.833C386.605 169.253 386.409 169.864 386.409 170.667V174.895H385.135V167.223H386.409V168.329C386.661 167.927 386.997 167.619 387.417 167.405C387.846 167.19 388.318 167.083 388.831 167.083C389.475 167.083 390.044 167.227 390.539 167.517C391.034 167.806 391.402 168.231 391.645 168.791C391.86 168.249 392.214 167.829 392.709 167.531C393.204 167.232 393.754 167.083 394.361 167.083ZM400.273 164.535V174.895H398.999V164.535H400.273ZM402.542 165.977C402.299 165.977 402.094 165.893 401.926 165.725C401.758 165.557 401.674 165.351 401.674 165.109C401.674 164.866 401.758 164.661 401.926 164.493C402.094 164.325 402.299 164.241 402.542 164.241C402.775 164.241 402.971 164.325 403.13 164.493C403.298 164.661 403.382 164.866 403.382 165.109C403.382 165.351 403.298 165.557 403.13 165.725C402.971 165.893 402.775 165.977 402.542 165.977ZM403.158 167.223V174.895H401.884V167.223H403.158ZM407.485 175.021C406.897 175.021 406.37 174.923 405.903 174.727C405.437 174.521 405.068 174.241 404.797 173.887C404.527 173.523 404.377 173.107 404.349 172.641H405.665C405.703 173.023 405.88 173.336 406.197 173.579C406.524 173.821 406.949 173.943 407.471 173.943C407.957 173.943 408.339 173.835 408.619 173.621C408.899 173.406 409.039 173.135 409.039 172.809C409.039 172.473 408.89 172.225 408.591 172.067C408.293 171.899 407.831 171.735 407.205 171.577C406.636 171.427 406.169 171.278 405.805 171.129C405.451 170.97 405.143 170.741 404.881 170.443C404.629 170.135 404.503 169.733 404.503 169.239C404.503 168.847 404.62 168.487 404.853 168.161C405.087 167.834 405.418 167.577 405.847 167.391C406.277 167.195 406.767 167.097 407.317 167.097C408.167 167.097 408.853 167.311 409.375 167.741C409.898 168.17 410.178 168.758 410.215 169.505H408.941C408.913 169.103 408.75 168.781 408.451 168.539C408.162 168.296 407.77 168.175 407.275 168.175C406.818 168.175 406.454 168.273 406.183 168.469C405.913 168.665 405.777 168.921 405.777 169.239C405.777 169.491 405.857 169.701 406.015 169.869C406.183 170.027 406.389 170.158 406.631 170.261C406.883 170.354 407.229 170.461 407.667 170.583C408.218 170.732 408.666 170.881 409.011 171.031C409.357 171.171 409.651 171.385 409.893 171.675C410.145 171.964 410.276 172.342 410.285 172.809C410.285 173.229 410.169 173.607 409.935 173.943C409.702 174.279 409.371 174.545 408.941 174.741C408.521 174.927 408.036 175.021 407.485 175.021ZM413.078 168.273V172.795C413.078 173.168 413.157 173.434 413.316 173.593C413.474 173.742 413.75 173.817 414.142 173.817H415.08V174.895H413.932C413.222 174.895 412.69 174.731 412.336 174.405C411.981 174.078 411.804 173.541 411.804 172.795V168.273H410.81V167.223H411.804V165.291H413.078V167.223H415.08V168.273H413.078ZM417.379 173.131L415.811 176.897H414.957L415.979 173.131H417.379ZM422.725 165.137V174.895H421.451V165.137H422.725ZM428.075 167.083C429.008 167.083 429.764 167.367 430.343 167.937C430.921 168.497 431.211 169.309 431.211 170.373V174.895H429.951V170.555C429.951 169.789 429.759 169.206 429.377 168.805C428.994 168.394 428.471 168.189 427.809 168.189C427.137 168.189 426.6 168.399 426.199 168.819C425.807 169.239 425.611 169.85 425.611 170.653V174.895H424.337V167.223H425.611V168.315C425.863 167.923 426.203 167.619 426.633 167.405C427.071 167.19 427.552 167.083 428.075 167.083ZM435.448 175.021C434.86 175.021 434.332 174.923 433.866 174.727C433.399 174.521 433.03 174.241 432.76 173.887C432.489 173.523 432.34 173.107 432.312 172.641H433.628C433.665 173.023 433.842 173.336 434.16 173.579C434.486 173.821 434.911 173.943 435.434 173.943C435.919 173.943 436.302 173.835 436.582 173.621C436.862 173.406 437.002 173.135 437.002 172.809C437.002 172.473 436.852 172.225 436.554 172.067C436.255 171.899 435.793 171.735 435.168 171.577C434.598 171.427 434.132 171.278 433.768 171.129C433.413 170.97 433.105 170.741 432.844 170.443C432.592 170.135 432.466 169.733 432.466 169.239C432.466 168.847 432.582 168.487 432.816 168.161C433.049 167.834 433.38 167.577 433.81 167.391C434.239 167.195 434.729 167.097 435.28 167.097C436.129 167.097 436.815 167.311 437.338 167.741C437.86 168.17 438.14 168.758 438.178 169.505H436.904C436.876 169.103 436.712 168.781 436.414 168.539C436.124 168.296 435.732 168.175 435.238 168.175C434.78 168.175 434.416 168.273 434.146 168.469C433.875 168.665 433.74 168.921 433.74 169.239C433.74 169.491 433.819 169.701 433.978 169.869C434.146 170.027 434.351 170.158 434.594 170.261C434.846 170.354 435.191 170.461 435.63 170.583C436.18 170.732 436.628 170.881 436.974 171.031C437.319 171.171 437.613 171.385 437.856 171.675C438.108 171.964 438.238 172.342 438.248 172.809C438.248 173.229 438.131 173.607 437.898 173.943C437.664 174.279 437.333 174.545 436.904 174.741C436.484 174.927 435.998 175.021 435.448 175.021ZM441.04 168.273V172.795C441.04 173.168 441.119 173.434 441.278 173.593C441.437 173.742 441.712 173.817 442.104 173.817H443.042V174.895H441.894C441.185 174.895 440.653 174.731 440.298 174.405C439.943 174.078 439.766 173.541 439.766 172.795V168.273H438.772V167.223H439.766V165.291H441.04V167.223H443.042V168.273H441.04ZM443.55 171.031C443.55 170.247 443.708 169.561 444.026 168.973C444.343 168.375 444.777 167.913 445.328 167.587C445.888 167.26 446.508 167.097 447.19 167.097C447.862 167.097 448.445 167.241 448.94 167.531C449.434 167.82 449.803 168.184 450.046 168.623V167.223H451.334V174.895H450.046V173.467C449.794 173.915 449.416 174.288 448.912 174.587C448.417 174.876 447.838 175.021 447.176 175.021C446.494 175.021 445.878 174.853 445.328 174.517C444.777 174.181 444.343 173.709 444.026 173.103C443.708 172.496 443.55 171.805 443.55 171.031ZM450.046 171.045C450.046 170.466 449.929 169.962 449.696 169.533C449.462 169.103 449.145 168.777 448.744 168.553C448.352 168.319 447.918 168.203 447.442 168.203C446.966 168.203 446.532 168.315 446.14 168.539C445.748 168.763 445.435 169.089 445.202 169.519C444.968 169.948 444.852 170.452 444.852 171.031C444.852 171.619 444.968 172.132 445.202 172.571C445.435 173 445.748 173.331 446.14 173.565C446.532 173.789 446.966 173.901 447.442 173.901C447.918 173.901 448.352 173.789 448.744 173.565C449.145 173.331 449.462 173 449.696 172.571C449.929 172.132 450.046 171.623 450.046 171.045ZM456.665 167.083C457.598 167.083 458.354 167.367 458.933 167.937C459.511 168.497 459.801 169.309 459.801 170.373V174.895H458.541V170.555C458.541 169.789 458.349 169.206 457.967 168.805C457.584 168.394 457.061 168.189 456.399 168.189C455.727 168.189 455.19 168.399 454.789 168.819C454.397 169.239 454.201 169.85 454.201 170.653V174.895H452.927V167.223H454.201V168.315C454.453 167.923 454.793 167.619 455.223 167.405C455.661 167.19 456.142 167.083 456.665 167.083ZM462.876 168.273V172.795C462.876 173.168 462.955 173.434 463.114 173.593C463.272 173.742 463.548 173.817 463.94 173.817H464.878V174.895H463.73C463.02 174.895 462.488 174.731 462.134 174.405C461.779 174.078 461.602 173.541 461.602 172.795V168.273H460.608V167.223H461.602V165.291H462.876V167.223H464.878V168.273H462.876ZM467.135 164.535V174.895H465.861V164.535H467.135ZM475.355 167.223L470.735 178.507H469.419L470.931 174.811L467.837 167.223H469.251L471.659 173.439L474.039 167.223H475.355ZM477.391 173.131L475.823 176.897H474.969L475.991 173.131H477.391ZM484.557 174.993C483.913 174.993 483.334 174.881 482.821 174.657C482.317 174.423 481.92 174.106 481.631 173.705C481.342 173.294 481.192 172.823 481.183 172.291H482.541C482.588 172.748 482.774 173.135 483.101 173.453C483.437 173.761 483.922 173.915 484.557 173.915C485.164 173.915 485.64 173.765 485.985 173.467C486.34 173.159 486.517 172.767 486.517 172.291C486.517 171.917 486.414 171.614 486.209 171.381C486.004 171.147 485.747 170.97 485.439 170.849C485.131 170.727 484.716 170.597 484.193 170.457C483.549 170.289 483.031 170.121 482.639 169.953C482.256 169.785 481.925 169.523 481.645 169.169C481.374 168.805 481.239 168.319 481.239 167.713C481.239 167.181 481.374 166.709 481.645 166.299C481.916 165.888 482.294 165.571 482.779 165.347C483.274 165.123 483.838 165.011 484.473 165.011C485.388 165.011 486.134 165.239 486.713 165.697C487.301 166.154 487.632 166.761 487.707 167.517H486.307C486.26 167.143 486.064 166.817 485.719 166.537C485.374 166.247 484.916 166.103 484.347 166.103C483.815 166.103 483.381 166.243 483.045 166.523C482.709 166.793 482.541 167.176 482.541 167.671C482.541 168.025 482.639 168.315 482.835 168.539C483.04 168.763 483.288 168.935 483.577 169.057C483.876 169.169 484.291 169.299 484.823 169.449C485.467 169.626 485.985 169.803 486.377 169.981C486.769 170.149 487.105 170.415 487.385 170.779C487.665 171.133 487.805 171.619 487.805 172.235C487.805 172.711 487.679 173.159 487.427 173.579C487.175 173.999 486.802 174.339 486.307 174.601C485.812 174.862 485.229 174.993 484.557 174.993ZM498.346 167.083C498.943 167.083 499.475 167.209 499.942 167.461C500.409 167.703 500.777 168.072 501.048 168.567C501.319 169.061 501.454 169.663 501.454 170.373V174.895H500.194V170.555C500.194 169.789 500.003 169.206 499.62 168.805C499.247 168.394 498.738 168.189 498.094 168.189C497.431 168.189 496.904 168.403 496.512 168.833C496.12 169.253 495.924 169.864 495.924 170.667V174.895H494.664V170.555C494.664 169.789 494.473 169.206 494.09 168.805C493.717 168.394 493.208 168.189 492.564 168.189C491.901 168.189 491.374 168.403 490.982 168.833C490.59 169.253 490.394 169.864 490.394 170.667V174.895H489.12V167.223H490.394V168.329C490.646 167.927 490.982 167.619 491.402 167.405C491.831 167.19 492.303 167.083 492.816 167.083C493.46 167.083 494.029 167.227 494.524 167.517C495.019 167.806 495.387 168.231 495.63 168.791C495.845 168.249 496.199 167.829 496.694 167.531C497.189 167.232 497.739 167.083 498.346 167.083ZM502.508 171.031C502.508 170.247 502.666 169.561 502.984 168.973C503.301 168.375 503.735 167.913 504.286 167.587C504.846 167.26 505.466 167.097 506.148 167.097C506.82 167.097 507.403 167.241 507.898 167.531C508.392 167.82 508.761 168.184 509.004 168.623V167.223H510.292V174.895H509.004V173.467C508.752 173.915 508.374 174.288 507.87 174.587C507.375 174.876 506.796 175.021 506.134 175.021C505.452 175.021 504.836 174.853 504.286 174.517C503.735 174.181 503.301 173.709 502.984 173.103C502.666 172.496 502.508 171.805 502.508 171.031ZM509.004 171.045C509.004 170.466 508.887 169.962 508.654 169.533C508.42 169.103 508.103 168.777 507.702 168.553C507.31 168.319 506.876 168.203 506.4 168.203C505.924 168.203 505.49 168.315 505.098 168.539C504.706 168.763 504.393 169.089 504.16 169.519C503.926 169.948 503.81 170.452 503.81 171.031C503.81 171.619 503.926 172.132 504.16 172.571C504.393 173 504.706 173.331 505.098 173.565C505.49 173.789 505.924 173.901 506.4 173.901C506.876 173.901 507.31 173.789 507.702 173.565C508.103 173.331 508.42 173 508.654 172.571C508.887 172.132 509.004 171.623 509.004 171.045ZM513.159 168.469C513.383 168.03 513.7 167.689 514.111 167.447C514.531 167.204 515.039 167.083 515.637 167.083V168.399H515.301C513.873 168.399 513.159 169.173 513.159 170.723V174.895H511.885V167.223H513.159V168.469ZM517.821 164.535V174.895H516.547V164.535H517.821ZM526.433 170.765C526.433 171.007 526.419 171.264 526.391 171.535H520.259C520.305 172.291 520.562 172.883 521.029 173.313C521.505 173.733 522.079 173.943 522.751 173.943C523.301 173.943 523.759 173.817 524.123 173.565C524.496 173.303 524.757 172.958 524.907 172.529H526.279C526.073 173.266 525.663 173.868 525.047 174.335C524.431 174.792 523.665 175.021 522.751 175.021C522.023 175.021 521.369 174.857 520.791 174.531C520.221 174.204 519.773 173.742 519.447 173.145C519.12 172.538 518.957 171.838 518.957 171.045C518.957 170.251 519.115 169.556 519.433 168.959C519.75 168.361 520.193 167.904 520.763 167.587C521.341 167.26 522.004 167.097 522.751 167.097C523.479 167.097 524.123 167.255 524.683 167.573C525.243 167.89 525.672 168.329 525.971 168.889C526.279 169.439 526.433 170.065 526.433 170.765ZM525.117 170.499C525.117 170.013 525.009 169.598 524.795 169.253C524.58 168.898 524.286 168.632 523.913 168.455C523.549 168.268 523.143 168.175 522.695 168.175C522.051 168.175 521.5 168.38 521.043 168.791C520.595 169.201 520.338 169.771 520.273 170.499H525.117ZM527.078 171.031C527.078 170.247 527.237 169.561 527.554 168.973C527.872 168.375 528.306 167.913 528.856 167.587C529.416 167.26 530.037 167.097 530.718 167.097C531.39 167.097 531.974 167.241 532.468 167.531C532.963 167.82 533.332 168.184 533.574 168.623V167.223H534.862V174.895H533.574V173.467C533.322 173.915 532.944 174.288 532.44 174.587C531.946 174.876 531.367 175.021 530.704 175.021C530.023 175.021 529.407 174.853 528.856 174.517C528.306 174.181 527.872 173.709 527.554 173.103C527.237 172.496 527.078 171.805 527.078 171.031ZM533.574 171.045C533.574 170.466 533.458 169.962 533.224 169.533C532.991 169.103 532.674 168.777 532.272 168.553C531.88 168.319 531.446 168.203 530.97 168.203C530.494 168.203 530.06 168.315 529.668 168.539C529.276 168.763 528.964 169.089 528.73 169.519C528.497 169.948 528.38 170.452 528.38 171.031C528.38 171.619 528.497 172.132 528.73 172.571C528.964 173 529.276 173.331 529.668 173.565C530.06 173.789 530.494 173.901 530.97 173.901C531.446 173.901 531.88 173.789 532.272 173.565C532.674 173.331 532.991 173 533.224 172.571C533.458 172.132 533.574 171.623 533.574 171.045ZM535.979 171.031C535.979 170.247 536.138 169.561 536.455 168.973C536.773 168.375 537.207 167.913 537.757 167.587C538.317 167.26 538.943 167.097 539.633 167.097C540.231 167.097 540.786 167.237 541.299 167.517C541.813 167.787 542.205 168.147 542.475 168.595V164.535H543.763V174.895H542.475V173.453C542.223 173.91 541.85 174.288 541.355 174.587C540.861 174.876 540.282 175.021 539.619 175.021C538.938 175.021 538.317 174.853 537.757 174.517C537.207 174.181 536.773 173.709 536.455 173.103C536.138 172.496 535.979 171.805 535.979 171.031ZM542.475 171.045C542.475 170.466 542.359 169.962 542.125 169.533C541.892 169.103 541.575 168.777 541.173 168.553C540.781 168.319 540.347 168.203 539.871 168.203C539.395 168.203 538.961 168.315 538.569 168.539C538.177 168.763 537.865 169.089 537.631 169.519C537.398 169.948 537.281 170.452 537.281 171.031C537.281 171.619 537.398 172.132 537.631 172.571C537.865 173 538.177 173.331 538.569 173.565C538.961 173.789 539.395 173.901 539.871 173.901C540.347 173.901 540.781 173.789 541.173 173.565C541.575 173.331 541.892 173 542.125 172.571C542.359 172.132 542.475 171.623 542.475 171.045ZM546.672 173.131L545.104 176.897H544.25L545.272 173.131H546.672ZM233.537 195.993C232.632 195.993 231.806 195.783 231.059 195.363C230.313 194.933 229.72 194.341 229.281 193.585C228.852 192.819 228.637 191.961 228.637 191.009C228.637 190.057 228.852 189.203 229.281 188.447C229.72 187.681 230.313 187.089 231.059 186.669C231.806 186.239 232.632 186.025 233.537 186.025C234.452 186.025 235.283 186.239 236.029 186.669C236.776 187.089 237.364 187.677 237.793 188.433C238.223 189.189 238.437 190.047 238.437 191.009C238.437 191.97 238.223 192.829 237.793 193.585C237.364 194.341 236.776 194.933 236.029 195.363C235.283 195.783 234.452 195.993 233.537 195.993ZM233.537 194.887C234.219 194.887 234.83 194.728 235.371 194.411C235.922 194.093 236.351 193.641 236.659 193.053C236.977 192.465 237.135 191.783 237.135 191.009C237.135 190.225 236.977 189.543 236.659 188.965C236.351 188.377 235.927 187.924 235.385 187.607C234.844 187.289 234.228 187.131 233.537 187.131C232.847 187.131 232.231 187.289 231.689 187.607C231.148 187.924 230.719 188.377 230.401 188.965C230.093 189.543 229.939 190.225 229.939 191.009C229.939 191.783 230.093 192.465 230.401 193.053C230.719 193.641 231.148 194.093 231.689 194.411C232.24 194.728 232.856 194.887 233.537 194.887ZM246.363 188.223V195.895H245.089V194.761C244.847 195.153 244.506 195.461 244.067 195.685C243.638 195.899 243.162 196.007 242.639 196.007C242.042 196.007 241.505 195.885 241.029 195.643C240.553 195.391 240.175 195.017 239.895 194.523C239.625 194.028 239.489 193.426 239.489 192.717V188.223H240.749V192.549C240.749 193.305 240.941 193.888 241.323 194.299C241.706 194.7 242.229 194.901 242.891 194.901C243.573 194.901 244.109 194.691 244.501 194.271C244.893 193.851 245.089 193.239 245.089 192.437V188.223H246.363ZM249.508 189.273V193.795C249.508 194.168 249.588 194.434 249.746 194.593C249.905 194.742 250.18 194.817 250.572 194.817H251.51V195.895H250.362C249.653 195.895 249.121 195.731 248.766 195.405C248.412 195.078 248.234 194.541 248.234 193.795V189.273H247.24V188.223H248.234V186.291H249.508V188.223H251.51V189.273H249.508ZM253.768 189.469C253.992 189.03 254.309 188.689 254.72 188.447C255.14 188.204 255.649 188.083 256.246 188.083V189.399H255.91C254.482 189.399 253.768 190.173 253.768 191.723V195.895H252.494V188.223H253.768V189.469ZM264.157 191.765C264.157 192.007 264.143 192.264 264.115 192.535H257.983C258.029 193.291 258.286 193.883 258.753 194.313C259.229 194.733 259.803 194.943 260.475 194.943C261.025 194.943 261.483 194.817 261.847 194.565C262.22 194.303 262.481 193.958 262.631 193.529H264.003C263.797 194.266 263.387 194.868 262.771 195.335C262.155 195.792 261.389 196.021 260.475 196.021C259.747 196.021 259.093 195.857 258.515 195.531C257.945 195.204 257.497 194.742 257.171 194.145C256.844 193.538 256.681 192.838 256.681 192.045C256.681 191.251 256.839 190.556 257.157 189.959C257.474 189.361 257.917 188.904 258.487 188.587C259.065 188.26 259.728 188.097 260.475 188.097C261.203 188.097 261.847 188.255 262.407 188.573C262.967 188.89 263.396 189.329 263.695 189.889C264.003 190.439 264.157 191.065 264.157 191.765ZM262.841 191.499C262.841 191.013 262.733 190.598 262.519 190.253C262.304 189.898 262.01 189.632 261.637 189.455C261.273 189.268 260.867 189.175 260.419 189.175C259.775 189.175 259.224 189.38 258.767 189.791C258.319 190.201 258.062 190.771 257.997 191.499H262.841ZM264.802 192.031C264.802 191.247 264.961 190.561 265.278 189.973C265.596 189.375 266.03 188.913 266.58 188.587C267.14 188.26 267.761 188.097 268.442 188.097C269.114 188.097 269.698 188.241 270.192 188.531C270.687 188.82 271.056 189.184 271.298 189.623V188.223H272.586V195.895H271.298V194.467C271.046 194.915 270.668 195.288 270.164 195.587C269.67 195.876 269.091 196.021 268.428 196.021C267.747 196.021 267.131 195.853 266.58 195.517C266.03 195.181 265.596 194.709 265.278 194.103C264.961 193.496 264.802 192.805 264.802 192.031ZM271.298 192.045C271.298 191.466 271.182 190.962 270.948 190.533C270.715 190.103 270.398 189.777 269.996 189.553C269.604 189.319 269.17 189.203 268.694 189.203C268.218 189.203 267.784 189.315 267.392 189.539C267 189.763 266.688 190.089 266.454 190.519C266.221 190.948 266.104 191.452 266.104 192.031C266.104 192.619 266.221 193.132 266.454 193.571C266.688 194 267 194.331 267.392 194.565C267.784 194.789 268.218 194.901 268.694 194.901C269.17 194.901 269.604 194.789 269.996 194.565C270.398 194.331 270.715 194 270.948 193.571C271.182 193.132 271.298 192.623 271.298 192.045ZM273.703 192.045C273.703 191.251 273.862 190.561 274.179 189.973C274.497 189.375 274.935 188.913 275.495 188.587C276.065 188.26 276.713 188.097 277.441 188.097C278.384 188.097 279.159 188.325 279.765 188.783C280.381 189.24 280.787 189.875 280.983 190.687H279.611C279.481 190.22 279.224 189.851 278.841 189.581C278.468 189.31 278.001 189.175 277.441 189.175C276.713 189.175 276.125 189.427 275.677 189.931C275.229 190.425 275.005 191.13 275.005 192.045C275.005 192.969 275.229 193.683 275.677 194.187C276.125 194.691 276.713 194.943 277.441 194.943C278.001 194.943 278.468 194.812 278.841 194.551C279.215 194.289 279.471 193.916 279.611 193.431H280.983C280.778 194.215 280.367 194.845 279.751 195.321C279.135 195.787 278.365 196.021 277.441 196.021C276.713 196.021 276.065 195.857 275.495 195.531C274.935 195.204 274.497 194.742 274.179 194.145C273.862 193.547 273.703 192.847 273.703 192.045ZM285.931 188.083C286.51 188.083 287.032 188.209 287.499 188.461C287.966 188.703 288.33 189.072 288.591 189.567C288.862 190.061 288.997 190.663 288.997 191.373V195.895H287.737V191.555C287.737 190.789 287.546 190.206 287.163 189.805C286.78 189.394 286.258 189.189 285.595 189.189C284.923 189.189 284.386 189.399 283.985 189.819C283.593 190.239 283.397 190.85 283.397 191.653V195.895H282.123V185.535H283.397V189.315C283.649 188.923 283.994 188.619 284.433 188.405C284.881 188.19 285.38 188.083 285.931 188.083ZM293.215 192.031C293.215 191.247 293.373 190.561 293.691 189.973C294.008 189.375 294.442 188.913 294.993 188.587C295.553 188.26 296.173 188.097 296.855 188.097C297.527 188.097 298.11 188.241 298.605 188.531C299.099 188.82 299.468 189.184 299.711 189.623V188.223H300.999V195.895H299.711V194.467C299.459 194.915 299.081 195.288 298.577 195.587C298.082 195.876 297.503 196.021 296.841 196.021C296.159 196.021 295.543 195.853 294.993 195.517C294.442 195.181 294.008 194.709 293.691 194.103C293.373 193.496 293.215 192.805 293.215 192.031ZM299.711 192.045C299.711 191.466 299.594 190.962 299.361 190.533C299.127 190.103 298.81 189.777 298.409 189.553C298.017 189.319 297.583 189.203 297.107 189.203C296.631 189.203 296.197 189.315 295.805 189.539C295.413 189.763 295.1 190.089 294.867 190.519C294.633 190.948 294.517 191.452 294.517 192.031C294.517 192.619 294.633 193.132 294.867 193.571C295.1 194 295.413 194.331 295.805 194.565C296.197 194.789 296.631 194.901 297.107 194.901C297.583 194.901 298.017 194.789 298.409 194.565C298.81 194.331 299.127 194 299.361 193.571C299.594 193.132 299.711 192.623 299.711 192.045ZM306.33 188.083C307.263 188.083 308.019 188.367 308.598 188.937C309.176 189.497 309.466 190.309 309.466 191.373V195.895H308.206V191.555C308.206 190.789 308.014 190.206 307.632 189.805C307.249 189.394 306.726 189.189 306.064 189.189C305.392 189.189 304.855 189.399 304.454 189.819C304.062 190.239 303.866 190.85 303.866 191.653V195.895H302.592V188.223H303.866V189.315C304.118 188.923 304.458 188.619 304.888 188.405C305.326 188.19 305.807 188.083 306.33 188.083ZM310.511 192.031C310.511 191.247 310.669 190.561 310.987 189.973C311.304 189.375 311.738 188.913 312.289 188.587C312.849 188.26 313.474 188.097 314.165 188.097C314.762 188.097 315.317 188.237 315.831 188.517C316.344 188.787 316.736 189.147 317.007 189.595V185.535H318.295V195.895H317.007V194.453C316.755 194.91 316.381 195.288 315.887 195.587C315.392 195.876 314.813 196.021 314.151 196.021C313.469 196.021 312.849 195.853 312.289 195.517C311.738 195.181 311.304 194.709 310.987 194.103C310.669 193.496 310.511 192.805 310.511 192.031ZM317.007 192.045C317.007 191.466 316.89 190.962 316.657 190.533C316.423 190.103 316.106 189.777 315.705 189.553C315.313 189.319 314.879 189.203 314.403 189.203C313.927 189.203 313.493 189.315 313.101 189.539C312.709 189.763 312.396 190.089 312.163 190.519C311.929 190.948 311.813 191.452 311.813 192.031C311.813 192.619 311.929 193.132 312.163 193.571C312.396 194 312.709 194.331 313.101 194.565C313.493 194.789 313.927 194.901 314.403 194.901C314.879 194.901 315.313 194.789 315.705 194.565C316.106 194.331 316.423 194 316.657 193.571C316.89 193.132 317.007 192.623 317.007 192.045ZM332.286 188.083C332.883 188.083 333.415 188.209 333.882 188.461C334.349 188.703 334.717 189.072 334.988 189.567C335.259 190.061 335.394 190.663 335.394 191.373V195.895H334.134V191.555C334.134 190.789 333.943 190.206 333.56 189.805C333.187 189.394 332.678 189.189 332.034 189.189C331.371 189.189 330.844 189.403 330.452 189.833C330.06 190.253 329.864 190.864 329.864 191.667V195.895H328.604V191.555C328.604 190.789 328.413 190.206 328.03 189.805C327.657 189.394 327.148 189.189 326.504 189.189C325.841 189.189 325.314 189.403 324.922 189.833C324.53 190.253 324.334 190.864 324.334 191.667V195.895H323.06V188.223H324.334V189.329C324.586 188.927 324.922 188.619 325.342 188.405C325.771 188.19 326.243 188.083 326.756 188.083C327.4 188.083 327.969 188.227 328.464 188.517C328.959 188.806 329.327 189.231 329.57 189.791C329.785 189.249 330.139 188.829 330.634 188.531C331.129 188.232 331.679 188.083 332.286 188.083ZM340.27 196.021C339.551 196.021 338.898 195.857 338.31 195.531C337.731 195.204 337.274 194.742 336.938 194.145C336.611 193.538 336.448 192.838 336.448 192.045C336.448 191.261 336.616 190.57 336.952 189.973C337.297 189.366 337.764 188.904 338.352 188.587C338.94 188.26 339.598 188.097 340.326 188.097C341.054 188.097 341.712 188.26 342.3 188.587C342.888 188.904 343.35 189.361 343.686 189.959C344.031 190.556 344.204 191.251 344.204 192.045C344.204 192.838 344.026 193.538 343.672 194.145C343.326 194.742 342.855 195.204 342.258 195.531C341.66 195.857 340.998 196.021 340.27 196.021ZM340.27 194.901C340.727 194.901 341.156 194.793 341.558 194.579C341.959 194.364 342.281 194.042 342.524 193.613C342.776 193.183 342.902 192.661 342.902 192.045C342.902 191.429 342.78 190.906 342.538 190.477C342.295 190.047 341.978 189.73 341.586 189.525C341.194 189.31 340.769 189.203 340.312 189.203C339.845 189.203 339.416 189.31 339.024 189.525C338.641 189.73 338.333 190.047 338.1 190.477C337.866 190.906 337.75 191.429 337.75 192.045C337.75 192.67 337.862 193.197 338.086 193.627C338.319 194.056 338.627 194.378 339.01 194.593C339.392 194.798 339.812 194.901 340.27 194.901ZM346.593 189.469C346.817 189.03 347.134 188.689 347.545 188.447C347.965 188.204 348.474 188.083 349.071 188.083V189.399H348.735C347.307 189.399 346.593 190.173 346.593 191.723V195.895H345.319V188.223H346.593V189.469ZM356.982 191.765C356.982 192.007 356.968 192.264 356.94 192.535H350.808C350.854 193.291 351.111 193.883 351.578 194.313C352.054 194.733 352.628 194.943 353.3 194.943C353.85 194.943 354.308 194.817 354.672 194.565C355.045 194.303 355.306 193.958 355.456 193.529H356.828C356.622 194.266 356.212 194.868 355.596 195.335C354.98 195.792 354.214 196.021 353.3 196.021C352.572 196.021 351.918 195.857 351.34 195.531C350.77 195.204 350.322 194.742 349.996 194.145C349.669 193.538 349.506 192.838 349.506 192.045C349.506 191.251 349.664 190.556 349.982 189.959C350.299 189.361 350.742 188.904 351.312 188.587C351.89 188.26 352.553 188.097 353.3 188.097C354.028 188.097 354.672 188.255 355.232 188.573C355.792 188.89 356.221 189.329 356.52 189.889C356.828 190.439 356.982 191.065 356.982 191.765ZM355.666 191.499C355.666 191.013 355.558 190.598 355.344 190.253C355.129 189.898 354.835 189.632 354.462 189.455C354.098 189.268 353.692 189.175 353.244 189.175C352.6 189.175 352.049 189.38 351.592 189.791C351.144 190.201 350.887 190.771 350.822 191.499H355.666ZM358.509 195.979C358.266 195.979 358.061 195.895 357.893 195.727C357.725 195.559 357.641 195.353 357.641 195.111C357.641 194.868 357.725 194.663 357.893 194.495C358.061 194.327 358.266 194.243 358.509 194.243C358.742 194.243 358.938 194.327 359.097 194.495C359.265 194.663 359.349 194.868 359.349 195.111C359.349 195.353 359.265 195.559 359.097 195.727C358.938 195.895 358.742 195.979 358.509 195.979Z" fill="#787878"/>
</g>
<defs>
<filter id="filter0_d_1740_2733" x="0" y="0.894531" width="588" height="241" filterUnits="userSpaceOnUse" color-interpolation-filters="sRGB">
<feFlood flood-opacity="0" result="BackgroundImageFix"/>
<feColorMatrix in="SourceAlpha" type="matrix" values="0 0 0 0 0 0 0 0 0 0 0 0 0 0 0 0 0 0 127 0" result="hardAlpha"/>
<feOffset/>
<feGaussianBlur stdDeviation="5"/>
<feComposite in2="hardAlpha" operator="out"/>
<feColorMatrix type="matrix" values="0 0 0 0 0 0 0 0 0 0 0 0 0 0 0 0 0 0 0.2 0"/>
<feBlend mode="normal" in2="BackgroundImageFix" result="effect1_dropShadow_1740_2733"/>
<feBlend mode="normal" in="SourceGraphic" in2="effect1_dropShadow_1740_2733" result="shape"/>
</filter>
<linearGradient id="paint0_linear_1740_2733" x1="280" y1="96.8945" x2="322" y2="58.3945" gradientUnits="userSpaceOnUse">
<stop stop-color="#3D154B"/>
<stop offset="0.457326" stop-color="#DF3542"/>
<stop offset="1" stop-color="#FFD29C"/>
</linearGradient>
</defs>
</svg>
