<svg width="1280" height="462" viewBox="0 0 1280 462" fill="none" xmlns="http://www.w3.org/2000/svg">
<rect width="1280" height="461" transform="translate(0 0.894409)" fill="#F9F9F9"/>
<rect x="231" y="162.894" width="46" height="48" rx="23" fill="#3D154B"/>
<path d="M251.576 183.294V181.23H255.432V192.894H253.128V183.294H251.576Z" fill="white"/>
<path d="M277 186.894H617" stroke="url(#paint0_linear_1_235)" stroke-width="4" stroke-dasharray="8 8"/>
<rect x="617" y="162.894" width="46" height="48" rx="23" fill="#DF3542"/>
<path d="M636.958 190.366C637.982 189.513 638.798 188.804 639.406 188.238C640.014 187.662 640.521 187.065 640.926 186.446C641.332 185.828 641.534 185.22 641.534 184.622C641.534 184.078 641.406 183.652 641.15 183.342C640.894 183.033 640.5 182.878 639.966 182.878C639.433 182.878 639.022 183.06 638.734 183.422C638.446 183.774 638.297 184.26 638.286 184.878H636.11C636.153 183.598 636.532 182.628 637.246 181.966C637.972 181.305 638.889 180.974 639.998 180.974C641.214 180.974 642.148 181.3 642.798 181.95C643.449 182.59 643.774 183.438 643.774 184.494C643.774 185.326 643.55 186.121 643.102 186.878C642.654 187.636 642.142 188.297 641.566 188.862C640.99 189.417 640.238 190.089 639.31 190.878H644.03V192.734H636.126V191.07L636.958 190.366Z" fill="white"/>
<path d="M663 186.894H1003" stroke="url(#paint1_linear_1_235)" stroke-width="4" stroke-dasharray="8 8"/>
<rect x="1003" y="162.894" width="46" height="48" rx="23" fill="#FFD29C"/>
<path d="M1021.88 184.302C1021.93 183.236 1022.31 182.414 1023 181.838C1023.7 181.252 1024.63 180.958 1025.77 180.958C1026.55 180.958 1027.21 181.097 1027.77 181.374C1028.32 181.641 1028.74 182.009 1029.02 182.478C1029.3 182.937 1029.45 183.46 1029.45 184.046C1029.45 184.718 1029.27 185.289 1028.92 185.758C1028.58 186.217 1028.17 186.526 1027.69 186.686V186.75C1028.31 186.942 1028.79 187.284 1029.13 187.774C1029.48 188.265 1029.66 188.894 1029.66 189.662C1029.66 190.302 1029.51 190.873 1029.21 191.374C1028.92 191.876 1028.49 192.27 1027.91 192.558C1027.35 192.836 1026.66 192.974 1025.86 192.974C1024.66 192.974 1023.68 192.67 1022.92 192.062C1022.16 191.454 1021.76 190.558 1021.72 189.374H1023.9C1023.92 189.897 1024.09 190.318 1024.42 190.638C1024.77 190.948 1025.23 191.102 1025.82 191.102C1026.36 191.102 1026.78 190.953 1027.06 190.654C1027.36 190.345 1027.51 189.95 1027.51 189.47C1027.51 188.83 1027.31 188.372 1026.9 188.094C1026.5 187.817 1025.87 187.678 1025.02 187.678H1024.55V185.838H1025.02C1026.53 185.838 1027.29 185.332 1027.29 184.318C1027.29 183.86 1027.15 183.502 1026.87 183.246C1026.61 182.99 1026.22 182.862 1025.7 182.862C1025.2 182.862 1024.81 183.001 1024.54 183.278C1024.27 183.545 1024.11 183.886 1024.07 184.302H1021.88Z" fill="white"/>
<defs>
<linearGradient id="paint0_linear_1_235" x1="277" y1="187.394" x2="617" y2="187.394" gradientUnits="userSpaceOnUse">
<stop stop-color="#3D154B"/>
<stop offset="1" stop-color="#DF3542"/>
</linearGradient>
<linearGradient id="paint1_linear_1_235" x1="663" y1="187.394" x2="1003" y2="187.394" gradientUnits="userSpaceOnUse">
<stop stop-color="#DF3542"/>
<stop offset="1" stop-color="#FFD29C"/>
</linearGradient>
</defs>
</svg>
