<svg width="1280" height="591" viewBox="0 0 1280 591" fill="none" xmlns="http://www.w3.org/2000/svg">
<path d="M918.5 100.145C870.058 100.146 241.841 100.145 134.155 100.145C125.319 100.145 118.5 107.309 118.5 116.145V474.894C118.5 483.731 125.663 490.894 134.5 490.894L1145.5 490.894C1154.34 490.894 1161.5 483.731 1161.5 474.894V259.088C1161.5 254.084 1159.22 249.418 1155.24 246.397C1130.73 227.833 1039.83 159.083 981 116.145C955.269 97.363 928 100.145 918.5 100.145Z" fill="#323232"/>
<g filter="url(#filter0_f_1_221)">
<path d="M1015.99 304L1161.5 251L1063 175.5L1005.5 134C1005.5 134 993 121 974.5 111.5C956 102 948.5 102 948.5 102C948.5 102 969.132 119.71 977.596 141.163C1000.28 198.671 1015.99 304 1015.99 304Z" fill="black" fill-opacity="0.2"/>
</g>
<g filter="url(#filter1_d_1_221)">
<path d="M1036 284.646L1160 252C1160 252 1157.97 248.544 1156 247C1123.5 221.5 1072.5 182.646 1072.5 182.646L981 116.146C981 116.146 995.726 132.426 1003 150.146C1022.5 197.646 1036 284.646 1036 284.646Z" fill="url(#paint0_linear_1_221)" fill-opacity="0.2" shape-rendering="crispEdges"/>
</g>
<defs>
<filter id="filter0_f_1_221" x="928.5" y="82" width="253" height="242" filterUnits="userSpaceOnUse" color-interpolation-filters="sRGB">
<feFlood flood-opacity="0" result="BackgroundImageFix"/>
<feBlend mode="normal" in="SourceGraphic" in2="BackgroundImageFix" result="shape"/>
<feGaussianBlur stdDeviation="10" result="effect1_foregroundBlur_1_221"/>
</filter>
<filter id="filter1_d_1_221" x="971" y="110.146" width="199" height="188.5" filterUnits="userSpaceOnUse" color-interpolation-filters="sRGB">
<feFlood flood-opacity="0" result="BackgroundImageFix"/>
<feColorMatrix in="SourceAlpha" type="matrix" values="0 0 0 0 0 0 0 0 0 0 0 0 0 0 0 0 0 0 127 0" result="hardAlpha"/>
<feOffset dy="4"/>
<feGaussianBlur stdDeviation="5"/>
<feComposite in2="hardAlpha" operator="out"/>
<feColorMatrix type="matrix" values="0 0 0 0 0 0 0 0 0 0 0 0 0 0 0 0 0 0 0.25 0"/>
<feBlend mode="normal" in2="BackgroundImageFix" result="effect1_dropShadow_1_221"/>
<feBlend mode="normal" in="SourceGraphic" in2="effect1_dropShadow_1_221" result="shape"/>
</filter>
<linearGradient id="paint0_linear_1_221" x1="1095" y1="200" x2="1038.5" y2="276.5" gradientUnits="userSpaceOnUse">
<stop stop-color="#3C3A3A" stop-opacity="0.9"/>
<stop offset="0.313756" stop-color="#BABABA"/>
</linearGradient>
</defs>
</svg>
