<svg width="588" height="242" viewBox="0 0 588 242" fill="none" xmlns="http://www.w3.org/2000/svg">
<g filter="url(#filter0_d_1740_2727)">
<rect x="20" y="20.8945" width="548" height="201" rx="8" fill="white" shape-rendering="crispEdges"/>
<rect x="15" y="15.8945" width="558" height="211" rx="13" stroke="white" stroke-opacity="0.16" stroke-width="10" shape-rendering="crispEdges"/>
<g clip-path="url(#clip0_1740_2727)">
<path fill-rule="evenodd" clip-rule="evenodd" d="M269.406 41.1279H311.975C315.893 41.1279 319.07 44.3051 319.07 48.2228V48.5748L290.69 62.7645L262.32 48.5748V48.2228C262.319 47.2915 262.501 46.3691 262.857 45.5084C263.212 44.6477 263.734 43.8655 264.392 43.2065C265.05 42.5476 265.832 42.0248 266.692 41.6682C267.552 41.3115 268.474 41.1279 269.406 41.1279ZM262.32 54.9656V76.5976C262.32 80.5154 265.493 83.6925 269.41 83.6925H291.934C293.109 82.3577 294.777 81.3611 296.935 80.9862C299.294 80.5748 301.168 78.7874 301.689 76.4559L301.79 76.0216C303.76 67.0159 316.587 66.9565 318.64 75.9485L318.681 76.1314L318.754 76.4514C318.827 76.7561 318.92 77.0502 319.033 77.3336C319.061 77.0898 319.074 76.8445 319.074 76.5976V54.9656L291.97 68.5154C291.572 68.7127 291.134 68.8154 290.69 68.8154C290.246 68.8154 289.808 68.7127 289.41 68.5154L262.32 54.9656ZM306.645 77.0914C307.481 73.2651 312.921 73.2422 313.794 77.0594L313.835 77.2422L313.918 77.5942C314.406 79.685 315.499 81.5857 317.061 83.0589C318.622 84.5321 320.584 85.5125 322.699 85.8776C326.69 86.5725 326.69 92.2959 322.699 92.9908C320.573 93.3604 318.603 94.3504 317.037 95.8364C315.471 97.3224 314.38 99.2382 313.899 101.343L313.794 101.814C312.926 105.626 307.481 105.608 306.645 101.782L306.553 101.379C306.091 99.2682 305.011 97.3424 303.45 95.8476C301.889 94.3528 299.919 93.3567 297.79 92.9862C293.808 92.2914 293.808 86.5771 297.79 85.8868C299.912 85.5175 301.876 84.5267 303.435 83.0399C304.993 81.5531 306.075 79.6371 306.544 77.5348L306.608 77.2422L306.645 77.0914Z" fill="url(#paint0_linear_1740_2727)"/>
</g>
<path d="M180.569 130.365V133.515H184.799V135.513H180.569V138.843H185.339V140.895H178.049V128.313H185.339V130.365H180.569ZM193.137 140.895L191.085 137.799L189.267 140.895H186.567L189.825 135.891L186.531 130.923H189.375L191.409 134.001L193.245 130.923H195.945L192.669 135.891L195.981 140.895H193.137ZM200.283 132.993V137.817C200.283 138.153 200.361 138.399 200.517 138.555C200.685 138.699 200.961 138.771 201.345 138.771H202.515V140.895H200.931C198.807 140.895 197.745 139.863 197.745 137.799V132.993H196.557V130.923H197.745V128.457H200.283V130.923H202.515V132.993H200.283ZM206.848 132.471C207.172 131.943 207.592 131.529 208.108 131.229C208.636 130.929 209.236 130.779 209.908 130.779V133.425H209.242C208.45 133.425 207.85 133.611 207.442 133.983C207.046 134.355 206.848 135.003 206.848 135.927V140.895H204.328V130.923H206.848V132.471ZM210.957 135.873C210.957 134.865 211.155 133.971 211.551 133.191C211.959 132.411 212.505 131.811 213.189 131.391C213.885 130.971 214.659 130.761 215.511 130.761C216.255 130.761 216.903 130.911 217.455 131.211C218.019 131.511 218.469 131.889 218.805 132.345V130.923H221.343V140.895H218.805V139.437C218.481 139.905 218.031 140.295 217.455 140.607C216.891 140.907 216.237 141.057 215.493 141.057C214.653 141.057 213.885 140.841 213.189 140.409C212.505 139.977 211.959 139.371 211.551 138.591C211.155 137.799 210.957 136.893 210.957 135.873ZM218.805 135.909C218.805 135.297 218.685 134.775 218.445 134.343C218.205 133.899 217.881 133.563 217.473 133.335C217.065 133.095 216.627 132.975 216.159 132.975C215.691 132.975 215.259 133.089 214.863 133.317C214.467 133.545 214.143 133.881 213.891 134.325C213.651 134.757 213.531 135.273 213.531 135.873C213.531 136.473 213.651 137.001 213.891 137.457C214.143 137.901 214.467 138.243 214.863 138.483C215.271 138.723 215.703 138.843 216.159 138.843C216.627 138.843 217.065 138.729 217.473 138.501C217.881 138.261 218.205 137.925 218.445 137.493C218.685 137.049 218.805 136.521 218.805 135.909ZM223.156 135.909C223.156 134.877 223.367 133.977 223.787 133.209C224.207 132.429 224.789 131.829 225.533 131.409C226.277 130.977 227.129 130.761 228.089 130.761C229.325 130.761 230.345 131.073 231.149 131.697C231.965 132.309 232.511 133.173 232.787 134.289H230.069C229.925 133.857 229.679 133.521 229.331 133.281C228.995 133.029 228.575 132.903 228.071 132.903C227.351 132.903 226.781 133.167 226.361 133.695C225.941 134.211 225.731 134.949 225.731 135.909C225.731 136.857 225.941 137.595 226.361 138.123C226.781 138.639 227.351 138.897 228.071 138.897C229.091 138.897 229.757 138.441 230.069 137.529H232.787C232.511 138.609 231.965 139.467 231.149 140.103C230.333 140.739 229.313 141.057 228.089 141.057C227.129 141.057 226.277 140.847 225.533 140.427C224.789 139.995 224.207 139.395 223.787 138.627C223.367 137.847 223.156 136.941 223.156 135.909ZM237.567 132.993V137.817C237.567 138.153 237.645 138.399 237.801 138.555C237.969 138.699 238.245 138.771 238.629 138.771H239.799V140.895H238.215C236.091 140.895 235.029 139.863 235.029 137.799V132.993H233.841V130.923H235.029V128.457H237.567V130.923H239.799V132.993H237.567ZM248.42 130.365V133.515H252.65V135.513H248.42V138.843H253.19V140.895H245.9V128.313H253.19V130.365H248.42ZM267.864 130.779C269.088 130.779 270.072 131.157 270.816 131.913C271.572 132.657 271.95 133.701 271.95 135.045V140.895H269.43V135.387C269.43 134.607 269.232 134.013 268.836 133.605C268.44 133.185 267.9 132.975 267.216 132.975C266.532 132.975 265.986 133.185 265.578 133.605C265.182 134.013 264.984 134.607 264.984 135.387V140.895H262.464V135.387C262.464 134.607 262.266 134.013 261.87 133.605C261.474 133.185 260.934 132.975 260.25 132.975C259.554 132.975 259.002 133.185 258.594 133.605C258.198 134.013 258 134.607 258 135.387V140.895H255.48V130.923H258V132.129C258.324 131.709 258.738 131.379 259.242 131.139C259.758 130.899 260.322 130.779 260.934 130.779C261.714 130.779 262.41 130.947 263.022 131.283C263.634 131.607 264.108 132.075 264.444 132.687C264.768 132.111 265.236 131.649 265.848 131.301C266.472 130.953 267.144 130.779 267.864 130.779ZM273.694 135.873C273.694 134.865 273.892 133.971 274.288 133.191C274.696 132.411 275.242 131.811 275.926 131.391C276.622 130.971 277.396 130.761 278.248 130.761C278.992 130.761 279.64 130.911 280.192 131.211C280.756 131.511 281.206 131.889 281.542 132.345V130.923H284.08V140.895H281.542V139.437C281.218 139.905 280.768 140.295 280.192 140.607C279.628 140.907 278.974 141.057 278.23 141.057C277.39 141.057 276.622 140.841 275.926 140.409C275.242 139.977 274.696 139.371 274.288 138.591C273.892 137.799 273.694 136.893 273.694 135.873ZM281.542 135.909C281.542 135.297 281.422 134.775 281.182 134.343C280.942 133.899 280.618 133.563 280.21 133.335C279.802 133.095 279.364 132.975 278.896 132.975C278.428 132.975 277.996 133.089 277.6 133.317C277.204 133.545 276.88 133.881 276.628 134.325C276.388 134.757 276.268 135.273 276.268 135.873C276.268 136.473 276.388 137.001 276.628 137.457C276.88 137.901 277.204 138.243 277.6 138.483C278.008 138.723 278.44 138.843 278.896 138.843C279.364 138.843 279.802 138.729 280.21 138.501C280.618 138.261 280.942 137.925 281.182 137.493C281.422 137.049 281.542 136.521 281.542 135.909ZM287.819 129.735C287.375 129.735 287.003 129.597 286.703 129.321C286.415 129.033 286.271 128.679 286.271 128.259C286.271 127.839 286.415 127.491 286.703 127.215C287.003 126.927 287.375 126.783 287.819 126.783C288.263 126.783 288.629 126.927 288.917 127.215C289.217 127.491 289.367 127.839 289.367 128.259C289.367 128.679 289.217 129.033 288.917 129.321C288.629 129.597 288.263 129.735 287.819 129.735ZM289.061 130.923V140.895H286.541V130.923H289.061ZM294.071 127.575V140.895H291.551V127.575H294.071ZM305.277 141.057C304.317 141.057 303.453 140.847 302.685 140.427C301.917 139.995 301.311 139.389 300.867 138.609C300.435 137.829 300.219 136.929 300.219 135.909C300.219 134.889 300.441 133.989 300.885 133.209C301.341 132.429 301.959 131.829 302.739 131.409C303.519 130.977 304.389 130.761 305.349 130.761C306.309 130.761 307.179 130.977 307.959 131.409C308.739 131.829 309.351 132.429 309.795 133.209C310.251 133.989 310.479 134.889 310.479 135.909C310.479 136.929 310.245 137.829 309.777 138.609C309.321 139.389 308.697 139.995 307.905 140.427C307.125 140.847 306.249 141.057 305.277 141.057ZM305.277 138.861C305.733 138.861 306.159 138.753 306.555 138.537C306.963 138.309 307.287 137.973 307.527 137.529C307.767 137.085 307.887 136.545 307.887 135.909C307.887 134.961 307.635 134.235 307.131 133.731C306.639 133.215 306.033 132.957 305.313 132.957C304.593 132.957 303.987 133.215 303.495 133.731C303.015 134.235 302.775 134.961 302.775 135.909C302.775 136.857 303.009 137.589 303.477 138.105C303.957 138.609 304.557 138.861 305.277 138.861ZM317.854 130.779C319.042 130.779 320.002 131.157 320.734 131.913C321.466 132.657 321.832 133.701 321.832 135.045V140.895H319.312V135.387C319.312 134.595 319.114 133.989 318.718 133.569C318.322 133.137 317.782 132.921 317.098 132.921C316.402 132.921 315.85 133.137 315.442 133.569C315.046 133.989 314.848 134.595 314.848 135.387V140.895H312.328V130.923H314.848V132.165C315.184 131.733 315.61 131.397 316.126 131.157C316.654 130.905 317.23 130.779 317.854 130.779ZM336.221 138.501H331.217L330.389 140.895H327.743L332.261 128.313H335.195L339.713 140.895H337.049L336.221 138.501ZM335.537 136.485L333.719 131.229L331.901 136.485H335.537ZM350.816 130.923V140.895H348.278V139.635C347.954 140.067 347.528 140.409 347 140.661C346.484 140.901 345.92 141.021 345.308 141.021C344.528 141.021 343.838 140.859 343.238 140.535C342.638 140.199 342.164 139.713 341.816 139.077C341.48 138.429 341.312 137.661 341.312 136.773V130.923H343.832V136.413C343.832 137.205 344.03 137.817 344.426 138.249C344.822 138.669 345.362 138.879 346.046 138.879C346.742 138.879 347.288 138.669 347.684 138.249C348.08 137.817 348.278 137.205 348.278 136.413V130.923H350.816ZM356.237 132.993V137.817C356.237 138.153 356.315 138.399 356.471 138.555C356.639 138.699 356.915 138.771 357.299 138.771H358.469V140.895H356.885C354.761 140.895 353.699 139.863 353.699 137.799V132.993H352.511V130.923H353.699V128.457H356.237V130.923H358.469V132.993H356.237ZM364.709 141.057C363.749 141.057 362.885 140.847 362.117 140.427C361.349 139.995 360.743 139.389 360.299 138.609C359.867 137.829 359.651 136.929 359.651 135.909C359.651 134.889 359.873 133.989 360.317 133.209C360.773 132.429 361.391 131.829 362.171 131.409C362.951 130.977 363.821 130.761 364.781 130.761C365.741 130.761 366.611 130.977 367.391 131.409C368.171 131.829 368.783 132.429 369.227 133.209C369.683 133.989 369.911 134.889 369.911 135.909C369.911 136.929 369.677 137.829 369.209 138.609C368.753 139.389 368.129 139.995 367.337 140.427C366.557 140.847 365.681 141.057 364.709 141.057ZM364.709 138.861C365.165 138.861 365.591 138.753 365.987 138.537C366.395 138.309 366.719 137.973 366.959 137.529C367.199 137.085 367.319 136.545 367.319 135.909C367.319 134.961 367.067 134.235 366.563 133.731C366.071 133.215 365.465 132.957 364.745 132.957C364.025 132.957 363.419 133.215 362.927 133.731C362.447 134.235 362.207 134.961 362.207 135.909C362.207 136.857 362.441 137.589 362.909 138.105C363.389 138.609 363.989 138.861 364.709 138.861ZM374.28 132.363C374.604 131.907 375.048 131.529 375.612 131.229C376.188 130.917 376.842 130.761 377.574 130.761C378.426 130.761 379.194 130.971 379.878 131.391C380.574 131.811 381.12 132.411 381.516 133.191C381.924 133.959 382.128 134.853 382.128 135.873C382.128 136.893 381.924 137.799 381.516 138.591C381.12 139.371 380.574 139.977 379.878 140.409C379.194 140.841 378.426 141.057 377.574 141.057C376.842 141.057 376.194 140.907 375.63 140.607C375.078 140.307 374.628 139.929 374.28 139.473V145.647H371.76V130.923H374.28V132.363ZM379.554 135.873C379.554 135.273 379.428 134.757 379.176 134.325C378.936 133.881 378.612 133.545 378.204 133.317C377.808 133.089 377.376 132.975 376.908 132.975C376.452 132.975 376.02 133.095 375.612 133.335C375.216 133.563 374.892 133.899 374.64 134.343C374.4 134.787 374.28 135.309 374.28 135.909C374.28 136.509 374.4 137.031 374.64 137.475C374.892 137.919 375.216 138.261 375.612 138.501C376.02 138.729 376.452 138.843 376.908 138.843C377.376 138.843 377.808 138.723 378.204 138.483C378.612 138.243 378.936 137.901 379.176 137.457C379.428 137.013 379.554 136.485 379.554 135.873ZM385.237 129.735C384.793 129.735 384.421 129.597 384.121 129.321C383.833 129.033 383.689 128.679 383.689 128.259C383.689 127.839 383.833 127.491 384.121 127.215C384.421 126.927 384.793 126.783 385.237 126.783C385.681 126.783 386.047 126.927 386.335 127.215C386.635 127.491 386.785 127.839 386.785 128.259C386.785 128.679 386.635 129.033 386.335 129.321C386.047 129.597 385.681 129.735 385.237 129.735ZM386.479 130.923V140.895H383.959V130.923H386.479ZM391.489 127.575V140.895H388.969V127.575H391.489ZM398.406 141.057C397.446 141.057 396.582 140.847 395.814 140.427C395.046 139.995 394.44 139.389 393.996 138.609C393.564 137.829 393.348 136.929 393.348 135.909C393.348 134.889 393.57 133.989 394.014 133.209C394.47 132.429 395.088 131.829 395.868 131.409C396.648 130.977 397.518 130.761 398.478 130.761C399.438 130.761 400.308 130.977 401.088 131.409C401.868 131.829 402.48 132.429 402.924 133.209C403.38 133.989 403.608 134.889 403.608 135.909C403.608 136.929 403.374 137.829 402.906 138.609C402.45 139.389 401.826 139.995 401.034 140.427C400.254 140.847 399.378 141.057 398.406 141.057ZM398.406 138.861C398.862 138.861 399.288 138.753 399.684 138.537C400.092 138.309 400.416 137.973 400.656 137.529C400.896 137.085 401.016 136.545 401.016 135.909C401.016 134.961 400.764 134.235 400.26 133.731C399.768 133.215 399.162 132.957 398.442 132.957C397.722 132.957 397.116 133.215 396.624 133.731C396.144 134.235 395.904 134.961 395.904 135.909C395.904 136.857 396.138 137.589 396.606 138.105C397.086 138.609 397.686 138.861 398.406 138.861ZM408.391 132.993V137.817C408.391 138.153 408.469 138.399 408.625 138.555C408.793 138.699 409.069 138.771 409.453 138.771H410.623V140.895H409.039C406.915 140.895 405.853 139.863 405.853 137.799V132.993H404.665V130.923H405.853V128.457H408.391V130.923H410.623V132.993H408.391Z" fill="#323232"/>
<path d="M66.7235 165.137V166.173H62.4815V169.463H65.9255V170.499H62.4815V174.895H61.2075V165.137H66.7235ZM68.9761 168.469C69.2001 168.03 69.5175 167.689 69.9281 167.447C70.3481 167.204 70.8568 167.083 71.4541 167.083V168.399H71.1181C69.6901 168.399 68.9761 169.173 68.9761 170.723V174.895H67.7021V167.223H68.9761V168.469ZM75.7108 175.021C74.9921 175.021 74.3388 174.857 73.7508 174.531C73.1721 174.204 72.7148 173.742 72.3788 173.145C72.0521 172.538 71.8888 171.838 71.8888 171.045C71.8888 170.261 72.0568 169.57 72.3928 168.973C72.7381 168.366 73.2048 167.904 73.7928 167.587C74.3808 167.26 75.0388 167.097 75.7668 167.097C76.4948 167.097 77.1528 167.26 77.7408 167.587C78.3288 167.904 78.7908 168.361 79.1268 168.959C79.4721 169.556 79.6448 170.251 79.6448 171.045C79.6448 171.838 79.4675 172.538 79.1128 173.145C78.7675 173.742 78.2961 174.204 77.6988 174.531C77.1015 174.857 76.4388 175.021 75.7108 175.021ZM75.7108 173.901C76.1681 173.901 76.5975 173.793 76.9988 173.579C77.4001 173.364 77.7221 173.042 77.9648 172.613C78.2168 172.183 78.3428 171.661 78.3428 171.045C78.3428 170.429 78.2215 169.906 77.9788 169.477C77.7361 169.047 77.4188 168.73 77.0268 168.525C76.6348 168.31 76.2101 168.203 75.7528 168.203C75.2861 168.203 74.8568 168.31 74.4648 168.525C74.0821 168.73 73.7741 169.047 73.5408 169.477C73.3075 169.906 73.1908 170.429 73.1908 171.045C73.1908 171.67 73.3028 172.197 73.5268 172.627C73.7601 173.056 74.0681 173.378 74.4508 173.593C74.8335 173.798 75.2535 173.901 75.7108 173.901ZM89.9859 167.083C90.5832 167.083 91.1152 167.209 91.5819 167.461C92.0485 167.703 92.4172 168.072 92.6879 168.567C92.9585 169.061 93.0939 169.663 93.0939 170.373V174.895H91.8339V170.555C91.8339 169.789 91.6425 169.206 91.2599 168.805C90.8865 168.394 90.3779 168.189 89.7339 168.189C89.0712 168.189 88.5439 168.403 88.1519 168.833C87.7599 169.253 87.5639 169.864 87.5639 170.667V174.895H86.3039V170.555C86.3039 169.789 86.1125 169.206 85.7299 168.805C85.3565 168.394 84.8479 168.189 84.2039 168.189C83.5412 168.189 83.0139 168.403 82.6219 168.833C82.2299 169.253 82.0339 169.864 82.0339 170.667V174.895H80.7599V167.223H82.0339V168.329C82.2859 167.927 82.6219 167.619 83.0419 167.405C83.4712 167.19 83.9425 167.083 84.4559 167.083C85.0999 167.083 85.6692 167.227 86.1639 167.517C86.6585 167.806 87.0272 168.231 87.2699 168.791C87.4845 168.249 87.8392 167.829 88.3339 167.531C88.8285 167.232 89.3792 167.083 89.9859 167.083ZM104.404 167.223L99.7841 178.507H98.4681L99.9801 174.811L96.8861 167.223H98.3001L100.708 173.439L103.088 167.223H104.404ZM108.471 175.021C107.752 175.021 107.099 174.857 106.511 174.531C105.932 174.204 105.475 173.742 105.139 173.145C104.812 172.538 104.649 171.838 104.649 171.045C104.649 170.261 104.817 169.57 105.153 168.973C105.498 168.366 105.965 167.904 106.553 167.587C107.141 167.26 107.799 167.097 108.527 167.097C109.255 167.097 109.913 167.26 110.501 167.587C111.089 167.904 111.551 168.361 111.887 168.959C112.232 169.556 112.405 170.251 112.405 171.045C112.405 171.838 112.227 172.538 111.873 173.145C111.527 173.742 111.056 174.204 110.459 174.531C109.861 174.857 109.199 175.021 108.471 175.021ZM108.471 173.901C108.928 173.901 109.357 173.793 109.759 173.579C110.16 173.364 110.482 173.042 110.725 172.613C110.977 172.183 111.103 171.661 111.103 171.045C111.103 170.429 110.981 169.906 110.739 169.477C110.496 169.047 110.179 168.73 109.787 168.525C109.395 168.31 108.97 168.203 108.513 168.203C108.046 168.203 107.617 168.31 107.225 168.525C106.842 168.73 106.534 169.047 106.301 169.477C106.067 169.906 105.951 170.429 105.951 171.045C105.951 171.67 106.063 172.197 106.287 172.627C106.52 173.056 106.828 173.378 107.211 173.593C107.593 173.798 108.013 173.901 108.471 173.901ZM120.324 167.223V174.895H119.05V173.761C118.807 174.153 118.467 174.461 118.028 174.685C117.599 174.899 117.123 175.007 116.6 175.007C116.003 175.007 115.466 174.885 114.99 174.643C114.514 174.391 114.136 174.017 113.856 173.523C113.585 173.028 113.45 172.426 113.45 171.717V167.223H114.71V171.549C114.71 172.305 114.901 172.888 115.284 173.299C115.667 173.7 116.189 173.901 116.852 173.901C117.533 173.901 118.07 173.691 118.462 173.271C118.854 172.851 119.05 172.239 119.05 171.437V167.223H120.324ZM123.189 168.469C123.413 168.03 123.73 167.689 124.141 167.447C124.561 167.204 125.07 167.083 125.667 167.083V168.399H125.331C123.903 168.399 123.189 169.173 123.189 170.723V174.895H121.915V167.223H123.189V168.469ZM129.274 171.045C129.274 170.251 129.433 169.561 129.75 168.973C130.067 168.375 130.506 167.913 131.066 167.587C131.635 167.26 132.284 167.097 133.012 167.097C133.955 167.097 134.729 167.325 135.336 167.783C135.952 168.24 136.358 168.875 136.554 169.687H135.182C135.051 169.22 134.795 168.851 134.412 168.581C134.039 168.31 133.572 168.175 133.012 168.175C132.284 168.175 131.696 168.427 131.248 168.931C130.8 169.425 130.576 170.13 130.576 171.045C130.576 171.969 130.8 172.683 131.248 173.187C131.696 173.691 132.284 173.943 133.012 173.943C133.572 173.943 134.039 173.812 134.412 173.551C134.785 173.289 135.042 172.916 135.182 172.431H136.554C136.349 173.215 135.938 173.845 135.322 174.321C134.706 174.787 133.936 175.021 133.012 175.021C132.284 175.021 131.635 174.857 131.066 174.531C130.506 174.204 130.067 173.742 129.75 173.145C129.433 172.547 129.274 171.847 129.274 171.045ZM141.04 175.021C140.321 175.021 139.668 174.857 139.08 174.531C138.501 174.204 138.044 173.742 137.708 173.145C137.381 172.538 137.218 171.838 137.218 171.045C137.218 170.261 137.386 169.57 137.722 168.973C138.067 168.366 138.534 167.904 139.122 167.587C139.71 167.26 140.368 167.097 141.096 167.097C141.824 167.097 142.482 167.26 143.07 167.587C143.658 167.904 144.12 168.361 144.456 168.959C144.801 169.556 144.974 170.251 144.974 171.045C144.974 171.838 144.797 172.538 144.442 173.145C144.097 173.742 143.625 174.204 143.028 174.531C142.431 174.857 141.768 175.021 141.04 175.021ZM141.04 173.901C141.497 173.901 141.927 173.793 142.328 173.579C142.729 173.364 143.051 173.042 143.294 172.613C143.546 172.183 143.672 171.661 143.672 171.045C143.672 170.429 143.551 169.906 143.308 169.477C143.065 169.047 142.748 168.73 142.356 168.525C141.964 168.31 141.539 168.203 141.082 168.203C140.615 168.203 140.186 168.31 139.794 168.525C139.411 168.73 139.103 169.047 138.87 169.477C138.637 169.906 138.52 170.429 138.52 171.045C138.52 171.67 138.632 172.197 138.856 172.627C139.089 173.056 139.397 173.378 139.78 173.593C140.163 173.798 140.583 173.901 141.04 173.901ZM155.315 167.083C155.912 167.083 156.444 167.209 156.911 167.461C157.378 167.703 157.746 168.072 158.017 168.567C158.288 169.061 158.423 169.663 158.423 170.373V174.895H157.163V170.555C157.163 169.789 156.972 169.206 156.589 168.805C156.216 168.394 155.707 168.189 155.063 168.189C154.4 168.189 153.873 168.403 153.481 168.833C153.089 169.253 152.893 169.864 152.893 170.667V174.895H151.633V170.555C151.633 169.789 151.442 169.206 151.059 168.805C150.686 168.394 150.177 168.189 149.533 168.189C148.87 168.189 148.343 168.403 147.951 168.833C147.559 169.253 147.363 169.864 147.363 170.667V174.895H146.089V167.223H147.363V168.329C147.615 167.927 147.951 167.619 148.371 167.405C148.8 167.19 149.272 167.083 149.785 167.083C150.429 167.083 150.998 167.227 151.493 167.517C151.988 167.806 152.356 168.231 152.599 168.791C152.814 168.249 153.168 167.829 153.663 167.531C154.158 167.232 154.708 167.083 155.315 167.083ZM161.227 168.637C161.479 168.198 161.852 167.834 162.347 167.545C162.851 167.246 163.434 167.097 164.097 167.097C164.778 167.097 165.394 167.26 165.945 167.587C166.505 167.913 166.944 168.375 167.261 168.973C167.578 169.561 167.737 170.247 167.737 171.031C167.737 171.805 167.578 172.496 167.261 173.103C166.944 173.709 166.505 174.181 165.945 174.517C165.394 174.853 164.778 175.021 164.097 175.021C163.444 175.021 162.865 174.876 162.361 174.587C161.866 174.288 161.488 173.919 161.227 173.481V178.535H159.953V167.223H161.227V168.637ZM166.435 171.031C166.435 170.452 166.318 169.948 166.085 169.519C165.852 169.089 165.534 168.763 165.133 168.539C164.741 168.315 164.307 168.203 163.831 168.203C163.364 168.203 162.93 168.319 162.529 168.553C162.137 168.777 161.82 169.108 161.577 169.547C161.344 169.976 161.227 170.475 161.227 171.045C161.227 171.623 161.344 172.132 161.577 172.571C161.82 173 162.137 173.331 162.529 173.565C162.93 173.789 163.364 173.901 163.831 173.901C164.307 173.901 164.741 173.789 165.133 173.565C165.534 173.331 165.852 173 166.085 172.571C166.318 172.132 166.435 171.619 166.435 171.031ZM175.854 170.765C175.854 171.007 175.84 171.264 175.812 171.535H169.68C169.726 172.291 169.983 172.883 170.45 173.313C170.926 173.733 171.5 173.943 172.172 173.943C172.722 173.943 173.18 173.817 173.544 173.565C173.917 173.303 174.178 172.958 174.328 172.529H175.7C175.494 173.266 175.084 173.868 174.468 174.335C173.852 174.792 173.086 175.021 172.172 175.021C171.444 175.021 170.79 174.857 170.212 174.531C169.642 174.204 169.194 173.742 168.868 173.145C168.541 172.538 168.378 171.838 168.378 171.045C168.378 170.251 168.536 169.556 168.854 168.959C169.171 168.361 169.614 167.904 170.184 167.587C170.762 167.26 171.425 167.097 172.172 167.097C172.9 167.097 173.544 167.255 174.104 167.573C174.664 167.89 175.093 168.329 175.392 168.889C175.7 169.439 175.854 170.065 175.854 170.765ZM174.538 170.499C174.538 170.013 174.43 169.598 174.216 169.253C174.001 168.898 173.707 168.632 173.334 168.455C172.97 168.268 172.564 168.175 172.116 168.175C171.472 168.175 170.921 168.38 170.464 168.791C170.016 169.201 169.759 169.771 169.694 170.499H174.538ZM178.529 168.273V172.795C178.529 173.168 178.609 173.434 178.767 173.593C178.926 173.742 179.201 173.817 179.593 173.817H180.531V174.895H179.383C178.674 174.895 178.142 174.731 177.787 174.405C177.433 174.078 177.255 173.541 177.255 172.795V168.273H176.261V167.223H177.255V165.291H178.529V167.223H180.531V168.273H178.529ZM182.173 165.977C181.93 165.977 181.725 165.893 181.557 165.725C181.389 165.557 181.305 165.351 181.305 165.109C181.305 164.866 181.389 164.661 181.557 164.493C181.725 164.325 181.93 164.241 182.173 164.241C182.406 164.241 182.602 164.325 182.761 164.493C182.929 164.661 183.013 164.866 183.013 165.109C183.013 165.351 182.929 165.557 182.761 165.725C182.602 165.893 182.406 165.977 182.173 165.977ZM182.789 167.223V174.895H181.515V167.223H182.789ZM185.954 168.273V172.795C185.954 173.168 186.034 173.434 186.192 173.593C186.351 173.742 186.626 173.817 187.018 173.817H187.956V174.895H186.808C186.099 174.895 185.567 174.731 185.212 174.405C184.858 174.078 184.68 173.541 184.68 172.795V168.273H183.686V167.223H184.68V165.291H185.954V167.223H187.956V168.273H185.954ZM192.286 175.021C191.567 175.021 190.914 174.857 190.326 174.531C189.747 174.204 189.29 173.742 188.954 173.145C188.627 172.538 188.464 171.838 188.464 171.045C188.464 170.261 188.632 169.57 188.968 168.973C189.313 168.366 189.78 167.904 190.368 167.587C190.956 167.26 191.614 167.097 192.342 167.097C193.07 167.097 193.728 167.26 194.316 167.587C194.904 167.904 195.366 168.361 195.702 168.959C196.047 169.556 196.22 170.251 196.22 171.045C196.22 171.838 196.043 172.538 195.688 173.145C195.343 173.742 194.871 174.204 194.274 174.531C193.677 174.857 193.014 175.021 192.286 175.021ZM192.286 173.901C192.743 173.901 193.173 173.793 193.574 173.579C193.975 173.364 194.297 173.042 194.54 172.613C194.792 172.183 194.918 171.661 194.918 171.045C194.918 170.429 194.797 169.906 194.554 169.477C194.311 169.047 193.994 168.73 193.602 168.525C193.21 168.31 192.785 168.203 192.328 168.203C191.861 168.203 191.432 168.31 191.04 168.525C190.657 168.73 190.349 169.047 190.116 169.477C189.883 169.906 189.766 170.429 189.766 171.045C189.766 171.67 189.878 172.197 190.102 172.627C190.335 173.056 190.643 173.378 191.026 173.593C191.409 173.798 191.829 173.901 192.286 173.901ZM198.609 168.469C198.833 168.03 199.15 167.689 199.561 167.447C199.981 167.204 200.49 167.083 201.087 167.083V168.399H200.751C199.323 168.399 198.609 169.173 198.609 170.723V174.895H197.335V167.223H198.609V168.469ZM204.714 175.021C204.126 175.021 203.598 174.923 203.132 174.727C202.665 174.521 202.296 174.241 202.026 173.887C201.755 173.523 201.606 173.107 201.578 172.641H202.894C202.931 173.023 203.108 173.336 203.426 173.579C203.752 173.821 204.177 173.943 204.7 173.943C205.185 173.943 205.568 173.835 205.848 173.621C206.128 173.406 206.268 173.135 206.268 172.809C206.268 172.473 206.118 172.225 205.82 172.067C205.521 171.899 205.059 171.735 204.434 171.577C203.864 171.427 203.398 171.278 203.034 171.129C202.679 170.97 202.371 170.741 202.11 170.443C201.858 170.135 201.732 169.733 201.732 169.239C201.732 168.847 201.848 168.487 202.082 168.161C202.315 167.834 202.646 167.577 203.076 167.391C203.505 167.195 203.995 167.097 204.546 167.097C205.395 167.097 206.081 167.311 206.604 167.741C207.126 168.17 207.406 168.758 207.444 169.505H206.17C206.142 169.103 205.978 168.781 205.68 168.539C205.39 168.296 204.998 168.175 204.504 168.175C204.046 168.175 203.682 168.273 203.412 168.469C203.141 168.665 203.006 168.921 203.006 169.239C203.006 169.491 203.085 169.701 203.244 169.869C203.412 170.027 203.617 170.158 203.86 170.261C204.112 170.354 204.457 170.461 204.896 170.583C205.446 170.732 205.894 170.881 206.24 171.031C206.585 171.171 206.879 171.385 207.122 171.675C207.374 171.964 207.504 172.342 207.514 172.809C207.514 173.229 207.397 173.607 207.164 173.943C206.93 174.279 206.599 174.545 206.17 174.741C205.75 174.927 205.264 175.021 204.714 175.021ZM213.479 168.273V172.795C213.479 173.168 213.558 173.434 213.717 173.593C213.875 173.742 214.151 173.817 214.543 173.817H215.481V174.895H214.333C213.623 174.895 213.091 174.731 212.737 174.405C212.382 174.078 212.205 173.541 212.205 172.795V168.273H211.211V167.223H212.205V165.291H213.479V167.223H215.481V168.273H213.479ZM219.81 175.021C219.092 175.021 218.438 174.857 217.85 174.531C217.272 174.204 216.814 173.742 216.478 173.145C216.152 172.538 215.988 171.838 215.988 171.045C215.988 170.261 216.156 169.57 216.492 168.973C216.838 168.366 217.304 167.904 217.892 167.587C218.48 167.26 219.138 167.097 219.866 167.097C220.594 167.097 221.252 167.26 221.84 167.587C222.428 167.904 222.89 168.361 223.226 168.959C223.572 169.556 223.744 170.251 223.744 171.045C223.744 171.838 223.567 172.538 223.212 173.145C222.867 173.742 222.396 174.204 221.798 174.531C221.201 174.857 220.538 175.021 219.81 175.021ZM219.81 173.901C220.268 173.901 220.697 173.793 221.098 173.579C221.5 173.364 221.822 173.042 222.064 172.613C222.316 172.183 222.442 171.661 222.442 171.045C222.442 170.429 222.321 169.906 222.078 169.477C221.836 169.047 221.518 168.73 221.126 168.525C220.734 168.31 220.31 168.203 219.852 168.203C219.386 168.203 218.956 168.31 218.564 168.525C218.182 168.73 217.874 169.047 217.64 169.477C217.407 169.906 217.29 170.429 217.29 171.045C217.29 171.67 217.402 172.197 217.626 172.627C217.86 173.056 218.168 173.378 218.55 173.593C218.933 173.798 219.353 173.901 219.81 173.901ZM229.586 168.273V172.795C229.586 173.168 229.665 173.434 229.824 173.593C229.982 173.742 230.258 173.817 230.65 173.817H231.588V174.895H230.44C229.73 174.895 229.198 174.731 228.844 174.405C228.489 174.078 228.312 173.541 228.312 172.795V168.273H227.318V167.223H228.312V165.291H229.586V167.223H231.588V168.273H229.586ZM236.379 167.083C236.958 167.083 237.481 167.209 237.947 167.461C238.414 167.703 238.778 168.072 239.039 168.567C239.31 169.061 239.445 169.663 239.445 170.373V174.895H238.185V170.555C238.185 169.789 237.994 169.206 237.611 168.805C237.229 168.394 236.706 168.189 236.043 168.189C235.371 168.189 234.835 168.399 234.433 168.819C234.041 169.239 233.845 169.85 233.845 170.653V174.895H232.571V164.535H233.845V168.315C234.097 167.923 234.443 167.619 234.881 167.405C235.329 167.19 235.829 167.083 236.379 167.083ZM247.966 170.765C247.966 171.007 247.952 171.264 247.924 171.535H241.792C241.839 172.291 242.096 172.883 242.562 173.313C243.038 173.733 243.612 173.943 244.284 173.943C244.835 173.943 245.292 173.817 245.656 173.565C246.03 173.303 246.291 172.958 246.44 172.529H247.812C247.607 173.266 247.196 173.868 246.58 174.335C245.964 174.792 245.199 175.021 244.284 175.021C243.556 175.021 242.903 174.857 242.324 174.531C241.755 174.204 241.307 173.742 240.98 173.145C240.654 172.538 240.49 171.838 240.49 171.045C240.49 170.251 240.649 169.556 240.966 168.959C241.284 168.361 241.727 167.904 242.296 167.587C242.875 167.26 243.538 167.097 244.284 167.097C245.012 167.097 245.656 167.255 246.216 167.573C246.776 167.89 247.206 168.329 247.504 168.889C247.812 169.439 247.966 170.065 247.966 170.765ZM246.65 170.499C246.65 170.013 246.543 169.598 246.328 169.253C246.114 168.898 245.82 168.632 245.446 168.455C245.082 168.268 244.676 168.175 244.228 168.175C243.584 168.175 243.034 168.38 242.576 168.791C242.128 169.201 241.872 169.771 241.806 170.499H246.65ZM253.814 168.273V172.795C253.814 173.168 253.894 173.434 254.052 173.593C254.211 173.742 254.486 173.817 254.878 173.817H255.816V174.895H254.668C253.959 174.895 253.427 174.731 253.072 174.405C252.718 174.078 252.54 173.541 252.54 172.795V168.273H251.546V167.223H252.54V165.291H253.814V167.223H255.816V168.273H253.814ZM260.146 175.021C259.427 175.021 258.774 174.857 258.186 174.531C257.607 174.204 257.15 173.742 256.814 173.145C256.487 172.538 256.324 171.838 256.324 171.045C256.324 170.261 256.492 169.57 256.828 168.973C257.173 168.366 257.64 167.904 258.228 167.587C258.816 167.26 259.474 167.097 260.202 167.097C260.93 167.097 261.588 167.26 262.176 167.587C262.764 167.904 263.226 168.361 263.562 168.959C263.907 169.556 264.08 170.251 264.08 171.045C264.08 171.838 263.903 172.538 263.548 173.145C263.203 173.742 262.731 174.204 262.134 174.531C261.537 174.857 260.874 175.021 260.146 175.021ZM260.146 173.901C260.603 173.901 261.033 173.793 261.434 173.579C261.835 173.364 262.157 173.042 262.4 172.613C262.652 172.183 262.778 171.661 262.778 171.045C262.778 170.429 262.657 169.906 262.414 169.477C262.171 169.047 261.854 168.73 261.462 168.525C261.07 168.31 260.645 168.203 260.188 168.203C259.721 168.203 259.292 168.31 258.9 168.525C258.517 168.73 258.209 169.047 257.976 169.477C257.743 169.906 257.626 170.429 257.626 171.045C257.626 171.67 257.738 172.197 257.962 172.627C258.195 173.056 258.503 173.378 258.886 173.593C259.269 173.798 259.689 173.901 260.146 173.901ZM266.469 168.637C266.721 168.198 267.094 167.834 267.589 167.545C268.093 167.246 268.676 167.097 269.339 167.097C270.02 167.097 270.636 167.26 271.187 167.587C271.747 167.913 272.186 168.375 272.503 168.973C272.82 169.561 272.979 170.247 272.979 171.031C272.979 171.805 272.82 172.496 272.503 173.103C272.186 173.709 271.747 174.181 271.187 174.517C270.636 174.853 270.02 175.021 269.339 175.021C268.686 175.021 268.107 174.876 267.603 174.587C267.108 174.288 266.73 173.919 266.469 173.481V178.535H265.195V167.223H266.469V168.637ZM271.677 171.031C271.677 170.452 271.56 169.948 271.327 169.519C271.094 169.089 270.776 168.763 270.375 168.539C269.983 168.315 269.549 168.203 269.073 168.203C268.606 168.203 268.172 168.319 267.771 168.553C267.379 168.777 267.062 169.108 266.819 169.547C266.586 169.976 266.469 170.475 266.469 171.045C266.469 171.623 266.586 172.132 266.819 172.571C267.062 173 267.379 173.331 267.771 173.565C268.172 173.789 268.606 173.901 269.073 173.901C269.549 173.901 269.983 173.789 270.375 173.565C270.776 173.331 271.094 173 271.327 172.571C271.56 172.132 271.677 171.619 271.677 171.031ZM277.926 165.977C277.684 165.977 277.478 165.893 277.31 165.725C277.142 165.557 277.058 165.351 277.058 165.109C277.058 164.866 277.142 164.661 277.31 164.493C277.478 164.325 277.684 164.241 277.926 164.241C278.16 164.241 278.356 164.325 278.514 164.493C278.682 164.661 278.766 164.866 278.766 165.109C278.766 165.351 278.682 165.557 278.514 165.725C278.356 165.893 278.16 165.977 277.926 165.977ZM278.542 167.223V174.895H277.268V167.223H278.542ZM283.892 167.083C284.825 167.083 285.581 167.367 286.16 167.937C286.738 168.497 287.028 169.309 287.028 170.373V174.895H285.768V170.555C285.768 169.789 285.576 169.206 285.194 168.805C284.811 168.394 284.288 168.189 283.626 168.189C282.954 168.189 282.417 168.399 282.016 168.819C281.624 169.239 281.428 169.85 281.428 170.653V174.895H280.154V167.223H281.428V168.315C281.68 167.923 282.02 167.619 282.45 167.405C282.888 167.19 283.369 167.083 283.892 167.083ZM291.671 168.273H290.061V174.895H288.787V168.273H287.793V167.223H288.787V166.677C288.787 165.818 289.006 165.193 289.445 164.801C289.893 164.399 290.607 164.199 291.587 164.199V165.263C291.027 165.263 290.63 165.375 290.397 165.599C290.173 165.813 290.061 166.173 290.061 166.677V167.223H291.671V168.273ZM293.87 164.535V174.895H292.596V164.535H293.87ZM302.286 167.223V174.895H301.012V173.761C300.769 174.153 300.428 174.461 299.99 174.685C299.56 174.899 299.084 175.007 298.562 175.007C297.964 175.007 297.428 174.885 296.952 174.643C296.476 174.391 296.098 174.017 295.818 173.523C295.547 173.028 295.412 172.426 295.412 171.717V167.223H296.672V171.549C296.672 172.305 296.863 172.888 297.246 173.299C297.628 173.7 298.151 173.901 298.814 173.901C299.495 173.901 300.032 173.691 300.424 173.271C300.816 172.851 301.012 172.239 301.012 171.437V167.223H302.286ZM310.877 170.765C310.877 171.007 310.863 171.264 310.835 171.535H304.703C304.749 172.291 305.006 172.883 305.473 173.313C305.949 173.733 306.523 173.943 307.195 173.943C307.745 173.943 308.203 173.817 308.567 173.565C308.94 173.303 309.201 172.958 309.351 172.529H310.723C310.517 173.266 310.107 173.868 309.491 174.335C308.875 174.792 308.109 175.021 307.195 175.021C306.467 175.021 305.813 174.857 305.235 174.531C304.665 174.204 304.217 173.742 303.891 173.145C303.564 172.538 303.401 171.838 303.401 171.045C303.401 170.251 303.559 169.556 303.877 168.959C304.194 168.361 304.637 167.904 305.207 167.587C305.785 167.26 306.448 167.097 307.195 167.097C307.923 167.097 308.567 167.255 309.127 167.573C309.687 167.89 310.116 168.329 310.415 168.889C310.723 169.439 310.877 170.065 310.877 170.765ZM309.561 170.499C309.561 170.013 309.453 169.598 309.239 169.253C309.024 168.898 308.73 168.632 308.357 168.455C307.993 168.268 307.587 168.175 307.139 168.175C306.495 168.175 305.944 168.38 305.487 168.791C305.039 169.201 304.782 169.771 304.717 170.499H309.561ZM315.736 167.083C316.67 167.083 317.426 167.367 318.004 167.937C318.583 168.497 318.872 169.309 318.872 170.373V174.895H317.612V170.555C317.612 169.789 317.421 169.206 317.038 168.805C316.656 168.394 316.133 168.189 315.47 168.189C314.798 168.189 314.262 168.399 313.86 168.819C313.468 169.239 313.272 169.85 313.272 170.653V174.895H311.998V167.223H313.272V168.315C313.524 167.923 313.865 167.619 314.294 167.405C314.733 167.19 315.214 167.083 315.736 167.083ZM319.917 171.045C319.917 170.251 320.076 169.561 320.393 168.973C320.711 168.375 321.149 167.913 321.709 167.587C322.279 167.26 322.927 167.097 323.655 167.097C324.598 167.097 325.373 167.325 325.979 167.783C326.595 168.24 327.001 168.875 327.197 169.687H325.825C325.695 169.22 325.438 168.851 325.055 168.581C324.682 168.31 324.215 168.175 323.655 168.175C322.927 168.175 322.339 168.427 321.891 168.931C321.443 169.425 321.219 170.13 321.219 171.045C321.219 171.969 321.443 172.683 321.891 173.187C322.339 173.691 322.927 173.943 323.655 173.943C324.215 173.943 324.682 173.812 325.055 173.551C325.429 173.289 325.685 172.916 325.825 172.431H327.197C326.992 173.215 326.581 173.845 325.965 174.321C325.349 174.787 324.579 175.021 323.655 175.021C322.927 175.021 322.279 174.857 321.709 174.531C321.149 174.204 320.711 173.742 320.393 173.145C320.076 172.547 319.917 171.847 319.917 171.045ZM335.337 170.765C335.337 171.007 335.323 171.264 335.295 171.535H329.163C329.21 172.291 329.467 172.883 329.933 173.313C330.409 173.733 330.983 173.943 331.655 173.943C332.206 173.943 332.663 173.817 333.027 173.565C333.401 173.303 333.662 172.958 333.811 172.529H335.183C334.978 173.266 334.567 173.868 333.951 174.335C333.335 174.792 332.57 175.021 331.655 175.021C330.927 175.021 330.274 174.857 329.695 174.531C329.126 174.204 328.678 173.742 328.351 173.145C328.025 172.538 327.861 171.838 327.861 171.045C327.861 170.251 328.02 169.556 328.337 168.959C328.655 168.361 329.098 167.904 329.667 167.587C330.246 167.26 330.909 167.097 331.655 167.097C332.383 167.097 333.027 167.255 333.587 167.573C334.147 167.89 334.577 168.329 334.875 168.889C335.183 169.439 335.337 170.065 335.337 170.765ZM334.021 170.499C334.021 170.013 333.914 169.598 333.699 169.253C333.485 168.898 333.191 168.632 332.817 168.455C332.453 168.268 332.047 168.175 331.599 168.175C330.955 168.175 330.405 168.38 329.947 168.791C329.499 169.201 329.243 169.771 329.177 170.499H334.021ZM337.733 168.469C337.957 168.03 338.274 167.689 338.685 167.447C339.105 167.204 339.614 167.083 340.211 167.083V168.399H339.875C338.447 168.399 337.733 169.173 337.733 170.723V174.895H336.459V167.223H337.733V168.469ZM343.838 175.021C343.25 175.021 342.722 174.923 342.256 174.727C341.789 174.521 341.42 174.241 341.15 173.887C340.879 173.523 340.73 173.107 340.702 172.641H342.018C342.055 173.023 342.232 173.336 342.55 173.579C342.876 173.821 343.301 173.943 343.824 173.943C344.309 173.943 344.692 173.835 344.972 173.621C345.252 173.406 345.392 173.135 345.392 172.809C345.392 172.473 345.242 172.225 344.944 172.067C344.645 171.899 344.183 171.735 343.558 171.577C342.988 171.427 342.522 171.278 342.158 171.129C341.803 170.97 341.495 170.741 341.234 170.443C340.982 170.135 340.856 169.733 340.856 169.239C340.856 168.847 340.972 168.487 341.206 168.161C341.439 167.834 341.77 167.577 342.2 167.391C342.629 167.195 343.119 167.097 343.67 167.097C344.519 167.097 345.205 167.311 345.728 167.741C346.25 168.17 346.53 168.758 346.568 169.505H345.294C345.266 169.103 345.102 168.781 344.804 168.539C344.514 168.296 344.122 168.175 343.628 168.175C343.17 168.175 342.806 168.273 342.536 168.469C342.265 168.665 342.13 168.921 342.13 169.239C342.13 169.491 342.209 169.701 342.368 169.869C342.536 170.027 342.741 170.158 342.984 170.261C343.236 170.354 343.581 170.461 344.02 170.583C344.57 170.732 345.018 170.881 345.364 171.031C345.709 171.171 346.003 171.385 346.246 171.675C346.498 171.964 346.628 172.342 346.638 172.809C346.638 173.229 346.521 173.607 346.288 173.943C346.054 174.279 345.723 174.545 345.294 174.741C344.874 174.927 344.388 175.021 343.838 175.021ZM351.706 165.977C351.464 165.977 351.258 165.893 351.09 165.725C350.922 165.557 350.838 165.351 350.838 165.109C350.838 164.866 350.922 164.661 351.09 164.493C351.258 164.325 351.464 164.241 351.706 164.241C351.94 164.241 352.136 164.325 352.294 164.493C352.462 164.661 352.546 164.866 352.546 165.109C352.546 165.351 352.462 165.557 352.294 165.725C352.136 165.893 351.94 165.977 351.706 165.977ZM352.322 167.223V174.895H351.048V167.223H352.322ZM357.672 167.083C358.605 167.083 359.361 167.367 359.94 167.937C360.518 168.497 360.808 169.309 360.808 170.373V174.895H359.548V170.555C359.548 169.789 359.356 169.206 358.974 168.805C358.591 168.394 358.068 168.189 357.406 168.189C356.734 168.189 356.197 168.399 355.796 168.819C355.404 169.239 355.208 169.85 355.208 170.653V174.895H353.934V167.223H355.208V168.315C355.46 167.923 355.8 167.619 356.23 167.405C356.668 167.19 357.149 167.083 357.672 167.083ZM372.109 167.223L367.489 178.507H366.173L367.685 174.811L364.591 167.223H366.005L368.413 173.439L370.793 167.223H372.109ZM376.176 175.021C375.457 175.021 374.804 174.857 374.216 174.531C373.637 174.204 373.18 173.742 372.844 173.145C372.517 172.538 372.354 171.838 372.354 171.045C372.354 170.261 372.522 169.57 372.858 168.973C373.203 168.366 373.67 167.904 374.258 167.587C374.846 167.26 375.504 167.097 376.232 167.097C376.96 167.097 377.618 167.26 378.206 167.587C378.794 167.904 379.256 168.361 379.592 168.959C379.937 169.556 380.11 170.251 380.11 171.045C380.11 171.838 379.933 172.538 379.578 173.145C379.233 173.742 378.761 174.204 378.164 174.531C377.567 174.857 376.904 175.021 376.176 175.021ZM376.176 173.901C376.633 173.901 377.063 173.793 377.464 173.579C377.865 173.364 378.187 173.042 378.43 172.613C378.682 172.183 378.808 171.661 378.808 171.045C378.808 170.429 378.687 169.906 378.444 169.477C378.201 169.047 377.884 168.73 377.492 168.525C377.1 168.31 376.675 168.203 376.218 168.203C375.751 168.203 375.322 168.31 374.93 168.525C374.547 168.73 374.239 169.047 374.006 169.477C373.773 169.906 373.656 170.429 373.656 171.045C373.656 171.67 373.768 172.197 373.992 172.627C374.225 173.056 374.533 173.378 374.916 173.593C375.299 173.798 375.719 173.901 376.176 173.901ZM388.029 167.223V174.895H386.755V173.761C386.512 174.153 386.172 174.461 385.733 174.685C385.304 174.899 384.828 175.007 384.305 175.007C383.708 175.007 383.171 174.885 382.695 174.643C382.219 174.391 381.841 174.017 381.561 173.523C381.29 173.028 381.155 172.426 381.155 171.717V167.223H382.415V171.549C382.415 172.305 382.606 172.888 382.989 173.299C383.372 173.7 383.894 173.901 384.557 173.901C385.238 173.901 385.775 173.691 386.167 173.271C386.559 172.851 386.755 172.239 386.755 171.437V167.223H388.029ZM390.894 168.469C391.118 168.03 391.435 167.689 391.846 167.447C392.266 167.204 392.775 167.083 393.372 167.083V168.399H393.036C391.608 168.399 390.894 169.173 390.894 170.723V174.895H389.62V167.223H390.894V168.469ZM401.193 167.083C402.127 167.083 402.883 167.367 403.461 167.937C404.04 168.497 404.329 169.309 404.329 170.373V174.895H403.069V170.555C403.069 169.789 402.878 169.206 402.495 168.805C402.113 168.394 401.59 168.189 400.927 168.189C400.255 168.189 399.719 168.399 399.317 168.819C398.925 169.239 398.729 169.85 398.729 170.653V174.895H397.455V167.223H398.729V168.315C398.981 167.923 399.322 167.619 399.751 167.405C400.19 167.19 400.671 167.083 401.193 167.083ZM406.508 165.977C406.266 165.977 406.06 165.893 405.892 165.725C405.724 165.557 405.64 165.351 405.64 165.109C405.64 164.866 405.724 164.661 405.892 164.493C406.06 164.325 406.266 164.241 406.508 164.241C406.742 164.241 406.938 164.325 407.096 164.493C407.264 164.661 407.348 164.866 407.348 165.109C407.348 165.351 407.264 165.557 407.096 165.725C406.938 165.893 406.742 165.977 406.508 165.977ZM407.124 167.223V174.895H405.85V167.223H407.124ZM408.26 171.045C408.26 170.251 408.418 169.561 408.736 168.973C409.053 168.375 409.492 167.913 410.052 167.587C410.621 167.26 411.27 167.097 411.998 167.097C412.94 167.097 413.715 167.325 414.322 167.783C414.938 168.24 415.344 168.875 415.54 169.687H414.168C414.037 169.22 413.78 168.851 413.398 168.581C413.024 168.31 412.558 168.175 411.998 168.175C411.27 168.175 410.682 168.427 410.234 168.931C409.786 169.425 409.562 170.13 409.562 171.045C409.562 171.969 409.786 172.683 410.234 173.187C410.682 173.691 411.27 173.943 411.998 173.943C412.558 173.943 413.024 173.812 413.398 173.551C413.771 173.289 414.028 172.916 414.168 172.431H415.54C415.334 173.215 414.924 173.845 414.308 174.321C413.692 174.787 412.922 175.021 411.998 175.021C411.27 175.021 410.621 174.857 410.052 174.531C409.492 174.204 409.053 173.742 408.736 173.145C408.418 172.547 408.26 171.847 408.26 171.045ZM420.488 167.083C421.066 167.083 421.589 167.209 422.056 167.461C422.522 167.703 422.886 168.072 423.148 168.567C423.418 169.061 423.554 169.663 423.554 170.373V174.895H422.294V170.555C422.294 169.789 422.102 169.206 421.72 168.805C421.337 168.394 420.814 168.189 420.152 168.189C419.48 168.189 418.943 168.399 418.542 168.819C418.15 169.239 417.954 169.85 417.954 170.653V174.895H416.68V164.535H417.954V168.315C418.206 167.923 418.551 167.619 418.99 167.405C419.438 167.19 419.937 167.083 420.488 167.083ZM432.075 170.765C432.075 171.007 432.061 171.264 432.033 171.535H425.901C425.947 172.291 426.204 172.883 426.671 173.313C427.147 173.733 427.721 173.943 428.393 173.943C428.943 173.943 429.401 173.817 429.765 173.565C430.138 173.303 430.399 172.958 430.549 172.529H431.921C431.715 173.266 431.305 173.868 430.689 174.335C430.073 174.792 429.307 175.021 428.393 175.021C427.665 175.021 427.011 174.857 426.433 174.531C425.863 174.204 425.415 173.742 425.089 173.145C424.762 172.538 424.599 171.838 424.599 171.045C424.599 170.251 424.757 169.556 425.075 168.959C425.392 168.361 425.835 167.904 426.405 167.587C426.983 167.26 427.646 167.097 428.393 167.097C429.121 167.097 429.765 167.255 430.325 167.573C430.885 167.89 431.314 168.329 431.613 168.889C431.921 169.439 432.075 170.065 432.075 170.765ZM430.759 170.499C430.759 170.013 430.651 169.598 430.437 169.253C430.222 168.898 429.928 168.632 429.555 168.455C429.191 168.268 428.785 168.175 428.337 168.175C427.693 168.175 427.142 168.38 426.685 168.791C426.237 169.201 425.98 169.771 425.915 170.499H430.759ZM442.977 167.223L438.357 178.507H437.041L438.553 174.811L435.459 167.223H436.873L439.281 173.439L441.661 167.223H442.977ZM447.043 175.021C446.325 175.021 445.671 174.857 445.083 174.531C444.505 174.204 444.047 173.742 443.711 173.145C443.385 172.538 443.221 171.838 443.221 171.045C443.221 170.261 443.389 169.57 443.725 168.973C444.071 168.366 444.537 167.904 445.125 167.587C445.713 167.26 446.371 167.097 447.099 167.097C447.827 167.097 448.485 167.26 449.073 167.587C449.661 167.904 450.123 168.361 450.459 168.959C450.805 169.556 450.977 170.251 450.977 171.045C450.977 171.838 450.8 172.538 450.445 173.145C450.1 173.742 449.629 174.204 449.031 174.531C448.434 174.857 447.771 175.021 447.043 175.021ZM447.043 173.901C447.501 173.901 447.93 173.793 448.331 173.579C448.733 173.364 449.055 173.042 449.297 172.613C449.549 172.183 449.675 171.661 449.675 171.045C449.675 170.429 449.554 169.906 449.311 169.477C449.069 169.047 448.751 168.73 448.359 168.525C447.967 168.31 447.543 168.203 447.085 168.203C446.619 168.203 446.189 168.31 445.797 168.525C445.415 168.73 445.107 169.047 444.873 169.477C444.64 169.906 444.523 170.429 444.523 171.045C444.523 171.67 444.635 172.197 444.859 172.627C445.093 173.056 445.401 173.378 445.783 173.593C446.166 173.798 446.586 173.901 447.043 173.901ZM458.896 167.223V174.895H457.622V173.761C457.38 174.153 457.039 174.461 456.6 174.685C456.171 174.899 455.695 175.007 455.172 175.007C454.575 175.007 454.038 174.885 453.562 174.643C453.086 174.391 452.708 174.017 452.428 173.523C452.158 173.028 452.022 172.426 452.022 171.717V167.223H453.282V171.549C453.282 172.305 453.474 172.888 453.856 173.299C454.239 173.7 454.762 173.901 455.424 173.901C456.106 173.901 456.642 173.691 457.034 173.271C457.426 172.851 457.622 172.239 457.622 171.437V167.223H458.896ZM463.184 171.045C463.184 170.251 463.343 169.561 463.66 168.973C463.977 168.375 464.416 167.913 464.976 167.587C465.545 167.26 466.194 167.097 466.922 167.097C467.865 167.097 468.639 167.325 469.246 167.783C469.862 168.24 470.268 168.875 470.464 169.687H469.092C468.961 169.22 468.705 168.851 468.322 168.581C467.949 168.31 467.482 168.175 466.922 168.175C466.194 168.175 465.606 168.427 465.158 168.931C464.71 169.425 464.486 170.13 464.486 171.045C464.486 171.969 464.71 172.683 465.158 173.187C465.606 173.691 466.194 173.943 466.922 173.943C467.482 173.943 467.949 173.812 468.322 173.551C468.695 173.289 468.952 172.916 469.092 172.431H470.464C470.259 173.215 469.848 173.845 469.232 174.321C468.616 174.787 467.846 175.021 466.922 175.021C466.194 175.021 465.545 174.857 464.976 174.531C464.416 174.204 463.977 173.742 463.66 173.145C463.343 172.547 463.184 171.847 463.184 171.045ZM471.128 171.031C471.128 170.247 471.286 169.561 471.604 168.973C471.921 168.375 472.355 167.913 472.906 167.587C473.466 167.26 474.086 167.097 474.768 167.097C475.44 167.097 476.023 167.241 476.518 167.531C477.012 167.82 477.381 168.184 477.624 168.623V167.223H478.912V174.895H477.624V173.467C477.372 173.915 476.994 174.288 476.49 174.587C475.995 174.876 475.416 175.021 474.754 175.021C474.072 175.021 473.456 174.853 472.906 174.517C472.355 174.181 471.921 173.709 471.604 173.103C471.286 172.496 471.128 171.805 471.128 171.031ZM477.624 171.045C477.624 170.466 477.507 169.962 477.274 169.533C477.04 169.103 476.723 168.777 476.322 168.553C475.93 168.319 475.496 168.203 475.02 168.203C474.544 168.203 474.11 168.315 473.718 168.539C473.326 168.763 473.013 169.089 472.78 169.519C472.546 169.948 472.43 170.452 472.43 171.031C472.43 171.619 472.546 172.132 472.78 172.571C473.013 173 473.326 173.331 473.718 173.565C474.11 173.789 474.544 173.901 475.02 173.901C475.496 173.901 475.93 173.789 476.322 173.565C476.723 173.331 477.04 173 477.274 172.571C477.507 172.132 477.624 171.623 477.624 171.045ZM484.243 167.083C485.176 167.083 485.932 167.367 486.511 167.937C487.089 168.497 487.379 169.309 487.379 170.373V174.895H486.119V170.555C486.119 169.789 485.927 169.206 485.545 168.805C485.162 168.394 484.639 168.189 483.977 168.189C483.305 168.189 482.768 168.399 482.367 168.819C481.975 169.239 481.779 169.85 481.779 170.653V174.895H480.505V167.223H481.779V168.315C482.031 167.923 482.371 167.619 482.801 167.405C483.239 167.19 483.72 167.083 484.243 167.083ZM499.072 170.765C499.072 171.007 499.058 171.264 499.03 171.535H492.898C492.945 172.291 493.202 172.883 493.668 173.313C494.144 173.733 494.718 173.943 495.39 173.943C495.941 173.943 496.398 173.817 496.762 173.565C497.136 173.303 497.397 172.958 497.546 172.529H498.918C498.713 173.266 498.302 173.868 497.686 174.335C497.07 174.792 496.305 175.021 495.39 175.021C494.662 175.021 494.009 174.857 493.43 174.531C492.861 174.204 492.413 173.742 492.086 173.145C491.76 172.538 491.596 171.838 491.596 171.045C491.596 170.251 491.755 169.556 492.072 168.959C492.39 168.361 492.833 167.904 493.402 167.587C493.981 167.26 494.644 167.097 495.39 167.097C496.118 167.097 496.762 167.255 497.322 167.573C497.882 167.89 498.312 168.329 498.61 168.889C498.918 169.439 499.072 170.065 499.072 170.765ZM497.756 170.499C497.756 170.013 497.649 169.598 497.434 169.253C497.22 168.898 496.926 168.632 496.552 168.455C496.188 168.268 495.782 168.175 495.334 168.175C494.69 168.175 494.14 168.38 493.682 168.791C493.234 169.201 492.978 169.771 492.912 170.499H497.756ZM499.718 171.031C499.718 170.247 499.877 169.561 500.194 168.973C500.511 168.375 500.945 167.913 501.496 167.587C502.056 167.26 502.677 167.097 503.358 167.097C504.03 167.097 504.613 167.241 505.108 167.531C505.603 167.82 505.971 168.184 506.214 168.623V167.223H507.502V174.895H506.214V173.467C505.962 173.915 505.584 174.288 505.08 174.587C504.585 174.876 504.007 175.021 503.344 175.021C502.663 175.021 502.047 174.853 501.496 174.517C500.945 174.181 500.511 173.709 500.194 173.103C499.877 172.496 499.718 171.805 499.718 171.031ZM506.214 171.045C506.214 170.466 506.097 169.962 505.864 169.533C505.631 169.103 505.313 168.777 504.912 168.553C504.52 168.319 504.086 168.203 503.61 168.203C503.134 168.203 502.7 168.315 502.308 168.539C501.916 168.763 501.603 169.089 501.37 169.519C501.137 169.948 501.02 170.452 501.02 171.031C501.02 171.619 501.137 172.132 501.37 172.571C501.603 173 501.916 173.331 502.308 173.565C502.7 173.789 503.134 173.901 503.61 173.901C504.086 173.901 504.52 173.789 504.912 173.565C505.313 173.331 505.631 173 505.864 172.571C506.097 172.132 506.214 171.623 506.214 171.045ZM511.811 175.021C511.223 175.021 510.695 174.923 510.229 174.727C509.762 174.521 509.393 174.241 509.123 173.887C508.852 173.523 508.703 173.107 508.675 172.641H509.991C510.028 173.023 510.205 173.336 510.523 173.579C510.849 173.821 511.274 173.943 511.797 173.943C512.282 173.943 512.665 173.835 512.945 173.621C513.225 173.406 513.365 173.135 513.365 172.809C513.365 172.473 513.215 172.225 512.917 172.067C512.618 171.899 512.156 171.735 511.531 171.577C510.961 171.427 510.495 171.278 510.131 171.129C509.776 170.97 509.468 170.741 509.207 170.443C508.955 170.135 508.829 169.733 508.829 169.239C508.829 168.847 508.945 168.487 509.179 168.161C509.412 167.834 509.743 167.577 510.173 167.391C510.602 167.195 511.092 167.097 511.643 167.097C512.492 167.097 513.178 167.311 513.701 167.741C514.223 168.17 514.503 168.758 514.541 169.505H513.267C513.239 169.103 513.075 168.781 512.777 168.539C512.487 168.296 512.095 168.175 511.601 168.175C511.143 168.175 510.779 168.273 510.509 168.469C510.238 168.665 510.103 168.921 510.103 169.239C510.103 169.491 510.182 169.701 510.341 169.869C510.509 170.027 510.714 170.158 510.957 170.261C511.209 170.354 511.554 170.461 511.993 170.583C512.543 170.732 512.991 170.881 513.337 171.031C513.682 171.171 513.976 171.385 514.219 171.675C514.471 171.964 514.601 172.342 514.611 172.809C514.611 173.229 514.494 173.607 514.261 173.943C514.027 174.279 513.696 174.545 513.267 174.741C512.847 174.927 512.361 175.021 511.811 175.021ZM516.507 165.977C516.265 165.977 516.059 165.893 515.891 165.725C515.723 165.557 515.639 165.351 515.639 165.109C515.639 164.866 515.723 164.661 515.891 164.493C516.059 164.325 516.265 164.241 516.507 164.241C516.741 164.241 516.937 164.325 517.095 164.493C517.263 164.661 517.347 164.866 517.347 165.109C517.347 165.351 517.263 165.557 517.095 165.725C516.937 165.893 516.741 165.977 516.507 165.977ZM517.123 167.223V174.895H515.849V167.223H517.123ZM520.009 164.535V174.895H518.735V164.535H520.009ZM528.228 167.223L523.608 178.507H522.292L523.804 174.811L520.71 167.223H522.124L524.532 173.439L526.912 167.223H528.228ZM116.501 191.765C116.501 192.007 116.487 192.264 116.459 192.535H110.327C110.373 193.291 110.63 193.883 111.097 194.313C111.573 194.733 112.147 194.943 112.819 194.943C113.369 194.943 113.827 194.817 114.191 194.565C114.564 194.303 114.825 193.958 114.975 193.529H116.347C116.141 194.266 115.731 194.868 115.115 195.335C114.499 195.792 113.733 196.021 112.819 196.021C112.091 196.021 111.437 195.857 110.859 195.531C110.289 195.204 109.841 194.742 109.515 194.145C109.188 193.538 109.025 192.838 109.025 192.045C109.025 191.251 109.183 190.556 109.501 189.959C109.818 189.361 110.261 188.904 110.831 188.587C111.409 188.26 112.072 188.097 112.819 188.097C113.547 188.097 114.191 188.255 114.751 188.573C115.311 188.89 115.74 189.329 116.039 189.889C116.347 190.439 116.501 191.065 116.501 191.765ZM115.185 191.499C115.185 191.013 115.077 190.598 114.863 190.253C114.648 189.898 114.354 189.632 113.981 189.455C113.617 189.268 113.211 189.175 112.763 189.175C112.119 189.175 111.568 189.38 111.111 189.791C110.663 190.201 110.406 190.771 110.341 191.499H115.185ZM121.626 195.895L119.806 193.039L118.056 195.895H116.726L119.204 192.087L116.726 188.223H118.168L119.988 191.065L121.724 188.223H123.054L120.59 192.017L123.068 195.895H121.626ZM125.315 189.273V193.795C125.315 194.168 125.395 194.434 125.553 194.593C125.712 194.742 125.987 194.817 126.379 194.817H127.317V195.895H126.169C125.46 195.895 124.928 195.731 124.573 195.405C124.219 195.078 124.041 194.541 124.041 193.795V189.273H123.047V188.223H124.041V186.291H125.315V188.223H127.317V189.273H125.315ZM129.575 189.469C129.799 189.03 130.116 188.689 130.527 188.447C130.947 188.204 131.456 188.083 132.053 188.083V189.399H131.717C130.289 189.399 129.575 190.173 129.575 191.723V195.895H128.301V188.223H129.575V189.469ZM132.488 192.031C132.488 191.247 132.646 190.561 132.964 189.973C133.281 189.375 133.715 188.913 134.266 188.587C134.826 188.26 135.446 188.097 136.128 188.097C136.8 188.097 137.383 188.241 137.878 188.531C138.372 188.82 138.741 189.184 138.984 189.623V188.223H140.272V195.895H138.984V194.467C138.732 194.915 138.354 195.288 137.85 195.587C137.355 195.876 136.776 196.021 136.114 196.021C135.432 196.021 134.816 195.853 134.266 195.517C133.715 195.181 133.281 194.709 132.964 194.103C132.646 193.496 132.488 192.805 132.488 192.031ZM138.984 192.045C138.984 191.466 138.867 190.962 138.634 190.533C138.4 190.103 138.083 189.777 137.682 189.553C137.29 189.319 136.856 189.203 136.38 189.203C135.904 189.203 135.47 189.315 135.078 189.539C134.686 189.763 134.373 190.089 134.14 190.519C133.906 190.948 133.79 191.452 133.79 192.031C133.79 192.619 133.906 193.132 134.14 193.571C134.373 194 134.686 194.331 135.078 194.565C135.47 194.789 135.904 194.901 136.38 194.901C136.856 194.901 137.29 194.789 137.682 194.565C138.083 194.331 138.4 194 138.634 193.571C138.867 193.132 138.984 192.623 138.984 192.045ZM141.389 192.045C141.389 191.251 141.547 190.561 141.865 189.973C142.182 189.375 142.621 188.913 143.181 188.587C143.75 188.26 144.399 188.097 145.127 188.097C146.069 188.097 146.844 188.325 147.451 188.783C148.067 189.24 148.473 189.875 148.669 190.687H147.297C147.166 190.22 146.909 189.851 146.527 189.581C146.153 189.31 145.687 189.175 145.127 189.175C144.399 189.175 143.811 189.427 143.363 189.931C142.915 190.425 142.691 191.13 142.691 192.045C142.691 192.969 142.915 193.683 143.363 194.187C143.811 194.691 144.399 194.943 145.127 194.943C145.687 194.943 146.153 194.812 146.527 194.551C146.9 194.289 147.157 193.916 147.297 193.431H148.669C148.463 194.215 148.053 194.845 147.437 195.321C146.821 195.787 146.051 196.021 145.127 196.021C144.399 196.021 143.75 195.857 143.181 195.531C142.621 195.204 142.182 194.742 141.865 194.145C141.547 193.547 141.389 192.847 141.389 192.045ZM151.363 189.273V193.795C151.363 194.168 151.442 194.434 151.601 194.593C151.759 194.742 152.035 194.817 152.427 194.817H153.365V195.895H152.217C151.507 195.895 150.975 195.731 150.621 195.405C150.266 195.078 150.089 194.541 150.089 193.795V189.273H149.095V188.223H150.089V186.291H151.363V188.223H153.365V189.273H151.363ZM157.045 192.031C157.045 191.247 157.203 190.561 157.521 189.973C157.838 189.375 158.272 188.913 158.823 188.587C159.383 188.26 160.003 188.097 160.685 188.097C161.357 188.097 161.94 188.241 162.435 188.531C162.929 188.82 163.298 189.184 163.541 189.623V188.223H164.829V195.895H163.541V194.467C163.289 194.915 162.911 195.288 162.407 195.587C161.912 195.876 161.333 196.021 160.671 196.021C159.989 196.021 159.373 195.853 158.823 195.517C158.272 195.181 157.838 194.709 157.521 194.103C157.203 193.496 157.045 192.805 157.045 192.031ZM163.541 192.045C163.541 191.466 163.424 190.962 163.191 190.533C162.957 190.103 162.64 189.777 162.239 189.553C161.847 189.319 161.413 189.203 160.937 189.203C160.461 189.203 160.027 189.315 159.635 189.539C159.243 189.763 158.93 190.089 158.697 190.519C158.463 190.948 158.347 191.452 158.347 192.031C158.347 192.619 158.463 193.132 158.697 193.571C158.93 194 159.243 194.331 159.635 194.565C160.027 194.789 160.461 194.901 160.937 194.901C161.413 194.901 161.847 194.789 162.239 194.565C162.64 194.331 162.957 194 163.191 193.571C163.424 193.132 163.541 192.623 163.541 192.045ZM170.16 188.083C171.093 188.083 171.849 188.367 172.428 188.937C173.006 189.497 173.296 190.309 173.296 191.373V195.895H172.036V191.555C172.036 190.789 171.844 190.206 171.462 189.805C171.079 189.394 170.556 189.189 169.894 189.189C169.222 189.189 168.685 189.399 168.284 189.819C167.892 190.239 167.696 190.85 167.696 191.653V195.895H166.422V188.223H167.696V189.315C167.948 188.923 168.288 188.619 168.718 188.405C169.156 188.19 169.637 188.083 170.16 188.083ZM181.425 188.223L176.805 199.507H175.489L177.001 195.811L173.907 188.223H175.321L177.729 194.439L180.109 188.223H181.425ZM184.842 192.031C184.842 191.247 185 190.561 185.318 189.973C185.635 189.375 186.069 188.913 186.62 188.587C187.18 188.26 187.8 188.097 188.482 188.097C189.154 188.097 189.737 188.241 190.232 188.531C190.726 188.82 191.095 189.184 191.338 189.623V188.223H192.626V195.895H191.338V194.467C191.086 194.915 190.708 195.288 190.204 195.587C189.709 195.876 189.13 196.021 188.468 196.021C187.786 196.021 187.17 195.853 186.62 195.517C186.069 195.181 185.635 194.709 185.318 194.103C185 193.496 184.842 192.805 184.842 192.031ZM191.338 192.045C191.338 191.466 191.221 190.962 190.988 190.533C190.754 190.103 190.437 189.777 190.036 189.553C189.644 189.319 189.21 189.203 188.734 189.203C188.258 189.203 187.824 189.315 187.432 189.539C187.04 189.763 186.727 190.089 186.494 190.519C186.26 190.948 186.144 191.452 186.144 192.031C186.144 192.619 186.26 193.132 186.494 193.571C186.727 194 187.04 194.331 187.432 194.565C187.824 194.789 188.258 194.901 188.734 194.901C189.21 194.901 189.644 194.789 190.036 194.565C190.437 194.331 190.754 194 190.988 193.571C191.221 193.132 191.338 192.623 191.338 192.045ZM201.023 188.223V195.895H199.749V194.761C199.506 195.153 199.165 195.461 198.727 195.685C198.297 195.899 197.821 196.007 197.299 196.007C196.701 196.007 196.165 195.885 195.689 195.643C195.213 195.391 194.835 195.017 194.555 194.523C194.284 194.028 194.149 193.426 194.149 192.717V188.223H195.409V192.549C195.409 193.305 195.6 193.888 195.983 194.299C196.365 194.7 196.888 194.901 197.551 194.901C198.232 194.901 198.769 194.691 199.161 194.271C199.553 193.851 199.749 193.239 199.749 192.437V188.223H201.023ZM202.138 192.031C202.138 191.247 202.296 190.561 202.614 189.973C202.931 189.375 203.365 188.913 203.916 188.587C204.476 188.26 205.101 188.097 205.792 188.097C206.389 188.097 206.944 188.237 207.458 188.517C207.971 188.787 208.363 189.147 208.634 189.595V185.535H209.922V195.895H208.634V194.453C208.382 194.91 208.008 195.288 207.514 195.587C207.019 195.876 206.44 196.021 205.778 196.021C205.096 196.021 204.476 195.853 203.916 195.517C203.365 195.181 202.931 194.709 202.614 194.103C202.296 193.496 202.138 192.805 202.138 192.031ZM208.634 192.045C208.634 191.466 208.517 190.962 208.284 190.533C208.05 190.103 207.733 189.777 207.332 189.553C206.94 189.319 206.506 189.203 206.03 189.203C205.554 189.203 205.12 189.315 204.728 189.539C204.336 189.763 204.023 190.089 203.79 190.519C203.556 190.948 203.44 191.452 203.44 192.031C203.44 192.619 203.556 193.132 203.79 193.571C204.023 194 204.336 194.331 204.728 194.565C205.12 194.789 205.554 194.901 206.03 194.901C206.506 194.901 206.94 194.789 207.332 194.565C207.733 194.331 208.05 194 208.284 193.571C208.517 193.132 208.634 192.623 208.634 192.045ZM212.173 186.977C211.93 186.977 211.725 186.893 211.557 186.725C211.389 186.557 211.305 186.351 211.305 186.109C211.305 185.866 211.389 185.661 211.557 185.493C211.725 185.325 211.93 185.241 212.173 185.241C212.406 185.241 212.602 185.325 212.761 185.493C212.929 185.661 213.013 185.866 213.013 186.109C213.013 186.351 212.929 186.557 212.761 186.725C212.602 186.893 212.406 186.977 212.173 186.977ZM212.789 188.223V195.895H211.515V188.223H212.789ZM221.4 191.765C221.4 192.007 221.386 192.264 221.358 192.535H215.226C215.273 193.291 215.529 193.883 215.996 194.313C216.472 194.733 217.046 194.943 217.718 194.943C218.269 194.943 218.726 194.817 219.09 194.565C219.463 194.303 219.725 193.958 219.874 193.529H221.246C221.041 194.266 220.63 194.868 220.014 195.335C219.398 195.792 218.633 196.021 217.718 196.021C216.99 196.021 216.337 195.857 215.758 195.531C215.189 195.204 214.741 194.742 214.414 194.145C214.087 193.538 213.924 192.838 213.924 192.045C213.924 191.251 214.083 190.556 214.4 189.959C214.717 189.361 215.161 188.904 215.73 188.587C216.309 188.26 216.971 188.097 217.718 188.097C218.446 188.097 219.09 188.255 219.65 188.573C220.21 188.89 220.639 189.329 220.938 189.889C221.246 190.439 221.4 191.065 221.4 191.765ZM220.084 191.499C220.084 191.013 219.977 190.598 219.762 190.253C219.547 189.898 219.253 189.632 218.88 189.455C218.516 189.268 218.11 189.175 217.662 189.175C217.018 189.175 216.467 189.38 216.01 189.791C215.562 190.201 215.305 190.771 215.24 191.499H220.084ZM226.26 188.083C227.193 188.083 227.949 188.367 228.528 188.937C229.106 189.497 229.396 190.309 229.396 191.373V195.895H228.136V191.555C228.136 190.789 227.944 190.206 227.562 189.805C227.179 189.394 226.656 189.189 225.994 189.189C225.322 189.189 224.785 189.399 224.384 189.819C223.992 190.239 223.796 190.85 223.796 191.653V195.895H222.522V188.223H223.796V189.315C224.048 188.923 224.388 188.619 224.818 188.405C225.256 188.19 225.737 188.083 226.26 188.083ZM230.441 192.045C230.441 191.251 230.599 190.561 230.917 189.973C231.234 189.375 231.673 188.913 232.233 188.587C232.802 188.26 233.451 188.097 234.179 188.097C235.121 188.097 235.896 188.325 236.503 188.783C237.119 189.24 237.525 189.875 237.721 190.687H236.349C236.218 190.22 235.961 189.851 235.579 189.581C235.205 189.31 234.739 189.175 234.179 189.175C233.451 189.175 232.863 189.427 232.415 189.931C231.967 190.425 231.743 191.13 231.743 192.045C231.743 192.969 231.967 193.683 232.415 194.187C232.863 194.691 233.451 194.943 234.179 194.943C234.739 194.943 235.205 194.812 235.579 194.551C235.952 194.289 236.209 193.916 236.349 193.431H237.721C237.515 194.215 237.105 194.845 236.489 195.321C235.873 195.787 235.103 196.021 234.179 196.021C233.451 196.021 232.802 195.857 232.233 195.531C231.673 195.204 231.234 194.742 230.917 194.145C230.599 193.547 230.441 192.847 230.441 192.045ZM245.861 191.765C245.861 192.007 245.847 192.264 245.819 192.535H239.687C239.733 193.291 239.99 193.883 240.457 194.313C240.933 194.733 241.507 194.943 242.179 194.943C242.729 194.943 243.187 194.817 243.551 194.565C243.924 194.303 244.185 193.958 244.335 193.529H245.707C245.501 194.266 245.091 194.868 244.475 195.335C243.859 195.792 243.093 196.021 242.179 196.021C241.451 196.021 240.797 195.857 240.219 195.531C239.649 195.204 239.201 194.742 238.875 194.145C238.548 193.538 238.385 192.838 238.385 192.045C238.385 191.251 238.543 190.556 238.861 189.959C239.178 189.361 239.621 188.904 240.191 188.587C240.769 188.26 241.432 188.097 242.179 188.097C242.907 188.097 243.551 188.255 244.111 188.573C244.671 188.89 245.1 189.329 245.399 189.889C245.707 190.439 245.861 191.065 245.861 191.765ZM244.545 191.499C244.545 191.013 244.437 190.598 244.223 190.253C244.008 189.898 243.714 189.632 243.341 189.455C242.977 189.268 242.571 189.175 242.123 189.175C241.479 189.175 240.928 189.38 240.471 189.791C240.023 190.201 239.766 190.771 239.701 191.499H244.545ZM253.501 196.021C252.782 196.021 252.129 195.857 251.541 195.531C250.962 195.204 250.505 194.742 250.169 194.145C249.842 193.538 249.679 192.838 249.679 192.045C249.679 191.261 249.847 190.57 250.183 189.973C250.528 189.366 250.995 188.904 251.583 188.587C252.171 188.26 252.829 188.097 253.557 188.097C254.285 188.097 254.943 188.26 255.531 188.587C256.119 188.904 256.581 189.361 256.917 189.959C257.262 190.556 257.435 191.251 257.435 192.045C257.435 192.838 257.257 193.538 256.903 194.145C256.557 194.742 256.086 195.204 255.489 195.531C254.891 195.857 254.229 196.021 253.501 196.021ZM253.501 194.901C253.958 194.901 254.387 194.793 254.789 194.579C255.19 194.364 255.512 194.042 255.755 193.613C256.007 193.183 256.133 192.661 256.133 192.045C256.133 191.429 256.011 190.906 255.769 190.477C255.526 190.047 255.209 189.73 254.817 189.525C254.425 189.31 254 189.203 253.543 189.203C253.076 189.203 252.647 189.31 252.255 189.525C251.872 189.73 251.564 190.047 251.331 190.477C251.097 190.906 250.981 191.429 250.981 192.045C250.981 192.67 251.093 193.197 251.317 193.627C251.55 194.056 251.858 194.378 252.241 194.593C252.623 194.798 253.043 194.901 253.501 194.901ZM262.288 188.083C263.221 188.083 263.977 188.367 264.556 188.937C265.134 189.497 265.424 190.309 265.424 191.373V195.895H264.164V191.555C264.164 190.789 263.972 190.206 263.59 189.805C263.207 189.394 262.684 189.189 262.022 189.189C261.35 189.189 260.813 189.399 260.412 189.819C260.02 190.239 259.824 190.85 259.824 191.653V195.895H258.55V188.223H259.824V189.315C260.076 188.923 260.416 188.619 260.846 188.405C261.284 188.19 261.765 188.083 262.288 188.083ZM276.123 186.137V187.173H273.463V195.895H272.189V187.173H269.515V186.137H276.123ZM287.351 188.223L284.957 195.895H283.641L281.793 189.805L279.945 195.895H278.629L276.221 188.223H277.523L279.287 194.663L281.191 188.223H282.493L284.355 194.677L286.091 188.223H287.351ZM288.714 186.977C288.471 186.977 288.266 186.893 288.098 186.725C287.93 186.557 287.846 186.351 287.846 186.109C287.846 185.866 287.93 185.661 288.098 185.493C288.266 185.325 288.471 185.241 288.714 185.241C288.947 185.241 289.143 185.325 289.302 185.493C289.47 185.661 289.554 185.866 289.554 186.109C289.554 186.351 289.47 186.557 289.302 186.725C289.143 186.893 288.947 186.977 288.714 186.977ZM289.33 188.223V195.895H288.056V188.223H289.33ZM292.495 189.273V193.795C292.495 194.168 292.575 194.434 292.733 194.593C292.892 194.742 293.167 194.817 293.559 194.817H294.497V195.895H293.349C292.64 195.895 292.108 195.731 291.753 195.405C291.399 195.078 291.221 194.541 291.221 193.795V189.273H290.227V188.223H291.221V186.291H292.495V188.223H294.497V189.273H292.495ZM297.035 189.273V193.795C297.035 194.168 297.114 194.434 297.273 194.593C297.431 194.742 297.707 194.817 298.099 194.817H299.037V195.895H297.889C297.179 195.895 296.647 195.731 296.293 195.405C295.938 195.078 295.761 194.541 295.761 193.795V189.273H294.767V188.223H295.761V186.291H297.035V188.223H299.037V189.273H297.035ZM307.02 191.765C307.02 192.007 307.006 192.264 306.978 192.535H300.846C300.893 193.291 301.15 193.883 301.616 194.313C302.092 194.733 302.666 194.943 303.338 194.943C303.889 194.943 304.346 194.817 304.71 194.565C305.084 194.303 305.345 193.958 305.494 193.529H306.866C306.661 194.266 306.25 194.868 305.634 195.335C305.018 195.792 304.253 196.021 303.338 196.021C302.61 196.021 301.957 195.857 301.378 195.531C300.809 195.204 300.361 194.742 300.034 194.145C299.708 193.538 299.544 192.838 299.544 192.045C299.544 191.251 299.703 190.556 300.02 189.959C300.338 189.361 300.781 188.904 301.35 188.587C301.929 188.26 302.592 188.097 303.338 188.097C304.066 188.097 304.71 188.255 305.27 188.573C305.83 188.89 306.26 189.329 306.558 189.889C306.866 190.439 307.02 191.065 307.02 191.765ZM305.704 191.499C305.704 191.013 305.597 190.598 305.382 190.253C305.168 189.898 304.874 189.632 304.5 189.455C304.136 189.268 303.73 189.175 303.282 189.175C302.638 189.175 302.088 189.38 301.63 189.791C301.182 190.201 300.926 190.771 300.86 191.499H305.704ZM309.416 189.469C309.64 189.03 309.957 188.689 310.368 188.447C310.788 188.204 311.297 188.083 311.894 188.083V189.399H311.558C310.13 189.399 309.416 190.173 309.416 191.723V195.895H308.142V188.223H309.416V189.469ZM319.099 189.273H317.489V195.895H316.215V189.273H315.221V188.223H316.215V187.677C316.215 186.818 316.434 186.193 316.873 185.801C317.321 185.399 318.035 185.199 319.015 185.199V186.263C318.455 186.263 318.058 186.375 317.825 186.599C317.601 186.813 317.489 187.173 317.489 187.677V188.223H319.099V189.273ZM323.371 196.021C322.652 196.021 321.999 195.857 321.411 195.531C320.832 195.204 320.375 194.742 320.039 194.145C319.712 193.538 319.549 192.838 319.549 192.045C319.549 191.261 319.717 190.57 320.053 189.973C320.398 189.366 320.865 188.904 321.453 188.587C322.041 188.26 322.699 188.097 323.427 188.097C324.155 188.097 324.813 188.26 325.401 188.587C325.989 188.904 326.451 189.361 326.787 189.959C327.132 190.556 327.305 191.251 327.305 192.045C327.305 192.838 327.127 193.538 326.773 194.145C326.427 194.742 325.956 195.204 325.359 195.531C324.761 195.857 324.099 196.021 323.371 196.021ZM323.371 194.901C323.828 194.901 324.257 194.793 324.659 194.579C325.06 194.364 325.382 194.042 325.625 193.613C325.877 193.183 326.003 192.661 326.003 192.045C326.003 191.429 325.881 190.906 325.639 190.477C325.396 190.047 325.079 189.73 324.687 189.525C324.295 189.31 323.87 189.203 323.413 189.203C322.946 189.203 322.517 189.31 322.125 189.525C321.742 189.73 321.434 190.047 321.201 190.477C320.967 190.906 320.851 191.429 320.851 192.045C320.851 192.67 320.963 193.197 321.187 193.627C321.42 194.056 321.728 194.378 322.111 194.593C322.493 194.798 322.913 194.901 323.371 194.901ZM329.694 189.469C329.918 189.03 330.235 188.689 330.646 188.447C331.066 188.204 331.574 188.083 332.172 188.083V189.399H331.836C330.408 189.399 329.694 190.173 329.694 191.723V195.895H328.42V188.223H329.694V189.469ZM340.063 188.083C340.641 188.083 341.164 188.209 341.631 188.461C342.097 188.703 342.461 189.072 342.723 189.567C342.993 190.061 343.129 190.663 343.129 191.373V195.895H341.869V191.555C341.869 190.789 341.677 190.206 341.295 189.805C340.912 189.394 340.389 189.189 339.727 189.189C339.055 189.189 338.518 189.399 338.117 189.819C337.725 190.239 337.529 190.85 337.529 191.653V195.895H336.255V185.535H337.529V189.315C337.781 188.923 338.126 188.619 338.565 188.405C339.013 188.19 339.512 188.083 340.063 188.083ZM345.308 186.977C345.065 186.977 344.86 186.893 344.692 186.725C344.524 186.557 344.44 186.351 344.44 186.109C344.44 185.866 344.524 185.661 344.692 185.493C344.86 185.325 345.065 185.241 345.308 185.241C345.541 185.241 345.737 185.325 345.896 185.493C346.064 185.661 346.148 185.866 346.148 186.109C346.148 186.351 346.064 186.557 345.896 186.725C345.737 186.893 345.541 186.977 345.308 186.977ZM345.924 188.223V195.895H344.65V188.223H345.924ZM350.699 188.097C351.362 188.097 351.94 188.241 352.435 188.531C352.939 188.82 353.312 189.184 353.555 189.623V188.223H354.843V196.063C354.843 196.763 354.694 197.383 354.395 197.925C354.096 198.475 353.667 198.905 353.107 199.213C352.556 199.521 351.912 199.675 351.175 199.675C350.167 199.675 349.327 199.437 348.655 198.961C347.983 198.485 347.586 197.836 347.465 197.015H348.725C348.865 197.481 349.154 197.855 349.593 198.135C350.032 198.424 350.559 198.569 351.175 198.569C351.875 198.569 352.444 198.349 352.883 197.911C353.331 197.472 353.555 196.856 353.555 196.063V194.453C353.303 194.901 352.93 195.274 352.435 195.573C351.94 195.871 351.362 196.021 350.699 196.021C350.018 196.021 349.397 195.853 348.837 195.517C348.286 195.181 347.852 194.709 347.535 194.103C347.218 193.496 347.059 192.805 347.059 192.031C347.059 191.247 347.218 190.561 347.535 189.973C347.852 189.375 348.286 188.913 348.837 188.587C349.397 188.26 350.018 188.097 350.699 188.097ZM353.555 192.045C353.555 191.466 353.438 190.962 353.205 190.533C352.972 190.103 352.654 189.777 352.253 189.553C351.861 189.319 351.427 189.203 350.951 189.203C350.475 189.203 350.041 189.315 349.649 189.539C349.257 189.763 348.944 190.089 348.711 190.519C348.478 190.948 348.361 191.452 348.361 192.031C348.361 192.619 348.478 193.132 348.711 193.571C348.944 194 349.257 194.331 349.649 194.565C350.041 194.789 350.475 194.901 350.951 194.901C351.427 194.901 351.861 194.789 352.253 194.565C352.654 194.331 352.972 194 353.205 193.571C353.438 193.132 353.555 192.623 353.555 192.045ZM360.244 188.083C360.823 188.083 361.345 188.209 361.812 188.461C362.279 188.703 362.643 189.072 362.904 189.567C363.175 190.061 363.31 190.663 363.31 191.373V195.895H362.05V191.555C362.05 190.789 361.859 190.206 361.476 189.805C361.093 189.394 360.571 189.189 359.908 189.189C359.236 189.189 358.699 189.399 358.298 189.819C357.906 190.239 357.71 190.85 357.71 191.653V195.895H356.436V185.535H357.71V189.315C357.962 188.923 358.307 188.619 358.746 188.405C359.194 188.19 359.693 188.083 360.244 188.083ZM366.105 185.535V195.895H364.831V185.535H366.105ZM374.324 188.223L369.704 199.507H368.388L369.9 195.811L366.806 188.223H368.22L370.628 194.439L373.008 188.223H374.324ZM379.492 189.469C379.716 189.03 380.033 188.689 380.444 188.447C380.864 188.204 381.372 188.083 381.97 188.083V189.399H381.634C380.206 189.399 379.492 190.173 379.492 191.723V195.895H378.218V188.223H379.492V189.469ZM389.88 191.765C389.88 192.007 389.866 192.264 389.838 192.535H383.706C383.753 193.291 384.009 193.883 384.476 194.313C384.952 194.733 385.526 194.943 386.198 194.943C386.749 194.943 387.206 194.817 387.57 194.565C387.943 194.303 388.205 193.958 388.354 193.529H389.726C389.521 194.266 389.11 194.868 388.494 195.335C387.878 195.792 387.113 196.021 386.198 196.021C385.47 196.021 384.817 195.857 384.238 195.531C383.669 195.204 383.221 194.742 382.894 194.145C382.567 193.538 382.404 192.838 382.404 192.045C382.404 191.251 382.563 190.556 382.88 189.959C383.197 189.361 383.641 188.904 384.21 188.587C384.789 188.26 385.451 188.097 386.198 188.097C386.926 188.097 387.57 188.255 388.13 188.573C388.69 188.89 389.119 189.329 389.418 189.889C389.726 190.439 389.88 191.065 389.88 191.765ZM388.564 191.499C388.564 191.013 388.457 190.598 388.242 190.253C388.027 189.898 387.733 189.632 387.36 189.455C386.996 189.268 386.59 189.175 386.142 189.175C385.498 189.175 384.947 189.38 384.49 189.791C384.042 190.201 383.785 190.771 383.72 191.499H388.564ZM392.276 185.535V195.895H391.002V185.535H392.276ZM400.887 191.765C400.887 192.007 400.873 192.264 400.845 192.535H394.713C394.76 193.291 395.016 193.883 395.483 194.313C395.959 194.733 396.533 194.943 397.205 194.943C397.756 194.943 398.213 194.817 398.577 194.565C398.95 194.303 399.212 193.958 399.361 193.529H400.733C400.528 194.266 400.117 194.868 399.501 195.335C398.885 195.792 398.12 196.021 397.205 196.021C396.477 196.021 395.824 195.857 395.245 195.531C394.676 195.204 394.228 194.742 393.901 194.145C393.574 193.538 393.411 192.838 393.411 192.045C393.411 191.251 393.57 190.556 393.887 189.959C394.204 189.361 394.648 188.904 395.217 188.587C395.796 188.26 396.458 188.097 397.205 188.097C397.933 188.097 398.577 188.255 399.137 188.573C399.697 188.89 400.126 189.329 400.425 189.889C400.733 190.439 400.887 191.065 400.887 191.765ZM399.571 191.499C399.571 191.013 399.464 190.598 399.249 190.253C399.034 189.898 398.74 189.632 398.367 189.455C398.003 189.268 397.597 189.175 397.149 189.175C396.505 189.175 395.954 189.38 395.497 189.791C395.049 190.201 394.792 190.771 394.727 191.499H399.571ZM404.865 194.719L407.245 188.223H408.603L405.593 195.895H404.109L401.099 188.223H402.471L404.865 194.719ZM408.82 192.031C408.82 191.247 408.979 190.561 409.296 189.973C409.614 189.375 410.048 188.913 410.598 188.587C411.158 188.26 411.779 188.097 412.46 188.097C413.132 188.097 413.716 188.241 414.21 188.531C414.705 188.82 415.074 189.184 415.316 189.623V188.223H416.604V195.895H415.316V194.467C415.064 194.915 414.686 195.288 414.182 195.587C413.688 195.876 413.109 196.021 412.446 196.021C411.765 196.021 411.149 195.853 410.598 195.517C410.048 195.181 409.614 194.709 409.296 194.103C408.979 193.496 408.82 192.805 408.82 192.031ZM415.316 192.045C415.316 191.466 415.2 190.962 414.966 190.533C414.733 190.103 414.416 189.777 414.014 189.553C413.622 189.319 413.188 189.203 412.712 189.203C412.236 189.203 411.802 189.315 411.41 189.539C411.018 189.763 410.706 190.089 410.472 190.519C410.239 190.948 410.122 191.452 410.122 192.031C410.122 192.619 410.239 193.132 410.472 193.571C410.706 194 411.018 194.331 411.41 194.565C411.802 194.789 412.236 194.901 412.712 194.901C413.188 194.901 413.622 194.789 414.014 194.565C414.416 194.331 414.733 194 414.966 193.571C415.2 193.132 415.316 192.623 415.316 192.045ZM421.935 188.083C422.869 188.083 423.625 188.367 424.203 188.937C424.782 189.497 425.071 190.309 425.071 191.373V195.895H423.811V191.555C423.811 190.789 423.62 190.206 423.237 189.805C422.855 189.394 422.332 189.189 421.669 189.189C420.997 189.189 420.461 189.399 420.059 189.819C419.667 190.239 419.471 190.85 419.471 191.653V195.895H418.197V188.223H419.471V189.315C419.723 188.923 420.064 188.619 420.493 188.405C420.932 188.19 421.413 188.083 421.935 188.083ZM428.146 189.273V193.795C428.146 194.168 428.226 194.434 428.384 194.593C428.543 194.742 428.818 194.817 429.21 194.817H430.148V195.895H429C428.291 195.895 427.759 195.731 427.404 195.405C427.05 195.078 426.872 194.541 426.872 193.795V189.273H425.878V188.223H426.872V186.291H428.146V188.223H430.148V189.273H428.146ZM441.304 191.765C441.304 192.007 441.29 192.264 441.262 192.535H435.13C435.177 193.291 435.434 193.883 435.9 194.313C436.376 194.733 436.95 194.943 437.622 194.943C438.173 194.943 438.63 194.817 438.994 194.565C439.368 194.303 439.629 193.958 439.778 193.529H441.15C440.945 194.266 440.534 194.868 439.918 195.335C439.302 195.792 438.537 196.021 437.622 196.021C436.894 196.021 436.241 195.857 435.662 195.531C435.093 195.204 434.645 194.742 434.318 194.145C433.992 193.538 433.828 192.838 433.828 192.045C433.828 191.251 433.987 190.556 434.304 189.959C434.622 189.361 435.065 188.904 435.634 188.587C436.213 188.26 436.876 188.097 437.622 188.097C438.35 188.097 438.994 188.255 439.554 188.573C440.114 188.89 440.544 189.329 440.842 189.889C441.15 190.439 441.304 191.065 441.304 191.765ZM439.988 191.499C439.988 191.013 439.881 190.598 439.666 190.253C439.452 189.898 439.158 189.632 438.784 189.455C438.42 189.268 438.014 189.175 437.566 189.175C436.922 189.175 436.372 189.38 435.914 189.791C435.466 190.201 435.21 190.771 435.144 191.499H439.988ZM451.652 188.083C452.249 188.083 452.781 188.209 453.248 188.461C453.715 188.703 454.083 189.072 454.354 189.567C454.625 190.061 454.76 190.663 454.76 191.373V195.895H453.5V191.555C453.5 190.789 453.309 190.206 452.926 189.805C452.553 189.394 452.044 189.189 451.4 189.189C450.737 189.189 450.21 189.403 449.818 189.833C449.426 190.253 449.23 190.864 449.23 191.667V195.895H447.97V191.555C447.97 190.789 447.779 190.206 447.396 189.805C447.023 189.394 446.514 189.189 445.87 189.189C445.207 189.189 444.68 189.403 444.288 189.833C443.896 190.253 443.7 190.864 443.7 191.667V195.895H442.426V188.223H443.7V189.329C443.952 188.927 444.288 188.619 444.708 188.405C445.137 188.19 445.609 188.083 446.122 188.083C446.766 188.083 447.335 188.227 447.83 188.517C448.325 188.806 448.693 189.231 448.936 189.791C449.151 189.249 449.505 188.829 450 188.531C450.495 188.232 451.045 188.083 451.652 188.083ZM455.814 192.031C455.814 191.247 455.973 190.561 456.29 189.973C456.607 189.375 457.041 188.913 457.592 188.587C458.152 188.26 458.773 188.097 459.454 188.097C460.126 188.097 460.709 188.241 461.204 188.531C461.699 188.82 462.067 189.184 462.31 189.623V188.223H463.598V195.895H462.31V194.467C462.058 194.915 461.68 195.288 461.176 195.587C460.681 195.876 460.103 196.021 459.44 196.021C458.759 196.021 458.143 195.853 457.592 195.517C457.041 195.181 456.607 194.709 456.29 194.103C455.973 193.496 455.814 192.805 455.814 192.031ZM462.31 192.045C462.31 191.466 462.193 190.962 461.96 190.533C461.727 190.103 461.409 189.777 461.008 189.553C460.616 189.319 460.182 189.203 459.706 189.203C459.23 189.203 458.796 189.315 458.404 189.539C458.012 189.763 457.699 190.089 457.466 190.519C457.233 190.948 457.116 191.452 457.116 192.031C457.116 192.619 457.233 193.132 457.466 193.571C457.699 194 458.012 194.331 458.404 194.565C458.796 194.789 459.23 194.901 459.706 194.901C460.182 194.901 460.616 194.789 461.008 194.565C461.409 194.331 461.727 194 461.96 193.571C462.193 193.132 462.31 192.623 462.31 192.045ZM465.849 186.977C465.606 186.977 465.401 186.893 465.233 186.725C465.065 186.557 464.981 186.351 464.981 186.109C464.981 185.866 465.065 185.661 465.233 185.493C465.401 185.325 465.606 185.241 465.849 185.241C466.082 185.241 466.278 185.325 466.437 185.493C466.605 185.661 466.689 185.866 466.689 186.109C466.689 186.351 466.605 186.557 466.437 186.725C466.278 186.893 466.082 186.977 465.849 186.977ZM466.465 188.223V195.895H465.191V188.223H466.465ZM469.35 185.535V195.895H468.076V185.535H469.35ZM473.677 196.021C473.089 196.021 472.562 195.923 472.095 195.727C471.629 195.521 471.26 195.241 470.989 194.887C470.719 194.523 470.569 194.107 470.541 193.641H471.857C471.895 194.023 472.072 194.336 472.389 194.579C472.716 194.821 473.141 194.943 473.663 194.943C474.149 194.943 474.531 194.835 474.811 194.621C475.091 194.406 475.231 194.135 475.231 193.809C475.231 193.473 475.082 193.225 474.783 193.067C474.485 192.899 474.023 192.735 473.397 192.577C472.828 192.427 472.361 192.278 471.997 192.129C471.643 191.97 471.335 191.741 471.073 191.443C470.821 191.135 470.695 190.733 470.695 190.239C470.695 189.847 470.812 189.487 471.045 189.161C471.279 188.834 471.61 188.577 472.039 188.391C472.469 188.195 472.959 188.097 473.509 188.097C474.359 188.097 475.045 188.311 475.567 188.741C476.09 189.17 476.37 189.758 476.407 190.505H475.133C475.105 190.103 474.942 189.781 474.643 189.539C474.354 189.296 473.962 189.175 473.467 189.175C473.01 189.175 472.646 189.273 472.375 189.469C472.105 189.665 471.969 189.921 471.969 190.239C471.969 190.491 472.049 190.701 472.207 190.869C472.375 191.027 472.581 191.158 472.823 191.261C473.075 191.354 473.421 191.461 473.859 191.583C474.41 191.732 474.858 191.881 475.203 192.031C475.549 192.171 475.843 192.385 476.085 192.675C476.337 192.964 476.468 193.342 476.477 193.809C476.477 194.229 476.361 194.607 476.127 194.943C475.894 195.279 475.563 195.545 475.133 195.741C474.713 195.927 474.228 196.021 473.677 196.021ZM478.122 195.979C477.879 195.979 477.674 195.895 477.506 195.727C477.338 195.559 477.254 195.353 477.254 195.111C477.254 194.868 477.338 194.663 477.506 194.495C477.674 194.327 477.879 194.243 478.122 194.243C478.355 194.243 478.551 194.327 478.71 194.495C478.878 194.663 478.962 194.868 478.962 195.111C478.962 195.353 478.878 195.559 478.71 195.727C478.551 195.895 478.355 195.979 478.122 195.979Z" fill="#787878"/>
</g>
<defs>
<filter id="filter0_d_1740_2727" x="0" y="0.894531" width="588" height="241" filterUnits="userSpaceOnUse" color-interpolation-filters="sRGB">
<feFlood flood-opacity="0" result="BackgroundImageFix"/>
<feColorMatrix in="SourceAlpha" type="matrix" values="0 0 0 0 0 0 0 0 0 0 0 0 0 0 0 0 0 0 127 0" result="hardAlpha"/>
<feOffset/>
<feGaussianBlur stdDeviation="5"/>
<feComposite in2="hardAlpha" operator="out"/>
<feColorMatrix type="matrix" values="0 0 0 0 0 0 0 0 0 0 0 0 0 0 0 0 0 0 0.2 0"/>
<feBlend mode="normal" in2="BackgroundImageFix" result="effect1_dropShadow_1740_2727"/>
<feBlend mode="normal" in="SourceGraphic" in2="effect1_dropShadow_1740_2727" result="shape"/>
</filter>
<linearGradient id="paint0_linear_1740_2727" x1="264" y1="44.895" x2="322.5" y2="101.895" gradientUnits="userSpaceOnUse">
<stop stop-color="#3D154B"/>
<stop offset="0.5" stop-color="#DF3542"/>
<stop offset="1" stop-color="#FFD29C"/>
</linearGradient>
<clipPath id="clip0_1740_2727">
<rect width="64" height="64" fill="white" transform="translate(262 40.8945)"/>
</clipPath>
</defs>
</svg>
