<svg width="18" height="17" viewBox="0 0 18 17" fill="none" xmlns="http://www.w3.org/2000/svg">
<path d="M9.85667 0.195312C10.7942 0.197812 11.27 0.202813 11.6808 0.214479L11.8425 0.220312C12.0292 0.226979 12.2133 0.235312 12.4358 0.245312C13.3225 0.286979 13.9275 0.426979 14.4583 0.632813C15.0083 0.844479 15.4717 1.13115 15.935 1.59365C16.3589 2.01009 16.6868 2.51404 16.8958 3.07031C17.1017 3.60115 17.2417 4.20615 17.2833 5.09365C17.2933 5.31531 17.3017 5.49948 17.3083 5.68698L17.3133 5.84865C17.3258 6.25865 17.3308 6.73448 17.3325 7.67198L17.3333 8.29365V9.38531C17.3354 9.99315 17.329 10.601 17.3142 11.2086L17.3092 11.3703C17.3025 11.5578 17.2942 11.742 17.2842 11.9636C17.2425 12.8511 17.1008 13.4553 16.8958 13.987C16.6868 14.5433 16.3589 15.0472 15.935 15.4636C15.5186 15.8876 15.0146 16.2155 14.4583 16.4245C13.9275 16.6303 13.3225 16.7703 12.4358 16.812L11.8425 16.837L11.6808 16.842C11.27 16.8536 10.7942 16.8595 9.85667 16.8611L9.23501 16.862H8.14417C7.53606 16.8641 6.92794 16.8577 6.32001 16.8428L6.15834 16.8378C5.96051 16.8303 5.76273 16.8217 5.56501 16.812C4.67834 16.7703 4.07334 16.6303 3.54167 16.4245C2.9857 16.2154 2.48204 15.8875 2.06584 15.4636C1.64163 15.0473 1.31343 14.5433 1.10417 13.987C0.898339 13.4561 0.758339 12.8511 0.716673 11.9636L0.691673 11.3703L0.687506 11.2086C0.672145 10.601 0.665199 9.99316 0.666673 9.38531V7.67198C0.664366 7.06415 0.670478 6.45631 0.685006 5.84865L0.690839 5.68698C0.697506 5.49948 0.705839 5.31531 0.715839 5.09365C0.757506 4.20615 0.897506 3.60198 1.10334 3.07031C1.31308 2.51381 1.64186 2.00984 2.06667 1.59365C2.48263 1.16994 2.986 0.84204 3.54167 0.632813C4.07334 0.426979 4.67751 0.286979 5.56501 0.245312C5.78667 0.235312 5.97167 0.226979 6.15834 0.220312L6.32001 0.215312C6.92767 0.200506 7.5355 0.194117 8.14334 0.196146L9.85667 0.195312ZM9.00001 4.36198C7.89494 4.36198 6.83513 4.80097 6.05373 5.58237C5.27233 6.36377 4.83334 7.42358 4.83334 8.52865C4.83334 9.63371 5.27233 10.6935 6.05373 11.4749C6.83513 12.2563 7.89494 12.6953 9.00001 12.6953C10.1051 12.6953 11.1649 12.2563 11.9463 11.4749C12.7277 10.6935 13.1667 9.63371 13.1667 8.52865C13.1667 7.42358 12.7277 6.36377 11.9463 5.58237C11.1649 4.80097 10.1051 4.36198 9.00001 4.36198ZM9.00001 6.02865C9.32831 6.02859 9.65341 6.0932 9.95675 6.21879C10.2601 6.34437 10.5357 6.52848 10.7679 6.76058C11.0001 6.99269 11.1843 7.26826 11.31 7.57155C11.4356 7.87485 11.5004 8.19992 11.5004 8.52823C11.5005 8.85653 11.4359 9.18163 11.3103 9.48497C11.1847 9.7883 11.0006 10.0639 10.7685 10.2961C10.5364 10.5283 10.2608 10.7125 9.95752 10.8382C9.65422 10.9639 9.32914 11.0286 9.00084 11.0286C8.3378 11.0286 7.70191 10.7653 7.23307 10.2964C6.76423 9.82757 6.50084 9.19169 6.50084 8.52865C6.50084 7.8656 6.76423 7.22972 7.23307 6.76088C7.70191 6.29204 8.3378 6.02865 9.00084 6.02865M13.3758 3.11198C13.0996 3.11198 12.8346 3.22173 12.6393 3.41708C12.4439 3.61243 12.3342 3.87738 12.3342 4.15365C12.3342 4.42991 12.4439 4.69486 12.6393 4.89022C12.8346 5.08557 13.0996 5.19531 13.3758 5.19531C13.6521 5.19531 13.9171 5.08557 14.1124 4.89022C14.3078 4.69486 14.4175 4.42991 14.4175 4.15365C14.4175 3.87738 14.3078 3.61243 14.1124 3.41708C13.9171 3.22173 13.6521 3.11198 13.3758 3.11198Z" fill="#FF0000"/>
</svg>
