<svg width="56" height="57" viewBox="0 0 56 57" fill="none" xmlns="http://www.w3.org/2000/svg">
<g clip-path="url(#clip0_1740_2183)">
<path d="M56 40.5225V17.335C56 8.27404 48.6547 0.928711 39.5938 0.928711H16.4062C7.34533 0.928711 0 8.27404 0 17.335V40.5225C0 49.5834 7.34533 56.9287 16.4062 56.9287H39.5938C48.6547 56.9287 56 49.5834 56 40.5225Z" fill="url(#paint0_linear_1740_2183)"/>
<path fill-rule="evenodd" clip-rule="evenodd" d="M45.506 50.7804L45.4898 50.7934C45.4085 50.8585 45.3268 50.9231 45.2447 50.9875L45.2029 51.0203C45.1305 51.0767 45.0579 51.1328 44.985 51.1886L44.8975 51.255C44.842 51.297 44.7865 51.3388 44.7308 51.3804C44.6853 51.4142 44.6399 51.4479 44.5945 51.4815C44.5477 51.5159 44.5009 51.5501 44.4541 51.5843L44.3825 51.6362C44.2002 51.7674 44.0165 51.8968 43.8314 52.0244L43.7997 52.0463L43.6916 52.12L43.6494 52.1486L43.5509 52.2142L43.5049 52.2451C43.4711 52.2674 43.4373 52.2898 43.4036 52.3121L43.3616 52.3399L43.2489 52.4136L43.2182 52.4335C43.1714 52.4639 43.1245 52.4942 43.0775 52.5243L43.0721 52.5277L43.0555 52.5386C43.0134 52.5655 42.9713 52.5923 42.929 52.619L42.8884 52.6446L42.787 52.7081L42.7687 52.7191C42.0391 53.1731 41.2877 53.5937 40.5146 53.9809C38.8223 54.8283 37.0479 55.5007 35.219 55.9875L22.3623 44.7163L22.4485 44.7911L22.5383 44.8617L22.6314 44.9281L22.7278 44.99L22.8271 45.0473L22.9295 45.0998L23.0345 45.1476L23.1422 45.1903L23.2524 45.2277L23.3649 45.2598L23.4794 45.2864L23.596 45.3074L23.7145 45.3226L23.8348 45.3318L23.9565 45.3349L24.0783 45.3318L24.1986 45.3226L24.317 45.3074L24.4335 45.2864L24.5481 45.2598L24.6607 45.2277L24.7707 45.1903L24.8784 45.1476L24.9836 45.0998L25.0857 45.0473L25.1852 44.99L25.2816 44.9281L25.3747 44.8617L25.4644 44.7911L25.5506 44.7163L25.6331 44.6376L25.7119 44.555L25.7867 44.4688L25.8572 44.379L25.9236 44.2859L25.9856 44.1896L26.043 44.0903L26.0955 43.9879L26.1431 43.8829L26.1858 43.7752L26.2232 43.665L26.2555 43.5526L26.2821 43.4381L26.3029 43.3215L26.3183 43.203L26.3274 43.0827L26.3305 42.9611V34.3362L15.2079 23.6781L15.2961 23.7619L15.3876 23.8405L15.4821 23.9134L15.5794 23.981L15.6792 24.0433L15.7814 24.1L15.8859 24.1514L15.9922 24.1975L16.1001 24.2381L16.2095 24.2732L16.3204 24.3029L16.4323 24.3272L16.5451 24.3462L16.6585 24.3597L16.7723 24.3678L16.8863 24.3705L17.0004 24.3678L17.1142 24.3597L17.2276 24.3462L17.3403 24.3272L17.4522 24.3029L17.563 24.2732L17.6724 24.2381L17.7803 24.1975L17.8868 24.1514L17.9911 24.1L18.0933 24.0433L18.1931 23.981L18.2904 23.9135L18.3849 23.8405L18.4763 23.7621L18.5646 23.6782L21.5822 20.6605L26.3296 25.4584V14.8959L26.3213 14.686L26.2967 14.4842L26.2571 14.2907L26.2024 14.106L26.1344 13.93L26.0535 13.7631L25.9605 13.6056L25.8561 13.4577L25.7414 13.3197L34.4171 22.6756V14.8959L34.414 14.7743L34.4048 14.654L34.3897 14.5355L34.3686 14.4188L34.3421 14.3043L34.31 14.1919L34.2726 14.0817L34.2299 13.9741L34.1821 13.869L34.1295 13.7666L34.0722 13.6673L34.0104 13.5709L33.944 13.4777L33.8733 13.3881L33.7986 13.3018L54.7957 37.0719C54.246 38.8821 53.5132 40.6316 52.6087 42.2932L52.6098 42.2944C51.4289 44.4626 49.9671 46.4656 48.2623 48.2514L48.2381 48.2767C48.1918 48.3251 48.1454 48.3733 48.0989 48.4213L48.0863 48.4343C48.039 48.4831 47.9914 48.5317 47.9436 48.5801L47.8832 48.641L47.8025 48.7222L47.7286 48.7958L47.6609 48.8627C47.6003 48.9225 47.5395 48.982 47.4783 49.0412L47.4607 49.0583C47.4279 49.0911 47.3938 49.1226 47.3604 49.1548L47.3221 49.1913C47.2856 49.2265 47.2488 49.2614 47.2117 49.2961L47.206 49.3014C47.1134 49.3889 47.0201 49.4758 46.9263 49.562C46.4667 49.9835 45.9933 50.3897 45.506 50.7804Z" fill="#D10000"/>
<path fill-rule="evenodd" clip-rule="evenodd" d="M34.4177 37.1968V14.8959C34.4177 14.2664 34.1676 13.6627 33.7225 13.2176C33.2774 12.7725 32.6737 12.5225 32.0442 12.5225C31.4148 12.5225 30.8111 12.7725 30.366 13.2176C29.9209 13.6627 29.6708 14.2664 29.6708 14.8959V42.9615C29.6708 45.242 32.5615 46.1863 33.9296 44.3996L40.7923 37.5365C41.2375 37.0914 41.4877 36.4876 41.4878 35.8579C41.4879 35.2283 41.2379 34.6244 40.7927 34.1791C40.3476 33.7339 39.7437 33.4837 39.1141 33.4836C38.4845 33.4835 37.8806 33.7336 37.4353 34.1787L34.4177 37.1964V37.1968ZM26.3298 42.9615V14.8959C26.3298 12.6153 23.4392 11.6711 22.071 13.4578L15.2078 20.3209C14.7625 20.7661 14.5124 21.3699 14.5123 21.9995C14.5122 22.6291 14.7622 23.233 15.2074 23.6783C15.6525 24.1235 16.2564 24.3737 16.886 24.3738C17.5156 24.3739 18.1195 24.1239 18.5648 23.6787L21.5824 20.6612V42.9615C21.5824 43.5911 21.8325 44.1948 22.2777 44.64C22.7228 45.0851 23.3266 45.3352 23.9561 45.3352C24.5857 45.3352 25.1894 45.0851 25.6346 44.64C26.0798 44.1948 26.3298 43.5911 26.3298 42.9615Z" fill="white"/>
</g>
<defs>
<linearGradient id="paint0_linear_1740_2183" x1="4.80484" y1="5.73355" x2="51.1952" y2="52.1239" gradientUnits="userSpaceOnUse">
<stop stop-color="#FF0000"/>
<stop offset="1" stop-color="#D10000"/>
</linearGradient>
<clipPath id="clip0_1740_2183">
<rect width="56" height="56" fill="white" transform="translate(0 0.928711)"/>
</clipPath>
</defs>
</svg>
