<svg width="56" height="57" viewBox="0 0 56 57" fill="none" xmlns="http://www.w3.org/2000/svg">
<g clip-path="url(#clip0_1740_2175)">
<path d="M56 40.5225V17.335C56 8.27404 48.6547 0.928711 39.5938 0.928711H16.4062C7.34533 0.928711 0 8.27404 0 17.335V40.5225C0 49.5834 7.34533 56.9287 16.4062 56.9287H39.5938C48.6547 56.9287 56 49.5834 56 40.5225Z" fill="url(#paint0_linear_1740_2175)"/>
<path d="M56 37.7568L29.7686 11.5254L16.6993 31.7248L27.7484 42.7738L26.2653 46.3668L36.8287 56.9302H39.5948C48.6554 56.9302 56.0011 49.5846 56.0011 40.524V37.7579L56 37.7568Z" fill="url(#paint1_linear_1740_2175)"/>
<path d="M38.3523 25.752H30.1415V12.4728C30.1415 11.0914 28.3259 10.5817 27.6062 11.7619L16.4795 30.0275C15.925 30.9386 16.5801 32.1056 17.6476 32.1056H25.8584V45.3848C25.8584 46.7662 27.674 47.2759 28.3937 46.0958L39.5204 27.8301C40.075 26.919 39.4198 25.752 38.3523 25.752Z" fill="white"/>
</g>
<defs>
<linearGradient id="paint0_linear_1740_2175" x1="4.80484" y1="5.73355" x2="51.1952" y2="52.1239" gradientUnits="userSpaceOnUse">
<stop stop-color="#FF0000"/>
<stop offset="1" stop-color="#D10000"/>
</linearGradient>
<linearGradient id="paint1_linear_1740_2175" x1="20.1818" y1="21.111" x2="51.1951" y2="52.1243" gradientUnits="userSpaceOnUse">
<stop stop-opacity="0.5"/>
<stop offset="1" stop-opacity="0"/>
</linearGradient>
<clipPath id="clip0_1740_2175">
<rect width="56" height="56" fill="white" transform="translate(0 0.928711)"/>
</clipPath>
</defs>
</svg>
