<svg width="136" height="35" viewBox="0 0 136 35" fill="none" xmlns="http://www.w3.org/2000/svg">
<path d="M0.643867 19.7099C2.84102 19.2232 5.06484 18.8659 7.30387 18.6399C9.17387 18.5399 10.1139 17.9099 10.6339 16.0899C11.8739 11.7799 13.4039 7.55985 14.6339 3.23985C14.7719 2.52193 15.1624 1.87716 15.7347 1.42225C16.307 0.967344 17.0233 0.732366 17.7539 0.759854C21.7539 0.399854 22.5739 0.899854 23.7539 4.75985C26.5872 13.6932 29.3905 22.6399 32.1639 31.5999C32.3739 32.2799 32.5139 32.9999 32.6739 33.6899C28.5139 35.0399 26.9439 34.5499 24.4539 31.3599C18.4539 23.7099 10.4539 20.4199 0.943867 20.3599C0.781477 20.3444 0.62082 20.3143 0.463867 20.2699L0.643867 19.7099ZM23.0039 22.5099L19.0039 8.17985H18.3839L15.3539 18.8099L23.0039 22.5099Z" fill="#1C5598"/>
<path d="M94.8336 23.9H79.6136C78.9336 29.07 83.0136 30.63 92.3536 28.81L93.6036 33.16C88.3436 34.71 83.3836 35.37 78.6036 32.92C73.8236 30.47 73.0036 26 73.1736 21.21C73.5336 13.13 79.8636 8.21003 87.3936 10.1C89.388 10.5913 91.177 11.698 92.5071 13.2632C93.8371 14.8283 94.6406 16.7725 94.8036 18.82C94.9052 20.5116 94.9152 22.2074 94.8336 23.9ZM88.9036 19.8C88.5436 15.95 86.6736 14.12 83.7936 14.43C83.1535 14.4681 82.5291 14.6437 81.963 14.9449C81.3969 15.2462 80.9024 15.666 80.5133 16.1757C80.1241 16.6853 79.8495 17.2729 79.708 17.8984C79.5666 18.5239 79.5617 19.1725 79.6936 19.8H88.9036Z" fill="#1C5598"/>
<path d="M129.844 18.7094C129.844 16.1994 128.584 14.8694 126.044 14.8294C124.8 14.7776 123.555 14.801 122.314 14.8994C118.734 15.2894 118.604 15.1994 118.314 11.2994C122.454 9.87939 126.694 9.37939 130.914 10.8594C134.304 12.0394 135.724 14.8594 135.834 18.2694C135.964 22.7594 135.934 27.2694 135.834 31.7494C135.834 32.4094 135.004 33.5894 134.504 33.6194C130.314 33.8594 126.064 34.2894 121.924 33.8394C118.444 33.4694 116.714 30.8394 116.574 27.6194C116.394 23.6194 117.704 21.2494 121.354 20.1494C124.149 19.4854 126.985 19.0044 129.844 18.7094ZM129.594 22.9994C126.954 22.7594 124.254 22.1394 122.694 24.6694C122.427 25.2841 122.316 25.9552 122.37 26.6232C122.424 27.2912 122.641 27.9356 123.004 28.4994C124.794 30.4994 127.244 30.1594 129.634 29.3494L129.594 22.9994Z" fill="#1C5598"/>
<path d="M51.9339 11.31L50.8439 15.08C48.8224 14.6996 46.7708 14.5021 44.7139 14.49C43.7139 14.55 42.8539 15.72 41.9239 16.39C42.5935 17.3076 43.3468 18.1613 44.1739 18.94C44.8314 19.2945 45.5513 19.5186 46.2939 19.6C51.0939 20.95 52.5039 22.6 52.4639 26.7C52.4639 30.53 50.3339 33.12 46.0039 34.07C42.4086 34.9852 38.6106 34.6719 35.2139 33.18C35.3939 32.18 35.5339 31.41 35.7139 30.61C36.0039 29.34 36.6339 28.94 38.0439 29.23C39.885 29.6576 41.7854 29.7692 43.6639 29.56C44.7139 29.39 45.5839 28.08 46.5339 27.28C45.845 26.272 45.032 25.3548 44.1139 24.55C43.0697 24.0442 41.9635 23.6777 40.8239 23.46C37.0839 22.23 35.5639 20.33 35.6439 17.07C35.6259 15.5059 36.1624 13.986 37.1582 12.7797C38.154 11.5734 39.5447 10.7587 41.0839 10.48C44.6908 9.52737 48.5138 9.81981 51.9339 11.31Z" fill="#1C5598"/>
<path d="M70.2137 29.51C70.4308 30.4347 70.5811 31.3738 70.6638 32.32C70.6638 32.82 70.3237 33.78 70.1337 33.78C67.3737 33.78 64.5338 34.01 61.8738 33.44C59.2138 32.87 58.2837 30.61 58.1437 28.11C58.0037 25.79 58.0638 23.45 58.0438 21.11C58.0438 20.19 57.9738 19.27 58.0438 18.37C58.2238 16.1 57.9838 14.26 54.0938 15.03L63.1538 3.54004L63.8837 3.74004C63.9588 5.00893 63.9588 6.28115 63.8837 7.55004C63.5837 9.98004 64.5737 10.91 66.9537 10.55C68.9537 10.26 70.3637 10.83 69.8137 13.17C69.6388 13.5563 69.3887 13.9038 69.0779 14.1923C68.7671 14.4808 68.402 14.7044 68.0037 14.85C67.2817 15.0414 66.5251 15.0619 65.7938 14.91C64.4138 14.82 63.7938 15.42 63.8738 16.81C63.9338 19.05 63.8738 21.3 63.8738 23.54C63.9038 28.77 64.7937 29.64 70.2137 29.51Z" fill="#1C5598"/>
<path d="M105.714 13.4494C107.083 12.3654 108.557 11.4207 110.114 10.6294C113.114 9.43943 113.944 10.0994 113.894 13.3594C113.894 14.0194 113.814 14.6694 113.764 15.3594C113.361 15.5126 112.946 15.633 112.524 15.7194C107.614 16.3594 106.624 17.2594 106.234 22.2594C106.009 25.3309 105.969 28.4131 106.114 31.4894C106.214 33.7594 105.474 34.7194 103.174 34.4094C102.148 34.3527 101.12 34.3527 100.094 34.4094V28.0494C100.094 23.0494 100.094 18.0494 100.094 13.0494C100.094 11.7894 99.654 10.2194 101.794 10.1794C103.544 10.1794 105.234 10.1794 105.404 12.5294C105.471 12.8472 105.575 13.156 105.714 13.4494Z" fill="#1C5598"/>
<path d="M5.66406 33.7999L8.94406 23.3799C10.2098 23.7315 11.4467 24.1795 12.6441 24.7199C12.8904 24.9236 13.0843 25.1833 13.2096 25.4773C13.3348 25.7714 13.3878 26.0912 13.3641 26.4099C13.0662 27.8661 12.689 29.3049 12.2341 30.7199C11.0941 34.7199 10.3341 35.1099 5.66406 33.7999Z" fill="#F4821F"/>
</svg>
