<svg width="56" height="57" viewBox="0 0 56 57" fill="none" xmlns="http://www.w3.org/2000/svg">
<g clip-path="url(#clip0_1740_2357)">
<path d="M43.4599 0.266602H12.54C7.79722 0.266602 3.93628 4.12754 3.93628 8.87037V47.5875C3.93628 52.3303 7.79722 56.1912 12.54 56.1912H43.4599C48.2026 56.1912 52.0637 52.3303 52.0637 47.5875V8.87048C52.0638 4.12754 48.2026 0.266602 43.4599 0.266602ZM47.7619 34.714H42.9868C40.3088 34.714 37.7598 35.725 35.8239 37.564C34.684 38.6502 33.1891 39.2526 31.6082 39.2526H24.3918C22.8109 39.2526 21.3159 38.6503 20.176 37.564C18.2401 35.7249 15.6911 34.714 13.0132 34.714H8.23811V8.87048C8.23811 6.50437 10.1632 4.56854 12.54 4.56854H43.4599C45.8366 4.56854 47.7619 6.50437 47.7619 8.87048V34.714Z" fill="#FF0000"/>
<path d="M23.5932 12.7971H32.407C33.5949 12.7971 34.558 11.834 34.558 10.6461C34.558 9.45816 33.595 8.49512 32.407 8.49512H23.5932C22.4054 8.49512 21.4422 9.45816 21.4422 10.6461C21.4422 11.834 22.4054 12.7971 23.5932 12.7971Z" fill="#BF0000"/>
<path d="M15.2982 21.7912H40.7021C41.8899 21.7912 42.853 20.8281 42.853 19.6402C42.853 18.4523 41.89 17.4893 40.7021 17.4893H15.2982C14.1104 17.4893 13.1472 18.4523 13.1472 19.6402C13.1472 20.8281 14.1104 21.7912 15.2982 21.7912Z" fill="#BF0000"/>
<path d="M32.407 26.4824H23.5932C22.4054 26.4824 21.4422 27.4455 21.4422 28.6334C21.4422 29.8213 22.4052 30.7844 23.5932 30.7844H32.407C33.5949 30.7844 34.558 29.8213 34.558 28.6334C34.558 27.4455 33.5949 26.4824 32.407 26.4824Z" fill="#BF0000"/>
</g>
<defs>
<clipPath id="clip0_1740_2357">
<rect width="56" height="56" fill="white" transform="translate(0 0.228516)"/>
</clipPath>
</defs>
</svg>
