<svg width="100" height="36" viewBox="0 0 100 36" fill="none" xmlns="http://www.w3.org/2000/svg">
<g clip-path="url(#clip0_1740_846)">
<path d="M0.4375 32.5653C0.4375 31.8056 1.98979 30.1212 2.51823 30.1212C3.22833 30.1212 5.14392 32.846 8.56227 32.846C10.5604 32.846 11.7659 31.7891 11.7659 30.1212C11.7659 28.2221 9.76778 27.5946 7.48888 26.835C4.5164 25.8607 1.18062 24.7873 1.18062 21.1543C1.18062 17.3396 4.38429 14.9286 9.09071 14.9286C13.4834 14.9286 15.399 16.8937 15.399 17.6533C15.399 18.3634 13.9623 20.0974 13.2687 20.0974C12.7898 20.0974 11.7164 17.9671 8.72741 17.9671C6.81181 17.9671 5.42466 19.024 5.42466 20.5598C5.42466 22.4588 7.34025 23.0038 9.5531 23.6809C12.5421 24.5726 16.043 25.5469 16.043 29.4772C16.043 33.391 12.8393 35.9836 8.4797 35.9836C3.80631 36.0332 0.4375 33.3249 0.4375 32.5653ZM30.8889 33.8038C29.7329 34.646 27.454 36.0332 24.5146 36.0332C20.7825 36.0332 17.9421 34.1176 17.9421 30.2038C17.9421 25.1671 22.4669 23.846 27.8173 22.5414C29.4522 22.1451 30.3439 21.8313 30.3439 21.1708C30.3439 19.4699 28.9568 18.3304 26.298 18.3304C23.0944 18.3304 21.0136 20.1139 20.3366 20.1139C20.0228 20.1139 19.9403 19.9488 19.9403 19.5855C19.9403 19.0405 20.1714 17.9836 20.5513 17.0588C20.9476 16.2662 23.788 14.9121 26.8595 14.9121C32.6063 14.9121 34.7696 17.5047 34.7696 22.657V30.8974C34.7696 32.1359 35.2485 32.6313 36.2063 32.6809C36.2889 32.6809 37.1311 32.7139 37.1476 32.7139C37.4283 32.7139 37.5439 32.7965 37.5439 33.0277C37.5439 33.7873 35.8595 36.0001 34.4228 36.0001C32.0614 36.0001 30.9549 34.1671 30.8889 33.8038ZM26.1825 32.7799C28.4944 32.7799 30.41 31.3433 30.41 30.5011V25.2662C30.41 25.035 30.2779 24.8699 30.0136 24.8699C29.7329 24.8699 29.1714 25.002 28.4944 25.1836C25.9513 25.9763 22.3513 26.7855 22.3513 29.7579C22.3513 31.8717 24.0192 32.7965 26.1825 32.7799ZM70.654 33.8038C69.498 34.646 67.2192 36.0332 64.2467 36.0332C60.5476 36.0332 57.7072 34.1176 57.7072 30.2038C57.7072 25.1671 62.232 23.846 67.5825 22.5414C69.2173 22.1451 70.1091 21.8313 70.1091 21.1708C70.1091 19.4699 68.7219 18.3304 66.0632 18.3304C62.8595 18.3304 60.7788 20.1139 60.1017 20.1139C59.788 20.1139 59.7054 19.9488 59.7054 19.5855C59.7054 19.0405 59.9366 17.9836 60.3164 17.0588C60.7127 16.2662 63.5531 14.9121 66.6247 14.9121C72.3714 14.9121 74.5347 17.5047 74.5347 22.657V30.8974C74.5347 32.1359 75.0136 32.6313 75.9714 32.6809C76.054 32.6809 76.8962 32.7139 76.9127 32.7139C77.1935 32.7139 77.3091 32.7965 77.3091 33.0277C77.3091 33.7873 75.6247 36.0001 74.188 36.0001C71.8265 36.0001 70.7201 34.1671 70.654 33.8038ZM65.9146 32.7799C68.2265 32.7799 70.1421 31.3433 70.1421 30.5011V25.2662C70.1421 25.035 70.01 24.8699 69.7458 24.8699C69.465 24.8699 68.9036 25.002 68.2265 25.1836C65.6834 25.9763 62.0834 26.7855 62.0834 29.7579C62.1164 31.8717 63.7678 32.7965 65.9146 32.7799ZM38.5182 10.4699C38.5182 10.0735 38.832 9.75977 40.6485 9.75977C42.4815 9.75977 42.7953 10.0735 42.7953 10.4699V17.5047C42.7953 17.5047 45.1898 14.9121 49.021 14.9121C53.2485 14.9121 56.7659 18.5946 56.7659 24.7047C56.7659 32.6644 51.7788 36.0166 46.577 36.0166C41.9531 36.0166 38.5182 33.5396 38.5182 31.2111V10.4699ZM42.8118 21.8148V30.0056C42.8118 31.5249 44.5788 32.8955 46.8907 32.8955C49.8632 32.8955 52.043 30.8148 52.043 24.9359C52.043 19.8992 49.8962 18.3965 47.2375 18.3965C44.8595 18.3799 42.8118 20.6093 42.8118 21.8148Z" fill="#4A4F54"/>
<path d="M95.4089 12.0223C93.6419 9.75994 92.618 7.00215 92.5189 4.11224L92.4364 1.40398C92.4033 0.165451 90.8841 -0.379503 90.0749 0.545268L88.6382 2.1471L88.0602 2.77463C87.8786 2.9893 87.6639 3.17096 87.4492 3.35261C88.4566 9.31408 89.8767 10.9654 95.4089 12.0223Z" fill="#76BC21"/>
<path d="M77.2102 11.5762C77.4249 11.7578 77.6065 11.9725 77.7882 12.1872C83.7496 11.1633 85.3845 9.77616 86.4579 4.22754C84.1955 5.99451 81.4377 7.01836 78.5478 7.11745L75.8395 7.20002C74.601 7.24956 74.056 8.75231 74.9808 9.56148L76.5827 10.9982L77.2102 11.5762Z" fill="#00A7E1"/>
<path d="M99.0581 15.655L97.4563 14.2183L96.8288 13.6403C96.6141 13.4587 96.4324 13.244 96.2508 13.0293C90.2893 14.0532 88.6544 15.4403 87.5811 21.022C89.8434 19.255 92.6012 18.2311 95.4911 18.132L98.1994 18.0495C99.4379 17.9504 99.9829 16.4642 99.0581 15.655Z" fill="#F18A00"/>
<path d="M78.6631 13.1445C80.4301 15.4069 81.4539 18.1647 81.553 21.0546L81.6356 23.7629C81.6686 25.0014 83.1879 25.5464 83.997 24.6216L85.4337 23.0198L86.0117 22.3922C86.1934 22.1776 86.408 21.9959 86.6227 21.8143C85.5989 15.8528 84.1952 14.2344 78.6631 13.1445Z" fill="#A81B8D"/>
<path d="M78.5479 34.4809C78.5479 33.6222 79.2579 32.9121 80.1167 32.9121C80.9754 32.9121 81.6855 33.5892 81.6855 34.4809C81.6855 35.3396 81.0084 36.0497 80.1167 36.0497C79.2579 36.0497 78.5479 35.3396 78.5479 34.4809ZM78.7295 34.4809C78.7295 35.2405 79.3405 35.8516 80.1001 35.8516C80.8598 35.8516 81.4708 35.224 81.4708 34.4809C81.4708 33.7213 80.8598 33.1103 80.1001 33.1103C79.3405 33.1103 78.7295 33.7213 78.7295 34.4809ZM80.0836 34.6956H79.7368V35.4057H79.5222V33.6222H80.2653C80.579 33.6222 80.8102 33.8369 80.8102 34.1672C80.8102 34.5635 80.4469 34.6956 80.3644 34.6956L80.8433 35.4057H80.579L80.0836 34.6956ZM79.7368 33.8039V34.4809H80.2653C80.48 34.4809 80.579 34.3158 80.579 34.1341C80.579 33.9195 80.48 33.7873 80.2653 33.7873H79.7368V33.8039Z" fill="#4A4F54"/>
</g>
<defs>
<clipPath id="clip0_1740_846">
<rect width="99.0826" height="36" fill="white" transform="translate(0.503906)"/>
</clipPath>
</defs>
</svg>
