<svg width="24" height="24" viewBox="0 0 24 24" fill="none" xmlns="http://www.w3.org/2000/svg">
<path d="M18.6872 18.6912H15.8736V14.2824C15.8736 13.231 15.8523 11.8781 14.4075 11.8781C12.9405 11.8781 12.7165 13.022 12.7165 14.2048V18.6912H9.90287V9.625H12.6056V10.8608H12.642C13.0197 10.1483 13.938 9.39621 15.31 9.39621C18.1608 9.39621 18.688 11.2725 18.688 13.7148L18.6872 18.6912ZM6.72512 8.38446C6.51043 8.38477 6.29778 8.34269 6.09939 8.26062C5.90099 8.17856 5.72075 8.05813 5.56901 7.90624C5.41727 7.75435 5.29702 7.574 5.21514 7.37552C5.13327 7.17705 5.0914 6.96436 5.09192 6.74967C5.09207 6.42649 5.18806 6.11062 5.36774 5.842C5.54741 5.57338 5.80271 5.36407 6.10134 5.24054C6.39998 5.11701 6.72854 5.08481 7.04547 5.14801C7.3624 5.21121 7.65348 5.36698 7.88189 5.59561C8.1103 5.82424 8.26578 6.11546 8.32867 6.43246C8.39157 6.74945 8.35905 7.07798 8.23523 7.37649C8.11141 7.67501 7.90186 7.9301 7.63306 8.10952C7.36426 8.28894 7.0483 8.38461 6.72512 8.38446ZM8.13588 18.6912H5.31438V9.625H8.13588V18.6912ZM20.0948 2.5H3.90204C3.127 2.5 2.5 3.11275 2.5 3.86879V20.1312C2.5 20.888 3.127 21.5 3.90204 21.5H20.0924C20.8667 21.5 21.5 20.888 21.5 20.1312V3.86879C21.5 3.11275 20.8667 2.5 20.0924 2.5H20.0948Z" fill="white"/>
</svg>
