<svg width="125" height="36" viewBox="0 0 125 36" fill="none" xmlns="http://www.w3.org/2000/svg">
<g clip-path="url(#clip0_1740_815)">
<path d="M124.444 22.6699C123.054 25.7799 121.644 28.8699 120.274 31.9899C119.854 32.9399 119.454 33.7699 118.164 33.5699C117.614 33.4799 117.024 33.3499 117.474 32.7399C119.634 29.8399 117.374 27.5599 116.474 25.0799C116.154 24.1699 115.474 23.3799 115.474 22.3399C119.404 21.2199 118.334 25.1999 120.004 26.5899C121.424 25.0999 120.644 21.3099 124.404 22.1799L124.444 22.6699Z" fill="#264767"/>
<path d="M16.5038 1.42039C17.5038 1.53039 18.6538 -0.429608 19.0838 1.06039C19.5138 2.55039 20.2938 4.68039 18.0838 5.88039C14.9138 7.63039 11.7238 9.35039 8.08382 11.3404C10.8324 12.9202 13.6668 14.3457 16.5738 15.6104C19.1638 16.6104 19.5238 18.2604 19.3338 20.5504C19.2438 21.7504 18.8738 21.9804 17.8138 21.4404C16.0038 20.5104 14.1638 19.6404 12.0538 18.6204C12.0538 20.6204 12.1038 22.3604 12.0538 24.0504C12.0538 25.0504 12.5838 25.4804 13.3838 25.8604C15.9938 27.1004 18.6038 28.3404 21.1538 29.6804C21.5737 29.9376 22.0564 30.0738 22.5488 30.0738C23.0412 30.0738 23.524 29.9376 23.9438 29.6804C25.3938 28.9004 26.9438 28.2204 28.3838 27.5004C33.5938 24.9704 33.5938 24.9704 32.7238 18.7604C30.9138 19.6504 29.1438 20.4904 27.4038 21.3904C26.2838 21.9804 25.8538 21.8304 25.7238 20.4704C25.5238 18.2204 25.9738 16.6704 28.3938 15.7204C31.2038 14.6204 33.8038 13.0304 36.9638 11.4204L27.5038 6.25039C26.0038 5.40039 25.0038 2.51039 25.8038 1.00039C26.4638 -0.229608 27.2038 1.25039 27.9138 1.00039C32.3338 3.39039 36.6938 5.89039 41.2038 8.11039C42.8938 8.95039 42.7538 10.1104 42.8238 11.5104C42.8938 12.9104 42.6638 13.9704 41.1638 14.3404C37.7538 15.2004 36.8438 17.5404 37.4638 20.6204C38.6338 26.3604 36.2438 29.6904 30.6938 31.4304C27.8138 32.3404 25.1638 34.9304 22.3938 34.9604C19.6238 34.9904 17.1538 32.3304 14.3938 31.4704C8.69382 29.7304 6.26382 26.3404 7.51382 20.4704C8.19382 17.2904 7.02382 15.1504 3.74382 14.2504C3.14079 14.1448 2.60203 13.8099 2.2404 13.3159C1.87876 12.8219 1.72231 12.2072 1.80382 11.6004C1.86382 10.1204 1.99382 9.07039 3.59382 8.28039C7.95382 6.12039 12.1838 3.72039 16.5038 1.42039Z" fill="#FE9F00"/>
<path d="M66.1741 10.75C65.8941 9.62996 66.7741 8.11996 65.1741 6.88996C64.8941 6.66996 66.1741 4.27996 66.9941 3.07996C67.3627 2.62501 67.8565 2.28791 68.4145 2.11021C68.9724 1.93252 69.5702 1.922 70.1341 2.07996C70.2958 2.10934 70.4404 2.19892 70.5388 2.33066C70.6371 2.46241 70.6819 2.62652 70.6641 2.78996C70.6641 3.30996 70.6641 3.78996 69.9841 3.90996C69.1141 4.03996 68.6041 4.45996 68.7041 5.36996C68.7641 5.91996 69.2641 5.93996 69.7041 5.86996C70.5841 5.70996 71.7041 6.45996 72.2641 5.08996C72.5241 4.36996 72.4441 3.30996 73.6241 3.35996C74.9641 3.42996 74.1741 4.96996 74.6241 5.17996C76.8041 6.24996 77.2441 6.99996 74.7041 8.27995C74.4741 8.39995 73.1241 11.72 75.9141 12.58C76.1497 12.6594 76.3498 12.819 76.4796 13.0311C76.6094 13.2431 76.6605 13.494 76.6241 13.74C76.5341 14.23 76.0641 14.26 75.6841 14.38C73.5941 15.08 72.1341 14.08 72.0141 11.87C71.949 10.9711 71.949 10.0688 72.0141 9.16996C72.1141 7.89996 71.6141 7.48996 70.3141 7.45996C69.0141 7.42996 68.6341 8.02996 68.7141 9.21996C68.7941 10.41 68.7141 11.67 68.7141 12.9C68.7141 13.82 68.6541 14.43 67.4341 14.43C66.2141 14.43 66.0741 13.85 66.1341 12.91C66.2041 12.26 66.1741 11.6 66.1741 10.75Z" fill="#264667"/>
<path d="M57.2439 23.1104C57.2439 23.9304 57.2439 24.7504 57.2439 25.5704C57.1639 29.0004 55.1739 31.0004 51.8739 31.0004C48.5739 31.0004 46.8039 29.0004 46.7539 25.6604C46.7539 23.8504 46.7539 22.0504 46.7539 20.2504C46.7539 19.3504 46.7539 18.7204 48.0139 18.6904C49.2739 18.6604 49.4639 19.3104 49.4339 20.3404C49.4339 22.1404 49.3539 23.9504 49.4339 25.7504C49.5339 27.3404 50.1339 28.7504 52.1139 28.5804C54.0939 28.4104 54.3539 27.1604 54.3539 25.6304C54.3539 23.8304 54.4239 22.0204 54.3539 20.2204C54.2939 19.0004 54.7839 18.7004 55.9439 18.6904C57.1039 18.6804 57.3339 19.2004 57.2739 20.1804C57.2139 21.1604 57.2739 22.1804 57.2739 23.1304L57.2439 23.1104Z" fill="#254666"/>
<path d="M83.894 8.83031C83.394 10.4903 82.984 11.7303 82.664 12.9903C82.434 13.8803 82.084 14.4003 81.024 14.4403C79.964 14.4803 79.564 14.0003 79.304 13.1003C78.604 10.7703 77.884 8.45031 77.124 5.97031C81.604 5.41031 79.524 9.39031 81.124 10.8603C82.064 9.96031 81.974 8.52031 82.394 7.30031C82.674 6.49031 82.884 5.82031 84.004 5.82031C85.124 5.82031 85.334 6.59031 85.564 7.37031C85.934 8.58031 86.284 9.81031 86.804 11.6203C87.294 9.62031 87.664 8.32031 87.924 6.99031C88.184 5.66031 89.044 5.66031 89.924 5.88031C91.294 6.20031 90.314 7.04031 90.164 7.60031C89.694 9.33031 89.164 11.0403 88.594 12.7503C88.324 13.6103 88.194 14.4203 86.894 14.4303C85.594 14.4403 85.304 13.6203 85.054 12.6203C84.804 11.6203 84.394 10.4403 83.894 8.83031Z" fill="#264667"/>
<path d="M49.9338 14.6101C48.8882 14.5607 47.8652 14.288 46.9338 13.8101C46.3438 13.4801 45.7238 13.1701 46.2438 12.3201C46.6738 11.6301 47.1238 11.1601 48.0338 11.6801C48.6101 12.0003 49.2351 12.2232 49.8838 12.3401C50.0617 12.3994 50.2496 12.4229 50.4366 12.4092C50.6237 12.3955 50.8061 12.3448 50.9735 12.2602C51.1408 12.1756 51.2898 12.0587 51.4117 11.9162C51.5336 11.7738 51.6261 11.6085 51.6838 11.4301C51.9638 10.5501 51.4638 10.0301 50.6838 9.74013C50.2138 9.58013 49.7438 9.44013 49.2638 9.30013C47.1438 8.68013 45.9438 7.36013 46.4138 5.12013C46.8838 2.88013 48.6138 2.20013 50.6838 2.12013C51.1807 2.11902 51.6731 2.2141 52.1338 2.40013C52.9138 2.69013 54.1838 2.68013 53.9438 3.91013C53.7038 5.14013 52.7338 5.07013 51.6438 4.62013C50.7438 4.25013 49.4538 4.04013 49.0838 5.26013C48.7138 6.48013 50.0438 6.73013 50.9638 7.00013C53.0638 7.69013 54.8338 8.63013 54.3838 11.3101C54.0338 13.3601 52.3838 14.6201 49.9338 14.6101Z" fill="#264767"/>
<path d="M58.8938 26.3899C58.8938 25.6599 58.8938 24.9199 58.8938 24.1899C58.7638 22.5099 59.2338 21.4999 61.0638 22.4999C61.8938 22.9499 62.2638 22.3199 62.8438 22.1999C65.2438 21.6899 66.6838 22.7399 66.8438 25.1999C66.9138 26.5899 66.8438 27.9799 66.8438 29.3699C66.8438 30.2899 66.7438 30.9399 65.5338 30.8899C64.3238 30.8399 64.3138 30.0899 64.3238 29.2199C64.3238 27.9999 64.3238 26.7699 64.3238 25.5499C64.3238 24.7499 64.0538 24.0699 63.0738 24.0799C62.8683 24.0496 62.6586 24.0656 62.4601 24.127C62.2617 24.1883 62.0795 24.2933 61.9269 24.4344C61.7744 24.5754 61.6554 24.7488 61.5787 24.9418C61.502 25.1349 61.4696 25.3427 61.4838 25.5499C61.4838 26.7799 61.4838 27.9999 61.4838 29.2299C61.4838 30.0399 61.6138 30.8899 60.3038 30.8899C59.1438 30.8899 58.9438 30.2699 58.9738 29.3299C59.0038 28.3899 58.9038 27.3699 58.8938 26.3899Z" fill="#294969"/>
<path d="M77.0238 27.4205C77.4338 26.1205 77.8838 24.8205 78.2538 23.4905C78.2896 23.2434 78.3814 23.0078 78.5221 22.8015C78.6628 22.5953 78.8488 22.4239 79.0658 22.3005C79.2829 22.177 79.5252 22.1047 79.7744 22.0891C80.0236 22.0735 80.273 22.1151 80.5038 22.2105C81.8938 22.6605 80.7238 23.5505 80.5638 24.1005C80.0138 25.8805 79.2538 27.6005 78.5638 29.3505C78.2338 30.2105 77.8938 30.9505 76.6938 30.9005C75.4938 30.8505 75.3338 30.2605 75.0338 29.4305C74.3038 27.4305 73.4838 25.4905 72.7238 23.5205C72.5738 23.1505 72.4838 22.7605 72.3438 22.2905C76.8637 21.5005 74.9238 26.0005 77.0238 27.4205Z" fill="#284869"/>
<path d="M101.144 22.0707C101.544 22.0893 101.94 22.1565 102.324 22.2707C102.834 22.4407 103.594 22.6007 103.454 23.3407C103.314 24.0807 102.714 24.3407 101.934 24.1407C101.154 23.9407 100.094 23.3807 99.874 24.5307C99.724 25.3007 100.874 25.4207 101.564 25.6607C102.814 26.0907 103.824 26.7507 103.714 28.2707C103.68 28.8963 103.432 29.4911 103.011 29.9554C102.591 30.4197 102.023 30.7252 101.404 30.8207C100.731 31.0448 100.012 31.0972 99.3139 30.9732C98.6153 30.8492 97.9588 30.5528 97.404 30.1107C96.684 29.4807 97.504 28.9007 98.074 28.7207C98.464 28.6007 98.994 28.9707 99.474 29.0407C99.954 29.1107 100.914 29.4407 101.154 28.5707C101.344 27.8507 100.614 27.6807 100.064 27.5107L99.594 27.3407C98.124 26.8707 96.994 26.0607 97.294 24.3407C97.594 22.6207 98.954 22.0007 101.144 22.0707Z" fill="#284868"/>
<path d="M112.874 31.0005C111.114 30.9105 110.404 30.0005 110.184 28.3405C109.964 26.6805 111.074 24.7205 109.084 23.4205C108.844 23.2605 111.534 19.5505 111.704 19.7205C112.824 20.8405 113.874 22.0405 114.904 23.2405C114.904 23.2405 114.684 23.6305 114.514 23.7505C112.104 25.3905 112.044 27.3705 114.334 29.0905C114.624 29.3105 114.994 29.8405 114.914 30.0905C114.504 31.0005 113.594 30.8305 112.874 31.0005Z" fill="#2B4A6A"/>
<path d="M91.1136 26.5103C91.1136 25.8603 91.1136 25.2003 91.1136 24.5103C91.1136 22.9503 90.7936 20.9403 93.4536 22.7203C94.2036 23.2203 94.4536 22.0703 95.1336 22.1103C95.8136 22.1503 96.3836 21.7903 96.5336 22.6303C96.6336 23.1603 96.7436 24.1003 96.1836 24.1703C92.4336 24.6103 93.8036 27.4403 93.6936 29.4303C93.6036 31.2703 92.5036 31.0003 91.5036 30.7403C90.8736 30.5603 91.1136 29.7403 91.0936 29.2003C91.0936 28.3003 91.0936 27.4103 91.0936 26.5103H91.1136Z" fill="#284868"/>
<path d="M100.424 10.0003C100.424 9.19027 100.424 8.37027 100.424 7.55027C100.314 5.92027 101.164 5.28027 102.424 6.22027C103.424 6.99027 103.654 5.90027 104.254 5.81027C104.854 5.72027 105.484 5.49027 105.784 6.11027C106.084 6.73027 106.034 7.79027 105.474 7.85027C101.774 8.22027 103.294 10.9803 102.994 12.8503C102.884 13.5603 103.114 14.3603 101.994 14.4003C101.054 14.4003 100.374 14.3403 100.444 13.1403C100.514 11.9403 100.424 11.0003 100.424 10.0003Z" fill="#284869"/>
<path d="M68.684 26.5003C68.684 25.4503 68.684 24.3903 68.684 23.3403C68.684 22.2903 69.134 22.1603 70.024 22.1403C70.914 22.1203 71.284 22.5303 71.264 23.4403C71.264 25.4403 71.264 27.4403 71.264 29.5203C71.264 30.3803 71.084 30.8703 70.054 30.8903C69.024 30.9103 68.644 30.4003 68.684 29.4203C68.724 28.4403 68.684 27.4203 68.684 26.5003Z" fill="#274768"/>
<path d="M107.684 26.4903C107.684 27.5503 107.684 28.6203 107.684 29.6803C107.684 30.4603 107.424 30.9103 106.534 30.8903C105.644 30.8703 105.074 30.7303 105.094 29.6903C105.134 27.557 105.134 25.427 105.094 23.3003C105.094 22.2203 105.714 22.1703 106.534 22.1503C107.354 22.1303 107.734 22.4503 107.704 23.2903C107.704 24.3603 107.704 25.4203 107.704 26.4903H107.684Z" fill="#2C4B6B"/>
<path d="M108.044 19.5207C107.964 20.6107 107.464 21.1607 106.504 21.2107C106.324 21.2374 106.141 21.2266 105.966 21.1792C105.79 21.1318 105.627 21.0487 105.485 20.9351C105.343 20.8215 105.227 20.6799 105.142 20.5191C105.058 20.3584 105.007 20.1819 104.994 20.0007C104.949 19.8004 104.95 19.5926 104.996 19.3925C105.042 19.1924 105.132 19.005 105.259 18.8441C105.386 18.6831 105.548 18.5526 105.732 18.4621C105.917 18.3716 106.119 18.3233 106.324 18.3207C107.324 18.1507 107.754 18.8507 108.044 19.5207Z" fill="#31506E"/>
<path d="M69.8338 18.2502C70.0408 18.225 70.2507 18.2435 70.45 18.3044C70.6493 18.3654 70.8336 18.4675 70.991 18.6042C71.1484 18.7408 71.2754 18.909 71.3637 19.0978C71.452 19.2866 71.4998 19.4918 71.5038 19.7002C71.5203 19.9044 71.4923 20.1098 71.4219 20.3022C71.3514 20.4946 71.2402 20.6695 71.0958 20.8149C70.9514 20.9602 70.7772 21.0726 70.5853 21.1443C70.3934 21.216 70.1882 21.2453 69.9838 21.2302C69.7987 21.2561 69.6101 21.2418 69.4309 21.1881C69.2518 21.1345 69.0863 21.0428 68.9459 20.9194C68.8054 20.796 68.6932 20.6438 68.6169 20.4731C68.5406 20.3024 68.502 20.1172 68.5038 19.9302C68.4681 19.7308 68.4752 19.5261 68.5246 19.3296C68.5739 19.1331 68.6645 18.9493 68.7903 18.7905C68.916 18.6316 69.0741 18.5013 69.254 18.4082C69.4339 18.3151 69.6316 18.2612 69.8338 18.2502Z" fill="#2C4B6B"/>
<path fill-rule="evenodd" clip-rule="evenodd" d="M59.9442 14.5399C62.6642 14.5399 64.3042 12.7999 64.3042 9.99994C64.3428 9.40435 64.2519 8.80747 64.0378 8.25039C63.8236 7.69332 63.4912 7.18928 63.0635 6.77299C62.6358 6.35671 62.123 6.03807 61.5603 5.83901C60.9976 5.63995 60.3985 5.56521 59.8042 5.61994C59.224 5.60373 58.6467 5.70826 58.109 5.92688C57.5713 6.14551 57.0849 6.47347 56.6807 6.88997C56.2764 7.30647 55.9631 7.80242 55.7605 8.34639C55.558 8.89035 55.4707 9.47046 55.5042 10.0499C55.4619 10.6462 55.5473 11.2446 55.7547 11.8052C55.9622 12.3657 56.2869 12.8756 56.7072 13.3006C57.1275 13.7256 57.6337 14.056 58.1919 14.2698C58.7501 14.4835 59.3475 14.5756 59.9442 14.5399ZM59.9034 12.61C61.5534 12.61 61.6934 11.26 61.7434 9.99997C61.6934 8.80997 61.4134 7.56997 59.9534 7.52997C58.3234 7.52997 58.1334 8.94997 58.1434 10.17C58.1534 11.39 58.4234 12.61 59.9034 12.61Z" fill="#264667"/>
<path fill-rule="evenodd" clip-rule="evenodd" d="M82.3777 23.5577C81.7179 24.3619 81.4038 25.3948 81.5042 26.4302C81.5042 29.2702 83.3642 31.1302 86.1542 30.9302C87.4442 30.8502 89.4442 30.6902 89.2842 29.2902C89.1483 28.0816 88.322 28.3919 87.4636 28.7144C87.1217 28.8428 86.7747 28.9731 86.4642 29.0102C85.3742 29.1402 84.4442 28.6702 84.3742 27.7302C84.2979 26.773 84.8904 26.8694 85.4774 26.9649C85.7368 27.0072 85.9951 27.0492 86.1942 27.0002C86.767 26.9049 87.3515 26.9049 87.9242 27.0002C89.6542 27.1802 89.8642 26.2202 89.5842 24.8902C89.1642 22.8902 87.3942 21.8302 85.0242 22.1402C83.9892 22.2438 83.0375 22.7536 82.3777 23.5577ZM86.4838 23.9301C85.3038 23.4801 84.6338 24.0201 84.1138 25.4801C84.4942 25.455 84.8658 25.504 85.2197 25.5506C85.9915 25.6524 86.6796 25.7431 87.1938 25.0301C87.4838 24.6501 86.9738 24.1201 86.4838 23.9301Z" fill="#294969"/>
<path fill-rule="evenodd" clip-rule="evenodd" d="M106.624 12.16C107.404 13.94 108.954 14.6 110.824 14.6C110.987 14.6201 111.151 14.6201 111.314 14.6C111.574 14.5212 111.879 14.4749 112.189 14.4279C113.178 14.278 114.215 14.1208 113.994 12.88C113.785 11.7079 113.008 12.0404 112.242 12.3681C111.943 12.4961 111.645 12.6234 111.384 12.66C110.274 12.83 109.214 12.47 109.104 11.36C108.977 10.3514 109.606 10.4422 110.219 10.5306C110.476 10.5676 110.729 10.6042 110.924 10.56C111.494 10.4699 112.074 10.4699 112.644 10.56C114.504 10.75 114.764 9.82997 114.254 8.34997C114.094 7.75574 113.777 7.21588 113.335 6.78794C112.893 6.36 112.343 6.06002 111.744 5.91997C110.954 5.6689 110.109 5.65243 109.31 5.87254C108.511 6.09265 107.793 6.53989 107.244 7.15997C106.652 7.83579 106.277 8.67349 106.166 9.56482C106.056 10.4561 106.215 11.3601 106.624 12.16ZM111.354 7.62998C110.284 7.13998 109.524 7.46998 108.934 8.91998C109.291 8.91075 109.638 8.97248 109.971 9.03154C110.719 9.16449 111.391 9.28395 111.924 8.54998C112.164 8.21998 111.724 7.79998 111.354 7.62998Z" fill="#284868"/>
<path fill-rule="evenodd" clip-rule="evenodd" d="M98.604 13.3206V11.1206C98.5706 10.6309 98.5773 10.1393 98.624 9.65064C99.164 6.57064 96.394 4.41064 92.534 6.25064C92.5017 6.26682 92.4686 6.28305 92.4352 6.29944C91.9529 6.53631 91.3986 6.80854 91.754 7.50064C91.8001 7.64101 91.8767 7.76943 91.9783 7.87666C92.0799 7.9839 92.204 8.06729 92.3417 8.12084C92.4794 8.17438 92.6273 8.19676 92.7746 8.18635C92.922 8.17594 93.0652 8.13301 93.194 8.06064C93.5713 7.88993 93.9628 7.75273 94.364 7.65064C95.204 7.45064 95.874 7.66064 96.044 8.58064C96.1988 9.42059 95.7075 9.42451 95.2221 9.42839C95.0488 9.42978 94.8762 9.43116 94.734 9.47064C94.0124 9.63488 93.3011 9.84191 92.604 10.0906C92.0464 10.2704 91.5804 10.6598 91.3043 11.1766C91.0282 11.6933 90.9636 12.2971 91.124 12.8606C91.394 14.1306 92.414 14.4706 93.544 14.5606C94.0793 14.6062 94.6116 14.4385 95.1542 14.2676C96.041 13.9882 96.9552 13.7002 97.954 14.3206C98.474 14.6406 98.604 13.8006 98.604 13.3206ZM93.6336 12.0807C93.5336 12.7407 94.0236 12.8707 94.6336 12.8707C95.3236 12.8107 96.0136 12.6107 96.1436 11.7007C96.2536 11.0607 95.9436 10.8207 95.2536 10.9507C95.1944 10.9618 95.1341 10.9725 95.0734 10.9832C94.4265 11.0974 93.725 11.2213 93.6336 12.0807Z" fill="#274768"/>
</g>
<defs>
<clipPath id="clip0_1740_815">
<rect width="124" height="36" fill="white" transform="translate(0.503906)"/>
</clipPath>
</defs>
</svg>
