<svg width="56" height="57" viewBox="0 0 56 57" fill="none" xmlns="http://www.w3.org/2000/svg">
<path d="M4.96523 36.939C3.9007 30.0195 2.83618 23.1002 1.77165 16.1807C1.53558 14.6468 3.28085 13.6007 4.5223 14.5318C7.8389 17.0193 11.1553 19.5066 14.4719 21.994C15.5639 22.813 17.1197 22.5465 17.8767 21.4107L26.16 8.98575C27.0354 7.67272 28.9646 7.67272 29.8399 8.98575L38.1232 21.4107C38.8802 22.5465 40.436 22.8128 41.528 21.994C44.8446 19.5066 48.161 17.0193 51.4776 14.5318C52.7191 13.6007 54.4643 14.6468 54.2284 16.1807C53.1639 23.1002 52.0994 30.0195 51.0349 36.939H4.96523Z" fill="#FF0000"/>
<path d="M48.6329 48.4564H7.36721C6.04071 48.4564 4.96533 47.3811 4.96533 46.0546V40.7783H51.035V46.0546C51.0348 47.3811 49.9594 48.4564 48.6329 48.4564Z" fill="#BF0000"/>
</svg>
