<svg width="14" height="16" viewBox="0 0 14 16" fill="none" xmlns="http://www.w3.org/2000/svg">
<path d="M10.8333 2.3793C10.2637 1.72898 9.94977 0.893824 9.95001 0.0292969H7.37501V10.3626C7.35515 10.9218 7.11907 11.4515 6.71648 11.8401C6.31389 12.2287 5.77621 12.4459 5.21667 12.446C4.03334 12.446 3.05001 11.4793 3.05001 10.2793C3.05001 8.84596 4.43334 7.77096 5.85834 8.21263V5.5793C2.98334 5.19596 0.466675 7.4293 0.466675 10.2793C0.466675 13.0543 2.76668 15.0293 5.20834 15.0293C7.82501 15.0293 9.95001 12.9043 9.95001 10.2793V5.03763C10.9942 5.78751 12.2478 6.18984 13.5333 6.18763V3.61263C13.5333 3.61263 11.9667 3.68763 10.8333 2.3793Z" fill="#FF0000"/>
</svg>
