<svg width="52" height="53" viewBox="0 0 52 53" fill="none" xmlns="http://www.w3.org/2000/svg">
<path d="M42.2491 0.894531C40.8673 0.894575 39.5012 1.18837 38.2414 1.75643C36.9817 2.32449 35.8571 3.15384 34.9422 4.1895C34.0274 5.22516 33.3431 6.44347 32.9348 7.76365C32.5264 9.08383 32.4034 10.4757 32.5739 11.8471L16.5188 19.8746C15.1416 18.5465 13.404 17.6529 11.5225 17.3053C9.64111 16.9576 7.69895 17.1712 5.93802 17.9194C4.17709 18.6676 2.67522 19.9174 1.61949 21.513C0.563752 23.1087 0.000823975 24.9797 0.000823975 26.893C0.000823975 28.8063 0.563752 30.6773 1.61949 32.2729C2.67522 33.8686 4.17709 35.1184 5.93802 35.8666C7.69895 36.6148 9.64111 36.8284 11.5225 36.4807C13.404 36.133 15.1416 35.2395 16.5188 33.9114L32.5739 41.9389C32.2895 44.2212 32.8211 46.5305 34.0746 48.4588C35.3282 50.3871 37.2231 51.8101 39.4244 52.4764C41.6257 53.1427 43.9917 53.0094 46.1042 52.1C48.2167 51.1906 49.9398 49.5637 50.9688 47.5068C51.9978 45.4499 52.2666 43.0955 51.7276 40.8596C51.1886 38.6237 49.8765 36.6503 48.0233 35.2882C46.1701 33.9261 43.8951 33.263 41.6002 33.4161C39.3054 33.5691 37.1385 34.5285 35.4826 36.1246L19.4276 28.0971C19.5268 27.2985 19.5268 26.4907 19.4276 25.6921L35.4826 17.6646C36.6316 18.772 38.0348 19.5805 39.5692 20.0191C41.1035 20.4577 42.7221 20.513 44.2828 20.1801C45.8435 19.8472 47.2986 19.1363 48.5205 18.1099C49.7423 17.0834 50.6935 15.7727 51.2906 14.2928C51.8878 12.8129 52.1125 11.2091 51.9452 9.62211C51.7778 8.0351 51.2235 6.51344 50.3308 5.19065C49.4382 3.86787 48.2345 2.7844 46.8254 2.03536C45.4163 1.28631 43.8449 0.894573 42.2491 0.894531Z" fill="#323232"/>
</svg>
