<svg width="48" height="49" viewBox="0 0 48 49" fill="none" xmlns="http://www.w3.org/2000/svg">
<path d="M44 0.894531H4C2.93913 0.894531 1.92172 1.31596 1.17157 2.0661C0.421427 2.81625 0 3.83367 0 4.89453V44.8945C0 45.9554 0.421427 46.9728 1.17157 47.723C1.92172 48.4731 2.93913 48.8945 4 48.8945H31.1725C31.6979 48.8954 32.2182 48.7922 32.7035 48.591C33.1888 48.3897 33.6294 48.0944 34 47.722L46.8275 34.8945C47.1999 34.5239 47.4952 34.0833 47.6964 33.598C47.8977 33.1127 48.0009 32.5924 48 32.067V4.89453C48 3.83367 47.5786 2.81625 46.8284 2.0661C46.0783 1.31596 45.0609 0.894531 44 0.894531ZM16 14.8945H32C32.5304 14.8945 33.0391 15.1052 33.4142 15.4803C33.7893 15.8554 34 16.3641 34 16.8945C34 17.425 33.7893 17.9337 33.4142 18.3087C33.0391 18.6838 32.5304 18.8945 32 18.8945H16C15.4696 18.8945 14.9609 18.6838 14.5858 18.3087C14.2107 17.9337 14 17.425 14 16.8945C14 16.3641 14.2107 15.8554 14.5858 15.4803C14.9609 15.1052 15.4696 14.8945 16 14.8945ZM24 34.8945H16C15.4696 34.8945 14.9609 34.6838 14.5858 34.3087C14.2107 33.9337 14 33.425 14 32.8945C14 32.3641 14.2107 31.8554 14.5858 31.4803C14.9609 31.1052 15.4696 30.8945 16 30.8945H24C24.5304 30.8945 25.0391 31.1052 25.4142 31.4803C25.7893 31.8554 26 32.3641 26 32.8945C26 33.425 25.7893 33.9337 25.4142 34.3087C25.0391 34.6838 24.5304 34.8945 24 34.8945ZM16 26.8945C15.4696 26.8945 14.9609 26.6838 14.5858 26.3087C14.2107 25.9337 14 25.425 14 24.8945C14 24.3641 14.2107 23.8554 14.5858 23.4803C14.9609 23.1052 15.4696 22.8945 16 22.8945H32C32.5304 22.8945 33.0391 23.1052 33.4142 23.4803C33.7893 23.8554 34 24.3641 34 24.8945C34 25.425 33.7893 25.9337 33.4142 26.3087C33.0391 26.6838 32.5304 26.8945 32 26.8945H16ZM32 44.067V32.8945H43.175L32 44.067Z" fill="#323232"/>
</svg>
