<svg width="40" height="57" viewBox="0 0 40 57" fill="none" xmlns="http://www.w3.org/2000/svg">
<path d="M12 0.894531C11.1605 0.894749 10.3423 1.1591 9.66139 1.65015C8.98046 2.14119 8.47129 2.83403 8.206 3.63053L0.206002 27.6305C0.00577201 28.2317 -0.0487748 28.8718 0.0468556 29.4982C0.142486 30.1246 0.385557 30.7193 0.756047 31.2333C1.12654 31.7474 1.61385 32.1661 2.17784 32.4549C2.74183 32.7437 3.36636 32.8944 4 32.8945H8.83L4.254 50.5445C2.914 55.7185 9.534 59.1045 12.944 54.9885L39.08 23.4465C39.5644 22.8619 39.8724 22.1514 39.968 21.3981C40.0636 20.6449 39.9429 19.88 39.6198 19.1928C39.2968 18.5057 38.7849 17.9247 38.1439 17.5177C37.5029 17.1107 36.7593 16.8946 36 16.8945H29.772L33.746 6.29853C33.9729 5.69333 34.0497 5.04217 33.9699 4.40079C33.8901 3.75941 33.6561 3.14691 33.2879 2.61573C32.9197 2.08455 32.4283 1.6505 31.8556 1.35075C31.283 1.05099 30.6463 0.894451 30 0.894531H12Z" fill="#323232"/>
</svg>
