<svg width="42" height="47" viewBox="0 0 42 47" fill="none" xmlns="http://www.w3.org/2000/svg">
<path fill-rule="evenodd" clip-rule="evenodd" d="M2.33334 34.2283C2.86378 34.2283 3.37248 34.4391 3.74756 34.8141C4.12263 35.1892 4.33334 35.6979 4.33334 36.2283V41.5617C4.33334 41.9297 4.63201 42.2283 5.00001 42.2283H37C37.1768 42.2283 37.3464 42.1581 37.4714 42.0331C37.5964 41.9081 37.6667 41.7385 37.6667 41.5617V36.2283C37.6667 35.6979 37.8774 35.1892 38.2525 34.8141C38.6275 34.4391 39.1362 34.2283 39.6667 34.2283C40.1971 34.2283 40.7058 34.4391 41.0809 34.8141C41.456 35.1892 41.6667 35.6979 41.6667 36.2283V41.5617C41.6667 42.7994 41.175 43.9863 40.2998 44.8615C39.4247 45.7367 38.2377 46.2283 37 46.2283H5.00001C3.76233 46.2283 2.57535 45.7367 1.70018 44.8615C0.825009 43.9863 0.333344 42.7994 0.333344 41.5617V36.2283C0.333344 35.6979 0.544057 35.1892 0.91913 34.8141C1.2942 34.4391 1.80291 34.2283 2.33334 34.2283ZM17.6347 33.9003C16.9725 33.9021 16.3339 33.655 15.8454 33.208C15.3569 32.761 15.0542 32.1467 14.9973 31.487C14.5922 26.8136 14.521 22.1172 14.784 17.4337C14.125 17.3968 13.4663 17.3542 12.808 17.3057L8.83468 17.015C8.48475 16.9894 8.14747 16.8733 7.85584 16.6782C7.56422 16.4831 7.32825 16.2156 7.17101 15.902C7.01378 15.5883 6.94067 15.2392 6.95884 14.8888C6.97701 14.5384 7.08584 14.1987 7.27468 13.903C10.1087 9.47247 13.7571 5.61952 18.0267 2.54834L19.6187 1.40434C20.0216 1.11598 20.5046 0.960938 21 0.960938C21.4954 0.960938 21.9785 1.11598 22.3813 1.40434L23.9733 2.55101C28.2426 5.6214 31.8911 9.47343 34.7253 13.903C34.9142 14.1987 35.023 14.5384 35.0412 14.8888C35.0593 15.2392 34.9862 15.5883 34.829 15.902C34.6718 16.2156 34.4358 16.4831 34.1442 16.6782C33.8525 16.8733 33.5153 16.9894 33.1653 17.015L29.192 17.3057C28.5342 17.3537 27.8764 17.3955 27.2187 17.431C27.4853 22.1163 27.4107 26.8123 27 31.4843C26.9438 32.1441 26.6418 32.7586 26.1538 33.2061C25.6658 33.6536 25.0275 33.9014 24.3653 33.9003H17.6347Z" fill="#323232"/>
</svg>
