<svg width="48" height="49" viewBox="0 0 48 49" fill="none" xmlns="http://www.w3.org/2000/svg">
<path d="M2.66667 27.5612H18.6667C20.1333 27.5612 21.3333 26.3612 21.3333 24.8945V3.5612C21.3333 2.09453 20.1333 0.894531 18.6667 0.894531H2.66667C1.2 0.894531 0 2.09453 0 3.5612V24.8945C0 26.3612 1.2 27.5612 2.66667 27.5612ZM2.66667 48.8945H18.6667C20.1333 48.8945 21.3333 47.6945 21.3333 46.2279V35.5612C21.3333 34.0945 20.1333 32.8945 18.6667 32.8945H2.66667C1.2 32.8945 0 34.0945 0 35.5612V46.2279C0 47.6945 1.2 48.8945 2.66667 48.8945ZM29.3333 48.8945H45.3333C46.8 48.8945 48 47.6945 48 46.2279V24.8945C48 23.4279 46.8 22.2279 45.3333 22.2279H29.3333C27.8667 22.2279 26.6667 23.4279 26.6667 24.8945V46.2279C26.6667 47.6945 27.8667 48.8945 29.3333 48.8945ZM26.6667 3.5612V14.2279C26.6667 15.6945 27.8667 16.8945 29.3333 16.8945H45.3333C46.8 16.8945 48 15.6945 48 14.2279V3.5612C48 2.09453 46.8 0.894531 45.3333 0.894531H29.3333C27.8667 0.894531 26.6667 2.09453 26.6667 3.5612Z" fill="#323232"/>
</svg>
