<svg width="14" height="16" viewBox="0 0 14 16" fill="none" xmlns="http://www.w3.org/2000/svg">
<path d="M13.7969 14.7051C13.7431 14.8031 13.6639 14.8849 13.5677 14.9419C13.4715 14.9989 13.3618 15.0291 13.25 15.0293H9.5C9.39481 15.0293 9.29133 15.0027 9.19915 14.952C9.10697 14.9014 9.02906 14.8282 8.97265 14.7395L5.80937 9.76836L1.2125 14.8246C1.10044 14.945 0.945448 15.0163 0.781129 15.0232C0.61681 15.0301 0.456407 14.9719 0.334696 14.8613C0.212985 14.7507 0.139776 14.5966 0.130941 14.4323C0.122106 14.2681 0.178357 14.107 0.287499 13.984L5.11328 8.67148L0.222655 0.990234C0.162422 0.895737 0.128704 0.786783 0.125031 0.674782C0.121358 0.56278 0.147865 0.451852 0.201778 0.353611C0.255691 0.25537 0.335025 0.173432 0.431473 0.116375C0.527922 0.0593182 0.637937 0.0292425 0.749999 0.0292969H4.5C4.60519 0.0293295 4.70867 0.0559103 4.80085 0.106576C4.89303 0.157243 4.97093 0.230355 5.02734 0.319141L8.19062 5.29023L12.7875 0.233984C12.8996 0.113608 13.0545 0.0422527 13.2189 0.0353874C13.3832 0.028522 13.5436 0.0867005 13.6653 0.197309C13.787 0.307918 13.8602 0.462042 13.8691 0.626267C13.8779 0.790492 13.8216 0.951581 13.7125 1.07461L8.88672 6.3832L13.7773 14.0691C13.8372 14.1637 13.8706 14.2726 13.8741 14.3844C13.8775 14.4963 13.8509 14.607 13.7969 14.7051Z" fill="#FF0000"/>
</svg>
