<svg width="18" height="15" viewBox="0 0 18 15" fill="none" xmlns="http://www.w3.org/2000/svg">
<path d="M9.20332 0.863281C9.64832 0.865781 10.7617 0.876615 11.945 0.924115L12.365 0.942448C13.5558 0.998281 14.7458 1.09495 15.3367 1.25911C16.1242 1.48078 16.7425 2.12578 16.9517 2.94411C17.285 4.24411 17.3267 6.77911 17.3317 7.39328L17.3325 7.51995V7.66495C17.3267 8.27911 17.285 10.8149 16.9517 12.1141C16.74 12.9349 16.1208 13.5808 15.3367 13.7991C14.7458 13.9633 13.5558 14.0599 12.365 14.1158L11.945 14.1349C10.7617 14.1816 9.64832 14.1933 9.20332 14.1949L9.00749 14.1958H8.79499C7.85332 14.1899 3.91499 14.1474 2.66166 13.7991C1.87499 13.5774 1.25582 12.9324 1.04666 12.1141C0.713323 10.8141 0.671656 8.27911 0.666656 7.66495V7.39328C0.671656 6.77911 0.713323 4.24328 1.04666 2.94411C1.25832 2.12328 1.87749 1.47745 2.66249 1.25995C3.91499 0.910781 7.85416 0.868281 8.79582 0.863281H9.20332ZM7.33249 4.61328V10.4466L12.3325 7.52995L7.33249 4.61328Z" fill="#FF0000"/>
</svg>
