<svg width="31" height="30" viewBox="0 0 31 30" fill="none" xmlns="http://www.w3.org/2000/svg">
<path d="M15.5 22.5C17.4891 22.5 19.3968 21.7098 20.8033 20.3033C22.2098 18.8968 23 16.9891 23 15C23 13.0109 22.2098 11.1032 20.8033 9.6967C19.3968 8.29018 17.4891 7.5 15.5 7.5C13.5109 7.5 11.6032 8.29018 10.1967 9.6967C8.79018 11.1032 8 13.0109 8 15C8 16.9891 8.79018 18.8968 10.1967 20.3033C11.6032 21.7098 13.5109 22.5 15.5 22.5ZM15.5 3C12.3174 3 9.26516 4.26428 7.01472 6.51472C4.76428 8.76516 3.5 11.8174 3.5 15C3.5 18.1826 4.76428 21.2348 7.01472 23.4853C9.26516 25.7357 12.3174 27 15.5 27C18.6826 27 21.7348 25.7357 23.9853 23.4853C26.2357 21.2348 27.5 18.1826 27.5 15C27.5 11.8174 26.2357 8.76516 23.9853 6.51472C21.7348 4.26428 18.6826 3 15.5 3ZM5 15C5 13.6211 5.27159 12.2557 5.79926 10.9818C6.32694 9.70791 7.10036 8.55039 8.07538 7.57538C9.05039 6.60036 10.2079 5.82694 11.4818 5.29926C12.7557 4.77159 14.1211 4.5 15.5 4.5C16.8789 4.5 18.2443 4.77159 19.5182 5.29926C20.7921 5.82694 21.9496 6.60036 22.9246 7.57538C23.8996 8.55039 24.6731 9.70791 25.2007 10.9818C25.7284 12.2557 26 13.6211 26 15C26 17.7848 24.8938 20.4555 22.9246 22.4246C20.9555 24.3938 18.2848 25.5 15.5 25.5C12.7152 25.5 10.0445 24.3938 8.07538 22.4246C6.10625 20.4555 5 17.7848 5 15Z" fill="#121212"/>
</svg>
