<svg width="48" height="48" viewBox="0 0 48 48" fill="none" xmlns="http://www.w3.org/2000/svg">
<path d="M17.114 27H9.364C8.33719 27.0058 7.35441 27.4178 6.6304 28.1459C5.90638 28.8741 5.49999 29.8592 5.5 30.886V38.636C5.49948 39.1436 5.59906 39.6463 5.79306 40.1153C5.98706 40.5844 6.27166 41.0105 6.63057 41.3694C6.98948 41.7283 7.41565 42.0129 7.88469 42.2069C8.35373 42.4009 8.85643 42.5005 9.364 42.5H17.114C18.141 42.5011 19.1265 42.0949 19.8545 41.3707C20.5826 40.6464 20.9938 39.663 20.998 38.636V30.886C20.9985 30.3758 20.8984 29.8705 20.7034 29.399C20.5084 28.9276 20.2223 28.4992 19.8616 28.1384C19.5008 27.7777 19.0724 27.4916 18.601 27.2966C18.1295 27.1016 17.6242 27.0015 17.114 27.002M17.114 5.5H9.364C8.85643 5.49948 8.35373 5.59906 7.88469 5.79306C7.41565 5.98706 6.98948 6.27166 6.63057 6.63057C6.27166 6.98948 5.98706 7.41565 5.79306 7.88469C5.59906 8.35373 5.49948 8.85643 5.5 9.364V17.114C5.49893 18.141 5.90505 19.1265 6.62935 19.8545C7.35365 20.5826 8.33704 20.9938 9.364 20.998H17.114C17.6242 20.9985 18.1295 20.8984 18.601 20.7034C19.0724 20.5084 19.5008 20.2223 19.8616 19.8616C20.2223 19.5008 20.5084 19.0724 20.7034 18.601C20.8984 18.1295 20.9985 17.6242 20.998 17.114V9.364C20.9938 8.33704 20.5826 7.35365 19.8545 6.62935C19.1265 5.90505 18.141 5.49893 17.114 5.5ZM38.636 5.5H30.886C29.859 5.49893 28.8735 5.90505 28.1455 6.62935C27.4174 7.35365 27.0062 8.33704 27.002 9.364V17.114C27.0025 18.1439 27.4119 19.1315 28.1402 19.8598C28.8685 20.5881 29.8561 20.9975 30.886 20.998H38.636C39.663 20.9938 40.6464 20.5826 41.3707 19.8545C42.0949 19.1265 42.5011 18.141 42.5 17.114V9.364C42.5005 8.85643 42.4009 8.35373 42.2069 7.88469C42.0129 7.41565 41.7283 6.98948 41.3694 6.63057C41.0105 6.27166 40.5844 5.98706 40.1153 5.79306C39.6463 5.59906 39.1436 5.49948 38.636 5.5ZM34.75 27C32.6946 27 30.7233 27.8165 29.2699 29.2699C27.8165 30.7233 27 32.6946 27 34.75C27 36.8054 27.8165 38.7767 29.2699 40.2301C30.7233 41.6835 32.6946 42.5 34.75 42.5C36.8054 42.5 38.7767 41.6835 40.2301 40.2301C41.6835 38.7767 42.5 36.8054 42.5 34.75C42.5 32.6946 41.6835 30.7233 40.2301 29.2699C38.7767 27.8165 36.8054 27 34.75 27Z" stroke="url(#paint0_linear_0_278)" stroke-width="3" stroke-linecap="round" stroke-linejoin="round"/>
<defs>
<linearGradient id="paint0_linear_0_278" x1="5.5" y1="42.4712" x2="42.5" y2="5.52879" gradientUnits="userSpaceOnUse">
<stop stop-color="#0DFEEB"/>
<stop offset="0.249157" stop-color="#1AC5D8"/>
<stop offset="0.546687" stop-color="#278BC5"/>
<stop offset="1" stop-color="#41199E"/>
</linearGradient>
</defs>
</svg>
