<svg width="303" height="461" viewBox="0 0 303 461" fill="none" xmlns="http://www.w3.org/2000/svg">
<g filter="url(#filter0_di_29_98)">
<g clip-path="url(#clip0_29_98)">
<path d="M0 12C0 5.37258 5.37258 0 12 0H287C293.627 0 299 5.37258 299 12V443C299 449.627 293.627 455 287 455H12C5.37258 455 0 449.627 0 443V12Z" fill="url(#paint0_linear_29_98)"/>
<path d="M0 12C0 5.37258 5.37258 0 12 0H287C293.627 0 299 5.37258 299 12V443C299 449.627 293.627 455 287 455H12C5.37258 455 0 449.627 0 443V12Z" fill="white"/>
<path opacity="0.2" fill-rule="evenodd" clip-rule="evenodd" d="M55.3972 461.01C93.9802 389.177 107.669 291.963 182.18 258.843C256.648 225.743 349.384 254.848 417.054 300.256C474.747 338.97 460.506 433.372 511.918 480.106C573.322 535.924 698.296 509.044 730.752 585.416C761.152 656.948 697.478 738.052 646.457 796.686C601.428 848.432 527.453 854.338 467.594 887.836C399.504 925.941 348.055 1024.59 272.252 1006.1C195.706 987.424 204.035 868.012 150.268 810.416C95.4541 751.697 -18.6476 749.449 -39.6962 671.929C-60.4116 595.635 17.9892 530.655 55.3972 461.01Z" fill="url(#paint1_linear_29_98)"/>
<path opacity="0.2" d="M348.284 126.985C393.381 75.1074 405.795 9.97884 405.795 9.97884L201.135 -242.428L-215.539 95.4254L-8.5722 350.677C-8.5722 350.677 -2.1236 265.011 35.8185 214.866C116.562 108.153 259.091 229.59 348.284 126.985Z" fill="url(#paint2_linear_29_98)"/>
</g>
</g>
<defs>
<filter id="filter0_di_29_98" x="0" y="0" width="303" height="461" filterUnits="userSpaceOnUse" color-interpolation-filters="sRGB">
<feFlood flood-opacity="0" result="BackgroundImageFix"/>
<feColorMatrix in="SourceAlpha" type="matrix" values="0 0 0 0 0 0 0 0 0 0 0 0 0 0 0 0 0 0 127 0" result="hardAlpha"/>
<feOffset dx="4" dy="6"/>
<feComposite in2="hardAlpha" operator="out"/>
<feColorMatrix type="matrix" values="0 0 0 0 0.254902 0 0 0 0 0.0980392 0 0 0 0 0.619608 0 0 0 1 0"/>
<feBlend mode="normal" in2="BackgroundImageFix" result="effect1_dropShadow_29_98"/>
<feBlend mode="normal" in="SourceGraphic" in2="effect1_dropShadow_29_98" result="shape"/>
<feColorMatrix in="SourceAlpha" type="matrix" values="0 0 0 0 0 0 0 0 0 0 0 0 0 0 0 0 0 0 127 0" result="hardAlpha"/>
<feOffset dx="5" dy="6"/>
<feComposite in2="hardAlpha" operator="arithmetic" k2="-1" k3="1"/>
<feColorMatrix type="matrix" values="0 0 0 0 0.4 0 0 0 0 0.788235 0 0 0 0 0.811765 0 0 0 1 0"/>
<feBlend mode="normal" in2="shape" result="effect2_innerShadow_29_98"/>
</filter>
<linearGradient id="paint0_linear_29_98" x1="-10.8387" y1="-2.36077e-06" x2="289.8" y2="461" gradientUnits="userSpaceOnUse">
<stop offset="0.081096" stop-color="#41199E"/>
<stop offset="0.5" stop-color="#400045"/>
<stop offset="1" stop-color="#FF1DF6"/>
</linearGradient>
<linearGradient id="paint1_linear_29_98" x1="159.5" y1="365.5" x2="338" y2="650" gradientUnits="userSpaceOnUse">
<stop stop-color="#41199E" stop-opacity="0.3"/>
<stop offset="1" stop-color="white" stop-opacity="0"/>
</linearGradient>
<linearGradient id="paint2_linear_29_98" x1="3.00002" y1="0.499632" x2="93.8161" y2="264.109" gradientUnits="userSpaceOnUse">
<stop stop-color="#0DFFEB" stop-opacity="0"/>
<stop offset="1" stop-color="#66C9CF" stop-opacity="0.5"/>
</linearGradient>
<clipPath id="clip0_29_98">
<path d="M0 12C0 5.37258 5.37258 0 12 0H287C293.627 0 299 5.37258 299 12V443C299 449.627 293.627 455 287 455H12C5.37258 455 0 449.627 0 443V12Z" fill="white"/>
</clipPath>
</defs>
</svg>
