<svg width="27" height="27" viewBox="0 0 27 27" fill="none" xmlns="http://www.w3.org/2000/svg">
<path d="M18.7 4.41835C20.3591 5.36177 21.7392 6.71558 22.7038 8.34576C23.6684 9.97593 24.1839 11.8259 24.1994 13.7126C24.2149 15.5993 23.7297 17.4573 22.792 19.1026C21.8543 20.7479 20.4966 22.1235 18.8532 23.0932C17.2098 24.0629 15.3377 24.5931 13.4223 24.6313C11.5069 24.6694 9.61462 24.2143 7.93272 23.3109C6.25083 22.4074 4.83767 21.0871 3.83315 19.4805C2.82862 17.8739 2.26756 16.0368 2.20551 14.151L2.20001 13.8L2.20551 13.449C2.26712 11.5781 2.81991 9.75481 3.81002 8.15692C4.80012 6.55904 6.19373 5.24109 7.85499 4.33155C9.51626 3.42202 11.3885 2.95194 13.2891 2.96715C15.1898 2.98237 17.054 3.48234 18.7 4.41835ZM17.2777 10.8674C17.0883 10.6809 16.8363 10.5689 16.569 10.5523C16.3016 10.5357 16.0374 10.6158 15.8257 10.7775L15.7223 10.8674L12.1 14.4338L10.6777 13.0341L10.5743 12.9442C10.3627 12.7826 10.0984 12.7026 9.83116 12.7192C9.56389 12.7358 9.31196 12.8479 9.1226 13.0344C8.93324 13.2209 8.81946 13.469 8.8026 13.7322C8.78574 13.9954 8.86695 14.2556 9.03101 14.4641L9.12231 14.5659L11.3223 16.7326L11.4257 16.8225C11.6186 16.9699 11.8558 17.0499 12.1 17.0499C12.3442 17.0499 12.5814 16.9699 12.7743 16.8225L12.8777 16.7326L17.2777 12.3993L17.369 12.2974C17.5332 12.089 17.6145 11.8287 17.5977 11.5654C17.5809 11.3022 17.4671 11.054 17.2777 10.8674Z" fill="#121212"/>
</svg>
