<svg width="31" height="361" viewBox="0 0 31 361" fill="none" xmlns="http://www.w3.org/2000/svg">
<path d="M16 15.0615V346.062" stroke="#121212" stroke-width="2"/>
<path d="M15.5 22.5C17.4891 22.5 19.3968 21.7098 20.8033 20.3033C22.2098 18.8968 23 16.9891 23 15C23 13.0109 22.2098 11.1032 20.8033 9.6967C19.3968 8.29018 17.4891 7.5 15.5 7.5C13.5109 7.5 11.6032 8.29018 10.1967 9.6967C8.79018 11.1032 8 13.0109 8 15C8 16.9891 8.79018 18.8968 10.1967 20.3033C11.6032 21.7098 13.5109 22.5 15.5 22.5ZM15.5 3C12.3174 3 9.26516 4.26428 7.01472 6.51472C4.76428 8.76516 3.5 11.8174 3.5 15C3.5 18.1826 4.76428 21.2348 7.01472 23.4853C9.26516 25.7357 12.3174 27 15.5 27C18.6826 27 21.7348 25.7357 23.9853 23.4853C26.2357 21.2348 27.5 18.1826 27.5 15C27.5 11.8174 26.2357 8.76516 23.9853 6.51472C21.7348 4.26428 18.6826 3 15.5 3ZM5 15C5 13.6211 5.27159 12.2557 5.79926 10.9818C6.32694 9.70791 7.10036 8.55039 8.07538 7.57538C9.05039 6.60036 10.2079 5.82694 11.4818 5.29926C12.7557 4.77159 14.1211 4.5 15.5 4.5C16.8789 4.5 18.2443 4.77159 19.5182 5.29926C20.7921 5.82694 21.9496 6.60036 22.9246 7.57538C23.8996 8.55039 24.6731 9.70791 25.2007 10.9818C25.7284 12.2557 26 13.6211 26 15C26 17.7848 24.8938 20.4555 22.9246 22.4246C20.9555 24.3938 18.2848 25.5 15.5 25.5C12.7152 25.5 10.0445 24.3938 8.07538 22.4246C6.10625 20.4555 5 17.7848 5 15Z" fill="#121212"/>
<path d="M15.5 173.5C17.4891 173.5 19.3968 172.71 20.8033 171.303C22.2098 169.897 23 167.989 23 166C23 164.011 22.2098 162.103 20.8033 160.697C19.3968 159.29 17.4891 158.5 15.5 158.5C13.5109 158.5 11.6032 159.29 10.1967 160.697C8.79018 162.103 8 164.011 8 166C8 167.989 8.79018 169.897 10.1967 171.303C11.6032 172.71 13.5109 173.5 15.5 173.5ZM15.5 154C12.3174 154 9.26516 155.264 7.01472 157.515C4.76428 159.765 3.5 162.817 3.5 166C3.5 169.183 4.76428 172.235 7.01472 174.485C9.26516 176.736 12.3174 178 15.5 178C18.6826 178 21.7348 176.736 23.9853 174.485C26.2357 172.235 27.5 169.183 27.5 166C27.5 162.817 26.2357 159.765 23.9853 157.515C21.7348 155.264 18.6826 154 15.5 154ZM5 166C5 164.621 5.27159 163.256 5.79926 161.982C6.32694 160.708 7.10036 159.55 8.07538 158.575C9.05039 157.6 10.2079 156.827 11.4818 156.299C12.7557 155.772 14.1211 155.5 15.5 155.5C16.8789 155.5 18.2443 155.772 19.5182 156.299C20.7921 156.827 21.9496 157.6 22.9246 158.575C23.8996 159.55 24.6731 160.708 25.2007 161.982C25.7284 163.256 26 164.621 26 166C26 168.785 24.8938 171.455 22.9246 173.425C20.9555 175.394 18.2848 176.5 15.5 176.5C12.7152 176.5 10.0445 175.394 8.07538 173.425C6.10625 171.455 5 168.785 5 166Z" fill="#121212"/>
<path d="M15.5 353.5C17.4891 353.5 19.3968 352.71 20.8033 351.303C22.2098 349.897 23 347.989 23 346C23 344.011 22.2098 342.103 20.8033 340.697C19.3968 339.29 17.4891 338.5 15.5 338.5C13.5109 338.5 11.6032 339.29 10.1967 340.697C8.79018 342.103 8 344.011 8 346C8 347.989 8.79018 349.897 10.1967 351.303C11.6032 352.71 13.5109 353.5 15.5 353.5ZM15.5 334C12.3174 334 9.26516 335.264 7.01472 337.515C4.76428 339.765 3.5 342.817 3.5 346C3.5 349.183 4.76428 352.235 7.01472 354.485C9.26516 356.736 12.3174 358 15.5 358C18.6826 358 21.7348 356.736 23.9853 354.485C26.2357 352.235 27.5 349.183 27.5 346C27.5 342.817 26.2357 339.765 23.9853 337.515C21.7348 335.264 18.6826 334 15.5 334ZM5 346C5 344.621 5.27159 343.256 5.79926 341.982C6.32694 340.708 7.10036 339.55 8.07538 338.575C9.05039 337.6 10.2079 336.827 11.4818 336.299C12.7557 335.772 14.1211 335.5 15.5 335.5C16.8789 335.5 18.2443 335.772 19.5182 336.299C20.7921 336.827 21.9496 337.6 22.9246 338.575C23.8996 339.55 24.6731 340.708 25.2007 341.982C25.7284 343.256 26 344.621 26 346C26 348.785 24.8938 351.455 22.9246 353.425C20.9555 355.394 18.2848 356.5 15.5 356.5C12.7152 356.5 10.0445 355.394 8.07538 353.425C6.10625 351.455 5 348.785 5 346Z" fill="#121212"/>
</svg>
