<svg width="48" height="48" viewBox="0 0 48 48" fill="none" xmlns="http://www.w3.org/2000/svg">
<path d="M12 4C10.9391 4 9.92172 4.42143 9.17157 5.17157C8.42143 5.92172 8 6.93913 8 8V22.068C8.20832 22.0229 8.42085 22.0001 8.634 22H11V8C11 7.73478 11.1054 7.48043 11.2929 7.29289C11.4804 7.10536 11.7348 7 12 7H24V16C24 17.0609 24.4214 18.0783 25.1716 18.8284C25.9217 19.5786 26.9391 20 28 20H37V40C37 40.2652 36.8946 40.5196 36.7071 40.7071C36.5196 40.8946 36.2652 41 36 41H16.576L13.948 44H36C37.0609 44 38.0783 43.5786 38.8284 42.8284C39.5786 42.0783 40 41.0609 40 40V19.656C39.9998 18.5952 39.5782 17.578 38.828 16.828L27.172 5.172C26.422 4.4218 25.4048 4.00023 24.344 4H12ZM34.76 17H28C27.7348 17 27.4804 16.8946 27.2929 16.7071C27.1054 16.5196 27 16.2652 27 16V9.24L34.76 17ZM8.634 24H18.288C18.4626 24 18.6341 24.0456 18.7856 24.1324C18.9371 24.2193 19.0632 24.3442 19.1513 24.4949C19.2395 24.6456 19.2867 24.8167 19.2882 24.9913C19.2898 25.1659 19.2455 25.3378 19.16 25.49L15.502 32H18.492C18.7803 31.9997 19.0626 32.0826 19.305 32.2386C19.5475 32.3946 19.7399 32.6172 19.8591 32.8797C19.9783 33.1422 20.0194 33.4335 19.9773 33.7188C19.9353 34.004 19.8119 34.2711 19.622 34.488L9.974 45.504C8.964 46.656 7.088 45.674 7.458 44.19L9 38H2.996C2.82743 38.0002 2.66154 37.9578 2.51375 37.8767C2.36596 37.7957 2.24107 37.6785 2.15067 37.5363C2.06027 37.394 2.00731 37.2312 1.9967 37.0629C1.9861 36.8947 2.01819 36.7265 2.09 36.574L7.73 24.574C7.81091 24.4022 7.93909 24.2569 8.09954 24.1553C8.25998 24.0536 8.44406 23.9998 8.634 24Z" fill="url(#paint0_linear_0_265)"/>
<defs>
<linearGradient id="paint0_linear_0_265" x1="20.9974" y1="4" x2="20.9974" y2="46.0088" gradientUnits="userSpaceOnUse">
<stop stop-color="#0DFEEB"/>
<stop offset="0.269255" stop-color="#1AC5D8"/>
<stop offset="0.618777" stop-color="#278BC5"/>
<stop offset="1" stop-color="#41199E"/>
</linearGradient>
</defs>
</svg>
