<svg width="100" height="36" viewBox="0 0 100 36" fill="none" xmlns="http://www.w3.org/2000/svg">
<g clip-path="url(#clip0_1_156)">
<path d="M0.437317 32.5651C0.437317 31.8055 1.98961 30.1211 2.51805 30.1211C3.22814 30.1211 5.14374 32.8459 8.56209 32.8459C10.5603 32.8459 11.7658 31.789 11.7658 30.1211C11.7658 28.222 9.76759 27.5945 7.48869 26.8349C4.51622 25.8606 1.18044 24.7872 1.18044 21.1541C1.18044 17.3395 4.38411 14.9284 9.09053 14.9284C13.4832 14.9284 15.3988 16.8936 15.3988 17.6532C15.3988 18.3633 13.9621 20.0973 13.2685 20.0973C12.7896 20.0973 11.7162 17.967 8.72723 17.967C6.81163 17.967 5.42447 19.0239 5.42447 20.5596C5.42447 22.4587 7.34007 23.0037 9.55291 23.6807C12.5419 24.5725 16.0428 25.5468 16.0428 29.4771C16.0428 33.3908 12.8392 35.9835 8.47952 35.9835C3.80613 36.033 0.437317 33.3248 0.437317 32.5651ZM30.8887 33.8037C29.7327 34.6459 27.4538 36.033 24.5144 36.033C20.7823 36.033 17.9419 34.1174 17.9419 30.2037C17.9419 25.167 22.4667 23.8459 27.8171 22.5413C29.452 22.145 30.3437 21.8312 30.3437 21.1707C30.3437 19.4697 28.9566 18.3303 26.2979 18.3303C23.0942 18.3303 21.0135 20.1138 20.3364 20.1138C20.0226 20.1138 19.9401 19.9486 19.9401 19.5853C19.9401 19.0404 20.1713 17.9835 20.5511 17.0587C20.9474 16.2661 23.7878 14.9119 26.8593 14.9119C32.6061 14.9119 34.7694 17.5046 34.7694 22.6569V30.8973C34.7694 32.1358 35.2483 32.6312 36.2061 32.6807C36.2887 32.6807 37.1309 32.7138 37.1474 32.7138C37.4281 32.7138 37.5437 32.7963 37.5437 33.0275C37.5437 33.7872 35.8593 36 34.4226 36C32.0612 36 30.9547 34.167 30.8887 33.8037ZM26.1823 32.7798C28.4942 32.7798 30.4098 31.3431 30.4098 30.5009V25.2661C30.4098 25.0349 30.2777 24.8697 30.0135 24.8697C29.7327 24.8697 29.1713 25.0018 28.4942 25.1835C25.9511 25.9762 22.3511 26.7853 22.3511 29.7578C22.3511 31.8716 24.019 32.7963 26.1823 32.7798ZM70.6538 33.8037C69.4979 34.6459 67.219 36.033 64.2465 36.033C60.5474 36.033 57.707 34.1174 57.707 30.2037C57.707 25.167 62.2318 23.8459 67.5823 22.5413C69.2171 22.145 70.1089 21.8312 70.1089 21.1707C70.1089 19.4697 68.7217 18.3303 66.063 18.3303C62.8593 18.3303 60.7786 20.1138 60.1015 20.1138C59.7878 20.1138 59.7052 19.9486 59.7052 19.5853C59.7052 19.0404 59.9364 17.9835 60.3162 17.0587C60.7125 16.2661 63.5529 14.9119 66.6245 14.9119C72.3713 14.9119 74.5346 17.5046 74.5346 22.6569V30.8973C74.5346 32.1358 75.0135 32.6312 75.9713 32.6807C76.0538 32.6807 76.896 32.7138 76.9126 32.7138C77.1933 32.7138 77.3089 32.7963 77.3089 33.0275C77.3089 33.7872 75.6245 36 74.1878 36C71.8263 36 70.7199 34.167 70.6538 33.8037ZM65.9144 32.7798C68.2263 32.7798 70.1419 31.3431 70.1419 30.5009V25.2661C70.1419 25.0349 70.0098 24.8697 69.7456 24.8697C69.4648 24.8697 68.9034 25.0018 68.2263 25.1835C65.6832 25.9762 62.0832 26.7853 62.0832 29.7578C62.1162 31.8716 63.7676 32.7963 65.9144 32.7798ZM38.5181 10.4697C38.5181 10.0734 38.8318 9.75964 40.6483 9.75964C42.4814 9.75964 42.7951 10.0734 42.7951 10.4697V17.5046C42.7951 17.5046 45.1896 14.9119 49.0208 14.9119C53.2483 14.9119 56.7658 18.5945 56.7658 24.7046C56.7658 32.6642 51.7786 36.0165 46.5768 36.0165C41.9529 36.0165 38.5181 33.5395 38.5181 31.211V10.4697ZM42.8116 21.8147V30.0055C42.8116 31.5248 44.5786 32.8954 46.8905 32.8954C49.863 32.8954 52.0428 30.8147 52.0428 24.9358C52.0428 19.8991 49.896 18.3963 47.2373 18.3963C44.8593 18.3798 42.8116 20.6092 42.8116 21.8147Z" fill="#4A4F54"/>
<path d="M95.4087 12.022C93.6417 9.75964 92.6178 7.00184 92.5188 4.11193L92.4362 1.40368C92.4032 0.165145 90.8839 -0.379808 90.0747 0.544962L88.638 2.1468L88.06 2.77432C87.8784 2.989 87.6637 3.17065 87.449 3.3523C88.4564 9.31377 89.8766 10.9651 95.4087 12.022Z" fill="#76BC21"/>
<path d="M77.21 11.5762C77.4247 11.7578 77.6064 11.9725 77.788 12.1872C83.7495 11.1633 85.3844 9.77616 86.4578 4.22754C84.1954 5.99451 81.4376 7.01836 78.5477 7.11745L75.8394 7.20002C74.6009 7.24956 74.0559 8.75231 74.9807 9.56148L76.5825 10.9982L77.21 11.5762Z" fill="#00A7E1"/>
<path d="M99.0578 15.655L97.456 14.2184L96.8285 13.6404C96.6138 13.4587 96.4321 13.244 96.2505 13.0294C90.289 14.0532 88.6541 15.4404 87.5807 21.022C89.8431 19.255 92.6009 18.2312 95.4908 18.1321L98.1991 18.0495C99.4376 17.9505 99.9826 16.4642 99.0578 15.655Z" fill="#F18A00"/>
<path d="M78.6629 13.145C80.4299 15.4073 81.4537 18.1651 81.5528 21.055L81.6354 23.7633C81.6684 25.0018 83.1877 25.5468 83.9968 24.622L85.4335 23.0202L86.0115 22.3927C86.1932 22.178 86.4079 21.9963 86.6225 21.8147C85.5987 15.8532 84.195 14.2349 78.6629 13.145Z" fill="#A81B8D"/>
<path d="M78.5477 34.4808C78.5477 33.6221 79.2578 32.912 80.1165 32.912C80.9752 32.912 81.6853 33.5891 81.6853 34.4808C81.6853 35.3395 81.0082 36.0496 80.1165 36.0496C79.2578 36.0496 78.5477 35.3395 78.5477 34.4808ZM78.7293 34.4808C78.7293 35.2404 79.3403 35.8514 80.1 35.8514C80.8596 35.8514 81.4706 35.2239 81.4706 34.4808C81.4706 33.7212 80.8596 33.1102 80.1 33.1102C79.3403 33.1102 78.7293 33.7212 78.7293 34.4808ZM80.0834 34.6955H79.7367V35.4056H79.522V33.6221H80.2651C80.5789 33.6221 80.8101 33.8368 80.8101 34.167C80.8101 34.5634 80.4468 34.6955 80.3642 34.6955L80.8431 35.4056H80.5789L80.0834 34.6955ZM79.7367 33.8037V34.4808H80.2651C80.4798 34.4808 80.5789 34.3157 80.5789 34.134C80.5789 33.9193 80.4798 33.7872 80.2651 33.7872H79.7367V33.8037Z" fill="#4A4F54"/>
</g>
<defs>
<clipPath id="clip0_1_156">
<rect width="99.0826" height="36" fill="white" transform="translate(0.503723)"/>
</clipPath>
</defs>
</svg>
