<svg width="48" height="48" viewBox="0 0 48 48" fill="none" xmlns="http://www.w3.org/2000/svg">
<path d="M28 4L40 16V40C40 41.0609 39.5786 42.0783 38.8284 42.8284C38.0783 43.5786 37.0609 44 36 44H12C10.9391 44 9.92172 43.5786 9.17157 42.8284C8.42143 42.0783 8 41.0609 8 40V8C8 6.93913 8.42143 5.92172 9.17157 5.17157C9.92172 4.42143 10.9391 4 12 4H28ZM36 40V18H26V8H12V40H36ZM24 24L32 32H27V38H21V32H16L24 24Z" fill="url(#paint0_linear_0_260)"/>
<defs>
<linearGradient id="paint0_linear_0_260" x1="40" y1="44" x2="8" y2="4" gradientUnits="userSpaceOnUse">
<stop stop-color="#0DFEEB"/>
<stop offset="0.331627" stop-color="#1AC5D8"/>
<stop offset="0.624813" stop-color="#278BC5"/>
<stop offset="1" stop-color="#41199E"/>
</linearGradient>
</defs>
</svg>
