<svg width="348" height="333" viewBox="0 0 348 333" fill="none" xmlns="http://www.w3.org/2000/svg">
<g clip-path="url(#clip0_0_344)">
<path d="M0 9.99999C0 4.47715 4.47715 0 10 0H338C343.523 0 348 4.47715 348 10V323C348 328.523 343.523 333 338 333H0V9.99999Z" fill="#FBFBFB"/>
<g opacity="0.8">
<path d="M-687.41 224C-742.131 224 -823.543 255.499 -836 260.86V351H415V273.259C415 273.259 335.83 239.414 279.757 235.728C210.955 231.206 177.056 269.342 108.033 267.562C47.4052 265.998 19.1758 237.428 -41.446 235.728C-111.305 233.77 -171.796 279.29 -215.394 267.562C-258.992 255.834 -296.631 232.697 -354.196 229.026C-423.349 224.617 -471.941 249.132 -526.809 260.86C-581.677 272.588 -632.69 224 -687.41 224Z" fill="#F2F2F2"/>
<path d="M-844.268 262C-906.774 262 -999.771 284.074 -1014 287.831V351H415V296.52C415 296.52 324.565 272.802 260.514 270.219C181.922 267.05 143.2 293.775 64.3563 292.528C-4.89844 291.432 -37.1444 271.41 -106.392 270.219C-186.191 268.847 -255.288 300.747 -305.09 292.528C-354.892 284.309 -397.887 268.095 -463.642 265.522C-542.635 262.432 -598.14 279.612 -660.815 287.831C-723.491 296.05 -781.762 262 -844.268 262Z" fill="#F8F8F8"/>
</g>
</g>
<defs>
<clipPath id="clip0_0_344">
<path d="M0 9.99999C0 4.47715 4.47715 0 10 0H338C343.523 0 348 4.47715 348 10V323C348 328.523 343.523 333 338 333H0V9.99999Z" fill="white"/>
</clipPath>
</defs>
</svg>
