<svg width="52" height="38" viewBox="0 0 52 38" fill="none" xmlns="http://www.w3.org/2000/svg">
<path d="M23.6666 37.9993H13.1666C9.6277 37.9993 6.60409 36.7743 4.09575 34.3243C1.58742 31.8743 0.333252 28.8799 0.333252 25.341C0.333252 22.3077 1.24714 19.6049 3.07492 17.2327C4.9027 14.8605 7.29436 13.3438 10.2499 12.6827C11.2221 9.1049 13.1666 6.20768 16.0833 3.99102C18.9999 1.77435 22.3055 0.666016 25.9999 0.666016C30.5499 0.666016 34.4096 2.25074 37.5791 5.42018C40.7485 8.58963 42.3333 12.4493 42.3333 16.9993C45.0166 17.3105 47.243 18.4674 49.0124 20.4702C50.7819 22.473 51.6666 24.816 51.6666 27.4993C51.6666 30.416 50.6458 32.8952 48.6041 34.9368C46.5624 36.9785 44.0833 37.9993 41.1666 37.9993H28.3333V21.316L32.0666 24.9327L35.3333 21.666L25.9999 12.3327L16.6666 21.666L19.9333 24.9327L23.6666 21.316V37.9993Z" fill="url(#paint0_linear_1740_1587)"/>
<defs>
<linearGradient id="paint0_linear_1740_1587" x1="46.4999" y1="9.99935" x2="-9.01764e-05" y2="33.9993" gradientUnits="userSpaceOnUse">
<stop stop-color="#7B69C5"/>
<stop offset="1" stop-color="#110A75"/>
</linearGradient>
</defs>
</svg>
