<svg width="49" height="52" viewBox="0 0 49 52" fill="none" xmlns="http://www.w3.org/2000/svg">
<path d="M0 45.833V27.1663H18.6667V45.833H0ZM8.16667 21.333L21 0.333008L33.8333 21.333H8.16667ZM45.675 51.5497L39.4917 45.3663C38.675 45.9108 37.7903 46.3191 36.8375 46.5913C35.8847 46.8636 34.8833 46.9997 33.8333 46.9997C30.9167 46.9997 28.4375 45.9788 26.3958 43.9372C24.3542 41.8955 23.3333 39.4163 23.3333 36.4997C23.3333 33.583 24.3542 31.1038 26.3958 29.0622C28.4375 27.0205 30.9167 25.9997 33.8333 25.9997C36.75 25.9997 39.2292 27.0205 41.2708 29.0622C43.3125 31.1038 44.3333 33.583 44.3333 36.4997C44.3333 37.5108 44.1972 38.4927 43.925 39.4455C43.6528 40.3983 43.2639 41.283 42.7583 42.0997L48.9417 48.283L45.675 51.5497ZM33.8333 42.333C35.4667 42.333 36.8472 41.7691 37.975 40.6413C39.1028 39.5136 39.6667 38.133 39.6667 36.4997C39.6667 34.8663 39.1028 33.4858 37.975 32.358C36.8472 31.2302 35.4667 30.6663 33.8333 30.6663C32.2 30.6663 30.8194 31.2302 29.6917 32.358C28.5639 33.4858 28 34.8663 28 36.4997C28 38.133 28.5639 39.5136 29.6917 40.6413C30.8194 41.7691 32.2 42.333 33.8333 42.333Z" fill="url(#paint0_linear_1740_1616)"/>
<defs>
<linearGradient id="paint0_linear_1740_1616" x1="49" y1="51.9997" x2="-2.5" y2="-1.50032" gradientUnits="userSpaceOnUse">
<stop stop-color="#7B69C5"/>
<stop offset="1" stop-color="#110A75"/>
</linearGradient>
</defs>
</svg>
