<svg width="30" height="22" viewBox="0 0 30 22" fill="none" xmlns="http://www.w3.org/2000/svg">
<path d="M7.66659 21.6669C5.64436 21.6669 3.91659 20.9669 2.48325 19.5669C1.04992 18.1669 0.333252 16.4558 0.333252 14.4336C0.333252 12.7003 0.855474 11.1558 1.89992 9.80026C2.94436 8.44471 4.31103 7.57804 5.99992 7.20026C6.51103 5.40026 7.46103 3.88915 8.84992 2.66693C10.2388 1.44471 11.8444 0.70026 13.6666 0.433594V11.2003L11.5333 9.13359L9.66659 11.0003L14.9999 16.3336L20.3333 11.0003L18.4666 9.13359L16.3333 11.2003V0.433594C18.6221 0.744705 20.5277 1.77248 22.0499 3.51693C23.5721 5.26137 24.3333 7.31137 24.3333 9.66693C25.8666 9.84471 27.1388 10.5058 28.1499 11.6503C29.161 12.7947 29.6666 14.1336 29.6666 15.6669C29.6666 17.3336 29.0833 18.7503 27.9166 19.9169C26.7499 21.0836 25.3333 21.6669 23.6666 21.6669H7.66659Z" fill="#333333"/>
</svg>
