<svg width="47" height="47" viewBox="0 0 47 47" fill="none" xmlns="http://www.w3.org/2000/svg">
<path d="M16.3333 32.6667C17.6167 32.6667 18.7153 32.2097 19.6292 31.2958C20.5431 30.3819 21 29.2833 21 28C21 26.7167 20.5431 25.6181 19.6292 24.7042C18.7153 23.7903 17.6167 23.3333 16.3333 23.3333C15.05 23.3333 13.9514 23.7903 13.0375 24.7042C12.1236 25.6181 11.6667 26.7167 11.6667 28C11.6667 29.2833 12.1236 30.3819 13.0375 31.2958C13.9514 32.2097 15.05 32.6667 16.3333 32.6667ZM30.3333 32.6667C31.6167 32.6667 32.7153 32.2097 33.6292 31.2958C34.5431 30.3819 35 29.2833 35 28C35 26.7167 34.5431 25.6181 33.6292 24.7042C32.7153 23.7903 31.6167 23.3333 30.3333 23.3333C29.05 23.3333 27.9514 23.7903 27.0375 24.7042C26.1236 25.6181 25.6667 26.7167 25.6667 28C25.6667 29.2833 26.1236 30.3819 27.0375 31.2958C27.9514 32.2097 29.05 32.6667 30.3333 32.6667ZM23.3333 21C24.6167 21 25.7153 20.5431 26.6292 19.6292C27.5431 18.7153 28 17.6167 28 16.3333C28 15.05 27.5431 13.9514 26.6292 13.0375C25.7153 12.1236 24.6167 11.6667 23.3333 11.6667C22.05 11.6667 20.9514 12.1236 20.0375 13.0375C19.1236 13.9514 18.6667 15.05 18.6667 16.3333C18.6667 17.6167 19.1236 18.7153 20.0375 19.6292C20.9514 20.5431 22.05 21 23.3333 21ZM23.3333 46.6667C20.1056 46.6667 17.0722 46.0542 14.2333 44.8292C11.3944 43.6042 8.925 41.9417 6.825 39.8417C4.725 37.7417 3.0625 35.2722 1.8375 32.4333C0.6125 29.5944 0 26.5611 0 23.3333C0 20.1056 0.6125 17.0722 1.8375 14.2333C3.0625 11.3944 4.725 8.925 6.825 6.825C8.925 4.725 11.3944 3.0625 14.2333 1.8375C17.0722 0.6125 20.1056 0 23.3333 0C26.5611 0 29.5944 0.6125 32.4333 1.8375C35.2722 3.0625 37.7417 4.725 39.8417 6.825C41.9417 8.925 43.6042 11.3944 44.8292 14.2333C46.0542 17.0722 46.6667 20.1056 46.6667 23.3333C46.6667 26.5611 46.0542 29.5944 44.8292 32.4333C43.6042 35.2722 41.9417 37.7417 39.8417 39.8417C37.7417 41.9417 35.2722 43.6042 32.4333 44.8292C29.5944 46.0542 26.5611 46.6667 23.3333 46.6667Z" fill="url(#paint0_linear_1740_1609)"/>
<defs>
<linearGradient id="paint0_linear_1740_1609" x1="46.6667" y1="23.3333" x2="0" y2="23.3333" gradientUnits="userSpaceOnUse">
<stop stop-color="#7B69C5"/>
<stop offset="1" stop-color="#110A75"/>
</linearGradient>
</defs>
</svg>
