<svg width="42" height="52" viewBox="0 0 42 52" fill="none" xmlns="http://www.w3.org/2000/svg">
<path d="M16.3333 51.3324V46.6657H4.66667C3.38333 46.6657 2.28472 46.2087 1.37083 45.2949C0.456944 44.381 0 43.2824 0 41.999V9.33236C0 8.04902 0.456944 6.95041 1.37083 6.03652C2.28472 5.12263 3.38333 4.66569 4.66667 4.66569H16.3333V-0.000976562H21V51.3324H16.3333ZM4.66667 39.6657H16.3333V25.6657L4.66667 39.6657ZM25.6667 46.6657V25.6657L37.3333 39.6657V9.33236H25.6667V4.66569H37.3333C38.6167 4.66569 39.7153 5.12263 40.6292 6.03652C41.5431 6.95041 42 8.04902 42 9.33236V41.999C42 43.2824 41.5431 44.381 40.6292 45.2949C39.7153 46.2087 38.6167 46.6657 37.3333 46.6657H25.6667Z" fill="url(#paint0_linear_1740_1601)"/>
<defs>
<linearGradient id="paint0_linear_1740_1601" x1="21" y1="51.3324" x2="21" y2="-0.000976562" gradientUnits="userSpaceOnUse">
<stop stop-color="#7B69C5"/>
<stop offset="1" stop-color="#110A75"/>
</linearGradient>
</defs>
</svg>
