<svg width="38" height="47" viewBox="0 0 38 47" fill="none" xmlns="http://www.w3.org/2000/svg">
<path d="M9.99984 37.6663H28.6665V32.9997H9.99984V37.6663ZM9.99984 28.333H28.6665V23.6663H9.99984V28.333ZM5.33317 46.9997C4.04984 46.9997 2.95123 46.5427 2.03734 45.6288C1.12345 44.715 0.666504 43.6163 0.666504 42.333V4.99967C0.666504 3.71634 1.12345 2.61773 2.03734 1.70384C2.95123 0.789952 4.04984 0.333008 5.33317 0.333008H23.9998L37.9998 14.333V42.333C37.9998 43.6163 37.5429 44.715 36.629 45.6288C35.7151 46.5427 34.6165 46.9997 33.3332 46.9997H5.33317ZM21.6665 16.6663H33.3332L21.6665 4.99967V16.6663Z" fill="url(#paint0_linear_1740_1623)"/>
<defs>
<linearGradient id="paint0_linear_1740_1623" x1="37.9998" y1="23.6663" x2="0.666504" y2="23.6663" gradientUnits="userSpaceOnUse">
<stop stop-color="#7B69C5"/>
<stop offset="1" stop-color="#110A75"/>
</linearGradient>
</defs>
</svg>
