<svg width="28" height="28" viewBox="0 0 28 28" fill="none" xmlns="http://www.w3.org/2000/svg">
<path d="M23.7334 9.86699L28.0001 14.1337L26.1334 16.0003L21.8667 11.7337C21.4001 12.0003 20.9001 12.2225 20.3667 12.4003C19.8334 12.5781 19.2667 12.667 18.6667 12.667C17.0001 12.667 15.5834 12.0837 14.4167 10.917C13.2501 9.75033 12.6667 8.33366 12.6667 6.66699C12.6667 5.00033 13.2501 3.58366 14.4167 2.41699C15.5834 1.25033 17.0001 0.666992 18.6667 0.666992C20.3334 0.666992 21.7501 1.25033 22.9167 2.41699C24.0834 3.58366 24.6667 5.00033 24.6667 6.66699C24.6667 7.26699 24.5779 7.83366 24.4001 8.36699C24.2223 8.90032 24.0001 9.40032 23.7334 9.86699ZM18.6667 10.0003C19.6001 10.0003 20.389 9.6781 21.0334 9.03366C21.6779 8.38921 22.0001 7.60033 22.0001 6.66699C22.0001 5.73366 21.6779 4.94477 21.0334 4.30033C20.389 3.65588 19.6001 3.33366 18.6667 3.33366C17.7334 3.33366 16.9445 3.65588 16.3001 4.30033C15.6556 4.94477 15.3334 5.73366 15.3334 6.66699C15.3334 7.60033 15.6556 8.38921 16.3001 9.03366C16.9445 9.6781 17.7334 10.0003 18.6667 10.0003ZM3.33341 27.3337C2.60008 27.3337 1.9723 27.0725 1.45008 26.5503C0.927859 26.0281 0.666748 25.4003 0.666748 24.667V6.00033C0.666748 5.26699 0.927859 4.63921 1.45008 4.11699C1.9723 3.59477 2.60008 3.33366 3.33341 3.33366H10.6667C10.4223 3.88921 10.2556 4.46144 10.1667 5.05033C10.0779 5.63921 10.0334 6.22255 10.0334 6.80032C10.0334 9.22255 10.889 11.2448 12.6001 12.867C14.3112 14.4892 16.3445 15.3003 18.7001 15.3003C19.1223 15.3003 19.5445 15.2725 19.9667 15.217C20.389 15.1614 20.8223 15.067 21.2667 14.9337L24.6667 18.3337V24.667C24.6667 25.4003 24.4056 26.0281 23.8834 26.5503C23.3612 27.0725 22.7334 27.3337 22.0001 27.3337H3.33341Z" fill="#333333"/>
</svg>
