<svg width="28" height="22" viewBox="0 0 28 22" fill="none" xmlns="http://www.w3.org/2000/svg">
<path d="M3.33341 21.6663C2.60008 21.6663 1.9723 21.4052 1.45008 20.883C0.927859 20.3608 0.666748 19.733 0.666748 18.9997V2.99967C0.666748 2.26634 0.927859 1.63856 1.45008 1.11634C1.9723 0.594119 2.60008 0.333008 3.33341 0.333008H11.3334L14.0001 2.99967H24.6667C25.4001 2.99967 26.0279 3.26079 26.5501 3.78301C27.0723 4.30523 27.3334 4.93301 27.3334 5.66634V18.9997C27.3334 19.733 27.0723 20.3608 26.5501 20.883C26.0279 21.4052 25.4001 21.6663 24.6667 21.6663H3.33341ZM12.6667 17.6663H23.3334V16.933C23.3334 15.933 22.8445 15.1386 21.8667 14.5497C20.889 13.9608 19.6001 13.6663 18.0001 13.6663C16.4001 13.6663 15.1112 13.9608 14.1334 14.5497C13.1556 15.1386 12.6667 15.933 12.6667 16.933V17.6663ZM18.0001 12.333C18.7334 12.333 19.3612 12.0719 19.8834 11.5497C20.4056 11.0275 20.6667 10.3997 20.6667 9.66634C20.6667 8.93301 20.4056 8.30523 19.8834 7.78301C19.3612 7.26079 18.7334 6.99967 18.0001 6.99967C17.2667 6.99967 16.639 7.26079 16.1167 7.78301C15.5945 8.30523 15.3334 8.93301 15.3334 9.66634C15.3334 10.3997 15.5945 11.0275 16.1167 11.5497C16.639 12.0719 17.2667 12.333 18.0001 12.333Z" fill="#333333"/>
</svg>
