<svg width="1280" height="591" viewBox="0 0 1280 591" fill="none" xmlns="http://www.w3.org/2000/svg">
<path opacity="0.1" d="M1280 623H0V69.1824C0 69.1824 88.5 42.1897 192 84.537C295.5 126.884 311 118.749 475 99.4998C639 80.2511 671.169 86.8472 745.5 114.282C819.831 141.716 837.016 52.5135 905.5 38.4735C998.5 19.4075 1034.5 92 1104.5 91.9998C1174.5 91.9995 1280 59.6521 1280 59.6521V623Z" fill="#A4A4A4"/>
<path d="M1280 623H0V143C0 143 90 81.5092 193.5 121.5C297 161.491 315 132.678 479 114.5C643 96.3224 671.169 116.682 745.5 142.59C819.831 168.498 846.516 113.261 915 100.002C1008 81.9971 1044 100.003 1114 100.002C1184 100.002 1280 108.5 1280 108.5V623Z" fill="#E4E4E4" fill-opacity="0.3"/>
<path d="M1280 623H0V145.5C0 145.5 90.5 107 194 145.5C297.5 184 312.5 137 476.5 119.5C640.5 102 671.169 135.558 745.5 160.5C819.831 185.442 846.516 132.264 915 119.5C1008 102.166 1044 119.5 1114 119.5C1184 119.5 1280 114.165 1280 114.165V623Z" fill="url(#paint0_linear_7_1106)"/>
<mask id="path-4-inside-1_7_1106" fill="white">
<path d="M40 515H1240V579H40V515Z"/>
</mask>
<path d="M40 516H1240V514H40V516Z" fill="white" fill-opacity="0.2" mask="url(#path-4-inside-1_7_1106)"/>
<defs>
<linearGradient id="paint0_linear_7_1106" x1="640" y1="623" x2="640" y2="111.796" gradientUnits="userSpaceOnUse">
<stop stop-color="#110A75"/>
<stop offset="0.5" stop-color="#463A9D"/>
</linearGradient>
</defs>
</svg>
