<svg width="1280" height="754" viewBox="0 0 1280 754" fill="none" xmlns="http://www.w3.org/2000/svg">
<g clip-path="url(#clip0_7_589)">
<rect width="1280" height="754" fill="url(#paint0_linear_7_589)"/>
<g style="mix-blend-mode:plus-lighter">
<circle cx="34.5" cy="412" r="9.5" fill="url(#paint1_linear_7_589)"/>
</g>
<g filter="url(#filter0_f_7_589)">
<circle cx="126.5" cy="102.5" r="165.5" fill="#E9719C"/>
</g>
<g filter="url(#filter1_f_7_589)">
<circle cx="1179.5" cy="151.5" r="100.5" fill="#FFA4C5"/>
</g>
<g filter="url(#filter2_f_7_589)">
<ellipse cx="889" cy="632.5" rx="76" ry="75.5" fill="url(#paint2_linear_7_589)"/>
</g>
<circle cx="892.5" cy="183.5" r="11.5" fill="url(#paint3_linear_7_589)"/>
<path d="M668 611C668 626.464 655.464 639 640 639C624.536 639 612 626.464 612 611C612 595.536 624.536 583 640 583C655.464 583 668 595.536 668 611ZM625.099 611C625.099 619.229 631.771 625.901 640 625.901C648.229 625.901 654.901 619.229 654.901 611C654.901 602.771 648.229 596.099 640 596.099C631.771 596.099 625.099 602.771 625.099 611Z" fill="url(#paint4_linear_7_589)"/>
<g filter="url(#filter3_d_7_589)">
<circle cx="1178" cy="478" r="311" fill="url(#paint5_linear_7_589)"/>
</g>
<g filter="url(#filter4_d_7_589)">
<path d="M867.974 324.526C953.012 153.027 1160.98 82.9365 1332.47 167.974C1503.97 253.012 1574.06 460.975 1489.03 632.474C1403.99 803.973 1196.02 874.063 1024.53 789.026C853.027 703.988 782.937 496.025 867.974 324.526ZM1485.8 630.875C1569.96 461.157 1500.59 255.353 1330.88 171.199C1161.16 87.0443 955.353 156.407 871.199 326.125C787.044 495.843 856.407 701.647 1026.12 785.801C1195.84 869.956 1401.65 800.593 1485.8 630.875Z" fill="url(#paint6_linear_7_589)"/>
</g>
<path d="M141 251C141 319.483 85.4833 375 17 375C-51.4833 375 -107 319.483 -107 251C-107 182.517 -51.4833 127 17 127C85.4833 127 141 182.517 141 251ZM-49.4441 251C-49.4441 287.696 -19.6961 317.444 17 317.444C53.6961 317.444 83.4441 287.696 83.4441 251C83.4441 214.304 53.6961 184.556 17 184.556C-19.6961 184.556 -49.4441 214.304 -49.4441 251Z" fill="url(#paint7_linear_7_589)"/>
<path d="M820 275C820 299.853 799.853 320 775 320C750.147 320 730 299.853 730 275C730 250.147 750.147 230 775 230C799.853 230 820 250.147 820 275ZM750.887 275C750.887 288.317 761.683 299.113 775 299.113C788.317 299.113 799.113 288.317 799.113 275C799.113 261.683 788.317 250.887 775 250.887C761.683 250.887 750.887 261.683 750.887 275Z" fill="url(#paint8_linear_7_589)"/>
<g filter="url(#filter5_f_7_589)">
<circle cx="706.5" cy="422.5" r="76.5" fill="white"/>
</g>
</g>
<defs>
<filter id="filter0_f_7_589" x="-339" y="-363" width="931" height="931" filterUnits="userSpaceOnUse" color-interpolation-filters="sRGB">
<feFlood flood-opacity="0" result="BackgroundImageFix"/>
<feBlend mode="normal" in="SourceGraphic" in2="BackgroundImageFix" result="shape"/>
<feGaussianBlur stdDeviation="150" result="effect1_foregroundBlur_7_589"/>
</filter>
<filter id="filter1_f_7_589" x="879" y="-149" width="601" height="601" filterUnits="userSpaceOnUse" color-interpolation-filters="sRGB">
<feFlood flood-opacity="0" result="BackgroundImageFix"/>
<feBlend mode="normal" in="SourceGraphic" in2="BackgroundImageFix" result="shape"/>
<feGaussianBlur stdDeviation="100" result="effect1_foregroundBlur_7_589"/>
</filter>
<filter id="filter2_f_7_589" x="803" y="547" width="172" height="171" filterUnits="userSpaceOnUse" color-interpolation-filters="sRGB">
<feFlood flood-opacity="0" result="BackgroundImageFix"/>
<feBlend mode="normal" in="SourceGraphic" in2="BackgroundImageFix" result="shape"/>
<feGaussianBlur stdDeviation="5" result="effect1_foregroundBlur_7_589"/>
</filter>
<filter id="filter3_d_7_589" x="837" y="137" width="682" height="682" filterUnits="userSpaceOnUse" color-interpolation-filters="sRGB">
<feFlood flood-opacity="0" result="BackgroundImageFix"/>
<feColorMatrix in="SourceAlpha" type="matrix" values="0 0 0 0 0 0 0 0 0 0 0 0 0 0 0 0 0 0 127 0" result="hardAlpha"/>
<feOffset/>
<feGaussianBlur stdDeviation="15"/>
<feComposite in2="hardAlpha" operator="out"/>
<feColorMatrix type="matrix" values="0 0 0 0 0 0 0 0 0 0 0 0 0 0 0 0 0 0 0.18 0"/>
<feBlend mode="normal" in2="BackgroundImageFix" result="effect1_dropShadow_7_589"/>
<feBlend mode="normal" in="SourceGraphic" in2="effect1_dropShadow_7_589" result="shape"/>
</filter>
<filter id="filter4_d_7_589" x="801.819" y="101.819" width="753.362" height="753.362" filterUnits="userSpaceOnUse" color-interpolation-filters="sRGB">
<feFlood flood-opacity="0" result="BackgroundImageFix"/>
<feColorMatrix in="SourceAlpha" type="matrix" values="0 0 0 0 0 0 0 0 0 0 0 0 0 0 0 0 0 0 127 0" result="hardAlpha"/>
<feOffset/>
<feGaussianBlur stdDeviation="15"/>
<feComposite in2="hardAlpha" operator="out"/>
<feColorMatrix type="matrix" values="0 0 0 0 0 0 0 0 0 0 0 0 0 0 0 0 0 0 0.18 0"/>
<feBlend mode="normal" in2="BackgroundImageFix" result="effect1_dropShadow_7_589"/>
<feBlend mode="normal" in="SourceGraphic" in2="effect1_dropShadow_7_589" result="shape"/>
</filter>
<filter id="filter5_f_7_589" x="330" y="46" width="753" height="753" filterUnits="userSpaceOnUse" color-interpolation-filters="sRGB">
<feFlood flood-opacity="0" result="BackgroundImageFix"/>
<feBlend mode="normal" in="SourceGraphic" in2="BackgroundImageFix" result="shape"/>
<feGaussianBlur stdDeviation="150" result="effect1_foregroundBlur_7_589"/>
</filter>
<linearGradient id="paint0_linear_7_589" x1="618.767" y1="-57.4359" x2="437.236" y2="868.787" gradientUnits="userSpaceOnUse">
<stop stop-color="#7B69C5"/>
<stop offset="1" stop-color="#110A75"/>
</linearGradient>
<linearGradient id="paint1_linear_7_589" x1="34.5" y1="402.5" x2="34.5" y2="421.5" gradientUnits="userSpaceOnUse">
<stop stop-color="#130795"/>
<stop offset="1" stop-color="#7269F8"/>
</linearGradient>
<linearGradient id="paint2_linear_7_589" x1="889" y1="557" x2="889" y2="708" gradientUnits="userSpaceOnUse">
<stop stop-color="#7D76DC"/>
<stop offset="1" stop-color="#EB6C92"/>
</linearGradient>
<linearGradient id="paint3_linear_7_589" x1="892.5" y1="172" x2="892.5" y2="195" gradientUnits="userSpaceOnUse">
<stop stop-color="#7D76DC"/>
<stop offset="1" stop-color="#EB6C92"/>
</linearGradient>
<linearGradient id="paint4_linear_7_589" x1="640" y1="583" x2="640" y2="639" gradientUnits="userSpaceOnUse">
<stop stop-color="#130795"/>
<stop offset="1" stop-color="#7269F8"/>
</linearGradient>
<linearGradient id="paint5_linear_7_589" x1="1178" y1="167" x2="1178" y2="789" gradientUnits="userSpaceOnUse">
<stop stop-color="#7D76DC"/>
<stop offset="1" stop-color="#EB6C92"/>
</linearGradient>
<linearGradient id="paint6_linear_7_589" x1="1024.53" y1="789.026" x2="1332.47" y2="167.974" gradientUnits="userSpaceOnUse">
<stop stop-color="#7D76DC"/>
<stop offset="1" stop-color="#EB6C92"/>
</linearGradient>
<linearGradient id="paint7_linear_7_589" x1="17" y1="127" x2="17" y2="375" gradientUnits="userSpaceOnUse">
<stop stop-color="#F95E80"/>
<stop offset="1" stop-color="#331392"/>
</linearGradient>
<linearGradient id="paint8_linear_7_589" x1="775" y1="230" x2="775" y2="320" gradientUnits="userSpaceOnUse">
<stop stop-color="#F95E80"/>
<stop offset="1" stop-color="#331392"/>
</linearGradient>
<clipPath id="clip0_7_589">
<rect width="1280" height="754" fill="white"/>
</clipPath>
</defs>
</svg>
