<svg width="90" height="88" viewBox="0 0 90 88" fill="none" xmlns="http://www.w3.org/2000/svg">
<g filter="url(#filter0_di_0_743)">
<ellipse cx="43.166" cy="42" rx="38.5" ry="38" fill="#FBFBFF"/>
</g>
<path d="M52.15 47.3999C54.972 47.3999 57.25 49.6779 57.25 52.4999C57.25 55.3219 54.972 57.5999 52.15 57.5999C49.328 57.5999 47.05 55.3219 47.05 52.4999C47.05 52.0919 47.101 51.7179 47.203 51.3269L39.757 47.4169C38.822 48.4539 37.496 49.0999 36 49.0999C33.178 49.0999 30.9 46.8219 30.9 43.9999C30.9 41.1779 33.178 38.8999 36 38.8999C37.496 38.8999 38.822 39.5629 39.757 40.5829L47.203 36.6729C47.101 36.2819 47.05 35.9079 47.05 35.4999C47.05 32.6779 49.328 30.3999 52.15 30.3999C54.972 30.3999 57.25 32.6779 57.25 35.4999C57.25 38.3219 54.972 40.5999 52.15 40.5999C50.654 40.5999 49.328 39.9369 48.393 38.9169L40.947 42.8269C41.1526 43.5954 41.1526 44.4044 40.947 45.1729L48.393 49.0829C49.328 48.0459 50.654 47.3999 52.15 47.3999Z" fill="black"/>
<defs>
<filter id="filter0_di_0_743" x="0.666016" y="0" width="89" height="88" filterUnits="userSpaceOnUse" color-interpolation-filters="sRGB">
<feFlood flood-opacity="0" result="BackgroundImageFix"/>
<feColorMatrix in="SourceAlpha" type="matrix" values="0 0 0 0 0 0 0 0 0 0 0 0 0 0 0 0 0 0 127 0" result="hardAlpha"/>
<feOffset dx="2" dy="2"/>
<feGaussianBlur stdDeviation="3"/>
<feComposite in2="hardAlpha" operator="out"/>
<feColorMatrix type="matrix" values="0 0 0 0 0 0 0 0 0 0 0 0 0 0 0 0 0 0 0.15 0"/>
<feBlend mode="normal" in2="BackgroundImageFix" result="effect1_dropShadow_0_743"/>
<feBlend mode="normal" in="SourceGraphic" in2="effect1_dropShadow_0_743" result="shape"/>
<feColorMatrix in="SourceAlpha" type="matrix" values="0 0 0 0 0 0 0 0 0 0 0 0 0 0 0 0 0 0 127 0" result="hardAlpha"/>
<feOffset dx="3" dy="2"/>
<feGaussianBlur stdDeviation="0.5"/>
<feComposite in2="hardAlpha" operator="arithmetic" k2="-1" k3="1"/>
<feColorMatrix type="matrix" values="0 0 0 0 1 0 0 0 0 1 0 0 0 0 1 0 0 0 1 0"/>
<feBlend mode="normal" in2="shape" result="effect2_innerShadow_0_743"/>
</filter>
</defs>
</svg>
