<svg width="89" height="89" viewBox="0 0 89 89" fill="none" xmlns="http://www.w3.org/2000/svg">
<g filter="url(#filter0_di_0_734)">
<ellipse cx="42.4994" cy="42.25" rx="38.5" ry="38" fill="#FBFBFF"/>
</g>
<path d="M41 52.7501H35.3333V49.9167H41V52.7501ZM41 47.0834H35.3333V44.2501H41V47.0834ZM41 28.6667V30.0834H35.3333C33.7608 30.0834 32.5 31.3442 32.5 32.9167V55.5834C32.5 56.3349 32.7985 57.0555 33.3299 57.5869C33.8612 58.1182 34.5819 58.4167 35.3333 58.4167H41V59.8334H43.8333V28.6667H41ZM55.1667 38.5834V55.5834C55.1667 57.1559 53.9058 58.4167 52.3333 58.4167H46.6667V55.5834H52.3333V42.8334H46.6667V40.0001H53.0417L46.6667 33.6251V30.0834L55.1667 38.5834ZM49.5 47.0834H46.6667V44.2501H49.5V47.0834ZM49.5 52.7501H46.6667V49.9167H49.5V52.7501Z" fill="black"/>
<defs>
<filter id="filter0_di_0_734" x="-0.000640869" y="0.25" width="89" height="88" filterUnits="userSpaceOnUse" color-interpolation-filters="sRGB">
<feFlood flood-opacity="0" result="BackgroundImageFix"/>
<feColorMatrix in="SourceAlpha" type="matrix" values="0 0 0 0 0 0 0 0 0 0 0 0 0 0 0 0 0 0 127 0" result="hardAlpha"/>
<feOffset dx="2" dy="2"/>
<feGaussianBlur stdDeviation="3"/>
<feComposite in2="hardAlpha" operator="out"/>
<feColorMatrix type="matrix" values="0 0 0 0 0 0 0 0 0 0 0 0 0 0 0 0 0 0 0.15 0"/>
<feBlend mode="normal" in2="BackgroundImageFix" result="effect1_dropShadow_0_734"/>
<feBlend mode="normal" in="SourceGraphic" in2="effect1_dropShadow_0_734" result="shape"/>
<feColorMatrix in="SourceAlpha" type="matrix" values="0 0 0 0 0 0 0 0 0 0 0 0 0 0 0 0 0 0 127 0" result="hardAlpha"/>
<feOffset dx="3" dy="2"/>
<feGaussianBlur stdDeviation="0.5"/>
<feComposite in2="hardAlpha" operator="arithmetic" k2="-1" k3="1"/>
<feColorMatrix type="matrix" values="0 0 0 0 1 0 0 0 0 1 0 0 0 0 1 0 0 0 1 0"/>
<feBlend mode="normal" in2="shape" result="effect2_innerShadow_0_734"/>
</filter>
</defs>
</svg>
