<svg width="772" height="65" viewBox="0 0 772 65" fill="none" xmlns="http://www.w3.org/2000/svg">
<path d="M0.5 62.1017C0.5 63.4101 1.6029 64.5 3 64.5C4.3971 64.5 5.5 63.4101 5.5 62.1017C5.5 60.7932 4.3971 59.7034 3 59.7034C1.6029 59.7034 0.5 60.7932 0.5 62.1017Z" stroke="#002F4B"/>
<path d="M296 0V22.8889C296 26.2026 293.314 28.8889 290 28.8889H9.99999C6.68628 28.8889 3.99999 31.5752 3.99999 34.8889V60" stroke="#002F4B"/>
<path d="M386 0V60" stroke="#002F4B"/>
<circle cx="386" cy="62" r="2.5" stroke="#002F4B"/>
<path d="M771.5 62.1017C771.5 63.4101 770.397 64.5 769 64.5C767.603 64.5 766.5 63.4101 766.5 62.1017C766.5 60.7932 767.603 59.7034 769 59.7034C770.397 59.7034 771.5 60.7932 771.5 62.1017Z" stroke="#002F4B"/>
<path d="M477 0V22.8889C477 26.2026 479.686 28.8889 483 28.8889H763C766.314 28.8889 769 31.5752 769 34.8889V60" stroke="#002F4B"/>
</svg>
