<svg width="140" height="36" viewBox="0 0 140 36" fill="none" xmlns="http://www.w3.org/2000/svg">
<path d="M3.64373 19.71C5.84088 19.2233 8.0647 18.866 10.3037 18.64C12.1737 18.54 13.1137 17.91 13.6337 16.09C14.8737 11.78 16.4037 7.55998 17.6337 3.23998C17.7718 2.52205 18.1623 1.87728 18.7346 1.42237C19.3069 0.967466 20.0232 0.732488 20.7537 0.759976C24.7537 0.399976 25.5737 0.899976 26.7537 4.75998C29.5871 13.6933 32.3904 22.64 35.1637 31.6C35.3737 32.28 35.5137 33 35.6737 33.69C31.5137 35.04 29.9437 34.55 27.4537 31.36C21.4537 23.71 13.4537 20.42 3.94373 20.36C3.78134 20.3445 3.62068 20.3144 3.46373 20.27L3.64373 19.71ZM26.0037 22.51L22.0037 8.17998H21.3837L18.3537 18.81L26.0037 22.51Z" fill="#1C5598"/>
<path d="M97.8338 23.9H82.6137C81.9338 29.07 86.0137 30.63 95.3537 28.81L96.6037 33.16C91.3437 34.71 86.3837 35.37 81.6037 32.92C76.8237 30.47 76.0037 26 76.1737 21.21C76.5337 13.13 82.8637 8.20997 90.3937 10.1C92.3881 10.5912 94.1772 11.6979 95.5072 13.2631C96.8372 14.8283 97.6407 16.7725 97.8038 18.82C97.9053 20.5115 97.9153 22.2073 97.8338 23.9ZM91.9038 19.8C91.5438 15.95 89.6737 14.12 86.7937 14.43C86.1536 14.468 85.5292 14.6436 84.9631 14.9449C84.397 15.2461 83.9025 15.6659 83.5134 16.1756C83.1242 16.6853 82.8496 17.2729 82.7081 17.8984C82.5667 18.5238 82.5618 19.1724 82.6938 19.8H91.9038Z" fill="#1C5598"/>
<path d="M132.844 18.71C132.844 16.2 131.584 14.87 129.044 14.83C127.8 14.7782 126.555 14.8016 125.314 14.9C121.734 15.29 121.604 15.2 121.314 11.3C125.454 9.88 129.694 9.38 133.914 10.86C137.304 12.04 138.724 14.86 138.834 18.27C138.964 22.76 138.934 27.27 138.834 31.75C138.834 32.41 138.004 33.59 137.504 33.62C133.314 33.86 129.064 34.29 124.924 33.84C121.444 33.47 119.714 30.84 119.574 27.62C119.394 23.62 120.704 21.25 124.354 20.15C127.149 19.486 129.985 19.005 132.844 18.71ZM132.594 23C129.954 22.76 127.254 22.14 125.694 24.67C125.427 25.2848 125.316 25.9558 125.37 26.6238C125.424 27.2918 125.641 27.9362 126.004 28.5C127.794 30.5 130.244 30.16 132.634 29.35L132.594 23Z" fill="#1C5598"/>
<path d="M54.9337 11.31L53.8437 15.08C51.8223 14.6996 49.7706 14.5021 47.7137 14.49C46.7137 14.55 45.8537 15.72 44.9237 16.39C45.5934 17.3076 46.3466 18.1613 47.1737 18.94C47.8313 19.2945 48.5512 19.5186 49.2937 19.6C54.0937 20.95 55.5037 22.6 55.4637 26.7C55.4637 30.53 53.3337 33.12 49.0037 34.07C45.4085 34.9852 41.6104 34.6719 38.2137 33.18C38.3937 32.18 38.5337 31.41 38.7137 30.61C39.0037 29.34 39.6337 28.94 41.0437 29.23C42.8848 29.6576 44.7852 29.7692 46.6637 29.56C47.7137 29.39 48.5837 28.08 49.5337 27.28C48.8449 26.272 48.0318 25.3548 47.1137 24.55C46.0695 24.0442 44.9634 23.6777 43.8237 23.46C40.0837 22.23 38.5637 20.33 38.6437 17.07C38.6258 15.5059 39.1623 13.986 40.158 12.7797C41.1538 11.5734 42.5446 10.7587 44.0837 10.48C47.6907 9.52737 51.5136 9.81981 54.9337 11.31Z" fill="#1C5598"/>
<path d="M73.2137 29.51C73.4307 30.4347 73.5811 31.3738 73.6637 32.32C73.6637 32.82 73.3237 33.78 73.1337 33.78C70.3737 33.78 67.5337 34.01 64.8737 33.44C62.2137 32.87 61.2837 30.61 61.1437 28.11C61.0037 25.79 61.0637 23.45 61.0437 21.11C61.0437 20.19 60.9737 19.27 61.0437 18.37C61.2237 16.1 60.9837 14.26 57.0937 15.03L66.1537 3.53998L66.8837 3.73998C66.9587 5.00887 66.9587 6.28109 66.8837 7.54998C66.5837 9.97998 67.5737 10.91 69.9537 10.55C71.9537 10.26 73.3637 10.83 72.8137 13.17C72.6388 13.5562 72.3887 13.9038 72.0779 14.1922C71.7671 14.4807 71.4019 14.7043 71.0037 14.85C70.2817 15.0413 69.5251 15.0618 68.7937 14.91C67.4137 14.82 66.7937 15.42 66.8737 16.81C66.9337 19.05 66.8737 21.3 66.8737 23.54C66.9037 28.77 67.7937 29.64 73.2137 29.51Z" fill="#1C5598"/>
<path d="M108.714 13.45C110.083 12.3659 111.557 11.4212 113.114 10.63C116.114 9.43998 116.944 10.1 116.894 13.36C116.894 14.02 116.814 14.67 116.764 15.36C116.361 15.5132 115.946 15.6336 115.524 15.72C110.614 16.36 109.624 17.26 109.234 22.26C109.009 25.3315 108.969 28.4137 109.114 31.49C109.214 33.76 108.474 34.72 106.174 34.41C105.148 34.3532 104.12 34.3532 103.094 34.41V28.05C103.094 23.05 103.094 18.05 103.094 13.05C103.094 11.79 102.654 10.22 104.794 10.18C106.544 10.18 108.234 10.18 108.404 12.53C108.471 12.8478 108.575 13.1566 108.714 13.45Z" fill="#1C5598"/>
<path d="M8.66373 33.8L11.9437 23.38C13.2094 23.7316 14.4464 24.1796 15.6437 24.72C15.89 24.9237 16.084 25.1834 16.2092 25.4775C16.3345 25.7715 16.3875 26.0913 16.3637 26.41C16.0659 27.8662 15.6886 29.305 15.2337 30.72C14.0937 34.72 13.3337 35.11 8.66373 33.8Z" fill="#F4821F"/>
</svg>
