<svg width="410" height="644" viewBox="0 0 410 644" fill="none" xmlns="http://www.w3.org/2000/svg">
<g filter="url(#filter0_d_1_433)">
<g clip-path="url(#clip0_1_433)">
<path d="M5 17C5 10.3726 10.3726 5 17 5H393C399.627 5 405 10.3726 405 17V627C405 633.627 399.627 639 393 639H17C10.3726 639 5 633.627 5 627V17Z" fill="url(#paint0_linear_1_433)"/>
<path opacity="0.1" d="M96.5 476.5C46.4393 492.395 5 526.366 5 526.366V662H405L410 447C410 447 388.5 427.5 373 427.5C312.08 427.5 330.953 501.341 279 527C213.289 559.455 168.604 453.605 96.5 476.5Z" fill="url(#paint1_linear_1_433)"/>
<path opacity="0.08" d="M57 540C6.93931 555.895 5 652.655 5 652.655V743H405V569.5C405 569.5 372.909 543.457 354.5 540C294.626 528.757 259.453 599.34 207.5 625C141.789 657.455 129.104 517.105 57 540Z" fill="url(#paint2_linear_1_433)"/>
</g>
</g>
<defs>
<filter id="filter0_d_1_433" x="0" y="0" width="410" height="644" filterUnits="userSpaceOnUse" color-interpolation-filters="sRGB">
<feFlood flood-opacity="0" result="BackgroundImageFix"/>
<feColorMatrix in="SourceAlpha" type="matrix" values="0 0 0 0 0 0 0 0 0 0 0 0 0 0 0 0 0 0 127 0" result="hardAlpha"/>
<feOffset/>
<feGaussianBlur stdDeviation="2.5"/>
<feComposite in2="hardAlpha" operator="out"/>
<feColorMatrix type="matrix" values="0 0 0 0 0 0 0 0 0 0 0 0 0 0 0 0 0 0 0.3 0"/>
<feBlend mode="normal" in2="BackgroundImageFix" result="effect1_dropShadow_1_433"/>
<feBlend mode="normal" in="SourceGraphic" in2="effect1_dropShadow_1_433" result="shape"/>
</filter>
<linearGradient id="paint0_linear_1_433" x1="5" y1="5" x2="364.738" y2="654.024" gradientUnits="userSpaceOnUse">
<stop stop-color="#810AFF"/>
<stop offset="1" stop-color="#FFC130"/>
</linearGradient>
<linearGradient id="paint1_linear_1_433" x1="205" y1="414" x2="205" y2="662" gradientUnits="userSpaceOnUse">
<stop stop-color="white"/>
<stop offset="1" stop-color="white" stop-opacity="0"/>
</linearGradient>
<linearGradient id="paint2_linear_1_433" x1="205" y1="495" x2="205" y2="743" gradientUnits="userSpaceOnUse">
<stop stop-color="white"/>
<stop offset="1" stop-color="white" stop-opacity="0"/>
</linearGradient>
<clipPath id="clip0_1_433">
<path d="M5 17C5 10.3726 10.3726 5 17 5H393C399.627 5 405 10.3726 405 17V627C405 633.627 399.627 639 393 639H17C10.3726 639 5 633.627 5 627V17Z" fill="white"/>
</clipPath>
</defs>
</svg>
