<svg width="56" height="57" viewBox="0 0 56 57" fill="none" xmlns="http://www.w3.org/2000/svg">
<g clip-path="url(#clip0_0_902)">
<path fill-rule="evenodd" clip-rule="evenodd" d="M12.54 0.137695H43.4599C48.2026 0.137695 52.0638 3.99863 52.0637 8.74157V47.4586C52.0637 52.2014 48.2026 56.0623 43.4599 56.0623H12.54C7.79722 56.0623 3.93628 52.2014 3.93628 47.4586V8.74146C3.93628 3.99863 7.79722 0.137695 12.54 0.137695ZM42.9868 34.5851H47.7619V8.74157C47.7619 6.37546 45.8366 4.43963 43.4599 4.43963H12.54C10.1632 4.43963 8.23811 6.37546 8.23811 8.74157V34.5851H13.0132C15.6911 34.5851 18.2401 35.596 20.176 37.4351C21.3159 38.5214 22.8109 39.1236 24.3918 39.1236H31.6082C33.1891 39.1236 34.684 38.5213 35.8239 37.4351C37.7598 35.5961 40.3088 34.5851 42.9868 34.5851ZM32.407 12.6678H23.5931C22.4053 12.6678 21.4421 11.7047 21.4421 10.5168C21.4421 9.32889 22.4053 8.36584 23.5931 8.36584H32.407C33.5949 8.36584 34.558 9.32889 34.558 10.5168C34.558 11.7047 33.5948 12.6678 32.407 12.6678ZM15.2982 21.6618H40.7021C41.8899 21.6618 42.853 20.6988 42.853 19.5108C42.853 18.3229 41.89 17.3599 40.7021 17.3599H15.2982C14.1104 17.3599 13.1472 18.3229 13.1472 19.5108C13.1472 20.6988 14.1104 21.6618 15.2982 21.6618ZM23.5931 26.3534H32.407C33.5948 26.3534 34.558 27.3164 34.558 28.5044C34.558 29.6923 33.5948 30.6553 32.407 30.6553H23.5931C22.4052 30.6553 21.4421 29.6923 21.4421 28.5044C21.4421 27.3164 22.4053 26.3534 23.5931 26.3534Z" fill="url(#paint0_linear_0_902)"/>
</g>
<defs>
<linearGradient id="paint0_linear_0_902" x1="4.00073" y1="-0.199952" x2="49.5007" y2="55.8" gradientUnits="userSpaceOnUse">
<stop stop-color="#3D1CFF"/>
<stop offset="1" stop-color="#941DFF"/>
</linearGradient>
<clipPath id="clip0_0_902">
<rect width="56" height="56" fill="white" transform="translate(0 0.100098)"/>
</clipPath>
</defs>
</svg>
