<svg width="36" height="37" viewBox="0 0 36 37" fill="none" xmlns="http://www.w3.org/2000/svg">
<g clip-path="url(#clip0_1_309)">
<path d="M30 9.50001H16.42L14.11 6.32001C13.9238 6.06521 13.68 5.85809 13.3984 5.71557C13.1169 5.57306 12.8056 5.49919 12.49 5.50001H6C5.46957 5.50001 4.96086 5.71072 4.58579 6.08579C4.21071 6.46087 4 6.96957 4 7.50001V29.5C4 30.0304 4.21071 30.5392 4.58579 30.9142C4.96086 31.2893 5.46957 31.5 6 31.5H30C30.5304 31.5 31.0391 31.2893 31.4142 30.9142C31.7893 30.5392 32 30.0304 32 29.5V11.5C32 10.9696 31.7893 10.4609 31.4142 10.0858C31.0391 9.71072 30.5304 9.50001 30 9.50001ZM6 7.50001H12.49L15.21 11.5H6V7.50001ZM21.94 27.14C21.3874 27.1454 20.8552 26.9316 20.4598 26.5456C20.0643 26.1595 19.8379 25.6326 19.83 25.08V24.78L14.16 22.12L14.08 22.2C13.7808 22.4815 13.405 22.6682 12.9999 22.7364C12.5948 22.8046 12.1785 22.7513 11.8037 22.5833C11.4288 22.4152 11.1121 22.1399 10.8935 21.7921C10.6749 21.4443 10.5642 21.0395 10.5753 20.6289C10.5864 20.2182 10.7189 19.8201 10.9561 19.4846C11.1932 19.1491 11.5244 18.8914 11.9078 18.7439C12.2912 18.5964 12.7097 18.5658 13.1105 18.6559C13.5114 18.7459 13.8765 18.9527 14.16 19.25L19.8 16.59V16.36C19.8044 15.8778 19.9762 15.4122 20.286 15.0426C20.5957 14.6731 21.0243 14.4227 21.4983 14.3343C21.9723 14.2458 22.4623 14.3248 22.8845 14.5576C23.3068 14.7905 23.6349 15.1629 23.813 15.611C23.991 16.0591 24.0078 16.5552 23.8605 17.0143C23.7132 17.4735 23.4109 17.8672 23.0054 18.1281C22.5999 18.389 22.1164 18.501 21.6375 18.4448C21.1586 18.3886 20.7141 18.1677 20.38 17.82L14.75 20.5V20.97L20.47 23.63C20.7111 23.391 21.0073 23.2149 21.3325 23.1174C21.6576 23.0198 22.0018 23.0037 22.3347 23.0705C22.6676 23.1373 22.9789 23.285 23.2412 23.5005C23.5036 23.716 23.7089 23.9927 23.8391 24.3062C23.9693 24.6197 24.0204 24.9605 23.9878 25.2984C23.9553 25.6364 23.8401 25.9611 23.6525 26.2441C23.4649 26.527 23.2105 26.7594 22.9119 26.9209C22.6133 27.0824 22.2795 27.1679 21.94 27.17V27.14Z" fill="#222222"/>
</g>
<defs>
<clipPath id="clip0_1_309">
<rect width="36" height="36" fill="white" transform="translate(0 0.5)"/>
</clipPath>
</defs>
</svg>
