<svg width="23" height="23" viewBox="0 0 23 23" fill="none" xmlns="http://www.w3.org/2000/svg">
<path d="M12.7312 5.75623C12.7312 5.48272 12.6226 5.22042 12.4292 5.02702C12.2358 4.83362 11.9735 4.72498 11.7 4.72498C11.4264 4.72498 11.1641 4.83362 10.9707 5.02702C10.7774 5.22042 10.6687 5.48272 10.6687 5.75623V10.5687H5.8562C5.5827 10.5687 5.32039 10.6774 5.127 10.8708C4.9336 11.0642 4.82495 11.3265 4.82495 11.6C4.82495 11.8735 4.9336 12.1358 5.127 12.3292C5.32039 12.5226 5.5827 12.6312 5.8562 12.6312H10.6687V17.4437C10.6687 17.7172 10.7774 17.9795 10.9707 18.1729C11.1641 18.3663 11.4264 18.475 11.7 18.475C11.9735 18.475 12.2358 18.3663 12.4292 18.1729C12.6226 17.9795 12.7312 17.7172 12.7312 17.4437V12.6312H17.5437C17.8172 12.6312 18.0795 12.5226 18.2729 12.3292C18.4663 12.1358 18.575 11.8735 18.575 11.6C18.575 11.3265 18.4663 11.0642 18.2729 10.8708C18.0795 10.6774 17.8172 10.5687 17.5437 10.5687H12.7312V5.75623Z" fill="white"/>
</svg>
