<svg width="56" height="57" viewBox="0 0 56 57" fill="none" xmlns="http://www.w3.org/2000/svg">
<g clip-path="url(#clip0_4_498)">
<path d="M43.4599 0.437622H12.54C7.79722 0.437622 3.93628 4.29856 3.93628 9.04139V47.7585C3.93628 52.5013 7.79722 56.3623 12.54 56.3623H43.4599C48.2026 56.3623 52.0637 52.5013 52.0637 47.7585V9.0415C52.0638 4.29856 48.2026 0.437622 43.4599 0.437622ZM47.7619 34.8851H42.9868C40.3088 34.8851 37.7598 35.896 35.8239 37.735C34.684 38.8212 33.1891 39.4236 31.6082 39.4236H24.3918C22.8109 39.4236 21.3159 38.8214 20.176 37.735C18.2401 35.8959 15.6911 34.8851 13.0132 34.8851H8.23811V9.0415C8.23811 6.67539 10.1632 4.73956 12.54 4.73956H43.4599C45.8366 4.73956 47.7619 6.67539 47.7619 9.0415V34.8851Z" fill="#FFC130"/>
<path d="M23.5931 12.9677H32.407C33.5948 12.9677 34.558 12.0047 34.558 10.8167C34.558 9.62882 33.5949 8.66577 32.407 8.66577H23.5931C22.4053 8.66577 21.4421 9.62882 21.4421 10.8167C21.4421 12.0047 22.4053 12.9677 23.5931 12.9677Z" fill="#F5A42A"/>
<path d="M15.2982 21.9617H40.7021C41.8899 21.9617 42.853 20.9987 42.853 19.8108C42.853 18.6228 41.89 17.6598 40.7021 17.6598H15.2982C14.1104 17.6598 13.1472 18.6228 13.1472 19.8108C13.1472 20.9987 14.1104 21.9617 15.2982 21.9617Z" fill="#F5A42A"/>
<path d="M32.407 26.6533H23.5931C22.4053 26.6533 21.4421 27.6164 21.4421 28.8043C21.4421 29.9922 22.4052 30.9553 23.5931 30.9553H32.407C33.5948 30.9553 34.558 29.9922 34.558 28.8043C34.558 27.6164 33.5948 26.6533 32.407 26.6533Z" fill="#F5A42A"/>
</g>
<defs>
<clipPath id="clip0_4_498">
<rect width="56" height="56" fill="white" transform="translate(0 0.400024)"/>
</clipPath>
</defs>
</svg>
