<svg width="29" height="22" viewBox="0 0 29 22" fill="none" xmlns="http://www.w3.org/2000/svg">
<path d="M1.22727 9C0.889773 9 0.600955 8.88994 0.360818 8.66981C0.120682 8.44969 0.000409091 8.18475 0 7.875V1.125C0 0.815625 0.120273 0.550875 0.360818 0.33075C0.601364 0.110625 0.890182 0.000375 1.22727 0H4.90909L6.13636 1.125H11.0455C11.383 1.125 11.672 1.23525 11.9125 1.45575C12.1531 1.67625 12.2731 1.941 12.2727 2.25V7.875C12.2727 8.18437 12.1527 8.44931 11.9125 8.66981C11.6724 8.89031 11.3834 9.00037 11.0455 9H1.22727Z" fill="#222222"/>
<path d="M1.22727 22C0.889773 22 0.600955 21.8899 0.360818 21.6698C0.120682 21.4497 0.000409091 21.1847 0 20.875V14.125C0 13.8156 0.120273 13.5509 0.360818 13.3307C0.601364 13.1106 0.890182 13.0004 1.22727 13H4.90909L6.13636 14.125H11.0455C11.383 14.125 11.672 14.2352 11.9125 14.4557C12.1531 14.6762 12.2731 14.941 12.2727 15.25V20.875C12.2727 21.1844 12.1527 21.4493 11.9125 21.6698C11.6724 21.8903 11.3834 22.0004 11.0455 22H1.22727Z" fill="#222222"/>
<path d="M17.5007 9C17.1632 9 16.8744 8.88994 16.6343 8.66981C16.3941 8.44969 16.2738 8.18475 16.2734 7.875V1.125C16.2734 0.815625 16.3937 0.550875 16.6343 0.33075C16.8748 0.110625 17.1636 0.000375 17.5007 0H21.1825L22.4098 1.125H27.3189C27.6564 1.125 27.9454 1.23525 28.186 1.45575C28.4265 1.67625 28.5466 1.941 28.5462 2.25V7.875C28.5462 8.18437 28.4261 8.44931 28.186 8.66981C27.9458 8.89031 27.6568 9.00037 27.3189 9H17.5007Z" fill="#222222"/>
<path d="M17.5007 22C17.1632 22 16.8744 21.8899 16.6343 21.6698C16.3941 21.4497 16.2738 21.1847 16.2734 20.875V14.125C16.2734 13.8156 16.3937 13.5509 16.6343 13.3307C16.8748 13.1106 17.1636 13.0004 17.5007 13H21.1825L22.4098 14.125H27.3189C27.6564 14.125 27.9454 14.2352 28.186 14.4557C28.4265 14.6762 28.5466 14.941 28.5462 15.25V20.875C28.5462 21.1844 28.4261 21.4493 28.186 21.6698C27.9458 21.8903 27.6568 22.0004 27.3189 22H17.5007Z" fill="#222222"/>
</svg>
