<svg width="1158" height="229" viewBox="0 0 1158 229" fill="none" xmlns="http://www.w3.org/2000/svg">
<g filter="url(#filter0_ii_17_31)">
<rect y="97" width="1158" height="20" rx="10" fill="#FBFBFF"/>
</g>
<path d="M235 1V71" stroke="#717171" stroke-linecap="round" stroke-dasharray="7 5"/>
<g filter="url(#filter1_d_17_31)">
<circle cx="235" cy="107" r="8" fill="#222222"/>
<circle cx="235" cy="107" r="11.5" stroke="white" stroke-width="7"/>
</g>
<path d="M216.178 185.288C216.178 179.784 217.074 175.496 218.866 172.424C220.658 169.32 223.794 167.768 228.274 167.768C232.722 167.768 235.842 169.32 237.634 172.424C239.426 175.496 240.322 179.784 240.322 185.288C240.322 190.888 239.426 195.24 237.634 198.344C235.842 201.448 232.722 203 228.274 203C223.794 203 220.658 201.448 218.866 198.344C217.074 195.24 216.178 190.888 216.178 185.288ZM236.002 185.288C236.002 182.504 235.81 180.152 235.426 178.232C235.074 176.28 234.322 174.712 233.17 173.528C232.05 172.344 230.418 171.752 228.274 171.752C226.098 171.752 224.434 172.344 223.282 173.528C222.162 174.712 221.41 176.28 221.026 178.232C220.674 180.152 220.498 182.504 220.498 185.288C220.498 188.168 220.674 190.584 221.026 192.536C221.41 194.488 222.162 196.056 223.282 197.24C224.434 198.424 226.098 199.016 228.274 199.016C230.418 199.016 232.05 198.424 233.17 197.24C234.322 196.056 235.074 194.488 235.426 192.536C235.81 190.584 236.002 188.168 236.002 185.288ZM243.247 172.28V168.296H252.271V203H247.855V172.28H243.247Z" fill="#222222"/>
<path d="M579 1V71" stroke="#717171" stroke-linecap="round" stroke-dasharray="7 5"/>
<g filter="url(#filter2_d_17_31)">
<circle cx="579" cy="107" r="8" fill="#222222"/>
<circle cx="579" cy="107" r="11.5" stroke="white" stroke-width="7"/>
</g>
<path d="M554.061 185.288C554.061 179.784 554.957 175.496 556.749 172.424C558.541 169.32 561.677 167.768 566.157 167.768C570.605 167.768 573.725 169.32 575.517 172.424C577.309 175.496 578.205 179.784 578.205 185.288C578.205 190.888 577.309 195.24 575.517 198.344C573.725 201.448 570.605 203 566.157 203C561.677 203 558.541 201.448 556.749 198.344C554.957 195.24 554.061 190.888 554.061 185.288ZM573.885 185.288C573.885 182.504 573.693 180.152 573.309 178.232C572.957 176.28 572.205 174.712 571.053 173.528C569.933 172.344 568.301 171.752 566.157 171.752C563.981 171.752 562.317 172.344 561.165 173.528C560.045 174.712 559.293 176.28 558.909 178.232C558.557 180.152 558.381 182.504 558.381 185.288C558.381 188.168 558.557 190.584 558.909 192.536C559.293 194.488 560.045 196.056 561.165 197.24C562.317 198.424 563.981 199.016 566.157 199.016C568.301 199.016 569.933 198.424 571.053 197.24C572.205 196.056 572.957 194.488 573.309 192.536C573.693 190.584 573.885 188.168 573.885 185.288ZM581.754 199.496C585.818 196.232 589.002 193.56 591.306 191.48C593.61 189.368 595.546 187.176 597.114 184.904C598.714 182.6 599.514 180.344 599.514 178.136C599.514 176.056 599.002 174.424 597.978 173.24C596.986 172.024 595.37 171.416 593.13 171.416C590.954 171.416 589.258 172.104 588.042 173.48C586.858 174.824 586.218 176.632 586.122 178.904H581.898C582.026 175.32 583.114 172.552 585.162 170.6C587.21 168.648 589.85 167.672 593.082 167.672C596.378 167.672 598.986 168.584 600.906 170.408C602.858 172.232 603.834 174.744 603.834 177.944C603.834 180.6 603.034 183.192 601.434 185.72C599.866 188.216 598.074 190.424 596.058 192.344C594.042 194.232 591.466 196.44 588.33 198.968H604.842V202.616H581.754V199.496Z" fill="#222222"/>
<path d="M923 1V71" stroke="#717171" stroke-linecap="round" stroke-dasharray="7 5"/>
<g filter="url(#filter3_d_17_31)">
<circle cx="923" cy="107" r="8" fill="#222222"/>
<circle cx="923" cy="107" r="11.5" stroke="white" stroke-width="7"/>
</g>
<path d="M897.733 185.288C897.733 179.784 898.629 175.496 900.421 172.424C902.213 169.32 905.349 167.768 909.829 167.768C914.277 167.768 917.397 169.32 919.189 172.424C920.981 175.496 921.877 179.784 921.877 185.288C921.877 190.888 920.981 195.24 919.189 198.344C917.397 201.448 914.277 203 909.829 203C905.349 203 902.213 201.448 900.421 198.344C898.629 195.24 897.733 190.888 897.733 185.288ZM917.557 185.288C917.557 182.504 917.365 180.152 916.981 178.232C916.629 176.28 915.877 174.712 914.725 173.528C913.605 172.344 911.973 171.752 909.829 171.752C907.653 171.752 905.989 172.344 904.837 173.528C903.717 174.712 902.965 176.28 902.581 178.232C902.229 180.152 902.053 182.504 902.053 185.288C902.053 188.168 902.229 190.584 902.581 192.536C902.965 194.488 903.717 196.056 904.837 197.24C905.989 198.424 907.653 199.016 909.829 199.016C911.973 199.016 913.605 198.424 914.725 197.24C915.877 196.056 916.629 194.488 916.981 192.536C917.365 190.584 917.557 188.168 917.557 185.288ZM925.857 177.032C926.081 174.088 927.217 171.784 929.265 170.12C931.313 168.456 933.969 167.624 937.233 167.624C939.409 167.624 941.281 168.024 942.849 168.824C944.449 169.592 945.649 170.648 946.449 171.992C947.281 173.336 947.697 174.856 947.697 176.552C947.697 178.536 947.121 180.248 945.969 181.688C944.849 183.128 943.377 184.056 941.553 184.472V184.712C943.633 185.224 945.281 186.232 946.497 187.736C947.713 189.24 948.321 191.208 948.321 193.64C948.321 195.464 947.905 197.112 947.073 198.584C946.241 200.024 944.993 201.16 943.329 201.992C941.665 202.824 939.665 203.24 937.329 203.24C933.937 203.24 931.153 202.36 928.977 200.6C926.801 198.808 925.585 196.28 925.329 193.016H929.553C929.777 194.936 930.561 196.504 931.905 197.72C933.249 198.936 935.041 199.544 937.281 199.544C939.521 199.544 941.217 198.968 942.369 197.816C943.553 196.632 944.145 195.112 944.145 193.256C944.145 190.856 943.345 189.128 941.745 188.072C940.145 187.016 937.729 186.488 934.497 186.488H933.393V182.84H934.545C937.489 182.808 939.713 182.328 941.217 181.4C942.721 180.44 943.473 178.968 943.473 176.984C943.473 175.288 942.913 173.928 941.793 172.904C940.705 171.88 939.137 171.368 937.089 171.368C935.105 171.368 933.505 171.88 932.289 172.904C931.073 173.928 930.353 175.304 930.129 177.032H925.857Z" fill="#222222"/>
<defs>
<filter id="filter0_ii_17_31" x="0" y="94" width="1158" height="27" filterUnits="userSpaceOnUse" color-interpolation-filters="sRGB">
<feFlood flood-opacity="0" result="BackgroundImageFix"/>
<feBlend mode="normal" in="SourceGraphic" in2="BackgroundImageFix" result="shape"/>
<feColorMatrix in="SourceAlpha" type="matrix" values="0 0 0 0 0 0 0 0 0 0 0 0 0 0 0 0 0 0 127 0" result="hardAlpha"/>
<feOffset dy="4"/>
<feGaussianBlur stdDeviation="3"/>
<feComposite in2="hardAlpha" operator="arithmetic" k2="-1" k3="1"/>
<feColorMatrix type="matrix" values="0 0 0 0 0 0 0 0 0 0 0 0 0 0 0 0 0 0 0.12 0"/>
<feBlend mode="normal" in2="shape" result="effect1_innerShadow_17_31"/>
<feColorMatrix in="SourceAlpha" type="matrix" values="0 0 0 0 0 0 0 0 0 0 0 0 0 0 0 0 0 0 127 0" result="hardAlpha"/>
<feOffset dy="-3"/>
<feGaussianBlur stdDeviation="5"/>
<feComposite in2="hardAlpha" operator="arithmetic" k2="-1" k3="1"/>
<feColorMatrix type="matrix" values="0 0 0 0 0 0 0 0 0 0 0 0 0 0 0 0 0 0 0.02 0"/>
<feBlend mode="normal" in2="effect1_innerShadow_17_31" result="effect2_innerShadow_17_31"/>
</filter>
<filter id="filter1_d_17_31" x="215" y="88" width="42" height="42" filterUnits="userSpaceOnUse" color-interpolation-filters="sRGB">
<feFlood flood-opacity="0" result="BackgroundImageFix"/>
<feColorMatrix in="SourceAlpha" type="matrix" values="0 0 0 0 0 0 0 0 0 0 0 0 0 0 0 0 0 0 127 0" result="hardAlpha"/>
<feOffset dx="1" dy="2"/>
<feGaussianBlur stdDeviation="3"/>
<feComposite in2="hardAlpha" operator="out"/>
<feColorMatrix type="matrix" values="0 0 0 0 0 0 0 0 0 0 0 0 0 0 0 0 0 0 0.1 0"/>
<feBlend mode="normal" in2="BackgroundImageFix" result="effect1_dropShadow_17_31"/>
<feBlend mode="normal" in="SourceGraphic" in2="effect1_dropShadow_17_31" result="shape"/>
</filter>
<filter id="filter2_d_17_31" x="559" y="88" width="42" height="42" filterUnits="userSpaceOnUse" color-interpolation-filters="sRGB">
<feFlood flood-opacity="0" result="BackgroundImageFix"/>
<feColorMatrix in="SourceAlpha" type="matrix" values="0 0 0 0 0 0 0 0 0 0 0 0 0 0 0 0 0 0 127 0" result="hardAlpha"/>
<feOffset dx="1" dy="2"/>
<feGaussianBlur stdDeviation="3"/>
<feComposite in2="hardAlpha" operator="out"/>
<feColorMatrix type="matrix" values="0 0 0 0 0 0 0 0 0 0 0 0 0 0 0 0 0 0 0.1 0"/>
<feBlend mode="normal" in2="BackgroundImageFix" result="effect1_dropShadow_17_31"/>
<feBlend mode="normal" in="SourceGraphic" in2="effect1_dropShadow_17_31" result="shape"/>
</filter>
<filter id="filter3_d_17_31" x="903" y="88" width="42" height="42" filterUnits="userSpaceOnUse" color-interpolation-filters="sRGB">
<feFlood flood-opacity="0" result="BackgroundImageFix"/>
<feColorMatrix in="SourceAlpha" type="matrix" values="0 0 0 0 0 0 0 0 0 0 0 0 0 0 0 0 0 0 127 0" result="hardAlpha"/>
<feOffset dx="1" dy="2"/>
<feGaussianBlur stdDeviation="3"/>
<feComposite in2="hardAlpha" operator="out"/>
<feColorMatrix type="matrix" values="0 0 0 0 0 0 0 0 0 0 0 0 0 0 0 0 0 0 0.1 0"/>
<feBlend mode="normal" in2="BackgroundImageFix" result="effect1_dropShadow_17_31"/>
<feBlend mode="normal" in="SourceGraphic" in2="effect1_dropShadow_17_31" result="shape"/>
</filter>
</defs>
</svg>
