<svg width="1280" height="1417" viewBox="0 0 1280 1417" fill="none" xmlns="http://www.w3.org/2000/svg">
<path d="M-38.2322 882.148C65.5819 834.766 176.553 974.908 263.054 941.025C402.002 886.597 370.769 653.302 523.966 531.09C691.861 397.154 837.088 576.732 866.379 639.814C923.589 763.024 963.366 1038.61 762.991 1132.23C634.192 1192.41 520.75 1112.46 383.911 1142.03C260.01 1168.8 238.273 1360.7 113.267 1381.23C13.464 1397.61 -83.1689 1305.13 -119.44 1224.68C-142.905 1172.63 -210.045 960.565 -38.2322 882.148Z" fill="#F3F5F7"/>
<circle opacity="0.5" cx="66.5" cy="187.5" r="187.5" fill="url(#paint0_linear_71_8)" fill-opacity="0.5"/>
<circle opacity="0.25" cx="1279.5" cy="542.5" r="133.5" fill="url(#paint1_linear_71_8)"/>
<defs>
<linearGradient id="paint0_linear_71_8" x1="254" y1="187.5" x2="-121" y2="187.5" gradientUnits="userSpaceOnUse">
<stop stop-color="#FFC130"/>
<stop offset="1" stop-color="#FF22A4"/>
</linearGradient>
<linearGradient id="paint1_linear_71_8" x1="1413" y1="542.5" x2="1146" y2="542.5" gradientUnits="userSpaceOnUse">
<stop stop-color="#FF22A4"/>
<stop offset="1" stop-color="#FFC130"/>
</linearGradient>
</defs>
</svg>
