<svg width="42" height="46" viewBox="0 0 42 46" fill="none" xmlns="http://www.w3.org/2000/svg">
<path d="M33.9375 5.75H8.06248C7.37623 5.75 6.71809 6.0529 6.23284 6.59207C5.74759 7.13123 5.47498 7.8625 5.47498 8.625V37.375C5.47498 38.1375 5.74759 38.8688 6.23284 39.4079C6.71809 39.9471 7.37623 40.25 8.06248 40.25H33.9375C34.6237 40.25 35.2819 39.9471 35.7671 39.4079C36.2524 38.8688 36.525 38.1375 36.525 37.375V8.625C36.525 7.8625 36.2524 7.13123 35.7671 6.59207C35.2819 6.0529 34.6237 5.75 33.9375 5.75ZM10.65 12.9375H31.35C31.6931 12.9375 32.0222 13.089 32.2648 13.3585C32.5074 13.6281 32.6437 13.9938 32.6437 14.375C32.6437 14.7562 32.5074 15.1219 32.2648 15.3915C32.0222 15.661 31.6931 15.8125 31.35 15.8125H10.65C10.3069 15.8125 9.97778 15.661 9.73516 15.3915C9.49253 15.1219 9.35623 14.7562 9.35623 14.375C9.35623 13.9938 9.49253 13.6281 9.73516 13.3585C9.97778 13.089 10.3069 12.9375 10.65 12.9375ZM19.7062 33.0625H10.65C10.3069 33.0625 9.97778 32.9111 9.73516 32.6415C9.49253 32.3719 9.35623 32.0062 9.35623 31.625C9.35623 31.2438 9.49253 30.8781 9.73516 30.6085C9.97778 30.3389 10.3069 30.1875 10.65 30.1875H19.7062C20.0493 30.1875 20.3784 30.3389 20.621 30.6085C20.8637 30.8781 21 31.2438 21 31.625C21 32.0062 20.8637 32.3719 20.621 32.6415C20.3784 32.9111 20.0493 33.0625 19.7062 33.0625ZM22.2937 24.4375H10.65C10.3069 24.4375 9.97778 24.2861 9.73516 24.0165C9.49253 23.7469 9.35623 23.3812 9.35623 23C9.35623 22.6188 9.49253 22.2531 9.73516 21.9835C9.97778 21.714 10.3069 21.5625 10.65 21.5625H22.2937C22.6368 21.5625 22.9659 21.714 23.2085 21.9835C23.4512 22.2531 23.5875 22.6188 23.5875 23C23.5875 23.3812 23.4512 23.7469 23.2085 24.0165C22.9659 24.2861 22.6368 24.4375 22.2937 24.4375ZM32.6437 30.1875H30.0562V33.0625C30.0562 33.4437 29.9199 33.8094 29.6773 34.079C29.4347 34.3486 29.1056 34.5 28.7625 34.5C28.4193 34.5 28.0903 34.3486 27.8477 34.079C27.605 33.8094 27.4687 33.4437 27.4687 33.0625V30.1875H24.8812C24.5381 30.1875 24.209 30.0361 23.9664 29.7665C23.7238 29.4969 23.5875 29.1312 23.5875 28.75C23.5875 28.3688 23.7238 28.0031 23.9664 27.7335C24.209 27.4639 24.5381 27.3125 24.8812 27.3125H27.4687V24.4375C27.4687 24.0563 27.605 23.6906 27.8477 23.421C28.0903 23.1514 28.4193 23 28.7625 23C29.1056 23 29.4347 23.1514 29.6773 23.421C29.9199 23.6906 30.0562 24.0563 30.0562 24.4375V27.3125H32.6437C32.9868 27.3125 33.3159 27.4639 33.5585 27.7335C33.8012 28.0031 33.9375 28.3688 33.9375 28.75C33.9375 29.1312 33.8012 29.4969 33.5585 29.7665C33.3159 30.0361 32.9868 30.1875 32.6437 30.1875Z" fill="#222222"/>
</svg>
