<svg width="41" height="41" viewBox="0 0 41 41" fill="none" xmlns="http://www.w3.org/2000/svg">
<path d="M8.66668 5.5H32C32.8841 5.5 33.7319 5.85119 34.357 6.47631C34.9822 7.10143 35.3333 7.94928 35.3333 8.83333V32.1667C35.3333 34.0167 33.85 35.5 32 35.5H8.66668C7.78262 35.5 6.93478 35.1488 6.30965 34.5237C5.68453 33.8986 5.33334 33.0507 5.33334 32.1667V8.83333C5.33334 7 6.83334 5.5 8.66668 5.5ZM27 28.8333V25.5H13.6667V28.8333H27ZM27 18.8333L20.3333 12.1667L13.6667 18.8333H17.8333V23.8333H22.8333V18.8333H27Z" fill="#222222"/>
</svg>
