<svg width="36" height="36" viewBox="0 0 36 36" fill="none" xmlns="http://www.w3.org/2000/svg">
<path d="M14.9167 26.7499H9.08334V23.8332H14.9167V26.7499ZM14.9167 20.9166H9.08334V17.9999H14.9167V20.9166ZM14.9167 1.95825V3.41659H9.08334C7.46459 3.41659 6.16667 4.7145 6.16667 6.33325V29.6666C6.16667 30.4401 6.47396 31.182 7.02094 31.729C7.56792 32.276 8.30979 32.5832 9.08334 32.5832H14.9167V34.0416H17.8333V1.95825H14.9167ZM29.5 12.1666V29.6666C29.5 31.2853 28.2021 32.5832 26.5833 32.5832H20.75V29.6666H26.5833V16.5416H20.75V13.6249H27.3125L20.75 7.06242V3.41659L29.5 12.1666ZM23.6667 20.9166H20.75V17.9999H23.6667V20.9166ZM23.6667 26.7499H20.75V23.8332H23.6667V26.7499Z" fill="#222222"/>
</svg>
