<svg width="22" height="23" viewBox="0 0 22 23" fill="none" xmlns="http://www.w3.org/2000/svg">
<path d="M12.0312 5.55627C12.0312 5.28277 11.9226 5.02047 11.7292 4.82707C11.5358 4.63367 11.2735 4.52502 11 4.52502C10.7265 4.52502 10.4642 4.63367 10.2708 4.82707C10.0774 5.02047 9.96875 5.28277 9.96875 5.55627V10.3688H5.15625C4.88275 10.3688 4.62044 10.4774 4.42705 10.6708C4.23365 10.8642 4.125 11.1265 4.125 11.4C4.125 11.6735 4.23365 11.9358 4.42705 12.1292C4.62044 12.3226 4.88275 12.4313 5.15625 12.4313H9.96875V17.2438C9.96875 17.5173 10.0774 17.7796 10.2708 17.973C10.4642 18.1664 10.7265 18.275 11 18.275C11.2735 18.275 11.5358 18.1664 11.7292 17.973C11.9226 17.7796 12.0312 17.5173 12.0312 17.2438V12.4313H16.8438C17.1173 12.4313 17.3796 12.3226 17.573 12.1292C17.7664 11.9358 17.875 11.6735 17.875 11.4C17.875 11.1265 17.7664 10.8642 17.573 10.6708C17.3796 10.4774 17.1173 10.3688 16.8438 10.3688H12.0312V5.55627Z" fill="#222222"/>
</svg>
