<svg width="62" height="62" viewBox="0 0 62 62" fill="none" xmlns="http://www.w3.org/2000/svg">
<g clip-path="url(#clip0_4_461)">
<path d="M39.4766 49.868H37.4669C36.9624 48.7918 36.7113 47.2027 36.622 45.5642C34.8588 46.0253 32.9771 46.259 30.9841 46.259C29.0161 46.259 27.1561 46.0309 25.4103 45.5818C25.3281 47.2131 25.0809 48.7958 24.5727 49.868H22.5234C20.1864 49.868 18.2852 51.7693 18.2852 54.1063V54.7343H43.7148V54.1063C43.7148 51.7693 41.8136 49.868 39.4766 49.868Z" fill="white"/>
<path d="M46.1367 58.3671H15.8633C14.8601 58.3671 14.0469 59.1803 14.0469 60.1835C14.0469 61.1866 14.8601 61.9999 15.8633 61.9999H46.1367C47.1399 61.9999 47.9531 61.1866 47.9531 60.1835C47.9531 59.1803 47.1399 58.3671 46.1367 58.3671Z" fill="white"/>
<path d="M7.99219 3.63293H54.0078C55.011 3.63293 55.8242 2.81967 55.8242 1.81653C55.8242 0.813388 55.011 0.00012207 54.0078 0.00012207H7.99219C6.98905 0.00012207 6.17578 0.813388 6.17578 1.81653C6.17578 2.81967 6.98905 3.63293 7.99219 3.63293Z" fill="white"/>
<path d="M50.9497 10.5038C51.0293 9.46045 51.116 8.32556 51.2162 7.26575H10.6348C10.7203 8.2173 10.7957 9.22093 10.8654 10.1487C11.2997 15.9271 11.8943 23.8406 14.4654 30.366C17.6708 38.5013 23.2285 42.6262 30.9842 42.6262C38.6726 42.6262 44.1812 38.567 47.3573 30.5615C49.9092 24.1288 50.5106 16.2539 50.9497 10.5038ZM39.6332 21.2754L37.1485 24.5147L37.2605 28.6011C37.277 29.2002 36.9968 29.769 36.5117 30.121C36.1972 30.3492 35.8227 30.4673 35.4447 30.4673C35.2394 30.4673 35.0332 30.4326 34.8346 30.3617L30.9999 28.994L27.1653 30.3617C26.601 30.563 25.9733 30.4729 25.4881 30.121C25.003 29.769 24.7229 29.2002 24.7393 28.6011L24.8513 24.5147L22.3667 21.2754C22.0026 20.8008 21.8955 20.1771 22.0807 19.6081C22.2657 19.0391 22.7192 18.5977 23.2929 18.428L27.1981 17.2734L29.5002 13.9037C29.8388 13.4083 30.4001 13.112 31.0001 13.112C31.6001 13.112 32.1614 13.4083 32.4999 13.9037L34.8021 17.2734L38.7072 18.428C39.2808 18.5977 39.7343 19.0391 39.9195 19.6081C40.1044 20.1771 39.9973 20.8008 39.6332 21.2754Z" fill="white"/>
<path d="M32.1671 19.8566L31 18.1483L29.8329 19.8566C29.5971 20.2019 29.2493 20.4552 28.8482 20.5738L26.8583 21.1621L28.1261 22.8149C28.3798 23.1455 28.5121 23.5536 28.5005 23.9701L28.4435 26.0487L30.3897 25.3546C30.587 25.2843 30.7935 25.249 30.9999 25.249C31.2064 25.249 31.4129 25.2843 31.6101 25.3546L33.5563 26.0487L33.4993 23.9701C33.4878 23.5536 33.62 23.1455 33.8737 22.8149L35.1416 21.1621L33.1519 20.5738C32.7508 20.4553 32.403 20.2019 32.1671 19.8566Z" fill="white"/>
<path d="M9.05551 24.8501C5.92451 20.9034 4.02213 16.0513 3.68634 10.9517H7.28282C7.26938 10.7733 7.25606 10.5964 7.24298 10.4216C7.18013 9.58657 7.09161 8.4099 6.99086 7.31885H1.81641C0.813266 7.31885 0 8.13211 0 9.13525V9.32234C0 18.2174 4.18125 26.6507 11.2179 32.0269C11.1734 31.9175 11.129 31.8081 11.0854 31.6974C10.2184 29.497 9.56205 27.1797 9.05551 24.8501Z" fill="white"/>
<path d="M60.1836 7.31885H54.8621C54.7427 8.54553 54.6388 9.90481 54.5721 10.7783C54.5678 10.8354 54.5633 10.8941 54.5589 10.9517H58.3127C57.9681 16.1404 56.0015 21.0703 52.7699 25.0513C52.2626 27.3864 51.605 29.7061 50.7341 31.9011C50.706 31.9718 50.6773 32.0415 50.6488 32.1117C57.7658 26.7402 62 18.2597 62 9.30721V9.13525C62 8.13211 61.1867 7.31885 60.1836 7.31885Z" fill="white"/>
</g>
<defs>
<clipPath id="clip0_4_461">
<rect width="62" height="62" fill="white"/>
</clipPath>
</defs>
</svg>
