<svg width="24" height="25" viewBox="0 0 24 25" fill="none" xmlns="http://www.w3.org/2000/svg">
<path d="M12.244 4.39014C12.778 4.39314 14.114 4.40614 15.534 4.46314L16.038 4.48514C17.467 4.55214 18.895 4.66814 19.604 4.86514C20.549 5.13114 21.291 5.90514 21.542 6.88714C21.942 8.44714 21.992 11.4891 21.998 12.2261L21.999 12.3781V12.5521C21.992 13.2891 21.942 16.3321 21.542 17.8911C21.288 18.8761 20.545 19.6511 19.604 19.9131C18.895 20.1101 17.467 20.2261 16.038 20.2931L15.534 20.3161C14.114 20.3721 12.778 20.3861 12.244 20.3881L12.009 20.3891H11.754C10.624 20.3821 5.898 20.3311 4.394 19.9131C3.45 19.6471 2.707 18.8731 2.456 17.8911C2.056 16.3311 2.006 13.2891 2 12.5521V12.2261C2.006 11.4891 2.056 8.44614 2.456 6.88714C2.71 5.90214 3.453 5.12714 4.395 4.86614C5.898 4.44714 10.625 4.39614 11.755 4.39014H12.244ZM9.999 8.89014V15.8901L15.999 12.3901L9.999 8.89014Z" fill="white"/>
</svg>
