<svg width="24" height="25" viewBox="0 0 24 25" fill="none" xmlns="http://www.w3.org/2000/svg">
<path d="M18.6872 19.0813H15.8736V14.6725C15.8736 13.6212 15.8523 12.2682 14.4075 12.2682C12.9405 12.2682 12.7165 13.4122 12.7165 14.5949V19.0813H9.90287V10.0151H12.6056V11.2509H12.642C13.0197 10.5384 13.938 9.78635 15.31 9.78635C18.1608 9.78635 18.688 11.6626 18.688 14.1049L18.6872 19.0813ZM6.72512 8.7746C6.51043 8.77491 6.29778 8.73283 6.09939 8.65076C5.90099 8.5687 5.72075 8.44827 5.56901 8.29638C5.41727 8.14449 5.29702 7.96414 5.21514 7.76566C5.13327 7.56719 5.0914 7.3545 5.09192 7.1398C5.09207 6.81663 5.18806 6.50076 5.36774 6.23214C5.54741 5.96351 5.80271 5.7542 6.10134 5.63067C6.39998 5.50714 6.72854 5.47495 7.04547 5.53815C7.3624 5.60135 7.65348 5.75711 7.88189 5.98574C8.1103 6.21437 8.26578 6.5056 8.32867 6.82259C8.39157 7.13959 8.35905 7.46812 8.23523 7.76663C8.11141 8.06515 7.90186 8.32024 7.63306 8.49966C7.36426 8.67907 7.0483 8.77475 6.72512 8.7746ZM8.13588 19.0813H5.31438V10.0151H8.13588V19.0813ZM20.0948 2.89014H3.90204C3.127 2.89014 2.5 3.50289 2.5 4.25893V20.5213C2.5 21.2782 3.127 21.8901 3.90204 21.8901H20.0924C20.8667 21.8901 21.5 21.2782 21.5 20.5213V4.25893C21.5 3.50289 20.8667 2.89014 20.0924 2.89014H20.0948Z" fill="white"/>
</svg>
