<svg width="56" height="57" viewBox="0 0 56 57" fill="none" xmlns="http://www.w3.org/2000/svg">
<path d="M4.96523 37.1103C3.9007 30.1908 2.83618 23.2715 1.77165 16.352C1.53558 14.8181 3.28085 13.7719 4.5223 14.7031C7.8389 17.1906 11.1553 19.6778 14.4719 22.1653C15.5639 22.9843 17.1197 22.7178 17.8767 21.582L26.16 9.15701C27.0354 7.84398 28.9646 7.84398 29.8399 9.15701L38.1232 21.582C38.8802 22.7178 40.436 22.9841 41.528 22.1653C44.8446 19.6778 48.161 17.1906 51.4776 14.7031C52.7191 13.7719 54.4643 14.8181 54.2284 16.352C53.1639 23.2715 52.0994 30.1908 51.0349 37.1103H4.96523Z" fill="#FFC130"/>
<path d="M48.6328 48.6276H7.36708C6.04058 48.6276 4.96521 47.5522 4.96521 46.2257V40.9495H51.0348V46.2257C51.0347 47.5522 49.9593 48.6276 48.6328 48.6276Z" fill="#F5A42A"/>
</svg>
