<svg width="35" height="24" viewBox="0 0 35 24" fill="none" xmlns="http://www.w3.org/2000/svg">
<path d="M35 21V3C35 1.34 33.66 0 32 0H3.98001C2.32001 0 0.980011 1.34 0.980011 3V21C0.980011 22.66 2.32001 24 3.98001 24H32C33.66 24 35 22.66 35 21ZM32.38 2.78C33.04 3.44 32.68 4.12 32.32 4.46L24.2 11.9L32 20.02C32.24 20.3 32.4 20.74 32.12 21.04C31.86 21.36 31.26 21.34 31 21.14L22.26 13.68L17.98 17.58L13.72 13.68L4.98001 21.14C4.72001 21.34 4.12001 21.36 3.86001 21.04C3.58001 20.74 3.74001 20.3 3.98001 20.02L11.78 11.9L3.66001 4.46C3.30001 4.12 2.94001 3.44 3.60001 2.78C4.26001 2.12 4.94001 2.44 5.50001 2.92L17.98 13L30.48 2.92C31.04 2.44 31.72 2.12 32.38 2.78Z" fill="#222222"/>
</svg>
