<svg width="36" height="36" viewBox="0 0 36 36" fill="none" xmlns="http://www.w3.org/2000/svg">
<path fill-rule="evenodd" clip-rule="evenodd" d="M27.75 28.419C27.51 28.481 27.26 28.5125 27 28.5135H8.25V30.75H27C27.1989 30.75 27.3897 30.671 27.5303 30.5303C27.671 30.3897 27.75 30.1989 27.75 30V28.419ZM6 3H27C27.7956 3 28.5587 3.31607 29.1213 3.87868C29.6839 4.44129 30 5.20435 30 6V30C30 30.7957 29.6839 31.5587 29.1213 32.1213C28.5587 32.6839 27.7956 33 27 33H6V3ZM10.5 5.25V26.25H12.75V5.25H10.5Z" fill="#222222"/>
</svg>
