<svg width="1665" height="1301" viewBox="0 0 1665 1301" fill="none" xmlns="http://www.w3.org/2000/svg">
<path fill-rule="evenodd" clip-rule="evenodd" d="M1069.73 537.136C1012.58 632.795 828.08 543.46 728.928 604.435C663.737 644.525 703.635 752.149 644.012 798.935C564.589 861.26 423.461 968.285 357.225 896.114C275.233 806.777 490.515 655.319 421.938 556.964C341.937 442.223 84.9919 528.364 16.5324 407.48C-39.2649 308.954 57.4115 157.897 168.689 109.785C284.612 59.6657 403.977 185.349 531.539 184.815C623.051 184.432 703.073 74.5533 786.728 107.198C869.669 139.564 848.556 256.197 894.906 326.612C945.857 404.017 1117.71 456.814 1069.73 537.136Z" fill="url(#paint0_linear_43_673)" fill-opacity="0.08"/>
<path fill-rule="evenodd" clip-rule="evenodd" d="M1658.4 996.187C1619.2 1072.08 1492.66 1001.2 1424.65 1049.58C1379.93 1081.39 1407.3 1166.77 1366.4 1203.89C1311.93 1253.33 1215.13 1338.24 1169.69 1280.99C1113.46 1210.11 1261.12 1089.95 1214.08 1011.92C1159.21 920.887 982.969 989.227 936.012 893.323C897.741 815.157 964.052 695.314 1040.38 657.144C1119.89 617.381 1201.76 717.094 1289.26 716.67C1352.03 716.366 1406.91 629.193 1464.29 655.092C1521.18 680.77 1506.7 773.302 1538.49 829.166C1573.44 890.576 1691.32 932.463 1658.4 996.187Z" fill="url(#paint1_linear_43_673)" fill-opacity="0.05"/>
<defs>
<linearGradient id="paint0_linear_43_673" x1="940.878" y1="827.229" x2="281.567" y2="28.283" gradientUnits="userSpaceOnUse">
<stop stop-color="#A7A5FF"/>
<stop offset="1" stop-color="#FF9ACE"/>
</linearGradient>
<linearGradient id="paint1_linear_43_673" x1="1570.02" y1="1226.34" x2="1037.85" y2="668.797" gradientUnits="userSpaceOnUse">
<stop stop-color="#A7A5FF"/>
<stop offset="1" stop-color="#FF9ACE"/>
</linearGradient>
</defs>
</svg>
