<svg width="78" height="76" viewBox="0 0 78 76" fill="none" xmlns="http://www.w3.org/2000/svg">
<g filter="url(#filter0_i_41_348)">
<ellipse cx="38.9995" cy="38" rx="38.5" ry="38" fill="white"/>
</g>
<path d="M25.3328 28.4167V31.3333H33.0478C33.3792 31.333 33.6969 31.2012 33.9311 30.9667L36.4811 28.4167L33.9311 25.8667C33.6969 25.6322 33.3792 25.5003 33.0478 25.5H28.2494C27.4759 25.5 26.734 25.8073 26.187 26.3543C25.6401 26.9013 25.3328 27.6431 25.3328 28.4167ZM22.8328 28.4167C22.8328 26.9801 23.4034 25.6023 24.4193 24.5865C25.4351 23.5707 26.8128 23 28.2494 23H33.0478C34.0418 23.0004 34.9949 23.3955 35.6978 24.0983L38.7694 27.1667H50.7511C52.1874 27.1671 53.5647 27.738 54.5802 28.7538C55.5956 29.7695 56.1661 31.147 56.1661 32.5833V36.3333H53.6661V32.5833C53.6661 31.8098 53.3588 31.0679 52.8118 30.5209C52.2648 29.974 51.523 29.6667 50.7494 29.6667H38.7661L35.6994 32.735C35.3512 33.0832 34.9378 33.3594 34.4828 33.5479C34.0279 33.7363 33.5402 33.8333 33.0478 33.8333H25.3328V47.5833C25.3328 49.1933 26.6394 50.5 28.2494 50.5H41.7978C42.2461 51.0033 42.8994 51.3333 43.6611 51.3333H46.5328L46.1178 53H28.2494C26.8128 53 25.4351 52.4293 24.4193 51.4135C23.4034 50.3977 22.8328 49.0199 22.8328 47.5833V28.4167ZM48.3628 38H56.4078C56.5533 38 56.6962 38.038 56.8224 38.1104C56.9487 38.1827 57.0537 38.2869 57.1272 38.4124C57.2007 38.538 57.24 38.6806 57.2413 38.8261C57.2426 38.9716 57.2057 39.1148 57.1344 39.2417L54.0844 44.6667H56.5761C56.8164 44.6665 57.0516 44.7355 57.2536 44.8655C57.4557 44.9955 57.616 45.181 57.7153 45.3998C57.8147 45.6185 57.8489 45.8613 57.8139 46.099C57.7788 46.3367 57.676 46.5592 57.5178 46.74L49.4778 55.92C48.6361 56.88 47.0728 56.0617 47.3811 54.825L48.6661 49.6667H43.6628C43.5223 49.6668 43.3841 49.6315 43.2609 49.5639C43.1377 49.4964 43.0337 49.3988 42.9583 49.2802C42.883 49.1617 42.8389 49.026 42.83 48.8858C42.8212 48.7456 42.8479 48.6054 42.9078 48.4783L47.6078 38.4783C47.6752 38.3351 47.782 38.2141 47.9157 38.1294C48.0494 38.0447 48.2045 37.9998 48.3628 38Z" fill="black"/>
<defs>
<filter id="filter0_i_41_348" x="0.499512" y="0" width="77" height="76" filterUnits="userSpaceOnUse" color-interpolation-filters="sRGB">
<feFlood flood-opacity="0" result="BackgroundImageFix"/>
<feBlend mode="normal" in="SourceGraphic" in2="BackgroundImageFix" result="shape"/>
<feColorMatrix in="SourceAlpha" type="matrix" values="0 0 0 0 0 0 0 0 0 0 0 0 0 0 0 0 0 0 127 0" result="hardAlpha"/>
<feOffset/>
<feGaussianBlur stdDeviation="3.5"/>
<feComposite in2="hardAlpha" operator="arithmetic" k2="-1" k3="1"/>
<feColorMatrix type="matrix" values="0 0 0 0 0 0 0 0 0 0 0 0 0 0 0 0 0 0 0.25 0"/>
<feBlend mode="normal" in2="shape" result="effect1_innerShadow_41_348"/>
</filter>
</defs>
</svg>
