<svg width="78" height="76" viewBox="0 0 78 76" fill="none" xmlns="http://www.w3.org/2000/svg">
<g filter="url(#filter0_i_41_361)">
<ellipse cx="38.666" cy="38" rx="38.5" ry="38" fill="white"/>
</g>
<mask id="path-2-outside-1_41_361" maskUnits="userSpaceOnUse" x="21.3333" y="22" width="35" height="30" fill="black">
<rect fill="white" x="21.3333" y="22" width="35" height="30"/>
<path d="M38.0549 39.1533H45.5516C46.0816 39.1533 46.5321 38.9678 46.9033 38.5967C47.2755 38.2244 47.4616 37.7733 47.4616 37.2433C47.4616 36.7133 47.2755 36.2556 46.9033 35.87C46.531 35.4844 46.0805 35.2917 45.5516 35.2917H44.6349L44.5066 34.4917C44.4099 33.7517 44.0766 33.1256 43.5066 32.6133C42.9366 32.1011 42.2677 31.8456 41.4999 31.8467C40.8844 31.8467 40.3383 32.0072 39.8616 32.3283C39.386 32.6506 39.0166 33.0778 38.7533 33.61L38.4966 34.1217L37.8883 34.155C37.226 34.2106 36.6688 34.4672 36.2166 34.925C35.7644 35.3828 35.5383 35.9539 35.5383 36.6383C35.5383 37.3228 35.7838 37.9128 36.2749 38.4083C36.7638 38.905 37.3571 39.1533 38.0549 39.1533ZM25.0266 50.95C24.2588 50.95 23.6183 50.6933 23.1049 50.18C22.5916 49.6667 22.3344 49.0256 22.3333 48.2567V31.4617H23.9999V48.2567C23.9999 48.5122 24.1066 48.7472 24.3199 48.9617C24.5333 49.1761 24.7683 49.2828 25.0249 49.2817H50.7333V50.9483L25.0266 50.95ZM30.0266 45.95C29.2588 45.95 28.6183 45.6933 28.1049 45.18C27.5916 44.6667 27.3344 44.0256 27.3333 43.2567V25.6933C27.3333 24.9256 27.5905 24.2844 28.1049 23.77C28.6194 23.2556 29.2599 22.9989 30.0266 23H38.9999L41.0499 25.05H52.9749C53.7416 25.05 54.3816 25.3072 54.8949 25.8217C55.4083 26.3361 55.6655 26.9767 55.6666 27.7433V43.2567C55.6666 44.0233 55.4094 44.6639 54.8949 45.1783C54.3805 45.6928 53.7399 45.9494 52.9733 45.9483L30.0266 45.95ZM30.0266 44.2833H52.9749C53.2305 44.2833 53.4655 44.1767 53.6799 43.9633C53.8944 43.75 54.001 43.515 53.9999 43.2583V27.7433C53.9999 27.4878 53.8933 27.2528 53.6799 27.0383C53.4666 26.8239 53.2316 26.7172 52.9749 26.7183H40.3499L38.2983 24.6667H30.0266C29.7266 24.6667 29.4805 24.7628 29.2883 24.955C29.096 25.1472 28.9999 25.3933 28.9999 25.6933V43.2567C28.9999 43.5122 29.1066 43.7472 29.3199 43.9617C29.5344 44.175 29.7699 44.2817 30.0266 44.2817"/>
</mask>
<path d="M38.0549 39.1533H45.5516C46.0816 39.1533 46.5321 38.9678 46.9033 38.5967C47.2755 38.2244 47.4616 37.7733 47.4616 37.2433C47.4616 36.7133 47.2755 36.2556 46.9033 35.87C46.531 35.4844 46.0805 35.2917 45.5516 35.2917H44.6349L44.5066 34.4917C44.4099 33.7517 44.0766 33.1256 43.5066 32.6133C42.9366 32.1011 42.2677 31.8456 41.4999 31.8467C40.8844 31.8467 40.3383 32.0072 39.8616 32.3283C39.386 32.6506 39.0166 33.0778 38.7533 33.61L38.4966 34.1217L37.8883 34.155C37.226 34.2106 36.6688 34.4672 36.2166 34.925C35.7644 35.3828 35.5383 35.9539 35.5383 36.6383C35.5383 37.3228 35.7838 37.9128 36.2749 38.4083C36.7638 38.905 37.3571 39.1533 38.0549 39.1533ZM25.0266 50.95C24.2588 50.95 23.6183 50.6933 23.1049 50.18C22.5916 49.6667 22.3344 49.0256 22.3333 48.2567V31.4617H23.9999V48.2567C23.9999 48.5122 24.1066 48.7472 24.3199 48.9617C24.5333 49.1761 24.7683 49.2828 25.0249 49.2817H50.7333V50.9483L25.0266 50.95ZM30.0266 45.95C29.2588 45.95 28.6183 45.6933 28.1049 45.18C27.5916 44.6667 27.3344 44.0256 27.3333 43.2567V25.6933C27.3333 24.9256 27.5905 24.2844 28.1049 23.77C28.6194 23.2556 29.2599 22.9989 30.0266 23H38.9999L41.0499 25.05H52.9749C53.7416 25.05 54.3816 25.3072 54.8949 25.8217C55.4083 26.3361 55.6655 26.9767 55.6666 27.7433V43.2567C55.6666 44.0233 55.4094 44.6639 54.8949 45.1783C54.3805 45.6928 53.7399 45.9494 52.9733 45.9483L30.0266 45.95ZM30.0266 44.2833H52.9749C53.2305 44.2833 53.4655 44.1767 53.6799 43.9633C53.8944 43.75 54.001 43.515 53.9999 43.2583V27.7433C53.9999 27.4878 53.8933 27.2528 53.6799 27.0383C53.4666 26.8239 53.2316 26.7172 52.9749 26.7183H40.3499L38.2983 24.6667H30.0266C29.7266 24.6667 29.4805 24.7628 29.2883 24.955C29.096 25.1472 28.9999 25.3933 28.9999 25.6933V43.2567C28.9999 43.5122 29.1066 43.7472 29.3199 43.9617C29.5344 44.175 29.7699 44.2817 30.0266 44.2817" fill="black"/>
<path d="M29.1499 44.2817V24.6667H28.8499V44.2817H29.1499ZM45.5516 35.2917V35.5917V35.2917ZM44.6349 35.2917L44.3387 35.3392L44.3792 35.5917H44.6349V35.2917ZM44.5066 34.4917L44.209 34.5305L44.2104 34.5392L44.5066 34.4917ZM41.4999 31.8467L41.4999 32.1467L41.5004 32.1467L41.4999 31.8467ZM39.8616 32.3283L39.694 32.0795L39.6933 32.08L39.8616 32.3283ZM38.7533 33.61L39.0214 33.7445L39.0221 33.743L38.7533 33.61ZM38.4966 34.1217L38.513 34.4212L38.6867 34.4117L38.7647 34.2562L38.4966 34.1217ZM37.8883 34.155L37.8718 33.8553L37.8632 33.8561L37.8883 34.155ZM36.2749 38.4083L36.4887 38.1979L36.488 38.1972L36.2749 38.4083ZM25.0266 50.95L25.0266 51.25L25.0266 51.25L25.0266 50.95ZM22.3333 48.2567L22.0333 48.2567L22.0333 48.2571L22.3333 48.2567ZM22.3333 31.4617V31.1617H22.0333V31.4617H22.3333ZM23.9999 31.4617H24.2999V31.1617H23.9999V31.4617ZM25.0249 49.2817L25.0249 48.9817L25.0236 48.9817L25.0249 49.2817ZM50.7333 49.2817H51.0333V48.9817H50.7333V49.2817ZM50.7333 50.9483L50.7333 51.2483L51.0333 51.2483V50.9483H50.7333ZM30.0266 45.95L30.0266 46.25L30.0266 46.25L30.0266 45.95ZM27.3333 43.2567L27.0333 43.2567L27.0333 43.2571L27.3333 43.2567ZM30.0266 23L30.0262 23.3H30.0266V23ZM38.9999 23L39.212 22.7879L39.1242 22.7H38.9999V23ZM41.0499 25.05L40.8378 25.2621L40.9257 25.35H41.0499V25.05ZM55.6666 27.7433L55.9666 27.7433L55.9666 27.7429L55.6666 27.7433ZM52.9733 45.9483L52.9737 45.6483L52.9732 45.6483L52.9733 45.9483ZM53.9999 43.2583L53.6999 43.2583L53.6999 43.2596L53.9999 43.2583ZM52.9749 26.7183V27.0183L52.9762 27.0183L52.9749 26.7183ZM40.3499 26.7183L40.1378 26.9305L40.2257 27.0183H40.3499V26.7183ZM38.2983 24.6667L38.5104 24.4545L38.4225 24.3667H38.2983V24.6667ZM29.3199 43.9617L29.1072 44.1733L29.1083 44.1744L29.3199 43.9617ZM38.0549 39.4533H45.5516V38.8533H38.0549V39.4533ZM45.5516 39.4533C46.1603 39.4533 46.6874 39.2368 47.1154 38.8088L46.6911 38.3845C46.3769 38.6988 46.0029 38.8533 45.5516 38.8533V39.4533ZM47.1154 38.8088C47.5443 38.3799 47.7616 37.8523 47.7616 37.2433H47.1616C47.1616 37.6944 47.0066 38.069 46.6911 38.3845L47.1154 38.8088ZM47.7616 37.2433C47.7616 36.6346 47.5446 36.1024 47.1191 35.6616L46.6874 36.0784C47.0063 36.4087 47.1616 36.792 47.1616 37.2433H47.7616ZM47.1191 35.6616C46.6912 35.2184 46.1631 34.9917 45.5516 34.9917V35.5917C45.9979 35.5917 46.3709 35.7505 46.6874 36.0784L47.1191 35.6616ZM45.5516 34.9917H44.6349V35.5917H45.5516V34.9917ZM44.9311 35.2442L44.8028 34.4442L44.2104 34.5392L44.3387 35.3392L44.9311 35.2442ZM44.8041 34.4528C44.6978 33.6397 44.3288 32.9489 43.7071 32.3902L43.3061 32.8365C43.8243 33.3022 44.122 33.8636 44.2091 34.5305L44.8041 34.4528ZM43.7071 32.3902C43.0818 31.8283 42.3413 31.5455 41.4995 31.5467L41.5004 32.1467C42.1941 32.1457 42.7914 32.3739 43.3061 32.8365L43.7071 32.3902ZM41.4999 31.5467C40.8291 31.5467 40.2237 31.7226 39.694 32.0795L40.0292 32.5771C40.4528 32.2918 40.9396 32.1467 41.4999 32.1467V31.5467ZM39.6933 32.08C39.1733 32.4323 38.7699 32.8999 38.4844 33.477L39.0221 33.743C39.2633 33.2557 39.5987 32.8688 40.0299 32.5767L39.6933 32.08ZM38.4851 33.4755L38.2284 33.9872L38.7647 34.2562L39.0214 33.7445L38.4851 33.4755ZM38.4802 33.8221L37.8718 33.8555L37.9047 34.4546L38.513 34.4212L38.4802 33.8221ZM37.8632 33.8561C37.1322 33.9174 36.5074 34.2037 36.0032 34.7142L36.43 35.1358C36.8302 34.7307 37.3198 34.5037 37.9133 34.454L37.8632 33.8561ZM36.0032 34.7142C35.4917 35.2319 35.2383 35.8805 35.2383 36.6383H35.8383C35.8383 36.0273 36.037 35.5336 36.43 35.1358L36.0032 34.7142ZM35.2383 36.6383C35.2383 37.4036 35.5162 38.069 36.0618 38.6195L36.488 38.1972C36.0514 37.7566 35.8383 37.242 35.8383 36.6383H35.2383ZM36.0611 38.6188C36.6065 39.1728 37.2769 39.4533 38.0549 39.4533V38.8533C37.4374 38.8533 36.9211 38.6372 36.4887 38.1979L36.0611 38.6188ZM25.0266 50.65C24.3333 50.65 23.7706 50.4214 23.3171 49.9679L22.8928 50.3921C23.4659 50.9652 24.1843 51.25 25.0266 51.25V50.65ZM23.3171 49.9679C22.8635 49.5143 22.6343 48.9509 22.6333 48.2562L22.0333 48.2571C22.0345 49.1002 22.3197 49.8191 22.8928 50.3921L23.3171 49.9679ZM22.6333 48.2567V31.4617H22.0333V48.2567H22.6333ZM22.3333 31.7617H23.9999V31.1617H22.3333V31.7617ZM23.6999 31.4617V48.2567H24.2999V31.4617H23.6999ZM23.6999 48.2567C23.6999 48.6059 23.849 48.9137 24.1072 49.1733L24.5326 48.7501C24.3642 48.5808 24.2999 48.4186 24.2999 48.2567H23.6999ZM24.1072 49.1733C24.3663 49.4337 24.675 49.5832 25.0262 49.5817L25.0236 48.9817C24.8615 48.9824 24.7002 48.9186 24.5326 48.7501L24.1072 49.1733ZM25.0249 49.5817H50.7333V48.9817H25.0249V49.5817ZM50.4333 49.2817V50.9483H51.0333V49.2817H50.4333ZM50.7332 50.6483L25.0266 50.65L25.0266 51.25L50.7333 51.2483L50.7332 50.6483ZM30.0266 45.65C29.3333 45.65 28.7706 45.4214 28.317 44.9679L27.8928 45.3921C28.4659 45.9652 29.1843 46.25 30.0266 46.25V45.65ZM28.317 44.9679C27.8635 44.5143 27.6343 43.9509 27.6333 43.2562L27.0333 43.2571C27.0345 44.1002 27.3197 44.8191 27.8928 45.3921L28.317 44.9679ZM27.6333 43.2567V25.6933H27.0333V43.2567H27.6333ZM27.6333 25.6933C27.6333 25.0002 27.8622 24.437 28.317 23.9821L27.8928 23.5579C27.3187 24.1319 27.0333 24.8509 27.0333 25.6933H27.6333ZM28.317 23.9821C28.7718 23.5273 29.3344 23.299 30.0262 23.3L30.027 22.7C29.1854 22.6988 28.4669 22.9838 27.8928 23.5579L28.317 23.9821ZM30.0266 23.3H38.9999V22.7H30.0266V23.3ZM38.7878 23.2121L40.8378 25.2621L41.262 24.8379L39.212 22.7879L38.7878 23.2121ZM41.0499 25.35H52.9749V24.75H41.0499V25.35ZM52.9749 25.35C53.6668 25.35 54.2288 25.5789 54.6826 26.0336L55.1073 25.6098C54.5343 25.0356 53.8164 24.75 52.9749 24.75V25.35ZM54.6826 26.0336C55.1365 26.4885 55.3656 27.0516 55.3666 27.7438L55.9666 27.7429C55.9654 26.9018 55.68 26.1837 55.1073 25.6098L54.6826 26.0336ZM55.3666 27.7433V43.2567H55.9666V27.7433H55.3666ZM55.3666 43.2567C55.3666 43.9485 55.1377 44.5113 54.6828 44.9662L55.1071 45.3905C55.681 44.8165 55.9666 44.0981 55.9666 43.2567H55.3666ZM54.6828 44.9662C54.228 45.421 53.6654 45.6493 52.9737 45.6483L52.9728 46.2483C53.8144 46.2496 54.533 45.9646 55.1071 45.3905L54.6828 44.9662ZM52.9732 45.6483L30.0266 45.65L30.0266 46.25L52.9733 46.2483L52.9732 45.6483ZM30.0266 44.5833H52.9749V43.9833H30.0266V44.5833ZM52.9749 44.5833C53.3241 44.5833 53.6319 44.4342 53.8915 44.176L53.4683 43.7507C53.299 43.9191 53.1368 43.9833 52.9749 43.9833V44.5833ZM53.8915 44.176C54.1519 43.917 54.3014 43.6082 54.2999 43.257L53.6999 43.2596C53.7006 43.4218 53.6368 43.583 53.4683 43.7507L53.8915 44.176ZM54.2999 43.2583V27.7433H53.6999V43.2583H54.2999ZM54.2999 27.7433C54.2999 27.3941 54.1508 27.0863 53.8926 26.8268L53.4672 27.2499C53.6357 27.4192 53.6999 27.5815 53.6999 27.7433H54.2999ZM53.8926 26.8268C53.6335 26.5664 53.3248 26.4168 52.9736 26.4183L52.9762 27.0183C53.1384 27.0176 53.2996 27.0814 53.4672 27.2499L53.8926 26.8268ZM52.9749 26.4183H40.3499V27.0183H52.9749V26.4183ZM40.5621 26.5062L38.5104 24.4545L38.0861 24.8788L40.1378 26.9305L40.5621 26.5062ZM38.2983 24.3667H30.0266V24.9667H38.2983V24.3667ZM30.0266 24.3667C29.6561 24.3667 29.3307 24.4883 29.0761 24.7429L29.5004 25.1671C29.6303 25.0373 29.7971 24.9667 30.0266 24.9667V24.3667ZM29.0761 24.7429C28.8215 24.9974 28.6999 25.3228 28.6999 25.6933H29.2999C29.2999 25.4639 29.3705 25.297 29.5004 25.1671L29.0761 24.7429ZM28.6999 25.6933V43.2567H29.2999V25.6933H28.6999ZM28.6999 43.2567C28.6999 43.6059 28.849 43.9137 29.1072 44.1733L29.5326 43.7501C29.3642 43.5808 29.2999 43.4186 29.2999 43.2567H28.6999ZM29.1083 44.1744C29.3682 44.4329 29.6766 44.5817 30.0266 44.5817V43.9817C29.8632 43.9817 29.7005 43.9171 29.5315 43.749L29.1083 44.1744Z" fill="black" mask="url(#path-2-outside-1_41_361)"/>
<defs>
<filter id="filter0_i_41_361" x="0.166016" y="0" width="77" height="76" filterUnits="userSpaceOnUse" color-interpolation-filters="sRGB">
<feFlood flood-opacity="0" result="BackgroundImageFix"/>
<feBlend mode="normal" in="SourceGraphic" in2="BackgroundImageFix" result="shape"/>
<feColorMatrix in="SourceAlpha" type="matrix" values="0 0 0 0 0 0 0 0 0 0 0 0 0 0 0 0 0 0 127 0" result="hardAlpha"/>
<feOffset/>
<feGaussianBlur stdDeviation="3.5"/>
<feComposite in2="hardAlpha" operator="arithmetic" k2="-1" k3="1"/>
<feColorMatrix type="matrix" values="0 0 0 0 0 0 0 0 0 0 0 0 0 0 0 0 0 0 0.25 0"/>
<feBlend mode="normal" in2="shape" result="effect1_innerShadow_41_361"/>
</filter>
</defs>
</svg>
