<svg width="78" height="76" viewBox="0 0 78 76" fill="none" xmlns="http://www.w3.org/2000/svg">
<g filter="url(#filter0_i_41_367)">
<ellipse cx="38.666" cy="38" rx="38.5" ry="38" fill="white"/>
</g>
<path d="M49.977 40.25H44.1645C43.394 40.2492 42.6547 40.554 42.1086 41.0975C41.5625 41.6411 41.2543 42.379 41.2515 43.1495V48.962C41.2511 49.3447 41.3262 49.7236 41.4724 50.0772C41.6187 50.4308 41.8332 50.7521 42.1038 51.0227C42.3744 51.2933 42.6957 51.5078 43.0493 51.6541C43.4029 51.8003 43.7818 51.8754 44.1645 51.875H49.977C50.7472 51.8718 51.4848 51.5634 52.028 51.0174C52.5712 50.4714 52.8758 49.7322 52.875 48.962V43.1495C52.8754 42.7688 52.8007 42.3918 52.6552 42.04C52.5097 41.6882 52.2963 41.3686 52.0271 41.0994C51.7579 40.8302 51.4383 40.6168 51.0865 40.4713C50.7347 40.3258 50.3577 40.2511 49.977 40.2515M33.8355 40.25H28.023C27.2529 40.2544 26.5158 40.5633 25.9728 41.1094C25.4298 41.6556 25.125 42.3944 25.125 43.1645V48.977C25.1246 49.3577 25.1993 49.7347 25.3448 50.0865C25.4903 50.4383 25.7037 50.7579 25.9729 51.0271C26.2421 51.2963 26.5617 51.5097 26.9135 51.6552C27.2653 51.8007 27.6423 51.8754 28.023 51.875H33.8355C34.6057 51.8758 35.3449 51.5712 35.8909 51.028C36.4369 50.4848 36.7453 49.7472 36.7485 48.977V43.1645C36.7489 42.7818 36.6738 42.4029 36.5276 42.0493C36.3813 41.6957 36.1668 41.3744 35.8962 41.1038C35.6256 40.8332 35.3043 40.6187 34.9507 40.4724C34.5971 40.3262 34.2182 40.2511 33.8355 40.2515M33.8355 24.125H28.023C27.6423 24.1246 27.2653 24.1993 26.9135 24.3448C26.5617 24.4903 26.2421 24.7037 25.9729 24.9729C25.7037 25.2421 25.4903 25.5617 25.3448 25.9135C25.1993 26.2653 25.1246 26.6423 25.125 27.023V32.8355C25.1242 33.6057 25.4288 34.3449 25.972 34.8909C26.5152 35.4369 27.2528 35.7453 28.023 35.7485H33.8355C34.2182 35.7489 34.5971 35.6738 34.9507 35.5276C35.3043 35.3813 35.6256 35.1668 35.8962 34.8962C36.1668 34.6256 36.3813 34.3043 36.5276 33.9507C36.6738 33.5971 36.7489 33.2182 36.7485 32.8355V27.023C36.7453 26.2528 36.4369 25.5152 35.8909 24.972C35.3449 24.4288 34.6057 24.1242 33.8355 24.125ZM49.977 24.125H44.1645C43.3943 24.1242 42.6551 24.4288 42.1091 24.972C41.5631 25.5152 41.2547 26.2528 41.2515 27.023V32.8355C41.2519 33.608 41.5589 34.3487 42.1051 34.8949C42.6513 35.4411 43.392 35.7481 44.1645 35.7485H49.977C50.7472 35.7453 51.4848 35.4369 52.028 34.8909C52.5712 34.3449 52.8758 33.6057 52.875 32.8355V27.023C52.8754 26.6423 52.8007 26.2653 52.6552 25.9135C52.5097 25.5617 52.2963 25.2421 52.0271 24.9729C51.7579 24.7037 51.4383 24.4903 51.0865 24.3448C50.7347 24.1993 50.3577 24.1246 49.977 24.125Z" stroke="black" stroke-width="2.5" stroke-linecap="round" stroke-linejoin="round"/>
<defs>
<filter id="filter0_i_41_367" x="0.166016" y="0" width="77" height="76" filterUnits="userSpaceOnUse" color-interpolation-filters="sRGB">
<feFlood flood-opacity="0" result="BackgroundImageFix"/>
<feBlend mode="normal" in="SourceGraphic" in2="BackgroundImageFix" result="shape"/>
<feColorMatrix in="SourceAlpha" type="matrix" values="0 0 0 0 0 0 0 0 0 0 0 0 0 0 0 0 0 0 127 0" result="hardAlpha"/>
<feOffset/>
<feGaussianBlur stdDeviation="3.5"/>
<feComposite in2="hardAlpha" operator="arithmetic" k2="-1" k3="1"/>
<feColorMatrix type="matrix" values="0 0 0 0 0 0 0 0 0 0 0 0 0 0 0 0 0 0 0.25 0"/>
<feBlend mode="normal" in2="shape" result="effect1_innerShadow_41_367"/>
</filter>
</defs>
</svg>
