<svg width="78" height="76" viewBox="0 0 78 76" fill="none" xmlns="http://www.w3.org/2000/svg">
<g filter="url(#filter0_i_41_373)">
<ellipse cx="38.666" cy="38" rx="38.5" ry="38" fill="white"/>
</g>
<path d="M31.2083 46.3334H34.2708L43.0208 36.4167L39.8854 32.8334L31.2083 42.7501V46.3334ZM44.0417 35.2501L45.5729 33.4167C45.7187 33.2501 45.7917 33.0556 45.7917 32.8334C45.7917 32.6112 45.7187 32.4167 45.5729 32.2501L43.5312 29.9167C43.3854 29.7501 43.2153 29.6667 43.0208 29.6667C42.8264 29.6667 42.6562 29.7501 42.5104 29.9167L40.9062 31.6667L44.0417 35.2501ZM28.2917 53.0001C27.4896 53.0001 26.8032 52.674 26.2325 52.0217C25.6618 51.3695 25.376 50.5845 25.375 49.6667V26.3334C25.375 25.4167 25.6608 24.6323 26.2325 23.9801C26.8042 23.3279 27.4906 23.0012 28.2917 23.0001H34.4167C34.7326 22.0001 35.2615 21.1945 36.0033 20.5834C36.7451 19.9723 37.5774 19.6667 38.5 19.6667C39.4226 19.6667 40.2553 19.9723 40.9981 20.5834C41.7409 21.1945 42.2693 22.0001 42.5833 23.0001H48.7083C49.5104 23.0001 50.1973 23.3267 50.769 23.9801C51.3406 24.6334 51.626 25.4179 51.625 26.3334V49.6667C51.625 50.5834 51.3397 51.3684 50.769 52.0217C50.1983 52.6751 49.5114 53.0012 48.7083 53.0001H28.2917ZM28.2917 49.6667H48.7083V26.3334H28.2917V49.6667ZM38.5 25.0834C38.816 25.0834 39.0775 24.9651 39.2846 24.7284C39.4917 24.4917 39.5947 24.1934 39.5937 23.8334C39.5928 23.4734 39.4892 23.1751 39.2831 22.9384C39.077 22.7017 38.816 22.5834 38.5 22.5834C38.184 22.5834 37.923 22.7017 37.7169 22.9384C37.5108 23.1751 37.4072 23.4734 37.4062 23.8334C37.4053 24.1934 37.5088 24.4923 37.7169 24.7301C37.9249 24.9679 38.186 25.0856 38.5 25.0834Z" fill="black"/>
<defs>
<filter id="filter0_i_41_373" x="0.166016" y="0" width="77" height="76" filterUnits="userSpaceOnUse" color-interpolation-filters="sRGB">
<feFlood flood-opacity="0" result="BackgroundImageFix"/>
<feBlend mode="normal" in="SourceGraphic" in2="BackgroundImageFix" result="shape"/>
<feColorMatrix in="SourceAlpha" type="matrix" values="0 0 0 0 0 0 0 0 0 0 0 0 0 0 0 0 0 0 127 0" result="hardAlpha"/>
<feOffset/>
<feGaussianBlur stdDeviation="3.5"/>
<feComposite in2="hardAlpha" operator="arithmetic" k2="-1" k3="1"/>
<feColorMatrix type="matrix" values="0 0 0 0 0 0 0 0 0 0 0 0 0 0 0 0 0 0 0.25 0"/>
<feBlend mode="normal" in2="shape" result="effect1_innerShadow_41_373"/>
</filter>
</defs>
</svg>
