<svg width="354" height="372" viewBox="0 0 354 372" fill="none" xmlns="http://www.w3.org/2000/svg">
<path fill-rule="evenodd" clip-rule="evenodd" d="M16 0C10.4772 0 6 4.47716 6 10V248C6 253.523 10.4772 258 16 258H28V278L53 258H344C349.523 258 354 253.523 354 248V10C354 4.47715 349.523 0 344 0H16Z" fill="#F9F9F9"/>
<path d="M6 304C6 298.477 10.4772 294 16 294H344C349.523 294 354 298.477 354 304V352C354 357.523 349.523 362 344 362H16C10.4772 362 6 357.523 6 352V304Z" fill="#F9F9F9"/>
<g filter="url(#filter0_d_41_419)">
<rect x="6" y="294" width="104" height="68" rx="6" fill="#F9F9F9"/>
</g>
<defs>
<filter id="filter0_d_41_419" x="0" y="284" width="124" height="88" filterUnits="userSpaceOnUse" color-interpolation-filters="sRGB">
<feFlood flood-opacity="0" result="BackgroundImageFix"/>
<feColorMatrix in="SourceAlpha" type="matrix" values="0 0 0 0 0 0 0 0 0 0 0 0 0 0 0 0 0 0 127 0" result="hardAlpha"/>
<feOffset dx="4"/>
<feGaussianBlur stdDeviation="5"/>
<feComposite in2="hardAlpha" operator="out"/>
<feColorMatrix type="matrix" values="0 0 0 0 1 0 0 0 0 1 0 0 0 0 1 0 0 0 0.15 0"/>
<feBlend mode="normal" in2="BackgroundImageFix" result="effect1_dropShadow_41_419"/>
<feBlend mode="normal" in="SourceGraphic" in2="effect1_dropShadow_41_419" result="shape"/>
</filter>
</defs>
</svg>
