<svg width="1280" height="457" viewBox="0 0 1280 457" fill="none" xmlns="http://www.w3.org/2000/svg">
<rect width="1280" height="457" fill="url(#paint0_linear_41_589)"/>
<rect width="1280" height="457" fill="black" fill-opacity="0.4"/>
<g style="mix-blend-mode:overlay" opacity="0.1">
<path d="M-227.783 461.352C-233.733 445.445 -237 428.251 -237 410.309C-237 347.376 -197.094 293.762 -141.173 273.357C-141.366 270.411 -141.49 267.465 -141.49 264.465C-141.49 188.894 -80.1181 127.62 -4.41067 127.62C-3.65418 127.62 -2.90832 127.674 -2.15183 127.674C25.3016 81.9878 75.3957 51.3516 132.674 51.3516C196.127 51.3516 250.761 88.9505 275.553 142.993C303.371 121.46 338.293 108.554 376.246 108.554C450.966 108.554 514.012 158.365 533.97 226.547C602.788 235.275 656 293.923 656 364.996C656 402.381 641.267 436.285 617.323 461.352H-227.783Z" fill="#002F4B"/>
</g>
<g style="mix-blend-mode:overlay" opacity="0.07">
<path d="M594.217 460.352C588.267 444.445 585 427.251 585 409.309C585 346.376 624.906 292.762 680.827 272.357C680.634 269.411 680.51 266.465 680.51 263.465C680.51 187.894 741.882 126.62 817.589 126.62C818.346 126.62 819.092 126.674 819.848 126.674C847.302 80.9878 897.396 50.3516 954.674 50.3516C1018.13 50.3516 1072.76 87.9505 1097.55 141.993C1125.37 120.46 1160.29 107.554 1198.25 107.554C1272.97 107.554 1336.01 157.365 1355.97 225.547C1424.79 234.275 1478 292.923 1478 363.996C1478 401.381 1463.27 435.285 1439.32 460.352H594.217Z" fill="#002F4B"/>
</g>
<g style="mix-blend-mode:color-dodge" opacity="0.5">
<path d="M616.88 457.352C618.25 452.487 619 447.365 619 442.052C619 417.623 603.415 396.794 581.495 388.608C575.159 363.773 552.322 345.387 525.115 345.387C498.748 345.387 476.495 362.658 469.377 386.316C465.226 385.394 460.914 384.88 456.48 384.88C449.04 384.88 441.932 386.273 435.393 388.78C426.277 368.937 405.985 355.095 382.399 355.095C359.02 355.095 338.878 368.68 329.646 388.265C320.948 383.144 310.784 380.209 299.92 380.209C287.594 380.209 276.175 384.001 266.768 390.43C257.613 370.673 237.373 356.937 213.855 356.937C205.455 356.937 197.478 358.695 190.266 361.845C172.132 329.358 137.03 307.352 96.6926 307.352C37.7673 307.352 -10 354.323 -10 412.287C-10 428.423 -6.28946 443.702 0.32558 457.352H616.88Z" fill="#111F33"/>
</g>
<g style="mix-blend-mode:color-dodge" opacity="0.5">
<path d="M607.572 483.352C605.909 477.45 605 471.235 605 464.788C605 435.148 623.906 409.875 650.495 399.943C658.181 369.81 685.882 347.502 718.886 347.502C750.87 347.502 777.863 368.457 786.498 397.162C791.533 396.043 796.763 395.42 802.142 395.42C811.168 395.42 819.79 397.11 827.722 400.152C838.78 376.075 863.395 359.28 892.006 359.28C920.366 359.28 944.798 375.763 955.997 399.527C966.548 393.313 978.878 389.752 992.056 389.752C1007.01 389.752 1020.86 394.353 1032.27 402.153C1043.38 378.182 1067.93 361.515 1096.46 361.515C1106.65 361.515 1116.32 363.648 1125.07 367.47C1147.07 328.053 1189.65 301.352 1238.58 301.352C1310.06 301.352 1368 358.343 1368 428.673C1368 448.252 1363.5 466.79 1355.47 483.352H607.572Z" fill="#111F33"/>
</g>
<defs>
<linearGradient id="paint0_linear_41_589" x1="298" y1="0.357884" x2="1285.93" y2="444.161" gradientUnits="userSpaceOnUse">
<stop stop-color="#2C2A73"/>
<stop offset="1" stop-color="#B80E65"/>
</linearGradient>
</defs>
</svg>
