<svg width="125" height="36" viewBox="0 0 125 36" fill="none" xmlns="http://www.w3.org/2000/svg">
<g clip-path="url(#clip0_1_125)">
<path d="M124.444 22.6701C123.054 25.7801 121.644 28.8701 120.274 31.9901C119.854 32.9401 119.454 33.7701 118.164 33.5701C117.614 33.4801 117.024 33.3501 117.474 32.7401C119.634 29.8401 117.374 27.5601 116.474 25.0801C116.154 24.1701 115.474 23.3801 115.474 22.3401C119.404 21.2201 118.334 25.2001 120.004 26.5901C121.424 25.1001 120.644 21.3101 124.404 22.1801L124.444 22.6701Z" fill="#264767"/>
<path d="M16.5037 1.42003C17.5037 1.53003 18.6537 -0.429974 19.0837 1.06003C19.5137 2.55003 20.2937 4.68003 18.0837 5.88003C14.9137 7.63003 11.7237 9.35003 8.08373 11.34C10.8323 12.9198 13.6667 14.3453 16.5737 15.61C19.1637 16.61 19.5237 18.26 19.3337 20.55C19.2437 21.75 18.8737 21.98 17.8137 21.44C16.0037 20.51 14.1637 19.64 12.0537 18.62C12.0537 20.62 12.1037 22.36 12.0537 24.05C12.0537 25.05 12.5837 25.48 13.3837 25.86C15.9937 27.1 18.6037 28.34 21.1537 29.68C21.5736 29.9373 22.0564 30.0734 22.5487 30.0734C23.0411 30.0734 23.5239 29.9373 23.9437 29.68C25.3937 28.9 26.9437 28.22 28.3837 27.5C33.5937 24.97 33.5937 24.97 32.7237 18.76C30.9137 19.65 29.1437 20.49 27.4037 21.39C26.2837 21.98 25.8537 21.83 25.7237 20.47C25.5237 18.22 25.9737 16.67 28.3937 15.72C31.2037 14.62 33.8037 13.03 36.9637 11.42L27.5037 6.25003C26.0037 5.40003 25.0037 2.51003 25.8037 1.00003C26.4637 -0.229974 27.2037 1.25003 27.9137 1.00003C32.3337 3.39003 36.6937 5.89003 41.2037 8.11003C42.8937 8.95003 42.7537 10.11 42.8237 11.51C42.8937 12.91 42.6637 13.97 41.1637 14.34C37.7537 15.2 36.8437 17.54 37.4637 20.62C38.6337 26.36 36.2437 29.69 30.6937 31.43C27.8137 32.34 25.1637 34.93 22.3937 34.96C19.6237 34.99 17.1537 32.33 14.3937 31.47C8.69373 29.73 6.26373 26.34 7.51373 20.47C8.19373 17.29 7.02373 15.15 3.74373 14.25C3.1407 14.1444 2.60194 13.8095 2.24031 13.3155C1.87867 12.8215 1.72222 12.2068 1.80373 11.6C1.86373 10.12 1.99373 9.07003 3.59373 8.28003C7.95373 6.12003 12.1837 3.72003 16.5037 1.42003Z" fill="#FE9F00"/>
<path d="M66.1737 10.75C65.8937 9.63002 66.7737 8.12002 65.1737 6.89002C64.8937 6.67002 66.1737 4.28002 66.9937 3.08002C67.3624 2.62507 67.8561 2.28797 68.4141 2.11027C68.9721 1.93258 69.5698 1.92206 70.1337 2.08002C70.2954 2.1094 70.4401 2.19898 70.5384 2.33073C70.6367 2.46247 70.6815 2.62658 70.6637 2.79002C70.6637 3.31002 70.6637 3.79002 69.9837 3.91002C69.1137 4.04002 68.6037 4.46002 68.7037 5.37002C68.7637 5.92002 69.2637 5.94002 69.7037 5.87002C70.5837 5.71002 71.7037 6.46002 72.2637 5.09002C72.5237 4.37002 72.4437 3.31002 73.6237 3.36002C74.9637 3.43002 74.1737 4.97002 74.6237 5.18002C76.8037 6.25002 77.2437 7.00002 74.7037 8.28002C74.4737 8.40002 73.1237 11.72 75.9137 12.58C76.1493 12.6594 76.3495 12.8191 76.4793 13.0311C76.609 13.2432 76.6602 13.4941 76.6237 13.74C76.5337 14.23 76.0637 14.26 75.6837 14.38C73.5937 15.08 72.1337 14.08 72.0137 11.87C71.9487 10.9712 71.9487 10.0688 72.0137 9.17002C72.1137 7.90002 71.6137 7.49002 70.3137 7.46002C69.0137 7.43002 68.6337 8.03002 68.7137 9.22002C68.7937 10.41 68.7137 11.67 68.7137 12.9C68.7137 13.82 68.6537 14.43 67.4337 14.43C66.2137 14.43 66.0737 13.85 66.1337 12.91C66.2037 12.26 66.1737 11.6 66.1737 10.75Z" fill="#264667"/>
<path d="M57.2437 23.11C57.2437 23.93 57.2437 24.75 57.2437 25.57C57.1637 29 55.1737 31 51.8737 31C48.5737 31 46.8037 29 46.7537 25.66C46.7537 23.85 46.7537 22.05 46.7537 20.25C46.7537 19.35 46.7537 18.72 48.0137 18.69C49.2737 18.66 49.4637 19.31 49.4337 20.34C49.4337 22.14 49.3537 23.95 49.4337 25.75C49.5337 27.34 50.1337 28.75 52.1137 28.58C54.0937 28.41 54.3537 27.16 54.3537 25.63C54.3537 23.83 54.4237 22.02 54.3537 20.22C54.2937 19 54.7837 18.7 55.9437 18.69C57.1037 18.68 57.3337 19.2 57.2737 20.18C57.2137 21.16 57.2737 22.18 57.2737 23.13L57.2437 23.11Z" fill="#254666"/>
<path d="M83.8937 8.83C83.3937 10.49 82.9837 11.73 82.6637 12.99C82.4337 13.88 82.0837 14.4 81.0237 14.44C79.9637 14.48 79.5637 14 79.3037 13.1C78.6037 10.77 77.8837 8.45 77.1237 5.97C81.6037 5.41 79.5237 9.39 81.1237 10.86C82.0637 9.96 81.9737 8.52 82.3937 7.3C82.6737 6.49 82.8837 5.82 84.0037 5.82C85.1237 5.82 85.3337 6.59 85.5637 7.37C85.9337 8.58 86.2837 9.81 86.8037 11.62C87.2937 9.62 87.6637 8.32 87.9237 6.99C88.1837 5.66 89.0437 5.66 89.9237 5.88C91.2937 6.2 90.3137 7.04 90.1637 7.6C89.6937 9.33 89.1637 11.04 88.5937 12.75C88.3237 13.61 88.1937 14.42 86.8937 14.43C85.5937 14.44 85.3037 13.62 85.0537 12.62C84.8037 11.62 84.3937 10.44 83.8937 8.83Z" fill="#264667"/>
<path d="M49.9337 14.61C48.8881 14.5606 47.8651 14.2878 46.9337 13.81C46.3437 13.48 45.7237 13.17 46.2437 12.32C46.6737 11.63 47.1237 11.16 48.0337 11.68C48.61 12.0001 49.235 12.2231 49.8837 12.34C50.0616 12.3993 50.2495 12.4228 50.4366 12.409C50.6236 12.3953 50.806 12.3447 50.9734 12.2601C51.1407 12.1755 51.2897 12.0586 51.4116 11.9161C51.5335 11.7736 51.626 11.6084 51.6837 11.43C51.9637 10.55 51.4637 10.03 50.6837 9.74C50.2137 9.58 49.7437 9.44 49.2637 9.3C47.1437 8.68001 45.9437 7.36 46.4137 5.12C46.8837 2.88 48.6137 2.2 50.6837 2.12C51.1806 2.1189 51.673 2.21398 52.1337 2.4C52.9137 2.69 54.1837 2.68 53.9437 3.91C53.7037 5.14 52.7337 5.07 51.6437 4.62C50.7437 4.25 49.4537 4.04 49.0837 5.26C48.7137 6.48001 50.0437 6.73 50.9637 7C53.0637 7.69 54.8337 8.63 54.3837 11.31C54.0337 13.36 52.3837 14.62 49.9337 14.61Z" fill="#264767"/>
<path d="M58.8937 26.3901C58.8937 25.6601 58.8937 24.9201 58.8937 24.1901C58.7637 22.5101 59.2337 21.5001 61.0637 22.5001C61.8937 22.9501 62.2637 22.3201 62.8437 22.2001C65.2437 21.6901 66.6837 22.7401 66.8437 25.2001C66.9137 26.5901 66.8437 27.9801 66.8437 29.3701C66.8437 30.2901 66.7437 30.9401 65.5337 30.8901C64.3237 30.8401 64.3137 30.0901 64.3237 29.2201C64.3237 28.0001 64.3237 26.7701 64.3237 25.5501C64.3237 24.7501 64.0537 24.0701 63.0737 24.0801C62.8682 24.0497 62.6585 24.0657 62.4601 24.1271C62.2616 24.1884 62.0794 24.2935 61.9269 24.4345C61.7743 24.5755 61.6554 24.7489 61.5787 24.942C61.502 25.135 61.4695 25.3428 61.4837 25.5501C61.4837 26.7801 61.4837 28.0001 61.4837 29.2301C61.4837 30.0401 61.6137 30.8901 60.3037 30.8901C59.1437 30.8901 58.9437 30.2701 58.9737 29.3301C59.0037 28.3901 58.9037 27.3701 58.8937 26.3901Z" fill="#294969"/>
<path d="M77.0238 27.42C77.4338 26.12 77.8838 24.82 78.2538 23.49C78.2896 23.2429 78.3814 23.0073 78.5221 22.8011C78.6628 22.5948 78.8488 22.4234 79.0658 22.3C79.2829 22.1765 79.5252 22.1042 79.7744 22.0886C80.0236 22.0731 80.273 22.1146 80.5038 22.21C81.8938 22.66 80.7238 23.55 80.5638 24.1C80.0138 25.88 79.2538 27.6 78.5638 29.35C78.2338 30.21 77.8938 30.95 76.6938 30.9C75.4938 30.85 75.3338 30.26 75.0338 29.43C74.3038 27.43 73.4838 25.49 72.7238 23.52C72.5738 23.15 72.4838 22.76 72.3438 22.29C76.8637 21.5 74.9238 26 77.0238 27.42Z" fill="#284869"/>
<path d="M101.144 22.07C101.544 22.0886 101.94 22.1558 102.324 22.27C102.834 22.44 103.594 22.6 103.454 23.34C103.314 24.08 102.714 24.34 101.934 24.14C101.154 23.94 100.094 23.38 99.8737 24.53C99.7237 25.3 100.874 25.42 101.564 25.66C102.814 26.09 103.824 26.75 103.714 28.27C103.68 28.8956 103.432 29.4904 103.011 29.9548C102.59 30.4191 102.023 30.7246 101.404 30.82C100.731 31.0441 100.012 31.0965 99.3136 30.9726C98.6151 30.8486 97.9586 30.5521 97.4037 30.11C96.6837 29.48 97.5037 28.9 98.0737 28.72C98.4637 28.6 98.9937 28.97 99.4737 29.04C99.9537 29.11 100.914 29.44 101.154 28.57C101.344 27.85 100.614 27.68 100.064 27.51L99.5937 27.34C98.1237 26.87 96.9937 26.06 97.2937 24.34C97.5937 22.62 98.9537 22 101.144 22.07Z" fill="#284868"/>
<path d="M112.874 31C111.114 30.91 110.404 30 110.184 28.34C109.964 26.68 111.074 24.72 109.084 23.42C108.844 23.26 111.534 19.55 111.704 19.72C112.824 20.84 113.874 22.04 114.904 23.24C114.904 23.24 114.684 23.63 114.514 23.75C112.104 25.39 112.044 27.37 114.334 29.09C114.624 29.31 114.994 29.84 114.914 30.09C114.504 31 113.594 30.83 112.874 31Z" fill="#2B4A6A"/>
<path d="M91.1137 26.51C91.1137 25.86 91.1137 25.2 91.1137 24.51C91.1137 22.95 90.7937 20.94 93.4537 22.72C94.2037 23.22 94.4537 22.07 95.1337 22.11C95.8137 22.15 96.3837 21.79 96.5337 22.63C96.6337 23.16 96.7437 24.1 96.1837 24.17C92.4337 24.61 93.8037 27.44 93.6937 29.43C93.6037 31.27 92.5037 31 91.5037 30.74C90.8737 30.56 91.1137 29.74 91.0937 29.2C91.0937 28.3 91.0937 27.41 91.0937 26.51H91.1137Z" fill="#284868"/>
<path d="M100.424 10C100.424 9.19003 100.424 8.37003 100.424 7.55003C100.314 5.92003 101.164 5.28003 102.424 6.22003C103.424 6.99003 103.654 5.90003 104.254 5.81003C104.854 5.72003 105.484 5.49003 105.784 6.11003C106.084 6.73003 106.034 7.79003 105.474 7.85003C101.774 8.22003 103.294 10.98 102.994 12.85C102.884 13.56 103.114 14.36 101.994 14.4C101.054 14.4 100.374 14.34 100.444 13.14C100.514 11.94 100.424 11 100.424 10Z" fill="#284869"/>
<path d="M68.6837 26.5C68.6837 25.45 68.6837 24.39 68.6837 23.34C68.6837 22.29 69.1337 22.16 70.0237 22.14C70.9137 22.12 71.2837 22.53 71.2637 23.44C71.2637 25.44 71.2637 27.44 71.2637 29.52C71.2637 30.38 71.0837 30.87 70.0537 30.89C69.0237 30.91 68.6437 30.4 68.6837 29.42C68.7237 28.44 68.6837 27.42 68.6837 26.5Z" fill="#274768"/>
<path d="M107.684 26.49C107.684 27.55 107.684 28.62 107.684 29.68C107.684 30.46 107.424 30.91 106.534 30.89C105.644 30.87 105.074 30.73 105.094 29.69C105.134 27.5567 105.134 25.4267 105.094 23.3C105.094 22.22 105.714 22.17 106.534 22.15C107.354 22.13 107.734 22.45 107.704 23.29C107.704 24.36 107.704 25.42 107.704 26.49H107.684Z" fill="#2C4B6B"/>
<path d="M108.044 19.52C107.964 20.61 107.464 21.16 106.504 21.21C106.324 21.2366 106.141 21.2259 105.966 21.1785C105.79 21.131 105.627 21.0479 105.485 20.9344C105.343 20.8208 105.226 20.6792 105.142 20.5184C105.057 20.3576 105.007 20.1812 104.994 20C104.949 19.7996 104.95 19.5918 104.996 19.3917C105.041 19.1916 105.131 19.0043 105.259 18.8433C105.386 18.6824 105.548 18.5519 105.732 18.4614C105.916 18.3708 106.118 18.3225 106.324 18.32C107.324 18.15 107.754 18.85 108.044 19.52Z" fill="#31506E"/>
<path d="M69.8337 18.25C70.0406 18.2248 70.2505 18.2433 70.4499 18.3042C70.6492 18.3652 70.8335 18.4673 70.9909 18.604C71.1483 18.7406 71.2752 18.9088 71.3636 19.0976C71.4519 19.2864 71.4997 19.4916 71.5037 19.7C71.5202 19.9043 71.4922 20.1096 71.4218 20.302C71.3513 20.4944 71.2401 20.6693 71.0957 20.8147C70.9513 20.96 70.7771 21.0724 70.5852 21.1441C70.3932 21.2158 70.1881 21.2451 69.9837 21.23C69.7985 21.2559 69.6099 21.2416 69.4308 21.1879C69.2517 21.1343 69.0862 21.0427 68.9457 20.9193C68.8053 20.7959 68.693 20.6436 68.6168 20.4729C68.5405 20.3022 68.5019 20.117 68.5037 19.93C68.468 19.7306 68.4751 19.5259 68.5244 19.3294C68.5738 19.1329 68.6644 18.9492 68.7901 18.7903C68.9159 18.6315 69.074 18.5012 69.2539 18.408C69.4338 18.3149 69.6314 18.261 69.8337 18.25Z" fill="#2C4B6B"/>
<path fill-rule="evenodd" clip-rule="evenodd" d="M59.9441 14.54C62.6641 14.54 64.3041 12.8 64.3041 10C64.3428 9.40441 64.2518 8.80753 64.0377 8.25045C63.8235 7.69338 63.4911 7.18934 63.0634 6.77306C62.6357 6.35677 62.1229 6.03813 61.5602 5.83907C60.9976 5.64002 60.3984 5.56527 59.8041 5.62C59.2239 5.60379 58.6466 5.70832 58.1089 5.92694C57.5713 6.14557 57.0849 6.47353 56.6806 6.89003C56.2763 7.30653 55.963 7.80248 55.7604 8.34645C55.5579 8.89041 55.4706 9.47052 55.5041 10.05C55.4618 10.6462 55.5472 11.2446 55.7547 11.8052C55.9621 12.3658 56.2868 12.8756 56.7071 13.3007C57.1274 13.7257 57.6336 14.0561 58.1918 14.2698C58.75 14.4835 59.3474 14.5757 59.9441 14.54ZM59.9033 12.61C61.5533 12.61 61.6933 11.26 61.7433 10C61.6933 8.81003 61.4133 7.57003 59.9533 7.53003C58.3233 7.53003 58.1333 8.95003 58.1433 10.17C58.1533 11.39 58.4233 12.61 59.9033 12.61Z" fill="#264667"/>
<path fill-rule="evenodd" clip-rule="evenodd" d="M82.3776 23.5576C81.7177 24.3618 81.4036 25.3947 81.5041 26.43C81.5041 29.27 83.3641 31.13 86.1541 30.93C87.4441 30.85 89.4441 30.69 89.2841 29.29C89.1482 28.0814 88.3219 28.3918 87.4635 28.7143C87.1216 28.8427 86.7746 28.973 86.4641 29.01C85.3741 29.14 84.4441 28.67 84.3741 27.73C84.2978 26.7729 84.8902 26.8693 85.4773 26.9648C85.7367 27.007 85.9949 27.0491 86.1941 27C86.7668 26.9047 87.3514 26.9047 87.9241 27C89.6541 27.18 89.8641 26.22 89.5841 24.89C89.1641 22.89 87.3941 21.83 85.0241 22.14C83.9891 22.2437 83.0374 22.7535 82.3776 23.5576ZM86.4837 23.93C85.3037 23.48 84.6336 24.02 84.1136 25.48C84.4941 25.4548 84.8656 25.5038 85.2196 25.5505C85.9914 25.6523 86.6795 25.743 87.1936 25.03C87.4836 24.65 86.9737 24.12 86.4837 23.93Z" fill="#294969"/>
<path fill-rule="evenodd" clip-rule="evenodd" d="M106.624 12.16C107.404 13.94 108.954 14.6 110.824 14.6C110.986 14.6201 111.151 14.6201 111.314 14.6C111.574 14.5212 111.879 14.4749 112.189 14.4279C113.178 14.278 114.214 14.1208 113.994 12.88C113.785 11.708 113.008 12.0405 112.242 12.3682C111.943 12.4962 111.645 12.6235 111.384 12.66C110.274 12.83 109.214 12.47 109.104 11.36C108.977 10.3515 109.606 10.4422 110.219 10.5307C110.476 10.5677 110.729 10.6042 110.924 10.56C111.494 10.47 112.074 10.47 112.644 10.56C114.504 10.75 114.764 9.83004 114.254 8.35004C114.094 7.7558 113.777 7.21594 113.335 6.788C112.893 6.36006 112.343 6.06008 111.744 5.92004C110.954 5.66897 110.109 5.65249 109.31 5.8726C108.511 6.09271 107.793 6.53995 107.244 7.16004C106.652 7.83585 106.277 8.67355 106.166 9.56488C106.056 10.4562 106.215 11.3602 106.624 12.16ZM111.354 7.63004C110.284 7.14004 109.524 7.47004 108.934 8.92004C109.291 8.91081 109.638 8.97254 109.97 9.0316C110.719 9.16456 111.391 9.28401 111.924 8.55004C112.164 8.22004 111.724 7.80004 111.354 7.63004Z" fill="#284868"/>
<path fill-rule="evenodd" clip-rule="evenodd" d="M98.6039 13.32V11.12C98.5705 10.6303 98.5772 10.1387 98.6239 9.65003C99.1639 6.57003 96.3939 4.41003 92.5339 6.25003C92.5015 6.26621 92.4685 6.28244 92.4351 6.29883C91.9528 6.5357 91.3985 6.80793 91.7539 7.50003C91.8 7.6404 91.8766 7.76882 91.9782 7.87605C92.0798 7.98329 92.2039 8.06668 92.3416 8.12023C92.4793 8.17377 92.6271 8.19615 92.7745 8.18574C92.9219 8.17533 93.0651 8.1324 93.1939 8.06003C93.5711 7.88932 93.9626 7.75212 94.3639 7.65003C95.2039 7.45003 95.8739 7.66003 96.0439 8.58003C96.1986 9.41998 95.7074 9.4239 95.222 9.42778C95.0487 9.42917 94.876 9.43055 94.7339 9.47003C94.0123 9.63427 93.301 9.8413 92.6039 10.09C92.0463 10.2698 91.5803 10.6592 91.3042 11.1759C91.028 11.6927 90.9634 12.2965 91.1239 12.86C91.3939 14.13 92.4139 14.47 93.5439 14.56C94.0791 14.6056 94.6115 14.4379 95.154 14.267C96.0409 13.9876 96.955 13.6996 97.9539 14.32C98.4739 14.64 98.6039 13.8 98.6039 13.32ZM93.6335 12.0801C93.5335 12.7401 94.0235 12.8701 94.6335 12.8701C95.3235 12.8101 96.0135 12.6101 96.1435 11.7001C96.2535 11.0601 95.9435 10.8201 95.2535 10.9501C95.1943 10.9612 95.134 10.9719 95.0733 10.9826C94.4264 11.0968 93.7249 11.2207 93.6335 12.0801Z" fill="#274768"/>
</g>
<defs>
<clipPath id="clip0_1_125">
<rect width="124" height="36" fill="white" transform="translate(0.503723)"/>
</clipPath>
</defs>
</svg>
