<svg width="890" height="198" viewBox="0 0 890 198" fill="none" xmlns="http://www.w3.org/2000/svg">
<g clip-path="url(#clip0_43_634)">
<path d="M113.884 112.636L105.356 105.385C104.474 104.59 103.531 104.228 102.771 104.262C105.034 101.608 106.182 98.1814 105.975 94.6997C105.768 91.2181 104.221 87.9518 101.659 85.5852C99.0971 83.2186 95.7186 81.9355 92.2315 82.0046C88.7444 82.0737 85.4193 83.4898 82.9531 85.956C80.4868 88.4223 79.0708 91.7473 79.0017 95.2344C78.9326 98.7215 80.2157 102.1 82.5823 104.662C84.9489 107.224 88.2152 108.771 91.6968 108.978C95.1784 109.185 98.6052 108.037 101.259 105.774C101.223 106.534 101.587 107.477 102.382 108.359L109.633 116.887C110.875 118.266 112.903 118.383 114.14 117.145C115.378 115.908 115.261 113.878 113.881 112.639L113.884 112.636ZM92.4997 104.5C90.1128 104.5 87.8236 103.552 86.1358 101.864C84.4479 100.177 83.4997 97.8874 83.4997 95.5004C83.4997 93.1135 84.4479 90.8243 86.1358 89.1365C87.8236 87.4486 90.1128 86.5004 92.4997 86.5004C94.8867 86.5004 97.1759 87.4486 98.8637 89.1365C100.552 90.8243 101.5 93.1135 101.5 95.5004C101.5 97.8874 100.552 100.177 98.8637 101.864C97.1759 103.552 94.8867 104.5 92.4997 104.5Z" fill="#222222"/>
</g>
<path d="M154 100.174C154 132.058 128.449 157.848 97 157.848C65.5513 157.848 40 132.058 40 100.174C40 68.2899 65.5513 42.5 97 42.5C128.449 42.5 154 68.2899 154 100.174Z" stroke="url(#paint0_linear_43_634)" stroke-width="6"/>
<path d="M443.645 80.3949C444.004 80.0356 444.492 79.8337 445 79.8337C445.508 79.8337 445.996 80.0356 446.355 80.3949L452.105 86.1449C452.454 86.5064 452.647 86.9906 452.643 87.4931C452.639 87.9956 452.437 88.4764 452.082 88.8317C451.726 89.1871 451.246 89.3887 450.743 89.393C450.241 89.3974 449.756 89.2042 449.395 88.8551L446.917 86.3768V104.75C446.917 105.258 446.715 105.746 446.355 106.105C445.996 106.465 445.508 106.667 445 106.667C444.492 106.667 444.004 106.465 443.645 106.105C443.285 105.746 443.083 105.258 443.083 104.75V86.3768L440.605 88.8551C440.244 89.2042 439.76 89.3974 439.257 89.393C438.754 89.3887 438.274 89.1871 437.918 88.8317C437.563 88.4764 437.361 87.9956 437.357 87.4931C437.353 86.9906 437.546 86.5064 437.895 86.1449L443.645 80.3949ZM429.667 97.0833C429.667 96.0667 430.071 95.0916 430.79 94.3728C431.508 93.6539 432.483 93.25 433.5 93.25H437.333C437.842 93.25 438.329 93.4519 438.689 93.8114C439.048 94.1708 439.25 94.6583 439.25 95.1667C439.25 95.675 439.048 96.1625 438.689 96.522C438.329 96.8814 437.842 97.0833 437.333 97.0833H433.5V114.333H456.5V97.0833H452.667C452.158 97.0833 451.671 96.8814 451.311 96.522C450.952 96.1625 450.75 95.675 450.75 95.1667C450.75 94.6583 450.952 94.1708 451.311 93.8114C451.671 93.4519 452.158 93.25 452.667 93.25H456.5C457.517 93.25 458.492 93.6539 459.211 94.3728C459.93 95.0916 460.333 96.0667 460.333 97.0833V114.333C460.333 115.35 459.93 116.325 459.211 117.044C458.492 117.763 457.517 118.167 456.5 118.167H433.5C432.483 118.167 431.508 117.763 430.79 117.044C430.071 116.325 429.667 115.35 429.667 114.333V97.0833Z" fill="#222222"/>
<circle cx="445" cy="99.5" r="57" stroke="url(#paint1_linear_43_634)" stroke-width="6"/>
<path d="M793 111.554L782.458 98.9999H803.542L793 111.554ZM789.167 79.8333H796.833V83.6666H789.167V79.8333ZM789.167 85.5833H796.833V89.4166H789.167V85.5833Z" fill="#222222"/>
<path d="M789.167 91.3333H796.833V101.875H789.167V91.3333ZM775.75 114.333H810.25V118.167H775.75V114.333Z" fill="#222222"/>
<circle cx="793" cy="99.5" r="57" stroke="url(#paint2_linear_43_634)" stroke-width="6"/>
<path d="M2 95.5C2 95.5 13 189.5 93.5 189.5C192.081 189.5 159.361 95.5 275 95.5C376.5 95.5 365 5.99996 443.5 6C543.5 6.00005 508.871 95.5001 625.5 95.5C735.001 95.4999 693.5 189 793 189C880 189 888 95.5 888 95.5" stroke="url(#paint3_linear_43_634)" stroke-width="3" stroke-dasharray="10 17"/>
<circle cx="97" cy="191" r="7" fill="#3B1851"/>
<circle cx="445" cy="7" r="7" fill="#B50E64"/>
<circle cx="793" cy="189" r="7" fill="#3777A2"/>
<defs>
<linearGradient id="paint0_linear_43_634" x1="37" y1="100.174" x2="157" y2="100.174" gradientUnits="userSpaceOnUse">
<stop stop-color="#1C1B4D"/>
<stop offset="1" stop-color="#6A1559"/>
</linearGradient>
<linearGradient id="paint1_linear_43_634" x1="385" y1="99.5" x2="505" y2="99.5" gradientUnits="userSpaceOnUse">
<stop stop-color="#6A1559"/>
<stop offset="0.53" stop-color="#B80E65"/>
<stop offset="1" stop-color="#68508B"/>
</linearGradient>
<linearGradient id="paint2_linear_43_634" x1="733" y1="99.5" x2="853" y2="99.5" gradientUnits="userSpaceOnUse">
<stop stop-color="#68508B"/>
<stop offset="1" stop-color="#1791B1"/>
</linearGradient>
<linearGradient id="paint3_linear_43_634" x1="2" y1="97.75" x2="888" y2="97.75" gradientUnits="userSpaceOnUse">
<stop stop-color="#1C1B4D"/>
<stop offset="0.5" stop-color="#B80E65"/>
<stop offset="1" stop-color="#1791B1"/>
</linearGradient>
<clipPath id="clip0_43_634">
<rect width="36" height="36" fill="white" transform="translate(79 82)"/>
</clipPath>
</defs>
</svg>
