<svg width="90" height="89" viewBox="0 0 90 89" fill="none" xmlns="http://www.w3.org/2000/svg">
<g filter="url(#filter0_di_0_751)">
<ellipse cx="43.166" cy="42.75" rx="38.5" ry="38" fill="#FBFBFF"/>
</g>
<path d="M43.0975 37.1354C43.1003 37.9487 42.9364 38.7538 42.6158 39.5013C42.1559 40.6281 41.3719 41.5931 40.3631 42.274C39.3544 42.9549 38.1662 43.3211 36.9491 43.3263C35.7247 43.3262 34.5278 42.9631 33.5098 42.2829C32.4917 41.6026 31.6983 40.6357 31.2297 39.5045C30.7611 38.3733 30.6385 37.1286 30.8774 35.9277C31.1163 34.7268 31.7059 33.6237 32.5716 32.7579C33.1468 32.1809 33.8301 31.7232 34.5825 31.4108C35.3349 31.0984 36.1416 30.9377 36.9562 30.9377C37.7709 30.9377 38.5775 31.0984 39.3299 31.4108C40.0823 31.7232 40.7657 32.1809 41.3408 32.7579C42.4889 33.9275 43.1389 35.4966 43.1541 37.1354H43.0975ZM58.3266 37.1354C58.33 37.9473 58.1711 38.7517 57.8591 39.5013C57.5189 40.2557 57.0381 40.9384 56.4425 41.5129C55.2791 42.6747 53.7021 43.3273 52.0579 43.3273C50.4137 43.3273 48.8367 42.6747 47.6733 41.5129C46.5123 40.3519 45.8601 38.7773 45.8601 37.1354C45.8601 35.4935 46.5123 33.9189 47.6733 32.7579C48.2461 32.1792 48.9278 31.7198 49.6792 31.4061C50.4305 31.0924 51.2366 30.9307 52.0508 30.9304C53.6987 30.9351 55.2777 31.5922 56.4425 32.7579C57.0314 33.326 57.5013 34.0056 57.8248 34.7572C58.1483 35.5087 58.3189 36.3172 58.3266 37.1354ZM43.0975 52.3646C43.0933 53.1846 42.9197 53.9949 42.5875 54.7446C42.2856 55.499 41.8324 56.1837 41.2558 56.7563C40.6802 57.3341 39.9956 57.7919 39.2418 58.1032C38.4879 58.4145 37.6797 58.573 36.8641 58.5696C35.6397 58.5696 34.4428 58.2065 33.4248 57.5262C32.4067 56.8459 31.6133 55.8791 31.1447 54.7479C30.6761 53.6167 30.5535 52.3719 30.7924 51.171C31.0313 49.9701 31.6209 48.8671 32.4866 48.0013C33.0618 47.4243 33.7451 46.9665 34.4975 46.6541C35.2499 46.3418 36.0566 46.181 36.8712 46.181C37.6859 46.181 38.4925 46.3418 39.2449 46.6541C39.9973 46.9665 40.6807 47.4243 41.2558 48.0013C42.4039 49.1708 43.0539 50.7399 43.0691 52.3788L43.0975 52.3646ZM58.3266 52.3646C58.3238 53.5878 57.9587 54.7828 57.2774 55.7987C56.5961 56.8146 55.629 57.6059 54.4984 58.0727C53.3677 58.5395 52.1242 58.6609 50.9246 58.4216C49.725 58.1823 48.6232 57.5929 47.7582 56.728C46.8933 55.863 46.304 54.7612 46.0646 53.5617C45.8253 52.3621 45.9467 51.1185 46.4135 49.9878C46.8803 48.8572 47.6716 47.8902 48.6875 47.2088C49.7034 46.5275 50.8984 46.1624 52.1216 46.1596C53.7689 46.1674 55.3468 46.824 56.5133 47.9871C57.0894 48.561 57.5463 49.2433 57.8575 49.9946C58.1687 50.7459 58.3282 51.5514 58.3266 52.3646Z" fill="black"/>
<defs>
<filter id="filter0_di_0_751" x="0.666016" y="0.75" width="89" height="88" filterUnits="userSpaceOnUse" color-interpolation-filters="sRGB">
<feFlood flood-opacity="0" result="BackgroundImageFix"/>
<feColorMatrix in="SourceAlpha" type="matrix" values="0 0 0 0 0 0 0 0 0 0 0 0 0 0 0 0 0 0 127 0" result="hardAlpha"/>
<feOffset dx="2" dy="2"/>
<feGaussianBlur stdDeviation="3"/>
<feComposite in2="hardAlpha" operator="out"/>
<feColorMatrix type="matrix" values="0 0 0 0 0 0 0 0 0 0 0 0 0 0 0 0 0 0 0.15 0"/>
<feBlend mode="normal" in2="BackgroundImageFix" result="effect1_dropShadow_0_751"/>
<feBlend mode="normal" in="SourceGraphic" in2="effect1_dropShadow_0_751" result="shape"/>
<feColorMatrix in="SourceAlpha" type="matrix" values="0 0 0 0 0 0 0 0 0 0 0 0 0 0 0 0 0 0 127 0" result="hardAlpha"/>
<feOffset dx="3" dy="2"/>
<feGaussianBlur stdDeviation="0.5"/>
<feComposite in2="hardAlpha" operator="arithmetic" k2="-1" k3="1"/>
<feColorMatrix type="matrix" values="0 0 0 0 1 0 0 0 0 1 0 0 0 0 1 0 0 0 1 0"/>
<feBlend mode="normal" in2="shape" result="effect2_innerShadow_0_751"/>
</filter>
</defs>
</svg>
