<svg width="400" height="315" viewBox="0 0 400 315" fill="none" xmlns="http://www.w3.org/2000/svg">
<g filter="url(#filter0_d_78_95)">
<path d="M0 -8H400V261C400 261 335.052 298.5 296 298.5C256.948 298.5 288.052 246.5 249 246.5C209.948 246.5 103.052 298.5 64 298.5C24.9476 298.5 0 266.5 0 266.5V-8Z" fill="white"/>
</g>
<g filter="url(#filter1_d_78_95)">
<path d="M0 -8H400V261C400 261 346.052 288 306.999 288C267.947 288 288.552 244 249.5 244C210.448 244 116.052 288 77 288C37.9476 288 0 261 0 261V-8Z" fill="url(#paint0_linear_78_95)"/>
<path d="M0 -8H400V261C400 261 346.052 288 306.999 288C267.947 288 288.552 244 249.5 244C210.448 244 116.052 288 77 288C37.9476 288 0 261 0 261V-8Z" fill="black" fill-opacity="0.2"/>
</g>
<defs>
<filter id="filter0_d_78_95" x="-10" y="-12" width="420" height="326.5" filterUnits="userSpaceOnUse" color-interpolation-filters="sRGB">
<feFlood flood-opacity="0" result="BackgroundImageFix"/>
<feColorMatrix in="SourceAlpha" type="matrix" values="0 0 0 0 0 0 0 0 0 0 0 0 0 0 0 0 0 0 127 0" result="hardAlpha"/>
<feOffset dy="6"/>
<feGaussianBlur stdDeviation="5"/>
<feComposite in2="hardAlpha" operator="out"/>
<feColorMatrix type="matrix" values="0 0 0 0 0.113725 0 0 0 0 0.0431373 0 0 0 0 0.419608 0 0 0 0.35 0"/>
<feBlend mode="normal" in2="BackgroundImageFix" result="effect1_dropShadow_78_95"/>
<feBlend mode="normal" in="SourceGraphic" in2="effect1_dropShadow_78_95" result="shape"/>
</filter>
<filter id="filter1_d_78_95" x="-5" y="-9" width="410" height="306" filterUnits="userSpaceOnUse" color-interpolation-filters="sRGB">
<feFlood flood-opacity="0" result="BackgroundImageFix"/>
<feColorMatrix in="SourceAlpha" type="matrix" values="0 0 0 0 0 0 0 0 0 0 0 0 0 0 0 0 0 0 127 0" result="hardAlpha"/>
<feOffset dy="4"/>
<feGaussianBlur stdDeviation="2.5"/>
<feComposite in2="hardAlpha" operator="out"/>
<feColorMatrix type="matrix" values="0 0 0 0 0.113725 0 0 0 0 0.0431373 0 0 0 0 0.419608 0 0 0 0.5 0"/>
<feBlend mode="normal" in2="BackgroundImageFix" result="effect1_dropShadow_78_95"/>
<feBlend mode="normal" in="SourceGraphic" in2="effect1_dropShadow_78_95" result="shape"/>
</filter>
<linearGradient id="paint0_linear_78_95" x1="200" y1="3.05877e-06" x2="200" y2="280" gradientUnits="userSpaceOnUse">
<stop stop-color="#3D1CFF"/>
<stop offset="1" stop-color="#941DFF"/>
</linearGradient>
</defs>
</svg>
