<svg width="1715" height="1174" viewBox="0 0 1715 1174" fill="none" xmlns="http://www.w3.org/2000/svg">
<path fill-rule="evenodd" clip-rule="evenodd" d="M337.309 2.04554C442.819 15.2375 494.952 127.05 567.891 204.366C637.081 277.708 738.884 334.207 745.547 434.78C752.426 538.623 679.921 630.445 600.583 697.862C527.642 759.844 432.861 775.562 337.309 781.681C232.484 788.393 109.197 811.044 37.9814 733.889C-32.5124 657.515 16.6279 538.678 17.1149 434.78C17.5977 331.774 -20.5132 221.286 40.7723 138.46C108.026 47.5677 225.062 -11.9887 337.309 2.04554Z" fill="#7D76DC" fill-opacity="0.06"/>
<path d="M968.264 783.279C1044.2 748.622 1125.36 851.126 1188.63 826.343C1290.26 786.533 1267.42 615.895 1379.47 526.506C1502.27 428.542 1608.5 559.889 1629.92 606.03C1671.77 696.149 1700.86 897.719 1554.3 966.197C1460.09 1010.21 1377.12 951.734 1277.03 973.363C1186.41 992.946 1170.51 1133.3 1079.07 1148.32C1006.08 1160.3 935.396 1092.66 908.867 1033.82C891.704 995.747 842.595 840.636 968.264 783.279Z" fill="#7D76DC" fill-opacity="0.06"/>
</svg>
