<svg width="48" height="48" viewBox="0 0 48 48" fill="none" xmlns="http://www.w3.org/2000/svg">
<path d="M40.672 6.44197L7.74602 17.42C7.6112 17.4648 7.49322 17.5496 7.40775 17.6631C7.32228 17.7766 7.27336 17.9134 7.2675 18.0553C7.26164 18.1973 7.29911 18.3377 7.37494 18.4578C7.45077 18.5779 7.56136 18.6722 7.69202 18.728L19.792 23.914C19.8554 23.9414 19.9249 23.952 19.9936 23.9446C20.0622 23.9373 20.1279 23.9122 20.184 23.872L32.046 15.396C32.414 15.136 32.866 15.588 32.606 15.956L24.13 27.818C24.0904 27.8741 24.066 27.9394 24.059 28.0077C24.052 28.076 24.0627 28.145 24.09 28.208L29.274 40.308C29.3296 40.4387 29.4237 40.5494 29.5437 40.6254C29.6637 40.7014 29.804 40.739 29.946 40.7334C30.0879 40.7278 30.2248 40.6791 30.3384 40.5938C30.452 40.5085 30.537 40.3907 30.582 40.256L41.56 7.32797C41.6013 7.20455 41.6074 7.07206 41.5776 6.94537C41.5478 6.81868 41.4832 6.70282 41.3912 6.61079C41.2992 6.51876 41.1833 6.45421 41.0566 6.42439C40.9299 6.39456 40.7954 6.40065 40.672 6.44197Z" fill="#222222"/>
</svg>
