<svg width="57" height="57" viewBox="0 0 57 57" fill="none" xmlns="http://www.w3.org/2000/svg">
<path fill-rule="evenodd" clip-rule="evenodd" d="M2.2717 16.0523L5.46527 36.8106H51.5349L54.7285 16.0523C54.9644 14.5184 53.2191 13.4723 51.9776 14.4034L42.028 21.8656C40.936 22.6844 39.3803 22.4181 38.6232 21.2823L30.3399 8.85733C29.4646 7.5443 27.5354 7.5443 26.66 8.85733L18.3768 21.2823C17.6197 22.4181 16.064 22.6846 14.972 21.8656L5.02235 14.4034C3.7809 13.4723 2.03562 14.5184 2.2717 16.0523ZM7.86676 48.3279H49.1325C50.459 48.3279 51.5343 47.2525 51.5345 45.926V40.6498H5.46489V45.926C5.46489 47.2525 6.54026 48.3279 7.86676 48.3279Z" fill="url(#paint0_linear_0_833)"/>
<defs>
<linearGradient id="paint0_linear_0_833" x1="2.00005" y1="15.3003" x2="50" y2="45.8003" gradientUnits="userSpaceOnUse">
<stop stop-color="#3D1CFF"/>
<stop offset="1" stop-color="#941DFF"/>
</linearGradient>
</defs>
</svg>
