<svg width="27" height="26" viewBox="0 0 27 26" fill="none" xmlns="http://www.w3.org/2000/svg">
<path d="M19.2 3.61805C20.8591 4.56148 22.2392 5.91529 23.2038 7.54546C24.1684 9.17564 24.6839 11.0256 24.6994 12.9123C24.7149 14.799 24.2297 16.657 23.292 18.3023C22.3543 19.9476 20.9966 21.3232 19.3532 22.2929C17.7098 23.2626 15.8377 23.7928 13.9223 23.831C12.0069 23.8691 10.1146 23.414 8.43272 22.5106C6.75083 21.6072 5.33767 20.2868 4.33315 18.6802C3.32862 17.0736 2.76756 15.2365 2.70551 13.3507L2.70001 12.9997L2.70551 12.6487C2.76712 10.7778 3.31991 8.95451 4.31002 7.35663C5.30012 5.75875 6.69373 4.44079 8.35499 3.53126C10.0163 2.62173 11.8885 2.15165 13.7891 2.16686C15.6898 2.18207 17.554 2.68205 19.2 3.61805ZM17.7777 10.0671C17.5883 9.88061 17.3363 9.76856 17.069 9.75201C16.8016 9.73545 16.5374 9.81553 16.3257 9.97722L16.2223 10.0671L12.6 13.6335L11.1777 12.2338L11.0743 12.1439C10.8627 11.9823 10.5984 11.9023 10.3312 11.9189C10.0639 11.9355 9.81196 12.0476 9.6226 12.2341C9.43324 12.4206 9.31946 12.6687 9.3026 12.9319C9.28574 13.1951 9.36695 13.4554 9.53101 13.6638L9.62231 13.7656L11.8223 15.9323L11.9257 16.0222C12.1186 16.1696 12.3558 16.2496 12.6 16.2496C12.8442 16.2496 13.0814 16.1696 13.2743 16.0222L13.3777 15.9323L17.7777 11.599L17.869 11.4971C18.0332 11.2887 18.1145 11.0284 18.0977 10.7652C18.0809 10.5019 17.9671 10.2537 17.7777 10.0671Z" fill="#FFC130"/>
</svg>
