<svg width="37" height="36" viewBox="0 0 37 36" fill="none" xmlns="http://www.w3.org/2000/svg">
<g clip-path="url(#clip0_0_667)">
<path d="M29.525 15.06C29.0211 12.5066 27.6464 10.2073 25.6356 8.55487C23.6248 6.90245 21.1027 5.99941 18.5 6C14.165 6 10.4 8.46 8.525 12.06C6.32035 12.2982 4.28151 13.3428 2.80023 14.993C1.31896 16.6432 0.499742 18.7825 0.5 21C0.5 25.965 4.535 30 9.5 30H29C33.14 30 36.5 26.64 36.5 22.5C36.5 18.54 33.425 15.33 29.525 15.06ZM26 19.5L18.5 27L11 19.5H15.5V13.5H21.5V19.5H26Z" fill="#222222"/>
</g>
<defs>
<clipPath id="clip0_0_667">
<rect width="36" height="36" fill="white" transform="translate(0.5)"/>
</clipPath>
</defs>
</svg>
