<svg width="63" height="62" viewBox="0 0 63 62" fill="none" xmlns="http://www.w3.org/2000/svg">
<g clip-path="url(#clip0_0_868)">
<path d="M39.9766 49.8678H37.9669C37.4624 48.7916 37.2113 47.2025 37.122 45.564C35.3588 46.0251 33.4771 46.2588 31.4841 46.2588C29.5161 46.2588 27.6561 46.0307 25.9103 45.5815C25.8281 47.2129 25.5809 48.7956 25.0727 49.8678H23.0234C20.6864 49.8678 18.7852 51.769 18.7852 54.106V54.734H44.2148V54.106C44.2148 51.769 42.3136 49.8678 39.9766 49.8678Z" fill="white"/>
<path d="M46.6367 58.3672H16.3633C15.3601 58.3672 14.5469 59.1805 14.5469 60.1836C14.5469 61.1867 15.3601 62 16.3633 62H46.6367C47.6399 62 48.4531 61.1867 48.4531 60.1836C48.4531 59.1805 47.6399 58.3672 46.6367 58.3672Z" fill="white"/>
<path d="M8.49219 3.63281H54.5078C55.511 3.63281 56.3242 2.81955 56.3242 1.81641C56.3242 0.813266 55.511 0 54.5078 0H8.49219C7.48905 0 6.67578 0.813266 6.67578 1.81641C6.67578 2.81955 7.48905 3.63281 8.49219 3.63281Z" fill="white"/>
<path d="M51.4497 10.5037C51.5294 9.46033 51.6161 8.32544 51.7162 7.26562H11.1348C11.2203 8.21718 11.2958 9.2208 11.3655 10.1486C11.7998 15.927 12.3943 23.8405 14.9655 30.3658C18.1709 38.5012 23.7286 42.6261 31.4843 42.6261C39.1726 42.6261 44.6813 38.5669 47.8574 30.5614C50.4093 24.1287 51.0106 16.2538 51.4497 10.5037ZM40.1333 21.2753L37.6485 24.5146L37.7606 28.601C37.777 29.2001 37.4968 29.7688 37.0117 30.1209C36.6972 30.3491 36.3228 30.4672 35.9448 30.4672C35.7395 30.4672 35.5333 30.4324 35.3347 30.3616L31.5 28.9938L27.6653 30.3616C27.101 30.5629 26.4734 30.4728 25.9882 30.1209C25.5031 29.7688 25.223 29.2001 25.2393 28.601L25.3514 24.5146L22.8668 21.2753C22.5026 20.8006 22.3956 20.177 22.5807 19.608C22.7658 19.039 23.2193 18.5976 23.793 18.4279L27.6982 17.2733L30.0003 13.9036C30.3388 13.4082 30.9001 13.1119 31.5001 13.1119C32.1002 13.1119 32.6614 13.4082 33 13.9036L35.3021 17.2733L39.2073 18.4279C39.7809 18.5976 40.2344 19.039 40.4195 19.608C40.6044 20.177 40.4974 20.8006 40.1333 21.2753Z" fill="white"/>
<path d="M32.6671 19.8567L31.5 18.1484L30.3329 19.8567C30.097 20.2021 29.7492 20.4553 29.3481 20.5739L27.3582 21.1622L28.6261 22.815C28.8798 23.1456 29.012 23.5537 29.0005 23.9703L28.9435 26.0488L30.8897 25.3547C31.0869 25.2844 31.2934 25.2491 31.4999 25.2491C31.7063 25.2491 31.9128 25.2844 32.1101 25.3547L34.0563 26.0488L33.9992 23.9703C33.9877 23.5537 34.12 23.1456 34.3737 22.815L35.6415 21.1622L33.6518 20.5739C33.2508 20.4554 32.903 20.2021 32.6671 19.8567Z" fill="white"/>
<path d="M9.55551 24.8501C6.42451 20.9034 4.52213 16.0513 4.18634 10.9517H7.78282C7.76938 10.7733 7.75606 10.5964 7.74298 10.4216C7.68013 9.58657 7.59161 8.4099 7.49086 7.31885H2.31641C1.31327 7.31885 0.5 8.13211 0.5 9.13525V9.32234C0.5 18.2174 4.68125 26.6507 11.7179 32.0269C11.6734 31.9175 11.629 31.8081 11.5854 31.6974C10.7184 29.497 10.062 27.1797 9.55551 24.8501Z" fill="white"/>
<path d="M60.6836 7.31885H55.3621C55.2427 8.54553 55.1388 9.90481 55.0721 10.7783C55.0678 10.8354 55.0633 10.8941 55.0589 10.9517H58.8127C58.4681 16.1404 56.5015 21.0703 53.2699 25.0513C52.7626 27.3864 52.105 29.7061 51.2341 31.9011C51.206 31.9718 51.1773 32.0415 51.1488 32.1117C58.2658 26.7402 62.5 18.2597 62.5 9.30721V9.13525C62.5 8.13211 61.6867 7.31885 60.6836 7.31885Z" fill="white"/>
</g>
<defs>
<clipPath id="clip0_0_868">
<rect width="62" height="62" fill="white" transform="translate(0.5)"/>
</clipPath>
</defs>
</svg>
