<svg width="48" height="48" viewBox="0 0 48 48" fill="none" xmlns="http://www.w3.org/2000/svg">
<path d="M36 22C36 23.8385 35.6379 25.659 34.9343 27.3576C34.2308 29.0561 33.1995 30.5995 31.8995 31.8995C30.5995 33.1995 29.0561 34.2308 27.3576 34.9343C25.659 35.6379 23.8385 36 22 36C20.1615 36 18.341 35.6379 16.6424 34.9343C14.9439 34.2308 13.4005 33.1995 12.1005 31.8995C10.8005 30.5995 9.76925 29.0561 9.06569 27.3576C8.36212 25.659 8 23.8385 8 22C8 18.287 9.475 14.726 12.1005 12.1005C14.726 9.475 18.287 8 22 8C25.713 8 29.274 9.475 31.8995 12.1005C34.525 14.726 36 18.287 36 22Z" fill="#222222"/>
<path d="M40 40L36 36" stroke="#222222" stroke-width="2.5" stroke-linecap="round"/>
</svg>
