<svg width="166" height="32" viewBox="0 0 166 32" fill="none" xmlns="http://www.w3.org/2000/svg">
<g clip-path="url(#clip0_1_163)">
<path d="M25.5863 8.12502H23.4763C22.5263 6.81502 22.9863 5.32502 22.9163 3.90502C22.8563 2.90502 22.6963 2.10502 21.3563 2.63502C20.2063 3.06502 19.0863 3.63502 17.9263 4.01502C17.7275 4.1119 17.5239 4.19868 17.3163 4.27502C16.7063 4.50502 16.1263 4.81502 15.5263 5.06502C14.9263 5.31502 14.5263 5.43502 13.9863 5.68502C11.9863 6.68502 9.7763 7.47502 7.7163 8.47502C6.0063 8.97502 4.4863 9.92502 2.7863 10.475C2.49792 10.59 2.21732 10.7236 1.9463 10.875C1.70009 11.0505 1.43513 11.1981 1.1563 11.315C1.04921 11.3439 0.935621 11.337 0.832762 11.2955C0.729903 11.254 0.643379 11.1801 0.586304 11.085C0.586304 8.15502 0.696304 5.21502 0.586304 2.27502C0.586304 1.04502 0.876304 0.775024 2.1163 0.775024C10.4263 0.835024 18.7263 0.775024 27.0263 0.775024L26.9663 1.45502C26.3566 2.66669 26.0936 4.02329 26.2063 5.37502C26.1863 6.33502 26.3563 7.32502 25.5863 8.12502Z" fill="#FEFEFE"/>
<path d="M0.586304 11.085H1.0963C1.60912 11.8885 1.88158 12.8218 1.88158 13.775C1.88158 14.7282 1.60912 15.6615 1.0963 16.465H0.586304V11.085Z" fill="#F8FEFE"/>
<path d="M59.8363 1.23505H63.4763C64.6063 1.96505 65.9563 2.34505 66.8863 3.38505C67.2263 3.92505 67.9563 4.38505 67.3863 5.16505C66.2363 5.96505 65.2063 6.70505 63.9063 5.16505C63.2363 4.39505 61.9963 4.33505 60.9063 4.23505C60.6119 4.24739 60.324 4.3246 60.0629 4.46117C59.8019 4.59774 59.5743 4.79028 59.3963 5.02505C58.0763 7.28505 59.7063 7.91505 61.3963 8.56505C64.0163 9.56505 67.1163 9.83505 68.3963 12.925C68.6866 13.8358 68.6866 14.8143 68.3963 15.725C67.8151 16.8127 66.9805 17.7443 65.9631 18.4412C64.9457 19.1381 63.7755 19.5798 62.5514 19.7289C61.3272 19.878 60.0852 19.7301 58.9303 19.2978C57.7754 18.8654 56.7416 18.1613 55.9163 17.245C55.4263 16.655 54.0363 15.845 55.5563 14.915C56.4763 14.355 57.2863 13.145 58.6363 14.755C60.3663 16.825 62.1963 16.855 64.8463 15.455C65.1663 14.625 65.4363 13.805 64.6563 13.065C62.8363 12.405 61.0063 11.775 59.2063 11.065C57.6363 10.495 56.0463 9.77505 55.8963 7.77505C55.5961 6.89323 55.5961 5.93686 55.8963 5.05505C56.2063 2.77505 57.6663 1.65505 59.8363 1.23505Z" fill="#222222"/>
<path d="M95.8463 17.945V14.505C96.1613 13.5572 96.1613 12.5329 95.8463 11.585C95.1963 9.83501 94.0463 8.86501 92.0363 9.20501C91.6523 9.28412 91.2948 9.45965 90.9974 9.71507C90.7 9.97048 90.4725 10.2974 90.3363 10.665C90.3363 13.005 90.1463 15.355 90.2263 17.665C90.2863 19.155 89.6163 19.345 88.3363 19.405C86.8463 19.475 86.7763 18.755 86.7863 17.645C86.7863 14.645 86.9363 11.645 86.7863 8.64501C86.6663 6.55501 87.4663 6.05501 89.3363 6.64501C89.9963 6.64501 89.7863 8.04501 90.7663 7.46501C94.0763 4.99501 97.0863 6.06501 98.8563 10.345C99.2763 12.655 98.9763 14.975 99.0263 17.345C99.0263 18.055 99.3963 19.065 98.1063 19.175C97.0863 19.225 96.0563 19.315 95.8463 17.945Z" fill="#040404"/>
<path d="M119.646 4.075C119.87 3.68072 120.232 3.38305 120.662 3.23909C121.092 3.09514 121.56 3.11505 121.976 3.295C123.066 3.645 122.246 4.485 122.216 5.085C122.156 6.595 123.216 6.575 124.216 6.495C125.216 6.415 125.836 6.735 125.786 7.965C125.736 9.195 125.666 9.905 124.206 9.655C122.966 9.435 122.636 10.065 122.716 11.185C122.796 12.305 122.716 13.455 122.716 14.595C122.716 15.735 123.026 16.595 124.366 16.455C126.046 16.275 125.686 17.375 125.746 18.305C125.826 19.585 124.956 19.485 124.116 19.515C120.896 19.625 119.556 18.425 119.416 15.265C119.356 14.045 119.416 12.825 119.416 11.615C119.416 10.405 119.636 9.615 117.896 9.555C116.556 9.555 117.206 8.165 117.186 7.415C117.186 6.025 118.186 6.565 118.976 6.625C119.986 5.965 119.116 4.845 119.646 4.075Z" fill="#222222"/>
<path d="M34.5163 11.535C33.6208 11.416 32.7632 11.0983 32.0063 10.605C31.3363 9.85504 30.3263 9.96504 29.4863 9.60504C28.9097 9.15558 28.4614 8.56242 28.1863 7.88504C27.7063 6.88504 26.7263 5.61504 27.6163 4.79504C28.5063 3.97504 29.8263 3.09504 31.3763 3.77504C33.2863 4.55504 35.3763 4.91504 37.0963 6.16504C36.9063 7.63504 35.3563 8.77504 36.0363 10.575C36.4063 11.585 35.0863 11.275 34.5163 11.535Z" fill="#02E0FB"/>
<path d="M34.5163 11.535C34.6663 10.955 35.9863 11.195 35.6063 10.535C34.3163 8.38504 35.9963 7.37504 37.0963 6.10504C38.808 6.54161 40.4505 7.21476 41.9763 8.10504C43.2963 10.035 43.1463 10.885 41.1163 13.105C40.8964 13.358 40.6403 13.577 40.3563 13.755C39.9663 13.935 39.5663 14.125 39.1463 13.815C37.9763 12.375 35.9063 12.615 34.5163 11.535Z" fill="#02DBFD"/>
<path d="M31.0163 23.775L27.2363 25.365C26.5663 25.545 25.7463 25.635 25.8863 24.675C26.1663 22.775 25.2863 20.865 26.0463 19.005L31.0463 17.005C32.4663 18.675 32.0463 20.735 32.3263 22.655C32.0463 23.195 31.3863 23.335 31.0163 23.775Z" fill="#0187E5"/>
<path d="M17.5863 3.77503C18.6302 3.05303 19.8058 2.54336 21.0463 2.27503C22.5263 1.69503 23.2763 2.27503 23.2663 3.75503C23.2563 5.23503 23.5463 6.63503 23.0363 8.03503C21.5825 9.13562 19.8903 9.87895 18.0963 10.205C17.6173 9.89102 17.2669 9.41539 17.1091 8.86477C16.9512 8.31415 16.9964 7.72515 17.2363 7.20503C17.5632 6.09301 17.6819 4.93016 17.5863 3.77503Z" fill="#03E4FB"/>
<path d="M7.52629 7.99504C9.61757 6.86759 11.8106 5.94014 14.0763 5.22504C15.0763 5.48504 15.4763 6.22504 15.0763 7.02504C14.2363 9.02504 15.4763 9.88504 17.0263 10.605C14.7998 11.6933 12.472 12.5608 10.0763 13.195C9.80629 11.535 9.58629 9.87504 7.77629 9.02504C7.68798 8.97793 7.61063 8.91269 7.54931 8.83359C7.48799 8.75449 7.44409 8.66332 7.42048 8.56606C7.39688 8.4688 7.3941 8.36764 7.41233 8.26923C7.43057 8.17083 7.4694 8.07738 7.52629 7.99504Z" fill="#04DDFD"/>
<path d="M20.5063 24.775C19.277 24.4965 18.1104 23.9912 17.0663 23.285C17.2163 21.125 17.2863 18.935 19.0663 17.285L20.5463 17.925C21.6368 18.427 22.4873 19.3362 22.9154 20.4578C23.3434 21.5794 23.3151 22.8241 22.8363 23.925C22.3563 24.915 21.4263 24.875 20.5063 24.775Z" fill="#0285E5"/>
<path d="M7.52631 7.995C7.82632 8.36096 8.18442 8.67514 8.58631 8.92499C10.8663 9.77499 10.8963 11.325 10.0863 13.195C10.0989 13.2637 10.0853 13.3345 10.0483 13.3937C10.0113 13.4529 9.95353 13.4962 9.88631 13.515C9.01631 14.295 8.19631 13.695 7.36631 13.415C6.05631 12.715 4.58631 12.415 3.23631 11.835C2.58631 11.545 1.51631 11.395 2.10631 10.185L7.52631 7.995Z" fill="#04D9FD"/>
<path d="M39.1463 13.865L39.9663 13.575C40.0515 13.6478 40.1198 13.7383 40.1665 13.8402C40.2131 13.9421 40.2369 14.0529 40.2363 14.165C39.2363 16.055 40.2363 18.005 40.0363 19.925C39.0363 20.925 37.6363 20.715 36.5563 21.405C33.8863 20.095 33.5863 17.275 35.9863 15.085L39.1463 13.865Z" fill="#036FE1"/>
<path d="M31.3763 3.77505C30.0463 3.48505 29.5863 5.30505 28.0963 4.99505C27.7163 4.92505 27.9063 6.25505 28.1963 6.60505C28.9463 7.52505 29.0063 8.67505 29.5063 9.65505C28.1038 9.43647 26.766 8.91431 25.5863 8.12505C25.5863 6.37505 25.5863 4.61505 25.5863 2.86505C25.5863 2.02505 25.5863 1.17505 26.8863 1.48505L31.3763 3.77505Z" fill="#06E5FA"/>
<path d="M17.0763 10.605C14.2063 10.515 13.5863 9.87502 14.5863 7.36502C14.9363 6.36502 14.5063 5.88502 14.1163 5.22502C14.2776 5.03277 14.4824 4.8817 14.7137 4.78431C14.9449 4.68693 15.1961 4.64604 15.4463 4.66502C15.9963 4.36502 16.8263 4.66502 17.1363 3.90502L17.5863 3.77502C18.3263 4.49502 18.8863 5.33502 18.2263 6.31502C17.3163 7.63502 17.6963 8.90502 18.0963 10.225C17.9812 10.3801 17.8236 10.4985 17.6426 10.566C17.4616 10.6334 17.2649 10.647 17.0763 10.605Z" fill="#02E0FC"/>
<path d="M40.0363 19.925C39.2663 17.925 38.1863 16.005 39.9863 14.015C41.2963 13.325 42.3563 14.175 43.4963 14.545C43.6545 14.6238 43.7927 14.7378 43.9001 14.8782C44.0076 15.0186 44.0815 15.1817 44.1163 15.355C43.7663 16.355 43.1163 17.355 43.5163 18.445C42.4504 19.1355 41.273 19.6363 40.0363 19.925Z" fill="#0363E1"/>
<path d="M19.0863 17.355C18.8163 19.225 17.2563 20.835 17.8663 22.915C17.6153 23.0802 17.347 23.2177 17.0663 23.325C16.2856 23.2365 15.5483 22.92 14.9463 22.415C15.1363 20.865 15.6663 19.325 14.7463 17.785C14.5935 17.4994 14.5429 17.1702 14.6029 16.8519C14.6629 16.5336 14.83 16.2453 15.0763 16.035C16.5102 16.0907 17.8997 16.5481 19.0863 17.355Z" fill="#047DE3"/>
<path d="M6.92631 19.005C4.98166 18.5493 3.14642 17.7132 1.52631 16.545C1.6475 16.3358 1.81946 16.1604 2.02631 16.035C3.24314 15.4243 4.50723 14.9126 5.80631 14.505C6.21078 14.4464 6.62307 14.4737 7.01631 14.585C9.04631 16.465 9.00631 18.075 6.92631 19.005Z" fill="#045CDC"/>
<path d="M40.4863 13.055C41.9363 11.705 42.8763 10.215 41.9763 8.17505C43.9051 8.72267 45.7491 9.53365 47.4563 10.585C46.8063 11.995 45.2463 11.815 44.1463 12.445C43.28 12.8227 42.3835 13.1271 41.4663 13.355C41.2909 13.3901 41.1095 13.3811 40.9385 13.3287C40.7674 13.2763 40.6121 13.1823 40.4863 13.055Z" fill="#04D7FD"/>
<path d="M160.966 11.545C161.088 10.3484 161.467 9.19215 162.076 8.15504C162.296 7.7241 162.673 7.39484 163.13 7.23636C163.587 7.07788 164.087 7.10249 164.526 7.30504C165.266 7.56504 165.386 8.15503 165.126 8.84503L164.126 11.595C163.036 12.775 161.996 12.335 160.966 11.545Z" fill="#09CBF7"/>
<path d="M143.156 8.15505C142.516 6.29505 144.416 6.81505 145.076 6.15505C145.597 5.95703 146.16 5.89534 146.711 5.97585C147.262 6.05635 147.784 6.27638 148.226 6.61505C149.226 7.06505 151.376 5.37505 151.136 8.12505C149.881 8.68348 148.523 8.97454 147.149 8.9797C145.776 8.98487 144.416 8.70403 143.156 8.15505Z" fill="#03B7F4"/>
<path d="M145.116 17.455V13.535C147.856 12.465 148.386 12.855 148.256 15.845C148.62 16.9937 148.563 18.2342 148.096 19.345C147.844 18.7693 147.426 18.282 146.895 17.9453C146.364 17.6086 145.745 17.4379 145.116 17.455Z" fill="#0A7CEA"/>
<path d="M13.5863 21.935C12.8085 21.8369 12.0845 21.4855 11.5263 20.935C12.5263 18.825 11.7763 16.675 11.6263 14.545C12.2025 14.5809 12.7654 14.7332 13.281 14.9927C13.7966 15.2522 14.2543 15.6136 14.6263 16.055C14.6763 18.085 15.5263 20.245 13.5863 21.935Z" fill="#0473E3"/>
<path d="M143.156 8.15503H151.156C151.376 9.07503 151.316 9.80503 150.066 9.75503C149.741 9.70654 149.409 9.72688 149.092 9.81473C148.775 9.90259 148.48 10.056 148.226 10.265C147.226 9.76503 146.116 10.265 145.066 10.165C144.306 9.58503 142.506 9.98503 143.156 8.15503Z" fill="#03AEF2"/>
<path d="M43.9663 12.065C44.9663 11.175 46.3763 11.265 47.4563 10.585C48.2167 12.5955 48.2167 14.8145 47.4563 16.825C47.1645 16.8578 46.8694 16.8054 46.6068 16.6741C46.3441 16.5427 46.1252 16.3381 45.9763 16.085C45.5863 14.605 45.7363 12.875 43.9663 12.065Z" fill="#07B9FC"/>
<path d="M158.976 14.045C159.366 14.645 159.746 14.535 160.116 14.045C161.236 13.405 162.336 12.885 163.056 14.545C162.947 15.4575 162.602 16.3259 162.056 17.065C160.266 16.455 158.296 16.735 156.536 15.985C156.158 15.6047 155.942 15.0916 155.936 14.555C156.343 14.1907 156.844 13.9494 157.382 13.8591C157.921 13.7688 158.473 13.8333 158.976 14.045Z" fill="#0BA7F2"/>
<path d="M156.586 15.965C158.506 15.965 160.586 15.205 162.106 17.045C162.126 17.117 162.126 17.1929 162.107 17.265C162.088 17.337 162.049 17.4026 161.996 17.455C161.706 17.915 161.476 18.455 160.886 18.635C159.795 18.6751 158.703 18.6047 157.626 18.425C157.024 17.7381 156.66 16.8755 156.586 15.965Z" fill="#0196F0"/>
<path d="M35.4963 21.855C34.7918 22.4087 33.9468 22.755 33.0563 22.855C32.1363 20.615 31.1463 18.375 33.0563 16.115L33.5663 15.985C33.9299 16.0553 34.2547 16.2576 34.4781 16.553C34.7015 16.8484 34.8077 17.216 34.7763 17.585C34.7952 19.0369 35.038 20.4772 35.4963 21.855Z" fill="#047AE2"/>
<path d="M148.108 1.64952C148.494 1.48756 148.895 1.32501 149.314 1.32501C150.31 1.32501 151.257 2.17371 150.907 3.10529C150.672 3.73196 150.172 4.19916 149.116 4.32501C148.344 4.51821 147.597 4.63068 146.942 4.42944C145.874 4.10155 145.766 2.52923 146.797 2.1005C147.222 1.92407 147.691 1.82436 148.108 1.64952Z" fill="#02DDFA"/>
<path d="M11.5863 14.535C12.8963 16.055 12.7563 17.835 12.5863 19.635C12.5163 20.385 12.2563 20.835 11.4763 20.925L10.4763 20.585C9.88628 19.685 10.3863 18.735 10.3763 17.805C10.4523 17.2951 10.4007 16.7743 10.2262 16.2891C10.0517 15.804 9.75967 15.3697 9.37628 15.025C9.19143 14.8639 9.04167 14.6664 8.93628 14.445C9.05628 13.735 9.48628 13.715 10.0363 13.965C10.6059 13.9556 11.1585 14.1588 11.5863 14.535Z" fill="#036DE1"/>
<path d="M20.5063 24.775C23.5063 23.445 23.5063 20.225 20.5663 17.955C22.6563 17.955 23.7963 18.775 23.5163 21.005C23.4663 21.7275 23.4663 22.4525 23.5163 23.175C23.5263 26.365 23.5263 26.365 20.5063 24.775Z" fill="#088FE6"/>
<path d="M9.58631 14.515C11.5863 15.095 11.0363 16.725 11.0363 18.055C10.9522 18.9151 10.7745 19.7635 10.5063 20.585C9.99631 20.415 9.40631 20.415 9.04631 19.925C8.38631 18.035 7.97631 16.175 9.58631 14.515Z" fill="#0268E0"/>
<path d="M13.5863 21.935C14.4563 20.065 14.1263 17.985 14.5863 16.045H15.0863C15.0201 16.7634 15.1624 17.4856 15.4963 18.125C15.7516 18.4394 15.9406 18.8021 16.052 19.1914C16.1634 19.5807 16.1948 19.9886 16.1443 20.3903C16.0939 20.7921 15.9626 21.1795 15.7584 21.5292C15.5543 21.8789 15.2814 22.1836 14.9563 22.425C14.4563 22.325 13.8463 22.565 13.5863 21.935Z" fill="#0376E5"/>
<path d="M158.586 22.925C157.916 24.345 156.426 24.355 155.186 24.725C154.526 24.925 154.446 24.275 154.406 23.775C154.316 22.565 154.406 21.445 156.016 21.285C157.086 21.535 158.526 21.205 158.586 22.925Z" fill="#0566E8"/>
<path d="M145.676 3.27502L149.156 4.27502C148.476 4.92502 147.786 5.57502 148.226 6.65502C147.154 6.84897 146.048 6.68745 145.076 6.19502C145.066 5.16502 144.886 4.12502 145.676 3.27502Z" fill="#04C6F7"/>
<path d="M156.586 9.07502C157.316 10.114 157.805 11.3029 158.016 12.555C157.622 12.8872 157.146 13.1071 156.637 13.1915C156.129 13.276 155.607 13.2219 155.126 13.035L154.536 11.135C154.413 10.9093 154.337 10.6607 154.312 10.4045C154.288 10.1483 154.317 9.88982 154.396 9.64501C154.681 9.36846 155.032 9.17052 155.416 9.0706C155.8 8.97068 156.203 8.9722 156.586 9.07502Z" fill="#03C3F7"/>
<path d="M46.4463 16.035L47.4463 16.825L43.4463 18.445C42.0763 17.215 42.5663 16.275 43.9263 15.445C45.0163 14.775 45.6963 15.565 46.4463 16.035Z" fill="#055CDC"/>
<path d="M9.58629 14.515C8.75629 16.255 9.30629 18.125 9.04629 19.925C8.26099 19.8355 7.51981 19.5154 6.91629 19.005C8.66629 17.515 7.99629 16.225 6.57629 15.005C7.10629 13.475 8.06629 13.935 9.04629 14.505L9.58629 14.515Z" fill="#0463DE"/>
<path d="M33.0063 16.155C31.8663 18.405 33.4063 20.645 33.0063 22.895C32.8495 23.0065 32.6598 23.0621 32.4677 23.053C32.2755 23.0439 32.0919 22.9707 31.9463 22.845L30.9463 16.975L33.0063 16.155Z" fill="#047FE4"/>
<path d="M156.586 9.075C156.076 9.845 155.266 9.555 154.586 9.625C154.156 9.52098 153.772 9.277 153.495 8.93133C153.218 8.58565 153.064 8.15784 153.056 7.715C153.056 5.255 154.766 6.855 155.696 6.615C156.046 6.91175 156.313 7.29494 156.469 7.7265C156.625 8.15805 156.665 8.62295 156.586 9.075Z" fill="#02DCF9"/>
<path d="M145.116 17.455C147.846 16.535 147.956 16.605 148.116 19.345C145.296 20.235 144.976 20.035 145.116 17.455Z" fill="#0459E5"/>
<path d="M158.586 22.925C158.066 21.925 156.586 22.185 156.016 21.285C156.546 20.665 157.086 20.045 157.626 19.435C158.706 19.685 160.176 19.195 160.536 20.875C160.456 22.055 159.466 22.435 158.586 22.925Z" fill="#0273E8"/>
<path d="M148.256 15.845C148.426 13.475 146.876 13.365 145.116 13.535V11.535C145.54 11.1637 146.083 10.959 146.646 10.959C147.209 10.959 147.753 11.1637 148.176 11.535C148.509 12.9497 148.536 14.4189 148.256 15.845Z" fill="#0192ED"/>
<path d="M160.586 20.875C159.956 19.725 158.146 20.875 157.676 19.435V18.435C158.193 18.1143 158.788 17.9443 159.396 17.9443C160.004 17.9443 160.6 18.1143 161.116 18.435C161.241 18.6016 161.315 18.8006 161.329 19.0082C161.343 19.2158 161.297 19.423 161.196 19.605C161.21 19.851 161.161 20.0964 161.055 20.3185C160.948 20.5405 160.787 20.732 160.586 20.875Z" fill="#0284EE"/>
<path d="M35.4963 21.855C34.3463 21.345 34.4963 20.315 34.4963 19.365C34.5818 18.7691 34.5367 18.1617 34.364 17.5849C34.1914 17.0082 33.8953 16.4759 33.4963 16.025L35.9663 15.085C35.2351 16.0153 34.8914 17.192 35.0069 18.3695C35.1225 19.5471 35.6883 20.6346 36.5863 21.405C36.4629 21.5723 36.2961 21.7026 36.104 21.7819C35.9119 21.8612 35.7017 21.8865 35.4963 21.855Z" fill="#0575E3"/>
<path d="M95.8463 17.9451C96.4463 18.6951 97.1563 19.2151 98.1563 18.7951C99.1563 18.3751 98.7363 17.5551 98.7563 16.8851C98.7563 14.7051 98.7563 12.5351 98.8263 10.3651C99.5463 12.9651 98.9963 15.6151 99.1663 18.2451C99.2463 19.4851 98.3463 19.3751 97.5163 19.3851C96.5063 19.4051 95.4063 19.5451 95.8463 17.9451Z" fill="#222222"/>
<path d="M163.056 14.525C162.206 13.635 161.056 14.185 160.116 14.025C160.316 13.375 160.506 12.725 160.706 12.025C161.936 11.625 163.026 11.605 163.576 13.025C163.611 13.2982 163.582 13.5757 163.492 13.8358C163.402 14.096 163.253 14.3318 163.056 14.525Z" fill="#0DB6F5"/>
<path d="M155.146 13.035C156.038 12.5835 157.046 12.4159 158.036 12.555C158.246 13.105 159.036 13.295 158.976 14.045C158.056 14.675 156.976 14.475 155.976 14.535C155.706 14.035 155.426 13.535 155.146 13.035Z" fill="#07B2F4"/>
<path d="M9.0563 14.495C8.2163 14.605 7.2763 14.205 6.5863 14.995H5.5863C5.1563 12.715 5.2463 12.625 7.5863 12.995L9.9063 13.475C9.97824 13.616 10.0256 13.7681 10.0463 13.925L9.0563 14.495Z" fill="#02A7FA"/>
<path d="M165.126 8.84501C164.516 6.84501 163.246 7.73501 162.126 8.15501C162.216 5.56501 164.406 6.15501 165.506 6.56501C166.756 7.01501 165.316 8.05501 165.126 8.84501Z" fill="#1AE0F9"/>
<path d="M23.0363 8.03504C23.0363 6.81504 22.9863 5.58504 23.0363 4.37504C23.1063 2.96504 22.5863 2.17504 21.0363 2.27504C22.7263 0.995039 23.6463 1.06504 23.4763 3.49504C23.3663 5.02504 23.4763 6.57504 23.4763 8.12504C23.3237 8.14655 23.1683 8.11477 23.0363 8.03504Z" fill="#14E6F7"/>
<path d="M26.0463 19.005C26.1063 20.925 26.1563 22.855 26.2663 24.785C26.2663 25.285 26.8563 25.255 27.2663 25.365C26.6463 25.785 25.7363 26.365 25.7163 25.115C25.6563 23.085 25.0963 20.985 26.0463 19.005Z" fill="#0B92E7"/>
<path d="M145.046 10.155C146.116 9.57504 147.216 8.44504 148.206 10.255C148.243 10.3074 148.258 10.3718 148.249 10.435C148.24 10.4982 148.206 10.5555 148.156 10.595C147.931 10.7904 147.666 10.9345 147.38 11.0174C147.093 11.1004 146.793 11.1202 146.498 11.0755C146.203 11.0308 145.922 10.9227 145.673 10.7586C145.424 10.5945 145.213 10.3783 145.056 10.125L145.046 10.155Z" fill="#01A3F2"/>
<path d="M145.056 10.125C146.028 10.5594 147.099 10.7218 148.156 10.595V11.595H145.096L145.056 10.125Z" fill="#039BEF"/>
<path d="M2.09629 16.4051L1.52629 16.5451C1.39149 16.5535 1.25687 16.5259 1.13629 16.4651V11.0851L1.58629 10.5551C2.49169 12.3699 2.67398 14.4609 2.09629 16.4051Z" fill="#13BEFB"/>
<path d="M163.586 13.095C163.232 12.6983 162.783 12.3982 162.281 12.2233C161.779 12.0483 161.24 12.0042 160.716 12.095C160.806 11.925 160.886 11.755 160.976 11.575C162.026 11.415 163.056 12.095 164.116 11.625C164.137 11.8936 164.101 12.1636 164.009 12.417C163.918 12.6705 163.774 12.9016 163.586 13.095Z" fill="#0EC1F6"/>
<path d="M155.686 6.61505C154.826 7.02505 153.386 6.08504 153.046 7.71504C152.556 7.15504 152.206 6.53504 153.296 6.35504C154.098 6.1401 154.95 6.23285 155.686 6.61505Z" fill="#30E8F9"/>
<path d="M32.0063 22.835L33.0663 22.885C32.5071 23.3805 31.8087 23.6913 31.0663 23.775C31.059 23.6497 31.0784 23.5242 31.1231 23.4069C31.1677 23.2896 31.2367 23.183 31.3255 23.0942C31.4143 23.0055 31.5208 22.9365 31.6382 22.8918C31.7555 22.8471 31.881 22.8278 32.0063 22.835Z" fill="#0785E5"/>
<path d="M29.4863 9.64501C30.4863 9.64501 31.4863 9.44501 32.0063 10.645C31.0887 10.5564 30.215 10.2097 29.4863 9.64501Z" fill="#06E5FA"/>
<path d="M95.8363 11.585C96.1623 12.0019 96.3394 12.5158 96.3394 13.045C96.3394 13.5742 96.1623 14.0882 95.8363 14.505V11.585Z" fill="#222222"/>
<path d="M64.7063 13.105C65.7963 13.825 65.5663 14.645 64.8963 15.495C65.1505 14.7045 65.0822 13.8455 64.7063 13.105Z" fill="#222222"/>
<path d="M153.666 9.12504C153.85 9.10979 154.035 9.14907 154.197 9.23799C154.358 9.32691 154.49 9.46153 154.576 9.62504C154.576 10.125 154.576 10.625 154.576 11.135C154.074 10.5739 153.757 9.87234 153.666 9.12504Z" fill="#0DD1F7"/>
<path d="M68.4463 15.775V12.975C68.7297 13.3869 68.8814 13.8751 68.8814 14.375C68.8814 14.875 68.7297 15.3632 68.4463 15.775Z" fill="#222222"/>
<path d="M161.136 19.595L161.056 18.425L161.986 17.425C161.919 18.2154 161.624 18.9692 161.136 19.595Z" fill="#0F92ED"/>
<path d="M55.8663 5.04504V7.76504C55.6256 7.35222 55.4988 6.88291 55.4988 6.40504C55.4988 5.92717 55.6256 5.45786 55.8663 5.04504Z" fill="#080808"/>
<path d="M90.3263 10.665C90.3263 9.56505 90.9463 9.10505 92.0263 9.20505L90.3263 10.665Z" fill="#222222"/>
<path d="M67.3863 5.16501L66.8863 3.38501C67.5863 3.84501 68.5863 4.21501 67.3863 5.16501Z" fill="#222222"/>
<path d="M90.7363 7.47505C89.4063 8.64505 89.8063 6.89505 89.3063 6.65505C90.1663 6.28505 90.1063 7.46505 90.7363 7.47505Z" fill="#222222"/>
<path d="M59.4163 5.065C59.6563 4.305 59.9963 3.735 60.9263 4.275L59.4163 5.065Z" fill="#222222"/>
<path d="M119.646 4.07501C119.586 4.96501 120.256 6.07501 118.996 6.62501C119.726 5.90501 119.156 4.85501 119.646 4.07501Z" fill="#0E0E0E"/>
<path d="M2.0963 16.405C1.1763 14.515 1.8563 12.495 1.5863 10.555C1.58478 10.494 1.59796 10.4336 1.62474 10.3787C1.65152 10.3239 1.6911 10.2764 1.74014 10.2401C1.78918 10.2038 1.84624 10.1798 1.90649 10.1702C1.96675 10.1607 2.02842 10.1657 2.0863 10.185C2.5863 11.595 4.0863 11.295 5.0863 11.795C5.9263 12.225 6.9863 12.205 7.6163 13.035C5.9263 12.685 5.7263 13.795 5.6163 15.035C4.52468 15.6788 3.33594 16.1415 2.0963 16.405Z" fill="#02B4FD"/>
<path d="M17.0963 3.90503C17.2663 5.70503 15.9363 4.33503 15.4163 4.66503C15.8827 4.24161 16.4704 3.97572 17.0963 3.90503Z" fill="#03E4FB"/>
<path fill-rule="evenodd" clip-rule="evenodd" d="M141.086 17.2451V13.0851C141.086 12.5688 141.087 12.0525 141.088 11.5358C141.091 10.5014 141.093 9.46543 141.086 8.42505C141.086 6.61505 139.576 5.63505 138.086 6.70505C137.316 7.27505 137.096 7.30505 136.316 6.89505C135.042 6.17101 133.549 5.93313 132.113 6.22546C130.677 6.5178 129.396 7.32054 128.506 8.48505C127.535 9.7532 126.997 11.2999 126.972 12.8969C126.947 14.494 127.436 16.0569 128.366 17.3551C129.274 18.499 130.545 19.2983 131.969 19.6203C133.393 19.9423 134.885 19.7675 136.196 19.1251C136.318 19.0686 136.426 19.0073 136.527 18.9497C136.963 18.7013 137.274 18.5242 138.086 19.1251C139.666 20.3451 141.086 19.2951 141.086 17.2451ZM135.436 9.51343C134.981 9.31896 134.491 9.21751 133.996 9.21506C132.998 9.23852 132.048 9.65101 131.349 10.3646C130.651 11.0782 130.259 12.0364 130.256 13.0351C130.257 13.5309 130.359 14.0214 130.556 14.4763C130.753 14.9313 131.041 15.341 131.403 15.6801C131.765 16.0193 132.192 16.2808 132.659 16.4485C133.125 16.6162 133.621 16.6865 134.116 16.6551C134.591 16.6606 135.062 16.5704 135.501 16.3898C135.94 16.2092 136.337 15.9419 136.671 15.604C137.004 15.266 137.266 14.8644 137.44 14.423C137.615 13.9816 137.698 13.5095 137.686 13.0351C137.701 12.5404 137.616 12.0477 137.438 11.5861C137.259 11.1246 136.99 10.7034 136.646 10.3474C136.302 9.99148 135.891 9.70791 135.436 9.51343Z" fill="#222222"/>
<path fill-rule="evenodd" clip-rule="evenodd" d="M115.217 17.185V13.035L115.227 10.845V8.645C115.227 6.595 113.797 5.565 112.227 6.775C111.441 7.39897 111.114 7.20868 110.678 6.95442C110.576 6.89491 110.468 6.8319 110.347 6.775C109.072 6.14949 107.622 5.97605 106.236 6.28314C104.849 6.59024 103.608 7.35964 102.717 8.465C101.729 9.75722 101.194 11.3385 101.194 12.965C101.194 14.5915 101.729 16.1728 102.717 17.465C103.624 18.5494 104.865 19.3018 106.246 19.604C107.627 19.9063 109.07 19.7413 110.347 19.135C110.451 19.0889 110.546 19.042 110.635 18.9977C111.127 18.7537 111.45 18.5933 112.297 19.135C114.047 20.285 115.217 19.355 115.217 17.185ZM110.854 15.5311C111.516 14.8316 111.873 13.8977 111.847 12.935C111.852 12.4424 111.759 11.9538 111.572 11.498C111.385 11.0423 111.109 10.6287 110.759 10.2817C110.409 9.93483 109.993 9.66165 109.536 9.47841C109.079 9.29517 108.589 9.2056 108.097 9.215C107.604 9.22537 107.118 9.33704 106.669 9.54309C106.221 9.74913 105.82 10.0451 105.491 10.4127C105.162 10.7803 104.911 11.2117 104.756 11.68C104.601 12.1483 104.543 12.6435 104.587 13.135C104.613 14.0977 105.021 15.0105 105.721 15.6725C106.42 16.3345 107.354 16.6915 108.317 16.665C109.28 16.6385 110.192 16.2306 110.854 15.5311Z" fill="#222222"/>
<path fill-rule="evenodd" clip-rule="evenodd" d="M83.8893 15.7572C84.2416 14.9214 84.4175 14.0219 84.4061 13.115C84.4559 12.2088 84.3179 11.302 84.0009 10.4515C83.6838 9.60108 83.1945 8.82528 82.5636 8.17278C81.9327 7.52028 81.1738 7.00514 80.3345 6.65965C79.4952 6.31416 78.5935 6.14578 77.6861 6.16505C76.7746 6.11677 75.8626 6.25226 75.0044 6.56345C74.1463 6.87463 73.3595 7.35517 72.6907 7.9765C72.022 8.59783 71.485 9.34726 71.1116 10.1803C70.7383 11.0133 70.5362 11.9128 70.5174 12.8254C70.4987 13.7381 70.6635 14.6452 71.0023 15.4928C71.3411 16.3405 71.8468 17.1114 72.4894 17.7597C73.1321 18.408 73.8985 18.9205 74.7431 19.2667C75.5877 19.6129 76.4933 19.7858 77.4061 19.775C78.3113 19.8315 79.2184 19.7006 80.0707 19.3904C80.923 19.0801 81.702 18.5973 82.3591 17.9722C83.0162 17.347 83.5371 16.593 83.8893 15.7572ZM80.8498 14.4758C81.0408 14.0438 81.1416 13.5774 81.146 13.1051C81.1552 12.627 81.0701 12.1519 80.8957 11.7068C80.7212 11.2616 80.4608 10.8552 80.1293 10.5107C79.7978 10.1662 79.4017 9.89034 78.9636 9.69892C78.5255 9.5075 78.054 9.40424 77.576 9.39505C77.098 9.38586 76.6228 9.47091 76.1777 9.64534C75.7325 9.81978 75.3261 10.0802 74.9816 10.4117C74.6371 10.7432 74.3613 11.1393 74.1698 11.5774C73.9784 12.0155 73.8752 12.487 73.866 12.9651C73.8592 13.4366 73.9472 13.9047 74.1249 14.3415C74.3025 14.7784 74.5661 15.1751 74.9001 15.5081C75.234 15.8411 75.6314 16.1036 76.0688 16.28C76.5061 16.4564 76.9744 16.5431 77.446 16.5351C77.9173 16.5664 78.39 16.5012 78.8352 16.3434C79.2804 16.1856 79.6888 15.9386 80.0352 15.6174C80.3816 15.2963 80.6588 14.9079 80.8498 14.4758Z" fill="#222222"/>
<path d="M40.4863 13.055H41.4863C43.9463 12.705 43.9663 12.725 43.4863 15.055L39.9963 14.055C39.9963 13.905 39.9963 13.765 39.9963 13.615C40.1363 13.405 40.3063 13.225 40.4863 13.055Z" fill="#02A2FB"/>
<path d="M43.4763 14.995C43.3363 13.825 43.2163 12.645 41.4763 12.995C42.201 12.4433 43.0613 12.0977 43.9663 11.995C47.2963 11.805 45.8863 14.475 46.4463 15.995L43.9963 15.435L43.4763 14.995Z" fill="#01ADFB"/>
<path d="M59.3291 28.895H58.5087L56.6511 26.0881V28.895H55.8307V24.7989H56.6511L58.5087 27.6117V24.7989H59.3291V28.895ZM63.1577 27.2015C63.1577 27.3187 63.1499 27.4242 63.1343 27.5179H60.761C60.7805 27.7523 60.8626 27.9359 61.0071 28.0688C61.1517 28.2016 61.3294 28.268 61.5404 28.268C61.8451 28.268 62.0619 28.1371 62.1908 27.8754H63.0757C62.9819 28.1879 62.8022 28.4458 62.5366 28.6489C62.2709 28.8481 61.9447 28.9478 61.558 28.9478C61.2454 28.9478 60.9641 28.8794 60.7141 28.7427C60.468 28.602 60.2746 28.4047 60.134 28.1508C59.9972 27.8969 59.9289 27.6039 59.9289 27.2718C59.9289 26.9358 59.9972 26.6409 60.134 26.3869C60.2707 26.133 60.4621 25.9377 60.7083 25.8009C60.9544 25.6642 61.2376 25.5958 61.558 25.5958C61.8666 25.5958 62.142 25.6623 62.3842 25.7951C62.6303 25.9279 62.8198 26.1174 62.9526 26.3635C63.0894 26.6057 63.1577 26.885 63.1577 27.2015ZM62.308 26.9671C62.3041 26.7561 62.2279 26.5881 62.0795 26.4631C61.931 26.3342 61.7494 26.2697 61.5345 26.2697C61.3314 26.2697 61.1595 26.3322 61.0188 26.4573C60.8821 26.5784 60.7981 26.7483 60.7669 26.9671H62.308ZM63.5456 27.2601C63.5456 26.9319 63.61 26.6409 63.739 26.3869C63.8718 26.133 64.0495 25.9377 64.2722 25.8009C64.4988 25.6642 64.7508 25.5958 65.0282 25.5958C65.2704 25.5958 65.4813 25.6447 65.661 25.7423C65.8447 25.84 65.9912 25.9631 66.1005 26.1115V25.6486H66.9268V28.895H66.1005V28.4204C65.9951 28.5727 65.8486 28.6997 65.661 28.8013C65.4774 28.8989 65.2645 28.9478 65.0223 28.9478C64.7488 28.9478 64.4988 28.8774 64.2722 28.7368C64.0495 28.5962 63.8718 28.3989 63.739 28.1449C63.61 27.8871 63.5456 27.5921 63.5456 27.2601ZM66.1005 27.2718C66.1005 27.0726 66.0615 26.9026 65.9833 26.762C65.9052 26.6174 65.7997 26.508 65.6669 26.4338C65.5341 26.3557 65.3915 26.3166 65.2391 26.3166C65.0868 26.3166 64.9461 26.3537 64.8172 26.428C64.6883 26.5022 64.5828 26.6116 64.5008 26.7561C64.4226 26.8968 64.3836 27.0647 64.3836 27.2601C64.3836 27.4554 64.4226 27.6273 64.5008 27.7758C64.5828 27.9203 64.6883 28.0316 64.8172 28.1098C64.95 28.1879 65.0907 28.227 65.2391 28.227C65.3915 28.227 65.5341 28.1899 65.6669 28.1156C65.7997 28.0375 65.9052 27.9281 65.9833 27.7875C66.0615 27.6429 66.1005 27.471 66.1005 27.2718ZM68.5485 26.1525C68.654 25.9806 68.7907 25.8459 68.9587 25.7482C69.1306 25.6505 69.3259 25.6017 69.5447 25.6017V26.4631H69.3279C69.07 26.4631 68.8747 26.5237 68.7419 26.6448C68.6129 26.7659 68.5485 26.9768 68.5485 27.2777V28.895H67.7281V25.6486H68.5485V26.1525ZM71.3396 28.9478C71.0739 28.9478 70.8356 28.9009 70.6247 28.8071C70.4137 28.7095 70.2457 28.5786 70.1207 28.4145C69.9996 28.2504 69.9332 28.0688 69.9215 27.8695H70.7477C70.7633 27.9945 70.8239 28.0981 70.9294 28.1801C71.0388 28.2621 71.1735 28.3032 71.3337 28.3032C71.49 28.3032 71.6111 28.2719 71.697 28.2094C71.7869 28.1469 71.8318 28.0668 71.8318 27.9691C71.8318 27.8637 71.7771 27.7855 71.6677 27.7347C71.5623 27.68 71.3923 27.6214 71.1579 27.5589C70.9157 27.5003 70.7165 27.4398 70.5602 27.3773C70.4078 27.3148 70.275 27.2191 70.1617 27.0901C70.0523 26.9612 69.9976 26.7874 69.9976 26.5686C69.9976 26.3889 70.0484 26.2248 70.15 26.0764C70.2555 25.9279 70.4039 25.8107 70.5954 25.7248C70.7907 25.6388 71.0192 25.5958 71.281 25.5958C71.6677 25.5958 71.9764 25.6935 72.2069 25.8888C72.4373 26.0803 72.5643 26.3401 72.5878 26.6682H71.8025C71.7908 26.5393 71.7361 26.4377 71.6384 26.3635C71.5447 26.2854 71.4177 26.2463 71.2575 26.2463C71.1091 26.2463 70.9938 26.2736 70.9118 26.3283C70.8337 26.383 70.7946 26.4592 70.7946 26.5569C70.7946 26.6663 70.8493 26.7503 70.9587 26.8089C71.0681 26.8636 71.238 26.9202 71.4685 26.9788C71.7029 27.0374 71.8963 27.098 72.0486 27.1605C72.201 27.223 72.3319 27.3206 72.4413 27.4535C72.5545 27.5824 72.6131 27.7543 72.6171 27.9691C72.6171 28.1567 72.5643 28.3246 72.4588 28.4731C72.3573 28.6216 72.2088 28.7388 72.0135 28.8247C71.822 28.9067 71.5974 28.9478 71.3396 28.9478ZM75.1188 25.6017C75.3649 25.6017 75.5837 25.6564 75.7751 25.7658C75.9666 25.8713 76.115 26.0295 76.2205 26.2404C76.3299 26.4475 76.3846 26.6975 76.3846 26.9905V28.895H75.5642V27.1019C75.5642 26.844 75.4997 26.6467 75.3708 26.51C75.2419 26.3694 75.0661 26.299 74.8434 26.299C74.6168 26.299 74.4371 26.3694 74.3043 26.51C74.1754 26.6467 74.1109 26.844 74.1109 27.1019V28.895H73.2905V24.5586H74.1109V26.0529C74.2164 25.9123 74.357 25.8029 74.5328 25.7248C74.7086 25.6427 74.9039 25.6017 75.1188 25.6017ZM78.6063 28.9478C78.2938 28.9478 78.0125 28.8794 77.7625 28.7427C77.5124 28.602 77.3151 28.4047 77.1706 28.1508C77.03 27.8969 76.9596 27.6039 76.9596 27.2718C76.9596 26.9397 77.0319 26.6467 77.1765 26.3928C77.3249 26.1389 77.5261 25.9435 77.78 25.8068C78.034 25.6662 78.3172 25.5958 78.6297 25.5958C78.9423 25.5958 79.2255 25.6662 79.4794 25.8068C79.7334 25.9435 79.9326 26.1389 80.0772 26.3928C80.2256 26.6467 80.2998 26.9397 80.2998 27.2718C80.2998 27.6039 80.2237 27.8969 80.0713 28.1508C79.9228 28.4047 79.7197 28.602 79.4619 28.7427C79.2079 28.8794 78.9227 28.9478 78.6063 28.9478ZM78.6063 28.2328C78.7547 28.2328 78.8934 28.1977 79.0224 28.1274C79.1552 28.0531 79.2607 27.9437 79.3388 27.7992C79.4169 27.6547 79.456 27.4789 79.456 27.2718C79.456 26.9632 79.374 26.7268 79.2099 26.5627C79.0497 26.3948 78.8524 26.3108 78.618 26.3108C78.3836 26.3108 78.1863 26.3948 78.0262 26.5627C77.8699 26.7268 77.7918 26.9632 77.7918 27.2718C77.7918 27.5804 77.8679 27.8187 78.0203 27.9867C78.1766 28.1508 78.3719 28.2328 78.6063 28.2328ZM81.722 26.1525C81.8275 25.9806 81.9642 25.8459 82.1322 25.7482C82.3041 25.6505 82.4995 25.6017 82.7182 25.6017V26.4631H82.5014C82.2436 26.4631 82.0482 26.5237 81.9154 26.6448C81.7865 26.7659 81.722 26.9768 81.722 27.2777V28.895H80.9016V25.6486H81.722V26.1525ZM86.2887 27.2015C86.2887 27.3187 86.2809 27.4242 86.2653 27.5179H83.892C83.9115 27.7523 83.9935 27.9359 84.1381 28.0688C84.2826 28.2016 84.4604 28.268 84.6713 28.268C84.9761 28.268 85.1929 28.1371 85.3218 27.8754H86.2067C86.1129 28.1879 85.9332 28.4458 85.6675 28.6489C85.4019 28.8481 85.0757 28.9478 84.6889 28.9478C84.3764 28.9478 84.0951 28.8794 83.8451 28.7427C83.599 28.602 83.4056 28.4047 83.2649 28.1508C83.1282 27.8969 83.0598 27.6039 83.0598 27.2718C83.0598 26.9358 83.1282 26.6409 83.2649 26.3869C83.4017 26.133 83.5931 25.9377 83.8392 25.8009C84.0853 25.6642 84.3686 25.5958 84.6889 25.5958C84.9976 25.5958 85.273 25.6623 85.5152 25.7951C85.7613 25.9279 85.9508 26.1174 86.0836 26.3635C86.2203 26.6057 86.2887 26.885 86.2887 27.2015ZM85.439 26.9671C85.4351 26.7561 85.3589 26.5881 85.2105 26.4631C85.062 26.3342 84.8804 26.2697 84.6655 26.2697C84.4623 26.2697 84.2904 26.3322 84.1498 26.4573C84.0131 26.5784 83.9291 26.7483 83.8978 26.9671H85.439ZM89.6961 28.936C89.4109 28.936 89.1531 28.8872 88.9226 28.7895C88.696 28.6919 88.5163 28.5512 88.3835 28.3676C88.2506 28.184 88.1823 27.9672 88.1784 27.7172H89.0574C89.0691 27.8851 89.1277 28.018 89.2332 28.1156C89.3426 28.2133 89.491 28.2621 89.6785 28.2621C89.87 28.2621 90.0204 28.2172 90.1298 28.1274C90.2391 28.0336 90.2938 27.9125 90.2938 27.764C90.2938 27.6429 90.2567 27.5433 90.1825 27.4652C90.1083 27.387 90.0145 27.3265 89.9012 27.2835C89.7918 27.2366 89.6395 27.1859 89.4441 27.1312C89.1785 27.053 88.9617 26.9768 88.7937 26.9026C88.6296 26.8245 88.487 26.7092 88.3659 26.5569C88.2487 26.4006 88.1901 26.1936 88.1901 25.9357C88.1901 25.6935 88.2506 25.4825 88.3718 25.3028C88.4929 25.1231 88.6628 24.9864 88.8816 24.8926C89.1004 24.795 89.3504 24.7461 89.6317 24.7461C90.0536 24.7461 90.3954 24.8497 90.6572 25.0567C90.9228 25.2599 91.0693 25.5451 91.0967 25.9123H90.1942C90.1864 25.7716 90.1259 25.6564 90.0126 25.5665C89.9032 25.4728 89.7567 25.4259 89.5731 25.4259C89.4129 25.4259 89.284 25.4669 89.1863 25.549C89.0925 25.631 89.0457 25.7502 89.0457 25.9064C89.0457 26.0158 89.0808 26.1076 89.1511 26.1818C89.2254 26.2522 89.3152 26.3108 89.4207 26.3576C89.5301 26.4006 89.6824 26.4514 89.8778 26.51C90.1434 26.5881 90.3603 26.6663 90.5282 26.7444C90.6962 26.8225 90.8408 26.9397 90.9619 27.096C91.083 27.2523 91.1435 27.4574 91.1435 27.7113C91.1435 27.9301 91.0869 28.1332 90.9736 28.3207C90.8603 28.5083 90.6943 28.6587 90.4755 28.772C90.2567 28.8813 89.9969 28.936 89.6961 28.936ZM93.2964 28.9478C92.9838 28.9478 92.7025 28.8794 92.4525 28.7427C92.2025 28.602 92.0052 28.4047 91.8607 28.1508C91.72 27.8969 91.6497 27.6039 91.6497 27.2718C91.6497 26.9397 91.722 26.6467 91.8665 26.3928C92.015 26.1389 92.2162 25.9435 92.4701 25.8068C92.724 25.6662 93.0073 25.5958 93.3198 25.5958C93.6323 25.5958 93.9156 25.6662 94.1695 25.8068C94.4234 25.9435 94.6227 26.1389 94.7672 26.3928C94.9157 26.6467 94.9899 26.9397 94.9899 27.2718C94.9899 27.6039 94.9137 27.8969 94.7614 28.1508C94.6129 28.4047 94.4098 28.602 94.1519 28.7427C93.898 28.8794 93.6128 28.9478 93.2964 28.9478ZM93.2964 28.2328C93.4448 28.2328 93.5835 28.1977 93.7124 28.1274C93.8452 28.0531 93.9507 27.9437 94.0289 27.7992C94.107 27.6547 94.1461 27.4789 94.1461 27.2718C94.1461 26.9632 94.064 26.7268 93.8999 26.5627C93.7398 26.3948 93.5425 26.3108 93.3081 26.3108C93.0737 26.3108 92.8764 26.3948 92.7162 26.5627C92.5599 26.7268 92.4818 26.9632 92.4818 27.2718C92.4818 27.5804 92.558 27.8187 92.7104 27.9867C92.8666 28.1508 93.062 28.2328 93.2964 28.2328ZM97.0801 26.3225H96.5117V28.895H95.6796V26.3225H95.3104V25.6486H95.6796V25.4845C95.6796 25.086 95.7929 24.793 96.0195 24.6055C96.2461 24.418 96.5879 24.3301 97.045 24.3418V25.0333C96.8457 25.0294 96.707 25.0626 96.6289 25.1329C96.5508 25.2032 96.5117 25.3302 96.5117 25.5138V25.6486H97.0801V26.3225ZM98.567 26.3225V27.893C98.567 28.0023 98.5924 28.0824 98.6431 28.1332C98.6978 28.1801 98.7877 28.2035 98.9127 28.2035H99.2936V28.895H98.7779C98.0864 28.895 97.7407 28.559 97.7407 27.8871V26.3225H97.3539V25.6486H97.7407V24.8458H98.567V25.6486H99.2936V26.3225H98.567ZM104.384 25.6486L103.435 28.895H102.55L101.958 26.6272L101.366 28.895H100.476L99.5204 25.6486H100.352L100.927 28.1215L101.548 25.6486H102.415L103.025 28.1156L103.599 25.6486H104.384ZM104.617 27.2601C104.617 26.9319 104.682 26.6409 104.81 26.3869C104.943 26.133 105.121 25.9377 105.344 25.8009C105.57 25.6642 105.822 25.5958 106.1 25.5958C106.342 25.5958 106.553 25.6447 106.733 25.7423C106.916 25.84 107.063 25.9631 107.172 26.1115V25.6486H107.998V28.895H107.172V28.4204C107.067 28.5727 106.92 28.6997 106.733 28.8013C106.549 28.8989 106.336 28.9478 106.094 28.9478C105.82 28.9478 105.57 28.8774 105.344 28.7368C105.121 28.5962 104.943 28.3989 104.81 28.1449C104.682 27.8871 104.617 27.5921 104.617 27.2601ZM107.172 27.2718C107.172 27.0726 107.133 26.9026 107.055 26.762C106.977 26.6174 106.871 26.508 106.738 26.4338C106.606 26.3557 106.463 26.3166 106.311 26.3166C106.158 26.3166 106.018 26.3537 105.889 26.428C105.76 26.5022 105.654 26.6116 105.572 26.7561C105.494 26.8968 105.455 27.0647 105.455 27.2601C105.455 27.4554 105.494 27.6273 105.572 27.7758C105.654 27.9203 105.76 28.0316 105.889 28.1098C106.022 28.1879 106.162 28.227 106.311 28.227C106.463 28.227 106.606 28.1899 106.738 28.1156C106.871 28.0375 106.977 27.9281 107.055 27.7875C107.133 27.6429 107.172 27.471 107.172 27.2718ZM109.62 26.1525C109.725 25.9806 109.862 25.8459 110.03 25.7482C110.202 25.6505 110.397 25.6017 110.616 25.6017V26.4631H110.399C110.142 26.4631 109.946 26.5237 109.813 26.6448C109.684 26.7659 109.62 26.9768 109.62 27.2777V28.895H108.8V25.6486H109.62V26.1525ZM114.187 27.2015C114.187 27.3187 114.179 27.4242 114.163 27.5179H111.79C111.809 27.7523 111.891 27.9359 112.036 28.0688C112.181 28.2016 112.358 28.268 112.569 28.268C112.874 28.268 113.091 28.1371 113.22 27.8754H114.105C114.011 28.1879 113.831 28.4458 113.565 28.6489C113.3 28.8481 112.974 28.9478 112.587 28.9478C112.274 28.9478 111.993 28.8794 111.743 28.7427C111.497 28.602 111.304 28.4047 111.163 28.1508C111.026 27.8969 110.958 27.6039 110.958 27.2718C110.958 26.9358 111.026 26.6409 111.163 26.3869C111.3 26.133 111.491 25.9377 111.737 25.8009C111.983 25.6642 112.267 25.5958 112.587 25.5958C112.896 25.5958 113.171 25.6623 113.413 25.7951C113.659 25.9279 113.849 26.1174 113.982 26.3635C114.118 26.6057 114.187 26.885 114.187 27.2015ZM113.337 26.9671C113.333 26.7561 113.257 26.5881 113.108 26.4631C112.96 26.3342 112.778 26.2697 112.563 26.2697C112.36 26.2697 112.188 26.3322 112.048 26.4573C111.911 26.5784 111.827 26.7483 111.796 26.9671H113.337ZM117.612 24.8047C118.041 24.8047 118.418 24.8887 118.743 25.0567C119.071 25.2247 119.323 25.465 119.499 25.7775C119.678 26.0861 119.768 26.4455 119.768 26.8557C119.768 27.2659 119.678 27.6254 119.499 27.934C119.323 28.2387 119.071 28.4751 118.743 28.643C118.418 28.811 118.041 28.895 117.612 28.895H116.182V24.8047H117.612ZM117.582 28.1977C118.012 28.1977 118.344 28.0805 118.579 27.8461C118.813 27.6117 118.93 27.2816 118.93 26.8557C118.93 26.4299 118.813 26.0978 118.579 25.8595C118.344 25.6173 118.012 25.4962 117.582 25.4962H117.002V28.1977H117.582ZM121.824 28.9478C121.511 28.9478 121.23 28.8794 120.98 28.7427C120.73 28.602 120.533 28.4047 120.388 28.1508C120.247 27.8969 120.177 27.6039 120.177 27.2718C120.177 26.9397 120.249 26.6467 120.394 26.3928C120.542 26.1389 120.744 25.9435 120.998 25.8068C121.251 25.6662 121.535 25.5958 121.847 25.5958C122.16 25.5958 122.443 25.6662 122.697 25.8068C122.951 25.9435 123.15 26.1389 123.295 26.3928C123.443 26.6467 123.517 26.9397 123.517 27.2718C123.517 27.6039 123.441 27.8969 123.289 28.1508C123.14 28.4047 122.937 28.602 122.679 28.7427C122.425 28.8794 122.14 28.9478 121.824 28.9478ZM121.824 28.2328C121.972 28.2328 122.111 28.1977 122.24 28.1274C122.373 28.0531 122.478 27.9437 122.556 27.7992C122.634 27.6547 122.673 27.4789 122.673 27.2718C122.673 26.9632 122.591 26.7268 122.427 26.5627C122.267 26.3948 122.07 26.3108 121.836 26.3108C121.601 26.3108 121.404 26.3948 121.244 26.5627C121.087 26.7268 121.009 26.9632 121.009 27.2718C121.009 27.5804 121.085 27.8187 121.238 27.9867C121.394 28.1508 121.589 28.2328 121.824 28.2328ZM125.918 25.6017C126.305 25.6017 126.617 25.7248 126.856 25.9709C127.094 26.2131 127.213 26.553 127.213 26.9905V28.895H126.393V27.1019C126.393 26.844 126.328 26.6467 126.199 26.51C126.071 26.3694 125.895 26.299 125.672 26.299C125.445 26.299 125.266 26.3694 125.133 26.51C125.004 26.6467 124.94 26.844 124.94 27.1019V28.895H124.119V25.6486H124.94V26.0529C125.049 25.9123 125.188 25.8029 125.356 25.7248C125.527 25.6427 125.715 25.6017 125.918 25.6017ZM131.011 27.2015C131.011 27.3187 131.003 27.4242 130.988 27.5179H128.615C128.634 27.7523 128.716 27.9359 128.861 28.0688C129.005 28.2016 129.183 28.268 129.394 28.268C129.699 28.268 129.915 28.1371 130.044 27.8754H130.929C130.835 28.1879 130.656 28.4458 130.39 28.6489C130.124 28.8481 129.798 28.9478 129.411 28.9478C129.099 28.9478 128.818 28.8794 128.568 28.7427C128.322 28.602 128.128 28.4047 127.988 28.1508C127.851 27.8969 127.782 27.6039 127.782 27.2718C127.782 26.9358 127.851 26.6409 127.988 26.3869C128.124 26.133 128.316 25.9377 128.562 25.8009C128.808 25.6642 129.091 25.5958 129.411 25.5958C129.72 25.5958 129.996 25.6623 130.238 25.7951C130.484 25.9279 130.673 26.1174 130.806 26.3635C130.943 26.6057 131.011 26.885 131.011 27.2015ZM130.162 26.9671C130.158 26.7561 130.081 26.5881 129.933 26.4631C129.785 26.3342 129.603 26.2697 129.388 26.2697C129.185 26.2697 129.013 26.3322 128.872 26.4573C128.736 26.5784 128.652 26.7483 128.62 26.9671H130.162ZM135.116 28.895L134.214 27.3011H133.827V28.895H133.006V24.8047H134.542C134.858 24.8047 135.128 24.8614 135.35 24.9747C135.573 25.0841 135.739 25.2345 135.849 25.4259C135.962 25.6134 136.018 25.8244 136.018 26.0588C136.018 26.3283 135.94 26.5725 135.784 26.7913C135.628 27.0061 135.395 27.1546 135.087 27.2366L136.065 28.895H135.116ZM133.827 26.6858H134.512C134.735 26.6858 134.901 26.6331 135.011 26.5276C135.12 26.4182 135.175 26.2678 135.175 26.0764C135.175 25.8888 135.12 25.7443 135.011 25.6427C134.901 25.5372 134.735 25.4845 134.512 25.4845H133.827V26.6858ZM137.177 25.2618C137.032 25.2618 136.911 25.2169 136.813 25.127C136.719 25.0333 136.673 24.918 136.673 24.7813C136.673 24.6446 136.719 24.5313 136.813 24.4414C136.911 24.3477 137.032 24.3008 137.177 24.3008C137.321 24.3008 137.44 24.3477 137.534 24.4414C137.632 24.5313 137.681 24.6446 137.681 24.7813C137.681 24.918 137.632 25.0333 137.534 25.127C137.44 25.2169 137.321 25.2618 137.177 25.2618ZM137.581 25.6486V28.895H136.76V25.6486H137.581ZM139.663 25.5958C139.905 25.5958 140.118 25.6447 140.302 25.7423C140.485 25.8361 140.63 25.9592 140.735 26.1115V25.6486H141.562V28.9185C141.562 29.2193 141.501 29.4869 141.38 29.7213C141.259 29.9596 141.077 30.1471 140.835 30.2838C140.593 30.4245 140.3 30.4948 139.956 30.4948C139.495 30.4948 139.116 30.3874 138.819 30.1725C138.526 29.9576 138.36 29.6646 138.321 29.2935H139.136C139.179 29.442 139.27 29.5592 139.411 29.6451C139.556 29.735 139.729 29.7799 139.933 29.7799C140.171 29.7799 140.364 29.7076 140.513 29.5631C140.661 29.4224 140.735 29.2076 140.735 28.9185V28.4145C140.63 28.5669 140.483 28.6938 140.296 28.7954C140.112 28.897 139.901 28.9478 139.663 28.9478C139.39 28.9478 139.14 28.8774 138.913 28.7368C138.686 28.5962 138.507 28.3989 138.374 28.1449C138.245 27.8871 138.18 27.5921 138.18 27.2601C138.18 26.9319 138.245 26.6409 138.374 26.3869C138.507 26.133 138.684 25.9377 138.907 25.8009C139.134 25.6642 139.386 25.5958 139.663 25.5958ZM140.735 27.2718C140.735 27.0726 140.696 26.9026 140.618 26.762C140.54 26.6174 140.435 26.508 140.302 26.4338C140.169 26.3557 140.026 26.3166 139.874 26.3166C139.722 26.3166 139.581 26.3537 139.452 26.428C139.323 26.5022 139.218 26.6116 139.136 26.7561C139.058 26.8968 139.018 27.0647 139.018 27.2601C139.018 27.4554 139.058 27.6273 139.136 27.7758C139.218 27.9203 139.323 28.0316 139.452 28.1098C139.585 28.1879 139.726 28.227 139.874 28.227C140.026 28.227 140.169 28.1899 140.302 28.1156C140.435 28.0375 140.54 27.9281 140.618 27.7875C140.696 27.6429 140.735 27.471 140.735 27.2718ZM144.191 25.6017C144.437 25.6017 144.656 25.6564 144.848 25.7658C145.039 25.8713 145.187 26.0295 145.293 26.2404C145.402 26.4475 145.457 26.6975 145.457 26.9905V28.895H144.637V27.1019C144.637 26.844 144.572 26.6467 144.443 26.51C144.314 26.3694 144.139 26.299 143.916 26.299C143.689 26.299 143.51 26.3694 143.377 26.51C143.248 26.6467 143.183 26.844 143.183 27.1019V28.895H142.363V24.5586H143.183V26.0529C143.289 25.9123 143.429 25.8029 143.605 25.7248C143.781 25.6427 143.976 25.6017 144.191 25.6017ZM147.192 26.3225V27.893C147.192 28.0023 147.218 28.0824 147.269 28.1332C147.323 28.1801 147.413 28.2035 147.538 28.2035H147.919V28.895H147.403C146.712 28.895 146.366 28.559 146.366 27.8871V26.3225H145.979V25.6486H146.366V24.8458H147.192V25.6486H147.919V26.3225H147.192ZM148.872 28.936C148.724 28.936 148.601 28.8911 148.503 28.8013C148.409 28.7075 148.363 28.5923 148.363 28.4555C148.363 28.3188 148.409 28.2055 148.503 28.1156C148.601 28.0219 148.724 27.975 148.872 27.975C149.017 27.975 149.136 28.0219 149.23 28.1156C149.324 28.2055 149.371 28.3188 149.371 28.4555C149.371 28.5923 149.324 28.7075 149.23 28.8013C149.136 28.8911 149.017 28.936 148.872 28.936Z" fill="#222222"/>
</g>
<defs>
<clipPath id="clip0_1_163">
<rect width="165.41" height="30.45" fill="white" transform="translate(0.586304 0.775024)"/>
</clipPath>
</defs>
</svg>
