<svg width="52" height="52" viewBox="0 0 52 52" fill="none" xmlns="http://www.w3.org/2000/svg">
<g clip-path="url(#clip0_1740_3843)">
<path d="M40.4446 5.77734H21.479L11.5557 15.6862V21.6662H14.4446V19.6585H25.4368V8.66623H40.4446V43.3329H11.5557C11.5557 44.0991 11.86 44.8339 12.4018 45.3756C12.9436 45.9174 13.6784 46.2218 14.4446 46.2218H40.4446C41.2107 46.2218 41.9455 45.9174 42.4873 45.3756C43.0291 44.8339 43.3334 44.0991 43.3334 43.3329V8.66623C43.3334 7.90005 43.0291 7.16525 42.4873 6.62348C41.9455 6.08171 41.2107 5.77734 40.4446 5.77734ZM23.1112 17.3329H14.4446V16.8707L22.6779 8.66623H23.1112V17.3329Z" fill="black"/>
<path d="M17.2464 37.9596C17.0952 38.0891 16.9724 38.2484 16.8857 38.4276C16.799 38.6068 16.7503 38.802 16.7426 39.0009C16.7349 39.1999 16.7685 39.3982 16.8411 39.5836C16.9137 39.769 17.0239 39.9373 17.1646 40.0781C17.3054 40.2188 17.4737 40.329 17.6591 40.4016C17.8445 40.4742 18.0428 40.5078 18.2417 40.5001C18.4407 40.4924 18.6359 40.4437 18.8151 40.357C18.9943 40.2703 19.1536 40.1475 19.2831 39.9962L27.4442 31.7774L19.2398 23.5729C18.9635 23.3363 18.608 23.2126 18.2445 23.2267C17.881 23.2407 17.5361 23.3914 17.2789 23.6487C17.0216 23.9059 16.8709 24.2507 16.8569 24.6143C16.8428 24.9778 16.9665 25.3333 17.2031 25.6096L21.9553 30.3329H4.33312C3.95003 30.3329 3.58263 30.4851 3.31174 30.756C3.04085 31.0269 2.88867 31.3943 2.88867 31.7774C2.88867 32.1604 3.04085 32.5279 3.31174 32.7987C3.58263 33.0696 3.95003 33.2218 4.33312 33.2218H21.9987L17.2464 37.9596Z" fill="black"/>
</g>
<defs>
<clipPath id="clip0_1740_3843">
<rect width="52" height="52" fill="white"/>
</clipPath>
</defs>
</svg>
