<svg width="28" height="38" viewBox="0 0 28 38" fill="none" xmlns="http://www.w3.org/2000/svg">
<g clip-path="url(#clip0_0_291)">
<path d="M26.7079 15.2875L12.6941 35.776C12.4495 36.1326 12.0499 36.3407 11.6302 36.3407H11.4187C10.8262 36.3407 10.3406 35.855 10.3406 35.2625C10.3406 35.1828 10.3509 35.0999 10.3739 35.0118L10.3739 35.0119L10.3766 35.0011L13.8037 21.2417L14.113 20H12.8333H2.33333C1.61302 20 1.02913 19.4337 1.00106 18.7205L3.0704 2.1657C3.15347 1.50118 3.71822 1 4.39687 1H16.6906C17.2321 1 17.6667 1.43458 17.6667 1.97604C17.6667 2.08816 17.645 2.2112 17.6049 2.32157C17.6045 2.32255 17.6042 2.32352 17.6038 2.32449L14.2304 11.3154L13.7234 12.6667H15.1667H25.324C26.2464 12.6667 27 13.4166 27 14.3427C27 14.6833 26.8991 15.0099 26.7097 15.285L26.7079 15.2875Z" stroke="#111F33" stroke-width="2"/>
</g>
<defs>
<clipPath id="clip0_0_291">
<rect width="28" height="37.3334" fill="white"/>
</clipPath>
</defs>
</svg>
