<svg width="1280" height="615" viewBox="0 0 1280 615" fill="none" xmlns="http://www.w3.org/2000/svg">
<g filter="url(#filter0_i_9_260)">
<path d="M119.853 126.886C179.855 59.8862 350.856 173.886 587.855 126.886C686.877 107.248 729.854 67.8854 895.353 115.886C1060.85 163.887 1090.35 78.8862 1153.85 115.886C1223.36 156.389 1153.85 241.438 1153.85 321.886C1153.85 402.334 1205.85 481.386 1153.85 527.886C1058.26 613.365 818.713 440.188 636.853 527.886C538.354 575.386 479.304 527.886 378.353 527.886C277.403 527.886 182.767 606.834 119.853 527.886C69.7165 464.972 119.853 402.334 119.853 321.886C119.853 241.438 66.1835 186.814 119.853 126.886Z" fill="url(#paint0_linear_9_260)"/>
</g>
<g filter="url(#filter1_i_9_260)">
<path d="M166.437 154C213 112 303.438 189 540.436 142C639.459 122.363 726.437 76.4993 891.936 124.5C1057.44 172.501 1079.44 132.53 1120.94 152.5C1187.44 184.5 1126.44 263.552 1126.44 344C1126.44 424.448 1193.44 456.5 1150.94 514.5C1075.14 617.939 804.796 417.801 622.936 505.5C524.437 553 468.387 514.5 367.436 514.5C266.486 514.5 195.851 593.448 132.936 514.5C82.7998 451.586 154.436 397.334 154.436 316.886C154.436 236.438 118 197.69 166.437 154Z" fill="url(#paint1_linear_9_260)"/>
</g>
<defs>
<filter id="filter0_i_9_260" x="96" y="93" width="1088.75" height="469.974" filterUnits="userSpaceOnUse" color-interpolation-filters="sRGB">
<feFlood flood-opacity="0" result="BackgroundImageFix"/>
<feBlend mode="normal" in="SourceGraphic" in2="BackgroundImageFix" result="shape"/>
<feColorMatrix in="SourceAlpha" type="matrix" values="0 0 0 0 0 0 0 0 0 0 0 0 0 0 0 0 0 0 127 0" result="hardAlpha"/>
<feOffset/>
<feGaussianBlur stdDeviation="10"/>
<feComposite in2="hardAlpha" operator="arithmetic" k2="-1" k3="1"/>
<feColorMatrix type="matrix" values="0 0 0 0 0 0 0 0 0 0 0 0 0 0 0 0 0 0 0.5 0"/>
<feBlend mode="normal" in2="shape" result="effect1_innerShadow_9_260"/>
</filter>
<filter id="filter1_i_9_260" x="115.126" y="103.319" width="1049.93" height="446.27" filterUnits="userSpaceOnUse" color-interpolation-filters="sRGB">
<feFlood flood-opacity="0" result="BackgroundImageFix"/>
<feBlend mode="normal" in="SourceGraphic" in2="BackgroundImageFix" result="shape"/>
<feColorMatrix in="SourceAlpha" type="matrix" values="0 0 0 0 0 0 0 0 0 0 0 0 0 0 0 0 0 0 127 0" result="hardAlpha"/>
<feOffset/>
<feGaussianBlur stdDeviation="15"/>
<feComposite in2="hardAlpha" operator="arithmetic" k2="-1" k3="1"/>
<feColorMatrix type="matrix" values="0 0 0 0 0 0 0 0 0 0 0 0 0 0 0 0 0 0 0.4 0"/>
<feBlend mode="normal" in2="shape" result="effect1_innerShadow_9_260"/>
</filter>
<linearGradient id="paint0_linear_9_260" x1="573.855" y1="90.3862" x2="669.355" y2="620.886" gradientUnits="userSpaceOnUse">
<stop stop-color="#2B36FF"/>
<stop offset="1" stop-color="#FF5994"/>
</linearGradient>
<linearGradient id="paint1_linear_9_260" x1="583" y1="108" x2="655.5" y2="590" gradientUnits="userSpaceOnUse">
<stop stop-color="#3E2E87"/>
<stop offset="0.5" stop-color="#2F244E"/>
<stop offset="1" stop-color="#2D3B73"/>
</linearGradient>
</defs>
</svg>
