<svg width="32" height="32" viewBox="0 0 32 32" fill="none" xmlns="http://www.w3.org/2000/svg">
<path opacity="0.2" d="M30.6664 21.3333L21.3331 30.6666V21.3333H30.6664Z" fill="black"/>
<path d="M9.33333 10.6667C9.33333 10.313 9.47381 9.9739 9.72385 9.72385C9.9739 9.47381 10.313 9.33333 10.6667 9.33333H21.3333C21.6869 9.33333 22.0261 9.47381 22.2761 9.72385C22.5262 9.9739 22.6667 10.313 22.6667 10.6667C22.6667 11.0203 22.5262 11.3594 22.2761 11.6095C22.0261 11.8595 21.6869 12 21.3333 12H10.6667C10.313 12 9.9739 11.8595 9.72385 11.6095C9.47381 11.3594 9.33333 11.0203 9.33333 10.6667ZM10.6667 17.3333H21.3333C21.6869 17.3333 22.0261 17.1929 22.2761 16.9428C22.5262 16.6928 22.6667 16.3536 22.6667 16C22.6667 15.6464 22.5262 15.3072 22.2761 15.0572C22.0261 14.8071 21.6869 14.6667 21.3333 14.6667H10.6667C10.313 14.6667 9.9739 14.8071 9.72385 15.0572C9.47381 15.3072 9.33333 15.6464 9.33333 16C9.33333 16.3536 9.47381 16.6928 9.72385 16.9428C9.9739 17.1929 10.313 17.3333 10.6667 17.3333ZM16 20H10.6667C10.313 20 9.9739 20.1405 9.72385 20.3905C9.47381 20.6406 9.33333 20.9797 9.33333 21.3333C9.33333 21.6869 9.47381 22.0261 9.72385 22.2761C9.9739 22.5262 10.313 22.6667 10.6667 22.6667H16C16.3536 22.6667 16.6928 22.5262 16.9428 22.2761C17.1929 22.0261 17.3333 21.6869 17.3333 21.3333C17.3333 20.9797 17.1929 20.6406 16.9428 20.3905C16.6928 20.1405 16.3536 20 16 20ZM32 2.66667V20.7817C32.0011 21.132 31.9326 21.479 31.7984 21.8026C31.6642 22.1262 31.467 22.4199 31.2183 22.6667L22.6667 31.2183C22.4199 31.467 22.1262 31.6642 21.8026 31.7984C21.479 31.9326 21.132 32.0011 20.7817 32H2.66667C1.95942 32 1.28114 31.719 0.781048 31.2189C0.280951 30.7188 0 30.0406 0 29.3333V2.66667C0 1.95942 0.280951 1.28114 0.781048 0.781048C1.28114 0.280951 1.95942 0 2.66667 0H29.3333C30.0406 0 30.7188 0.280951 31.2189 0.781048C31.719 1.28114 32 1.95942 32 2.66667ZM2.66667 29.3333H20V21.3333C20 20.9797 20.1405 20.6406 20.3905 20.3905C20.6406 20.1405 20.9797 20 21.3333 20H29.3333V2.66667H2.66667V29.3333ZM22.6667 22.6667V27.45L27.4483 22.6667H22.6667Z" fill="#111F33"/>
</svg>
