<svg width="44" height="44" viewBox="0 0 44 44" fill="none" xmlns="http://www.w3.org/2000/svg">
<path d="M20.7623 27.9184C21.1296 28.1609 21.5599 28.2901 22 28.2901C22.4401 28.2901 22.8704 28.1609 23.2377 27.9184L35.5 19.7493V1.75H8.5V19.7504L20.7623 27.9184Z" stroke="#111F33" stroke-width="3" stroke-linecap="round" stroke-linejoin="round"/>
<path d="M23.2376 27.9185L38.7626 17.4997C39.101 17.2767 39.4934 17.1493 39.8983 17.1309C40.3032 17.1126 40.7055 17.2039 41.0627 17.3953C41.42 17.5867 41.7189 17.871 41.9278 18.2183C42.1368 18.5656 42.2481 18.9628 42.2499 19.3681V40.0004C42.2499 40.5971 42.0129 41.1693 41.591 41.5912C41.1691 42.013 40.5969 42.2501 40.0003 42.2501H3.99957C3.40292 42.2501 2.83072 42.013 2.40883 41.5912C1.98694 41.1693 1.74993 40.5971 1.74993 40.0004V19.4577C1.73541 19.0449 1.83481 18.6359 2.03725 18.2758C2.23968 17.9157 2.53734 17.6182 2.8976 17.416C3.25787 17.2138 3.66684 17.1146 4.07971 17.1294C4.49259 17.1441 4.89343 17.2723 5.23833 17.4997L20.7622 27.8277C21.1206 28.0837 21.5463 28.2286 21.9865 28.2446C22.4266 28.2605 22.8616 28.1478 23.2376 27.9185Z" stroke="#111F33" stroke-width="3" stroke-linecap="round" stroke-linejoin="round"/>
</svg>
