<svg width="25" height="24" viewBox="0 0 25 24" fill="none" xmlns="http://www.w3.org/2000/svg">
<path d="M9.49998 11V6C9.49998 5.20435 9.81605 4.44129 10.3787 3.87868C10.9413 3.31607 11.7043 3 12.5 3C13.2956 3 14.0587 3.31607 14.6213 3.87868C15.1839 4.44129 15.5 5.20435 15.5 6V11M6.83099 8H18.17C18.4584 7.99997 18.7433 8.06229 19.0053 8.1827C19.2674 8.30311 19.5003 8.47876 19.688 8.6976C19.8758 8.91645 20.0141 9.17331 20.0933 9.45059C20.1725 9.72786 20.1908 10.019 20.147 10.304L18.892 18.456C18.783 19.1644 18.424 19.8105 17.88 20.2771C17.3359 20.7438 16.6428 21.0002 15.926 21H9.07399C8.35739 21 7.66447 20.7434 7.12062 20.2768C6.57677 19.8102 6.21791 19.1643 6.10899 18.456L4.85399 10.304C4.81016 10.019 4.82848 9.72786 4.90769 9.45059C4.98691 9.17331 5.12515 8.91645 5.31293 8.6976C5.50072 8.47876 5.73361 8.30311 5.99563 8.1827C6.25766 8.06229 6.54262 7.99997 6.83099 8Z" stroke="#111F33" stroke-width="2" stroke-linecap="round" stroke-linejoin="round"/>
</svg>
