<svg width="34" height="34" viewBox="0 0 34 34" fill="none" xmlns="http://www.w3.org/2000/svg">
<path d="M31.25 5.125H19.375V2.75C19.375 2.12011 19.1248 1.51602 18.6794 1.07062C18.234 0.625222 17.6299 0.375 17 0.375H2.75C2.12011 0.375 1.51602 0.625222 1.07062 1.07062C0.625222 1.51602 0.375 2.12011 0.375 2.75V26.5C0.375 27.1299 0.625222 27.734 1.07062 28.1794C1.51602 28.6248 2.12011 28.875 2.75 28.875H14.625V31.25C14.625 31.8799 14.8752 32.484 15.3206 32.9294C15.766 33.3748 16.3701 33.625 17 33.625H31.25C31.8799 33.625 32.484 33.3748 32.9294 32.9294C33.3748 32.484 33.625 31.8799 33.625 31.25V7.5C33.625 6.87011 33.3748 6.26602 32.9294 5.82062C32.484 5.37522 31.8799 5.125 31.25 5.125ZM2.75 15.8125H10.0769L7.01313 18.8881L8.6875 20.5625L14.625 14.625L8.6875 8.6875L7.01313 10.3619L10.0769 13.4375H2.75V2.75H17V26.5H2.75V15.8125ZM17 31.25V28.875C17.6299 28.875 18.234 28.6248 18.6794 28.1794C19.1248 27.734 19.375 27.1299 19.375 26.5V7.5H31.25V18.1875H23.9231L26.9869 15.1119L25.3125 13.4375L19.375 19.375L25.3125 25.3125L26.9869 23.6381L23.9231 20.5625H31.25V31.25H17Z" fill="#111F33"/>
</svg>
