<svg width="23" height="23" viewBox="0 0 23 23" fill="none" xmlns="http://www.w3.org/2000/svg">
<path d="M16.7002 2.41835C18.3593 3.36177 19.7394 4.71558 20.704 6.34576C21.6686 7.97593 22.1841 9.82593 22.1996 11.7126C22.215 13.5993 21.7299 15.4573 20.7922 17.1026C19.8545 18.7479 18.4968 20.1235 16.8534 21.0932C15.21 22.0629 13.3379 22.5931 11.4225 22.6313C9.50711 22.6694 7.6148 22.2143 5.93291 21.3109C4.25101 20.4074 2.83785 19.0871 1.83333 17.4805C0.828804 15.8739 0.267746 14.0368 0.205695 12.151L0.200195 11.8L0.205695 11.449C0.267299 9.57809 0.820098 7.75481 1.8102 6.15692C2.8003 4.55904 4.19391 3.24109 5.85518 2.33155C7.51644 1.42202 9.38866 0.951944 11.2893 0.967155C13.1899 0.982366 15.0542 1.48234 16.7002 2.41835ZM15.2779 8.86743C15.0885 8.68091 14.8365 8.56886 14.5691 8.5523C14.3018 8.53575 14.0375 8.61583 13.8259 8.77751L13.7225 8.86743L10.1002 12.4338L8.6779 11.0341L8.5745 10.9442C8.36284 10.7826 8.0986 10.7026 7.83134 10.7192C7.56408 10.7358 7.31214 10.8479 7.12278 11.0344C6.93342 11.2209 6.81965 11.469 6.80278 11.7322C6.78592 11.9954 6.86714 12.2556 7.0312 12.4641L7.1225 12.5659L9.3225 14.7326L9.4259 14.8225C9.61881 14.9699 9.85603 15.0499 10.1002 15.0499C10.3444 15.0499 10.5816 14.9699 10.7745 14.8225L10.8779 14.7326L15.2779 10.3993L15.3692 10.2974C15.5334 10.089 15.6147 9.82872 15.5979 9.56544C15.5811 9.30216 15.4673 9.05397 15.2779 8.86743Z" fill="#FFC130"/>
</svg>
