<svg width="56" height="56" viewBox="0 0 56 56" fill="none" xmlns="http://www.w3.org/2000/svg">
<path d="M37.3333 28H11.2V24.5H37.3333V28ZM11.2 31.5H37.3333V33.0312C36.5361 33.6146 35.8361 34.2708 35.2333 35H11.2V31.5ZM11.2 38.5H33.25C32.8611 39.6484 32.6667 40.8151 32.6667 42H11.2V38.5ZM3.73333 52.5H29.4C29.0889 53.612 28.9333 54.7786 28.9333 56H0V0H32.5208L48.5333 15.0117V31.1719C47.3083 30.8073 46.0639 30.625 44.8 30.625V17.5H29.8667V3.5H3.73333V52.5ZM33.6 14H42.1458L33.6 5.98828V14ZM50.1667 46.8398C51.0611 47.2956 51.8681 47.8516 52.5875 48.5078C53.3069 49.1641 53.9194 49.8841 54.425 50.668C54.9306 51.4518 55.3194 52.2995 55.5917 53.2109C55.8639 54.1224 56 55.0521 56 56H52.2667C52.2667 55.0339 52.0722 54.1315 51.6833 53.293C51.2944 52.4544 50.7597 51.707 50.0792 51.0508C49.3986 50.3945 48.6111 49.8932 47.7167 49.5469C46.8222 49.2005 45.85 49.0182 44.8 49C43.7694 49 42.8069 49.1823 41.9125 49.5469C41.0181 49.9115 40.2208 50.4128 39.5208 51.0508C38.8208 51.6888 38.2861 52.4271 37.9167 53.2656C37.5472 54.1042 37.3528 55.0156 37.3333 56H33.6C33.6 55.0521 33.7361 54.1315 34.0083 53.2383C34.2806 52.3451 34.6694 51.4974 35.175 50.6953C35.6806 49.8932 36.2931 49.1641 37.0125 48.5078C37.7319 47.8516 38.5389 47.2956 39.4333 46.8398C38.7722 46.2018 38.2569 45.4635 37.8875 44.625C37.5181 43.7865 37.3333 42.9115 37.3333 42C37.3333 41.0339 37.5278 40.1315 37.9167 39.293C38.3056 38.4544 38.8403 37.707 39.5208 37.0508C40.2014 36.3945 40.9889 35.8932 41.8833 35.5469C42.7778 35.2005 43.75 35.0182 44.8 35C45.8306 35 46.7931 35.1823 47.6875 35.5469C48.5819 35.9115 49.3792 36.4128 50.0792 37.0508C50.7792 37.6888 51.3139 38.4271 51.6833 39.2656C52.0528 40.1042 52.2472 41.0156 52.2667 42C52.2667 42.9115 52.0819 43.7865 51.7125 44.625C51.3431 45.4635 50.8278 46.2018 50.1667 46.8398ZM44.8 45.5C45.325 45.5 45.8111 45.4089 46.2583 45.2266C46.7056 45.0443 47.0944 44.7982 47.425 44.4883C47.7556 44.1784 48.0278 43.8047 48.2417 43.3672C48.4556 42.9297 48.5528 42.474 48.5333 42C48.5333 41.5078 48.4361 41.0521 48.2417 40.6328C48.0472 40.2135 47.7847 39.849 47.4542 39.5391C47.1236 39.2292 46.725 38.974 46.2583 38.7734C45.7917 38.5729 45.3056 38.4818 44.8 38.5C44.275 38.5 43.7889 38.5911 43.3417 38.7734C42.8944 38.9557 42.5056 39.2018 42.175 39.5117C41.8444 39.8216 41.5722 40.1953 41.3583 40.6328C41.1444 41.0703 41.0472 41.526 41.0667 42C41.0667 42.4922 41.1639 42.9479 41.3583 43.3672C41.5528 43.7865 41.8153 44.151 42.1458 44.4609C42.4764 44.7708 42.875 45.026 43.3417 45.2266C43.8083 45.4271 44.2944 45.5182 44.8 45.5Z" fill="#111F33"/>
</svg>
