<svg width="50" height="46" viewBox="0 0 50 46" fill="none" xmlns="http://www.w3.org/2000/svg">
<path fill-rule="evenodd" clip-rule="evenodd" d="M23.7483 5.00026C26.2186 4.99954 28.6206 5.73064 30.5833 7.08071C32.5461 8.43078 33.9605 10.3247 34.6083 12.4703C34.8683 13.332 35.6608 13.9778 36.6358 14.1195C38.6699 14.4229 40.5502 15.2846 42.0193 16.5867C43.4884 17.8888 44.4744 19.5677 44.8425 21.3936C45.2106 23.2194 44.9427 25.1031 44.0756 26.7867C43.2084 28.4703 41.7844 29.8716 39.9983 30.7988C39.7046 30.9422 39.4458 31.1372 39.2372 31.3721C39.0287 31.6071 38.8746 31.8774 38.7841 32.1669C38.6935 32.4563 38.6684 32.7592 38.7102 33.0576C38.752 33.356 38.8598 33.6438 39.0272 33.9041C39.1947 34.1643 39.4185 34.3917 39.6853 34.5728C39.9521 34.7539 40.2565 34.885 40.5805 34.9584C40.9046 35.0318 41.2417 35.0459 41.572 35C41.9022 34.9542 42.2189 34.8492 42.5033 34.6913C45.0659 33.3586 47.1334 31.3736 48.4457 28.9861C49.758 26.5985 50.2564 23.915 49.8783 21.2731C49.5002 18.6312 48.2624 16.149 46.3207 14.1386C44.3789 12.1283 41.82 10.6797 38.9658 9.97501C37.6317 6.78369 35.1009 4.112 31.8107 2.42156C28.5205 0.731121 24.6775 0.128115 20.9458 0.716732C17.2141 1.30535 13.8281 3.04861 11.3728 5.64532C8.91741 8.24203 7.54699 11.5291 7.49828 14.9385C5.24083 15.8235 3.32408 17.2889 1.98856 19.1507C0.653047 21.0125 -0.0417478 23.1879 -0.00863485 25.4038C0.0244781 27.6196 0.784023 29.7774 2.17469 31.6062C3.56536 33.435 5.5252 34.8535 7.80828 35.6835C8.42188 35.9026 9.10683 35.8943 9.71369 35.6606C10.3206 35.4268 10.8001 34.9865 11.0476 34.4358C11.2952 33.8851 11.2906 33.2686 11.035 32.7208C10.7794 32.1731 10.2935 31.7385 9.68328 31.512C8.21637 30.9775 6.97482 30.0392 6.13619 28.8314C5.29757 27.6235 4.90481 26.2079 5.01409 24.787C5.12337 23.366 5.7291 22.0126 6.74465 20.9203C7.76019 19.8279 9.13354 19.0525 10.6683 18.705C11.261 18.5717 11.7799 18.2495 12.1289 17.7981C12.4778 17.3467 12.633 16.7968 12.5658 16.2503C11.8483 10.3553 17.1258 5.00026 23.7483 5.00026ZM24.9983 20.7503C25.6613 20.7503 26.2972 20.9873 26.766 21.4093C27.2349 21.8312 27.4983 22.4035 27.4983 23.0003V37.8143L30.7308 34.9073C31.2002 34.4854 31.8366 34.2486 32.5 34.249C33.1634 34.2494 33.7995 34.487 34.2683 34.9095C34.737 35.332 35.0001 35.9048 34.9997 36.5019C34.9992 37.0989 34.7352 37.6714 34.2658 38.0933L27.2058 44.436C26.5733 45.003 25.9558 45.5003 24.9983 45.5003C24.0383 45.5003 23.4233 45.0053 22.7908 44.436L15.7308 38.091C15.2617 37.6691 14.998 37.0968 14.9978 36.4999C14.9975 35.9031 15.2608 35.3306 15.7295 34.9084C16.1983 34.4862 16.8342 34.2489 17.4974 34.2487C18.1606 34.2485 18.7967 34.4854 19.2658 34.9073L22.4983 37.8143V23.0003C22.4983 22.4035 22.7617 21.8312 23.2305 21.4093C23.6993 20.9873 24.3352 20.7503 24.9983 20.7503Z" fill="#111F33"/>
</svg>
