<svg width="29" height="34" viewBox="0 0 29 34" fill="none" xmlns="http://www.w3.org/2000/svg">
<path d="M11.625 27.6875H28.25V30.0625H11.625V27.6875ZM3.51435 28.875L0.450596 31.9387L2.12497 33.625L6.87497 28.875L2.12497 24.125L0.438721 25.7994L3.51435 28.875ZM11.625 15.8125H28.25V18.1875H11.625V15.8125ZM3.51435 17L0.450596 20.0637L2.12497 21.75L6.87497 17L2.12497 12.25L0.438721 13.9244L3.51435 17ZM11.625 3.9375H28.25V6.3125H11.625V3.9375ZM3.51435 5.125L0.450596 8.18875L2.12497 9.875L6.87497 5.125L2.12497 0.375L0.438721 2.04938L3.51435 5.125Z" fill="#111F33"/>
</svg>
