<svg width="27" height="32" viewBox="0 0 27 32" fill="none" xmlns="http://www.w3.org/2000/svg">
<path fill-rule="evenodd" clip-rule="evenodd" d="M21.125 0.5625C20.3721 0.562248 19.6284 0.727199 18.9462 1.04572C18.264 1.36423 17.6601 1.82856 17.1769 2.40594C16.6937 2.98332 16.3432 3.65968 16.1499 4.38732C15.9566 5.11495 15.9254 5.87614 16.0583 6.61717L8.56916 11.8612L8.46149 11.9451C7.70171 11.3512 6.79031 10.9827 5.83123 10.8817C4.87215 10.7807 3.90399 10.9512 3.03715 11.3739C2.17031 11.7965 1.43969 12.4542 0.928586 13.272C0.417486 14.0899 0.146484 15.0348 0.146484 15.9992C0.146484 16.9636 0.417486 17.9086 0.928586 18.7264C1.43969 19.5442 2.17031 20.2019 3.03715 20.6246C3.90399 21.0472 4.87215 21.2177 5.83123 21.1168C6.79031 21.0158 7.70171 20.6473 8.46149 20.0533L8.56916 20.1388L16.0583 25.3828C16.0056 25.6784 15.9792 25.9813 15.9792 26.2917C15.9794 27.5116 16.413 28.6918 17.2026 29.6217C17.9923 30.5515 19.0866 31.1706 20.2903 31.3685C21.4941 31.5664 22.729 31.3302 23.7748 30.702C24.8205 30.0738 25.6091 29.0945 25.9998 27.9388C26.3905 26.7831 26.3579 25.5263 25.9078 24.3924C25.4578 23.2585 24.6195 22.3214 23.5426 21.7483C22.4657 21.1751 21.2202 21.0032 20.0283 21.2632C18.8364 21.5232 17.7756 22.1982 17.0352 23.1678L9.94349 18.2008C10.2602 17.5327 10.4375 16.7869 10.4375 15.9984C10.4375 15.2099 10.2602 14.4626 9.94349 13.796L17.0368 8.83067C17.568 9.52649 18.2679 10.0753 19.0703 10.4252C19.8727 10.7751 20.7511 10.9145 21.6224 10.8303C22.4937 10.746 23.3292 10.4409 24.0497 9.94372C24.7702 9.44656 25.3519 8.77381 25.7399 7.98911C26.1279 7.20441 26.3093 6.3337 26.2669 5.45934C26.2246 4.58498 25.9599 3.73588 25.4978 2.99236C25.0358 2.24884 24.3918 1.63547 23.6266 1.21028C22.8614 0.785093 22.0004 0.562136 21.125 0.5625ZM18.3542 5.70834C18.3542 4.97346 18.6461 4.26869 19.1657 3.74906C19.6854 3.22943 20.3901 2.9375 21.125 2.9375C21.8599 2.9375 22.5646 3.22943 23.0843 3.74906C23.6039 4.26869 23.8958 4.97346 23.8958 5.70834C23.8958 6.44321 23.6039 7.14798 23.0843 7.66761C22.5646 8.18724 21.8599 8.47917 21.125 8.47917C20.3901 8.47917 19.6854 8.18724 19.1657 7.66761C18.6461 7.14798 18.3542 6.44321 18.3542 5.70834ZM5.29166 13.2292C4.55679 13.2292 3.85202 13.5211 3.33239 14.0407C2.81275 14.5604 2.52083 15.2651 2.52083 16C2.52083 16.7349 2.81275 17.4396 3.33239 17.9593C3.85202 18.4789 4.55679 18.7708 5.29166 18.7708C6.02653 18.7708 6.7313 18.4789 7.25094 17.9593C7.77057 17.4396 8.06249 16.7349 8.06249 16C8.06249 15.2651 7.77057 14.5604 7.25094 14.0407C6.7313 13.5211 6.02653 13.2292 5.29166 13.2292ZM21.125 23.5208C20.3901 23.5208 19.6854 23.8128 19.1657 24.3324C18.6461 24.852 18.3542 25.5568 18.3542 26.2917C18.3542 27.0265 18.6461 27.7313 19.1657 28.2509C19.6854 28.7706 20.3901 29.0625 21.125 29.0625C21.8599 29.0625 22.5646 28.7706 23.0843 28.2509C23.6039 27.7313 23.8958 27.0265 23.8958 26.2917C23.8958 25.5568 23.6039 24.852 23.0843 24.3324C22.5646 23.8128 21.8599 23.5208 21.125 23.5208Z" fill="#111F33"/>
</svg>
